<?xml version="1.0" encoding="UTF-8" standalone="no"?>
<!DOCTYPE svg PUBLIC "-//W3C//DTD SVG 1.1//EN" "http://www.w3.org/Graphics/SVG/1.1/DTD/svg11.dtd">
<svg xmlns="http://www.w3.org/2000/svg" version="1.1" viewBox="0.00 0.00 512.00 512.00">
<g stroke-width="2.00" fill="none" stroke-linecap="butt">
<path stroke="#808080" vector-effect="non-scaling-stroke" d="
  M 199.29 336.32
  Q 203.27 337.58 206.97 339.82
  C 208.28 340.61 208.75 342.01 209.13 343.41
  Q 211.54 352.23 212.48 361.49
  Q 213.08 367.42 213.77 372.46
  C 214.37 376.78 214.45 381.15 214.42 385.53
  Q 214.40 387.68 215.46 389.93
  Q 216.84 392.86 218.20 395.72
  C 228.00 416.38 242.98 433.33 263.73 444.00
  Q 264.21 444.25 264.74 444.11
  Q 266.75 443.60 268.53 442.24
  Q 303.58 415.22 321.57 373.57
  Q 322.62 371.14 324.80 369.30
  Q 345.25 352.00 365.55 334.84
  A 1.23 1.22 53.2 0 0 365.78 333.23
  Q 353.18 314.13 341.33 295.96
  C 340.38 294.49 339.52 293.46 339.72 291.58
  Q 340.85 280.83 340.98 269.63
  C 341.09 258.89 342.59 248.42 342.57 237.56
  Q 342.55 228.34 343.57 218.06
  C 344.05 213.19 348.99 211.18 348.93 206.01
  Q 348.84 197.57 349.05 189.26
  C 349.24 181.71 348.44 172.22 343.16 166.84
  Q 342.58 166.24 342.61 165.41
  C 342.91 155.43 341.40 145.28 336.39 137.07
  A 2.10 2.10 0.0 0 1 336.17 135.35
  Q 337.59 130.75 337.37 126.42
  C 336.80 114.89 335.80 102.07 323.68 96.80
  C 321.69 95.94 319.67 95.13 318.35 93.28
  C 312.65 85.28 306.13 80.93 296.75 78.09
  C 289.74 75.97 283.20 72.74 275.85 70.99
  Q 266.71 68.81 260.28 68.28
  Q 252.85 67.68 239.83 67.97
  C 233.68 68.11 228.17 69.50 222.30 69.81
  Q 221.63 69.84 221.16 70.32
  L 218.06 73.51
  A 1.92 1.91 -52.6 0 1 215.72 73.83
  Q 211.81 71.51 206.56 73.12
  Q 185.21 79.65 169.13 97.46
  Q 167.71 99.03 166.74 100.71
  C 165.44 102.95 167.04 105.32 165.32 107.21
  Q 157.72 115.51 153.81 124.94
  Q 153.65 125.32 153.92 125.65
  Q 159.71 132.75 159.40 140.64
  Q 159.12 147.89 156.13 159.03
  C 155.29 162.16 153.09 163.94 151.24 166.39
  Q 145.87 173.46 146.11 180.81
  C 146.32 187.30 152.27 191.02 152.50 197.85
  Q 152.61 201.23 151.20 204.88
  C 148.92 210.75 148.28 220.13 150.78 226.56
  C 153.09 232.49 155.25 237.34 158.05 244.34
  C 159.52 248.02 159.85 251.45 160.07 255.32
  Q 160.29 259.17 161.07 263.30
  Q 163.54 276.43 167.47 287.12
  Q 167.67 287.65 167.52 288.21
  Q 166.66 291.49 166.01 294.98
  Q 164.04 305.65 161.92 315.74
  C 161.05 319.88 160.95 323.97 163.65 327.31
  Q 171.16 336.58 177.60 342.60
  Q 179.73 344.59 182.37 346.05
  Q 182.78 346.28 183.24 346.19
  Q 191.99 344.63 200.65 344.55
  A 0.71 0.71 0.0 0 0 201.25 343.46
  Q 199.33 340.36 198.72 336.82
  Q 198.60 336.10 199.29 336.32"
/>
<path stroke="#7e6500" vector-effect="non-scaling-stroke" d="
  M 213.28 100.26
  Q 230.02 91.88 249.70 94.29
  Q 250.17 94.35 250.29 93.89
  C 252.53 84.89 261.63 79.18 269.74 75.43
  Q 271.20 74.75 269.61 74.52
  Q 250.34 71.74 232.86 73.83
  C 216.60 75.76 202.46 83.27 206.59 102.96
  Q 206.73 103.65 207.35 103.32
  Q 210.23 101.79 213.28 100.26"
/>
<path stroke="#7e6500" vector-effect="non-scaling-stroke" d="
  M 289.98 101.85
  Q 291.99 101.98 290.20 102.91
  Q 284.76 105.72 280.76 111.91
  A 0.37 0.37 0.0 0 0 280.94 112.46
  Q 287.29 114.71 292.15 118.46
  Q 292.60 118.81 293.17 118.83
  C 305.89 119.24 318.85 123.82 330.65 129.45
  A 0.33 0.33 0.0 0 0 331.12 129.20
  C 333.30 114.54 329.08 100.82 313.27 97.01
  C 312.56 96.84 311.64 96.35 311.25 95.72
  C 307.02 88.75 301.53 82.93 293.45 81.11
  Q 287.17 79.70 280.26 79.68
  Q 279.42 79.68 279.32 78.84
  Q 279.30 78.66 279.15 78.55
  Q 278.53 78.10 277.78 78.33
  C 269.73 80.81 260.09 85.59 255.72 92.93
  Q 251.53 99.97 256.39 106.06
  Q 256.72 106.47 257.23 106.30
  Q 273.28 100.77 289.98 101.85"
/>
<path stroke="#7e6500" vector-effect="non-scaling-stroke" d="
  M 202.73 102.81
  C 199.67 94.68 200.89 87.70 205.04 80.38
  Q 205.67 79.27 204.42 79.48
  C 190.70 81.80 179.65 92.02 172.20 103.52
  Q 171.29 104.93 172.90 104.45
  Q 184.75 100.92 195.83 101.58
  Q 199.14 101.78 202.28 103.23
  Q 203.01 103.56 202.73 102.81"
/>
<path stroke="#808080" vector-effect="non-scaling-stroke" d="
  M 239.17 101.49
  Q 222.29 102.29 206.59 112.39
  A 0.71 0.70 62.1 0 1 205.56 112.07
  C 203.32 106.85 195.90 105.92 191.47 107.18"
/>
<path stroke="#404040" vector-effect="non-scaling-stroke" d="
  M 191.47 107.18
  Q 179.19 107.42 171.34 117.11
  C 166.87 122.63 163.80 128.95 162.62 136.10
  Q 160.88 146.66 158.80 156.53
  Q 158.46 158.14 159.47 156.85
  Q 161.58 154.14 165.36 153.57"
/>
<path stroke="#808080" vector-effect="non-scaling-stroke" d="
  M 165.36 153.57
  L 160.22 161.73
  A 0.37 0.37 0.0 0 0 160.70 162.26
  Q 166.59 159.21 172.71 158.19
  A 1.86 1.85 -18.4 0 1 174.66 159.16
  Q 178.82 167.13 185.52 172.43"
/>
<path stroke="#404040" vector-effect="non-scaling-stroke" d="
  M 185.52 172.43
  Q 182.21 174.48 180.22 179.01
  A 0.54 0.54 0.0 0 0 180.84 179.75
  Q 184.19 178.94 187.61 179.37
  A 0.65 0.64 88.1 0 1 188.16 179.89
  L 188.22 180.24
  Q 188.27 180.54 187.97 180.56
  Q 185.35 180.68 183.76 182.85"
/>
<path stroke="#808080" vector-effect="non-scaling-stroke" d="
  M 183.76 182.85
  Q 180.39 184.48 177.96 189.70
  Q 174.55 197.03 168.82 211.51
  Q 167.38 215.15 167.97 218.33"
/>
<path stroke="#404040" vector-effect="non-scaling-stroke" d="
  M 167.97 218.33
  Q 167.59 221.88 170.20 224.32
  Q 171.97 225.98 175.01 226.64
  Q 178.13 227.32 180.50 226.72
  Q 187.54 224.95 191.54 226.41"
/>
<path stroke="#808080" vector-effect="non-scaling-stroke" d="
  M 191.54 226.41
  L 180.07 229.80
  Q 179.47 229.98 179.63 230.58
  Q 179.85 231.49 180.75 231.72
  Q 187.35 233.45 193.58 229.92
  Q 198.69 227.02 202.62 223.43
  Q 206.18 220.19 201.67 221.87
  Q 199.80 222.57 197.07 223.19"
/>
<path stroke="#404040" vector-effect="non-scaling-stroke" d="
  M 197.07 223.19
  Q 194.81 222.95 189.75 223.53
  Q 187.57 223.78 185.60 221.73"
/>
<path stroke="#808080" vector-effect="non-scaling-stroke" d="
  M 185.60 221.73
  Q 192.34 219.73 194.99 219.62
  Q 200.94 219.37 206.64 219.06
  Q 209.17 218.92 210.60 217.85
  A 2.93 2.92 57.3 0 0 211.41 214.10
  Q 208.30 208.40 200.74 208.20"
/>
<path stroke="#404040" vector-effect="non-scaling-stroke" d="
  M 200.74 208.20
  Q 203.19 206.63 205.52 205.75
  C 209.52 204.26 212.77 205.84 215.91 208.57
  Q 219.32 211.54 219.32 215.45"
/>
<path stroke="#808080" vector-effect="non-scaling-stroke" d="
  M 219.32 215.45
  Q 218.94 218.98 217.47 221.10
  A 0.31 0.31 0.0 0 0 217.74 221.59
  L 224.50 221.28"
/>
<path stroke="#404040" vector-effect="non-scaling-stroke" d="
  M 224.50 221.28
  C 227.49 222.14 230.74 222.90 233.38 224.24
  Q 237.37 226.26 241.20 229.82
  Q 243.47 231.93 242.68 228.93
  C 242.04 226.54 241.46 224.30 240.08 222.17
  Q 235.27 214.71 227.39 208.99"
/>
<path stroke="#808080" vector-effect="non-scaling-stroke" d="
  M 227.39 208.99
  Q 238.13 212.68 245.73 220.26
  Q 250.66 225.19 251.20 231.21
  Q 251.87 238.65 248.32 247.87
  C 247.21 250.74 245.37 253.35 243.67 255.88
  Q 243.37 256.33 243.83 256.04
  Q 249.05 252.80 252.33 247.81"
/>
<path stroke="#404040" vector-effect="non-scaling-stroke" d="
  M 252.33 247.81
  Q 259.41 240.61 259.35 229.72
  Q 259.28 219.70 251.21 214.41
  Q 250.96 214.24 251.00 213.94
  Q 251.05 213.54 251.77 213.52
  A 0.94 0.77 -32.1 0 1 252.00 213.55
  Q 264.46 217.26 277.11 220.69
  A 1.54 1.53 -63.9 0 0 278.75 220.12
  Q 280.21 218.12 281.85 216.57
  Q 282.59 215.87 282.51 216.89
  Q 282.05 222.71 281.14 227.40
  Q 280.56 230.41 282.25 227.85
  Q 289.10 217.51 295.55 205.70"
/>
<path stroke="#808080" vector-effect="non-scaling-stroke" d="
  M 295.55 205.70
  L 303.00 194.88"
/>
<path stroke="#404040" vector-effect="non-scaling-stroke" d="
  M 303.00 194.88
  Q 303.50 194.87 303.87 195.29"
/>
<path stroke="#808080" vector-effect="non-scaling-stroke" d="
  M 303.87 195.29
  Q 303.65 195.79 303.90 196.12
  Q 315.65 212.16 321.53 231.51
  Q 321.96 232.92 323.41 232.62
  C 328.07 231.64 331.95 227.18 334.05 223.25
  Q 338.16 215.57 342.65 207.08
  C 347.35 198.18 346.49 187.10 344.15 177.65
  C 343.18 173.73 340.50 166.77 335.51 166.73
  C 326.43 166.66 318.34 172.73 312.95 179.80"
/>
<path stroke="#404040" vector-effect="non-scaling-stroke" d="
  M 312.95 179.80
  L 314.29 173.53
  A 2.08 2.06 25.2 0 0 313.54 171.47
  Q 307.93 167.07 300.68 166.38
  A 0.37 0.36 86.5 0 0 300.29 166.83
  Q 302.41 176.69 298.90 186.22
  A 0.29 0.29 0.0 0 1 298.46 186.36
  Q 298.15 186.14 298.18 185.77
  Q 298.94 175.70 294.76 166.12
  C 294.18 164.78 293.32 163.70 291.71 163.77
  A 2.57 2.57 0.0 0 1 289.31 162.37
  Q 280.02 144.18 263.51 132.59
  A 0.61 0.61 0.0 0 1 263.52 131.58
  C 270.21 127.23 277.62 125.43 285.53 125.05
  A 0.46 0.46 0.0 0 0 285.82 124.25
  Q 281.78 120.47 276.93 117.95"
/>
<path stroke="#808080" vector-effect="non-scaling-stroke" d="
  M 276.93 117.95
  L 273.95 116.19
  A 1.24 1.24 0.0 0 1 273.41 114.71
  Q 274.52 111.64 276.33 108.66
  A 0.65 0.65 0.0 0 0 275.96 107.70
  Q 274.95 107.41 273.37 107.77"
/>
<path stroke="#404040" vector-effect="non-scaling-stroke" d="
  M 273.37 107.77
  Q 263.91 106.62 255.97 111.40
  A 2.14 2.13 -37.0 0 1 253.30 111.03
  C 250.73 108.29 250.11 105.83 249.42 102.34
  Q 249.31 101.79 248.77 101.62
  Q 244.63 100.36 239.17 101.49"
/>
<path stroke="#c0c0c0" vector-effect="non-scaling-stroke" d="
  M 273.37 107.77
  L 261.37 126.79
  Q 260.20 128.65 262.05 127.47
  L 276.93 117.95"
/>
<path stroke="#c0c0c0" vector-effect="non-scaling-stroke" d="
  M 312.95 179.80
  Q 309.18 187.92 303.87 195.29"
/>
<path stroke="#c0c0c0" vector-effect="non-scaling-stroke" d="
  M 303.00 194.88
  L 303.02 190.31
  Q 303.04 187.06 301.39 189.86
  Q 295.48 199.87 288.15 209.52
  A 0.42 0.41 -50.5 0 0 288.20 210.07
  L 288.40 210.24
  Q 288.49 210.33 288.57 210.24
  Q 291.60 207.27 295.55 205.70"
/>
<path stroke="#c0c0c0" vector-effect="non-scaling-stroke" d="
  M 252.33 247.81
  Q 252.92 244.51 253.57 241.27
  Q 254.43 236.97 254.51 234.68
  C 254.97 221.21 247.12 211.86 236.24 205.05
  Q 236.10 204.96 236.15 204.80
  L 236.24 204.46
  Q 236.41 203.87 236.96 204.15
  Q 252.55 212.04 269.28 208.44
  C 280.48 206.04 287.69 195.04 292.09 184.97
  C 292.86 183.20 292.56 181.09 292.05 179.27
  C 286.01 157.70 270.41 143.82 248.67 139.22
  A 0.88 0.88 0.0 0 1 248.07 137.96
  Q 253.24 127.90 253.01 116.85
  C 252.97 114.86 252.09 112.68 250.83 111.19
  Q 246.50 106.08 239.17 101.49"
/>
<path stroke="#c0c0c0" vector-effect="non-scaling-stroke" d="
  M 227.39 208.99
  Q 218.58 203.82 207.73 201.32
  Q 207.18 201.19 206.69 201.45
  Q 201.32 204.29 196.25 207.53
  Q 195.18 208.22 196.45 208.21
  L 200.74 208.20"
/>
<path stroke="#c0c0c0" vector-effect="non-scaling-stroke" d="
  M 185.60 221.73
  Q 186.03 224.10 183.76 224.22
  Q 177.73 224.56 172.84 220.97
  A 1.50 1.49 50.3 0 1 173.07 218.42
  Q 176.86 216.59 180.48 216.68
  Q 182.98 216.75 181.16 215.03
  L 179.54 213.49
  A 0.69 0.68 -59.3 0 1 179.36 212.77
  Q 183.70 199.40 190.17 188.38
  Q 190.67 187.52 191.36 186.80
  Q 191.72 186.43 192.22 186.31
  Q 195.99 185.34 199.70 183.64
  A 0.47 0.47 0.0 0 0 199.69 182.78
  C 196.51 181.35 195.68 178.23 198.98 176.23"
/>
<path stroke="#808080" vector-effect="non-scaling-stroke" d="
  M 198.98 176.23
  C 202.09 176.79 207.53 177.54 208.86 180.02
  Q 209.09 180.46 209.00 180.96
  Q 208.38 184.50 206.75 187.66
  A 0.49 0.49 0.0 0 0 207.12 188.37
  Q 209.74 188.73 210.08 189.63"
/>
<path stroke="#c0c0c0" vector-effect="non-scaling-stroke" d="
  M 210.08 189.63
  Q 221.53 206.44 237.57 199.25
  Q 241.09 197.67 243.96 195.05
  C 247.40 191.92 251.48 188.21 255.88 186.47
  C 262.83 183.74 268.18 180.18 274.20 176.39
  Q 275.01 175.88 276.26 175.69
  Q 276.98 175.59 276.74 174.90
  Q 271.97 160.99 259.78 155.54"
/>
<path stroke="#808080" vector-effect="non-scaling-stroke" d="
  M 259.78 155.54
  Q 255.80 152.66 251.88 148.90
  Q 247.81 145.00 242.35 143.15
  Q 238.12 141.72 231.44 142.72
  C 222.48 144.07 214.28 146.43 205.70 149.04
  A 1.36 1.35 81.8 0 0 204.75 150.32
  L 204.73 153.67
  A 0.45 0.45 0.0 0 1 204.06 154.06
  L 199.45 151.55
  Q 198.91 151.25 198.32 151.47
  L 190.00 154.56
  Q 189.32 154.82 189.56 155.50
  C 192.12 163.03 197.86 169.49 206.32 168.62
  Q 207.40 168.51 206.84 169.44
  L 206.47 170.06
  A 2.17 2.17 0.0 0 1 204.39 171.10
  Q 198.32 170.47 193.39 166.89
  Q 188.92 163.64 185.70 159.87
  Q 184.92 158.95 185.19 160.13
  Q 186.61 166.20 190.89 171.31"
/>
<path stroke="#c0c0c0" vector-effect="non-scaling-stroke" d="
  M 190.89 171.31
  L 185.52 172.43"
/>
<path stroke="#c0c0c0" vector-effect="non-scaling-stroke" d="
  M 165.36 153.57
  Q 165.95 151.97 165.99 150.75
  C 166.18 145.94 165.84 140.29 167.62 135.89
  Q 172.71 123.36 183.36 114.12
  Q 187.32 110.69 191.47 107.18"
/>
<path stroke="#404040" vector-effect="non-scaling-stroke" d="
  M 259.78 155.54
  L 261.14 161.72
  A 0.76 0.76 0.0 0 1 260.01 162.53
  Q 248.60 155.84 235.72 157.85
  Q 227.38 159.16 215.39 164.77
  A 2.16 2.12 7.4 0 0 214.70 165.29
  Q 213.65 166.47 214.08 167.53
  A 0.60 0.60 0.0 0 0 214.99 167.79
  Q 222.93 161.97 233.42 164.26
  Q 236.50 164.93 238.99 165.61"
/>
<path stroke="#808080" vector-effect="non-scaling-stroke" d="
  M 238.99 165.61
  Q 246.31 168.82 250.69 172.07
  Q 252.18 173.18 257.16 177.60"
/>
<path stroke="#404040" vector-effect="non-scaling-stroke" d="
  M 257.16 177.60
  Q 258.19 178.79 258.62 179.84
  Q 259.08 180.97 257.97 180.46
  L 253.48 178.38"
/>
<path stroke="#808080" vector-effect="non-scaling-stroke" d="
  M 253.48 178.38
  Q 248.39 174.88 242.47 176.41
  Q 233.33 178.76 220.59 184.05"
/>
<path stroke="#404040" vector-effect="non-scaling-stroke" d="
  M 220.59 184.05
  L 217.61 185.03"
/>
<path stroke="#808080" vector-effect="non-scaling-stroke" d="
  M 217.61 185.03
  L 216.53 185.14
  A 1.36 1.36 0.0 0 0 215.95 187.65
  L 224.26 192.76"
/>
<path stroke="#404040" vector-effect="non-scaling-stroke" d="
  M 224.26 192.76
  Q 217.79 192.97 210.08 189.63"
/>
<path stroke="#404040" vector-effect="non-scaling-stroke" d="
  M 198.98 176.23
  L 190.89 171.31"
/>
<path stroke="#c0c0c0" vector-effect="non-scaling-stroke" d="
  M 224.26 192.76
  Q 228.85 194.32 233.24 193.12
  Q 235.44 192.52 233.19 192.15
  Q 224.91 190.82 217.61 185.03"
/>
<path stroke="#c0c0c0" vector-effect="non-scaling-stroke" d="
  M 220.59 184.05
  L 223.20 184.06
  Q 223.69 184.06 224.15 184.23
  Q 232.28 187.13 240.21 184.71
  Q 242.12 184.13 246.80 181.53
  Q 250.11 179.69 253.48 178.38"
/>
<path stroke="#c0c0c0" vector-effect="non-scaling-stroke" d="
  M 257.16 177.60
  Q 259.18 177.33 260.18 176.20
  Q 260.53 175.82 260.23 175.40
  Q 256.08 169.53 248.84 166.93
  Q 243.60 165.05 238.99 165.61"
/>
<path stroke="#c0c0c0" vector-effect="non-scaling-stroke" d="
  M 197.07 223.19
  Q 193.57 225.83 191.54 226.41"
/>
<path stroke="#c0c0c0" vector-effect="non-scaling-stroke" d="
  M 167.97 218.33
  Q 176.47 201.51 184.54 185.02
  Q 185.30 183.48 183.76 182.85"
/>
<path stroke="#c0c0c0" vector-effect="non-scaling-stroke" d="
  M 224.50 221.28
  L 219.32 215.45"
/>
<path stroke="#7e6500" vector-effect="non-scaling-stroke" d="
  M 166.14 109.96
  C 162.56 113.00 158.32 118.37 157.04 123.09
  Q 156.81 123.90 157.09 124.55
  Q 158.20 127.22 160.38 130.91
  Q 160.93 131.85 161.07 130.76
  C 162.31 121.30 167.26 115.70 174.25 109.37
  Q 175.06 108.64 173.97 108.76
  L 167.05 109.56
  A 1.75 1.68 -67.6 0 0 166.14 109.96"
/>
<path stroke="#7e6500" vector-effect="non-scaling-stroke" d="
  M 336.17 158.14
  C 337.91 141.34 327.60 129.23 310.49 128.78
  Q 291.45 128.27 275.09 133.29
  Q 273.08 133.91 274.89 134.97
  C 284.32 140.52 292.72 148.11 295.85 158.72
  A 0.96 0.96 0.0 0 0 296.76 159.41
  Q 303.68 159.49 310.47 163.12
  Q 310.95 163.37 311.47 163.18
  Q 322.60 159.01 334.65 159.46
  A 1.47 1.47 0.0 0 0 336.17 158.14"
/>
<path stroke="#7e6500" vector-effect="non-scaling-stroke" d="
  M 178.35 173.17
  C 176.74 169.58 175.62 167.09 172.36 164.21
  A 0.89 0.88 -37.2 0 0 171.36 164.08
  Q 169.33 165.10 167.00 165.22
  C 162.28 165.45 157.35 167.13 154.08 170.50
  Q 152.75 171.86 154.64 171.67
  C 155.96 171.53 157.25 171.20 158.59 171.09
  Q 168.34 170.26 177.73 173.82
  A 0.49 0.49 0.0 0 0 178.35 173.17"
/>
<path stroke="#808080" vector-effect="non-scaling-stroke" d="
  M 152.22 180.75
  Q 150.43 181.34 150.79 182.50
  Q 151.29 184.14 152.92 185.61
  Q 155.84 188.24 159.96 185.40"
/>
<path stroke="#404040" vector-effect="non-scaling-stroke" d="
  M 159.96 185.40
  L 168.86 180.98
  A 1.17 1.17 0.0 0 0 168.95 178.93
  Q 166.90 177.68 164.75 177.58
  Q 157.74 177.27 152.22 180.75"
/>
<path stroke="#c0c0c0" vector-effect="non-scaling-stroke" d="
  M 159.96 185.40
  Q 155.05 183.96 152.22 180.75"
/>
<path stroke="#800005" vector-effect="non-scaling-stroke" d="
  M 166.99 185.38
  Q 159.93 185.39 157.08 192.10
  A 1.88 1.88 0.0 0 0 158.24 194.63
  Q 161.22 195.58 164.34 194.25
  Q 166.60 193.29 169.13 192.15"
/>
<path stroke="#404040" vector-effect="non-scaling-stroke" d="
  M 169.13 192.15
  Q 166.46 197.36 160.58 198.23
  A 1.15 1.14 64.4 0 0 159.91 200.14
  Q 162.29 202.70 164.84 204.69
  A 1.14 1.11 37.3 0 1 165.07 206.23
  Q 165.01 206.32 164.61 206.36"
/>
<path stroke="#808080" vector-effect="non-scaling-stroke" d="
  M 164.61 206.36
  L 158.30 203.11
  A 0.61 0.60 31.0 0 0 157.53 203.30
  C 153.34 209.28 153.12 219.38 154.32 226.23
  Q 155.74 234.36 159.50 241.87"
/>
<path stroke="#404040" vector-effect="non-scaling-stroke" d="
  M 159.50 241.87
  Q 161.06 247.94 163.44 253.14
  Q 164.57 255.62 164.99 252.93
  Q 166.53 243.13 171.56 233.18
  Q 171.80 232.70 171.32 232.47
  Q 164.64 229.32 164.05 222.02
  C 163.86 219.61 164.61 215.61 165.53 213.36
  C 169.11 204.62 172.68 196.20 175.15 187.37
  Q 175.49 186.18 175.08 185.22
  C 173.76 182.06 169.08 183.52 166.99 185.38"
/>
<path stroke="#c0c0c0" vector-effect="non-scaling-stroke" d="
  M 159.50 241.87
  Q 160.45 241.48 160.58 239.82
  Q 160.66 238.75 160.30 237.61
  C 158.12 230.63 158.51 223.92 161.47 217.35
  C 163.01 213.95 165.35 210.34 164.61 206.36"
/>
<path stroke="#c04045" vector-effect="non-scaling-stroke" d="
  M 169.13 192.15
  L 170.91 189.78
  A 1.29 1.28 30.2 0 0 170.39 187.83
  Q 168.14 186.85 166.99 185.38"
/>
<path stroke="#7e6500" vector-effect="non-scaling-stroke" d="
  M 295.89 259.67
  Q 294.77 262.09 295.27 259.47
  C 297.89 245.63 298.38 230.79 298.24 216.63
  C 298.23 215.65 298.63 214.21 298.60 213.50
  Q 298.45 210.14 297.25 213.28
  Q 295.03 219.05 292.84 224.64
  Q 291.56 227.91 291.02 232.63
  C 287.99 258.95 279.23 283.78 265.78 307.10
  Q 265.13 308.24 266.21 307.50
  C 277.45 299.83 288.37 291.14 299.01 282.51
  Q 306.07 276.78 312.46 270.93
  Q 314.83 268.76 314.96 267.19
  Q 315.22 264.02 314.99 261.10
  Q 314.80 258.56 316.32 260.59
  Q 317.22 261.79 318.30 262.71
  Q 318.99 263.30 318.91 262.40
  Q 318.42 256.52 317.98 251.02
  Q 316.04 226.41 304.99 205.71
  Q 303.42 202.78 303.59 206.10
  Q 304.81 230.67 297.73 254.76
  Q 296.97 257.33 295.89 259.67"
/>
<path stroke="#7e6500" vector-effect="non-scaling-stroke" d="
  M 276.64 245.30
  Q 275.93 231.99 264.89 222.59
  Q 263.60 221.49 263.79 223.17
  Q 267.84 260.06 243.98 289.74
  Q 242.29 291.84 242.42 289.15
  C 242.92 278.21 244.74 267.56 249.73 257.67
  Q 250.04 257.07 249.36 257.05
  Q 249.15 257.05 249.00 257.18
  C 233.39 269.82 219.63 287.83 213.57 307.02
  C 209.11 321.13 219.50 328.64 231.51 331.05
  Q 233.79 331.51 232.04 329.98
  C 228.02 326.47 224.17 322.09 222.58 316.96
  Q 221.96 314.98 223.53 316.34
  Q 231.40 323.20 242.53 326.38
  Q 243.16 326.56 243.67 326.14
  Q 246.23 324.04 248.71 321.15
  C 265.23 301.96 275.94 276.81 281.79 251.92
  Q 283.55 244.43 285.03 237.60
  Q 285.80 234.04 283.89 237.14
  L 278.55 245.79
  Q 276.81 248.61 276.64 245.30"
/>
<path stroke="#7e6500" vector-effect="non-scaling-stroke" d="
  M 196.68 236.10
  C 211.29 230.44 227.68 229.65 239.98 240.58
  Q 241.70 242.11 240.97 239.92
  C 238.09 231.32 232.76 225.51 223.20 225.11
  C 213.30 224.70 202.30 227.46 195.53 234.34
  Q 192.01 237.91 196.68 236.10"
/>
<path stroke="#7e6500" vector-effect="non-scaling-stroke" d="
  M 338.54 226.44
  L 333.43 233.89
  A 2.49 2.44 58.5 0 0 333.03 235.64
  Q 334.43 245.17 336.41 253.70
  Q 337.48 258.30 337.53 253.58
  Q 337.64 243.11 339.21 230.81
  Q 339.47 228.77 339.48 226.73
  Q 339.49 225.04 338.54 226.44"
/>
<path stroke="#7e6500" vector-effect="non-scaling-stroke" d="
  M 171.45 248.60
  C 174.77 242.64 179.98 239.24 186.60 238.55
  Q 192.70 237.91 187.06 235.52
  Q 184.11 234.27 179.73 234.61
  C 172.85 235.15 169.68 241.94 170.06 248.28
  Q 170.21 250.83 171.45 248.60"
/>
<path stroke="#808080" vector-effect="non-scaling-stroke" d="
  M 280.72 305.64
  Q 283.30 314.30 283.17 326.00
  Q 282.94 346.61 282.37 367.21
  Q 282.21 373.08 281.51 382.28
  Q 280.94 389.78 280.63 397.36"
/>
<path stroke="#404040" vector-effect="non-scaling-stroke" d="
  M 280.63 397.36
  L 283.17 413.04
  A 0.61 0.61 0.0 0 0 284.18 413.40
  Q 306.92 393.43 319.74 367.59
  C 320.19 366.70 320.66 364.71 320.80 363.79
  Q 323.21 348.50 326.51 332.97"
/>
<path stroke="#808080" vector-effect="non-scaling-stroke" d="
  M 326.51 332.97
  L 327.76 357.13
  Q 327.80 357.87 328.43 357.48
  Q 336.03 352.78 342.75 347.28
  C 347.79 343.15 350.43 337.55 353.32 332.03
  Q 353.63 331.43 353.30 330.85
  L 340.66 308.80"
/>
<path stroke="#404040" vector-effect="non-scaling-stroke" d="
  M 340.66 308.80
  L 334.84 298.49
  A 8.41 8.32 28.6 0 1 333.78 294.96
  L 329.71 235.50
  Q 329.64 234.51 329.03 235.29
  L 325.12 240.32
  A 2.51 2.50 -33.0 0 0 324.66 242.46
  Q 327.15 252.66 328.73 263.62
  C 329.02 265.70 328.74 266.45 327.23 267.72
  Q 300.96 289.96 280.72 305.64"
/>
<path stroke="#c0c0c0" vector-effect="non-scaling-stroke" d="
  M 340.66 308.80
  Q 338.85 310.36 337.13 311.70
  Q 334.90 313.44 333.77 314.75
  Q 327.05 322.60 326.51 332.97"
/>
<path stroke="#c0c0c0" vector-effect="non-scaling-stroke" d="
  M 280.63 397.36
  Q 284.88 384.00 286.02 379.26
  Q 289.05 366.68 291.72 359.50
  Q 295.95 348.10 295.39 332.52
  C 295.07 323.70 291.55 315.38 285.01 309.45
  Q 283.03 307.65 280.72 305.64"
/>
<path stroke="#404040" vector-effect="non-scaling-stroke" d="
  M 209.29 238.55
  C 215.29 237.77 221.48 239.06 227.28 240.47
  Q 228.31 240.72 227.50 240.03
  C 224.95 237.84 220.20 236.66 216.99 236.09
  Q 213.31 235.43 208.39 236.30
  Q 197.62 238.21 188.01 241.83
  C 181.62 244.24 177.38 246.05 175.52 253.21
  Q 175.48 253.34 175.51 253.46
  Q 175.61 253.87 176.18 253.78
  A 0.58 0.57 -78.7 0 0 176.59 253.50
  Q 180.03 247.87 188.23 244.51
  Q 199.74 239.80 209.29 238.55"
/>
<path stroke="#808080" vector-effect="non-scaling-stroke" d="
  M 227.09 244.81
  C 212.83 241.72 196.56 242.51 184.40 251.43
  A 0.84 0.84 0.0 0 0 184.23 252.62
  Q 186.20 255.21 186.45 258.03
  C 186.61 259.79 188.08 260.81 189.78 260.54
  Q 204.62 258.13 218.33 252.34
  C 221.70 250.92 225.23 248.62 227.37 245.53
  Q 227.77 244.95 227.09 244.81"
/>
<path stroke="#404040" vector-effect="non-scaling-stroke" d="
  M 232.90 251.67
  Q 231.44 251.81 230.00 252.63
  Q 229.41 252.97 229.44 252.29
  Q 229.51 250.33 230.80 248.66
  A 0.32 0.32 0.0 0 0 230.71 248.19
  L 230.45 248.03
  Q 230.35 247.97 230.27 248.05
  Q 226.50 252.09 222.14 254.27
  Q 220.70 254.99 219.60 256.16
  C 218.36 257.49 216.63 257.11 214.93 257.51
  Q 200.26 260.95 183.81 264.70
  Q 183.03 264.88 183.23 264.11
  Q 183.38 263.51 183.30 262.92
  Q 183.21 262.31 182.64 262.05
  Q 178.73 260.30 175.88 257.47
  A 0.32 0.32 0.0 0 0 175.33 257.71
  L 175.50 262.46"
/>
<path stroke="#808080" vector-effect="non-scaling-stroke" d="
  M 175.50 262.46
  L 176.80 276.73
  Q 176.90 277.79 177.78 277.19
  Q 181.64 274.55 186.12 273.48
  A 0.49 0.49 0.0 0 0 186.31 272.62
  L 180.97 268.43"
/>
<path stroke="#404040" vector-effect="non-scaling-stroke" d="
  M 180.97 268.43
  Q 182.46 268.74 184.55 269.67
  Q 186.92 270.71 188.89 270.01"
/>
<path stroke="#808080" vector-effect="non-scaling-stroke" d="
  M 188.89 270.01
  Q 195.18 273.47 201.49 272.22
  C 214.61 269.63 235.67 261.41 240.23 246.66
  Q 240.71 245.13 239.34 245.97
  Q 235.61 248.24 232.90 251.67"
/>
<path stroke="#c0c0c0" vector-effect="non-scaling-stroke" d="
  M 188.89 270.01
  Q 196.37 269.35 205.24 266.72
  Q 214.93 263.84 221.94 260.44
  Q 228.62 257.19 232.90 251.67"
/>
<path stroke="#c0c0c0" vector-effect="non-scaling-stroke" d="
  M 180.97 268.43
  L 175.50 262.46"
/>
<path stroke="#7e6500" vector-effect="non-scaling-stroke" d="
  M 170.09 278.64
  A 0.81 0.81 0.0 0 0 170.14 278.93
  L 171.42 282.17
  A 0.81 0.81 0.0 0 0 172.99 281.86
  L 172.69 264.25
  A 0.81 0.81 0.0 0 0 172.60 263.89
  L 171.39 261.52
  A 0.81 0.81 0.0 0 0 169.86 261.91
  L 170.09 278.64"
/>
<path stroke="#7e6500" vector-effect="non-scaling-stroke" d="
  M 209.32 306.72
  C 212.32 294.26 218.98 282.55 226.81 272.18
  Q 227.54 271.21 226.42 271.65
  Q 211.97 277.34 198.02 279.92
  Q 197.57 280.00 197.46 280.44
  C 192.33 300.18 195.87 322.56 216.33 331.63
  Q 217.11 331.98 217.24 331.13
  C 217.40 330.07 217.09 329.04 216.36 328.25
  C 210.50 321.99 207.17 315.61 209.32 306.72"
/>
<path stroke="#7e6500" vector-effect="non-scaling-stroke" d="
  M 180.86 291.64
  Q 181.49 287.19 182.83 282.87
  Q 184.00 279.09 181.44 282.10
  C 173.38 291.59 168.71 303.47 166.67 315.75
  C 165.81 320.85 165.03 324.25 169.14 328.27
  Q 175.52 334.53 184.39 340.49
  A 1.83 1.82 -34.3 0 0 185.83 340.76
  L 192.98 339.10
  A 0.59 0.59 0.0 0 0 193.19 338.04
  Q 186.44 333.19 183.29 324.55
  Q 183.08 323.99 183.16 323.39
  A 0.47 0.47 0.0 0 1 183.91 323.08
  C 190.67 328.33 198.57 331.99 206.61 335.38
  Q 207.29 335.66 207.77 335.11
  Q 208.71 334.05 208.85 332.83
  A 1.31 1.30 21.0 0 0 208.30 331.61
  C 192.45 320.58 188.02 301.48 191.16 283.09
  A 0.39 0.38 83.3 0 0 190.63 282.67
  Q 189.91 282.98 189.35 283.53
  Q 185.46 287.36 182.00 292.10
  Q 180.50 294.15 180.86 291.64"
/>
<path stroke="#808080" vector-effect="non-scaling-stroke" d="
  M 224.19 352.00
  Q 222.79 349.32 220.77 346.25
  Q 219.18 343.83 216.59 342.34
  A 0.40 0.39 -74.8 0 0 216.00 342.68
  Q 215.95 359.51 217.53 376.36
  C 218.73 389.16 222.45 401.21 231.30 411.12
  Q 232.69 412.68 235.19 413.62
  Q 240.52 415.62 246.47 417.20"
/>
<path stroke="#404040" vector-effect="non-scaling-stroke" d="
  M 246.47 417.20
  Q 253.14 419.79 255.50 420.27
  C 261.54 421.49 267.11 415.82 269.07 410.58
  Q 276.23 391.49 277.19 369.83
  Q 277.83 355.56 273.84 342.45
  Q 270.77 332.37 263.23 323.38
  A 0.41 0.41 0.0 0 0 262.57 323.43
  Q 257.69 331.24 251.78 336.76
  C 247.78 340.49 242.23 340.66 237.04 340.94
  Q 236.24 340.99 236.10 341.78
  Q 235.51 345.15 236.85 347.90
  Q 242.86 360.25 249.58 373.85
  Q 250.71 376.14 248.95 374.30
  C 242.27 367.33 235.84 360.32 228.38 354.11
  Q 227.34 353.24 224.19 352.00"
/>
<path stroke="#c0c0c0" vector-effect="non-scaling-stroke" d="
  M 246.47 417.20
  L 249.65 412.05
  A 7.36 7.35 -29.2 0 0 250.73 408.25
  L 250.73 399.48
  A 2.38 2.36 -63.6 0 0 250.26 398.06
  Q 242.57 387.63 236.59 376.62
  Q 230.12 364.71 224.19 352.00"
/>
<path stroke="#7e6500" vector-effect="non-scaling-stroke" d="
  M 206.27 156.86
  A 0.54 0.53 26.9 0 1 205.37 157.15
  Q 200.80 152.71 194.12 155.18
  Q 193.02 155.59 193.75 156.51
  C 195.73 159.02 202.09 166.28 205.85 163.34
  C 217.18 154.48 230.26 149.62 244.25 151.42
  Q 246.17 151.67 244.86 150.24
  Q 238.89 143.73 228.85 145.36
  Q 219.39 146.90 208.55 151.97
  Q 208.03 152.21 207.74 152.71
  Q 206.68 154.54 206.27 156.86"
/>
<path stroke="#800005" vector-effect="non-scaling-stroke" d="
  M 232.65 174.08
  Q 234.44 173.17 236.44 172.72
  Q 237.29 172.53 236.73 171.87
  C 230.37 164.31 221.87 166.99 217.54 174.75
  A 1.89 1.88 25.3 0 0 218.50 177.42
  C 222.15 178.86 229.24 175.81 232.65 174.08"
/>
<path stroke="#c0c0c0" vector-effect="non-scaling-stroke" d="
  M 316.56 186.10
  L 310.71 192.86
  Q 309.80 193.90 311.05 193.31
  C 314.41 191.71 316.52 189.80 320.46 189.38
  A 0.72 0.72 0.0 0 1 321.25 190.01
  C 321.42 191.36 321.03 192.70 320.03 193.64
  Q 317.08 196.42 315.14 199.88
  A 2.53 2.52 48.0 0 0 315.03 202.12
  Q 317.62 208.04 318.40 214.28"
/>
<path stroke="#808080" vector-effect="non-scaling-stroke" d="
  M 318.40 214.28
  Q 317.89 221.78 323.73 221.01
  Q 327.25 220.55 329.73 217.86
  Q 333.02 214.29 333.52 208.57"
/>
<path stroke="#c0c0c0" vector-effect="non-scaling-stroke" d="
  M 333.52 208.57
  Q 334.06 207.77 334.19 205.00
  Q 334.23 204.04 335.23 204.46"
/>
<path stroke="#808080" vector-effect="non-scaling-stroke" d="
  M 335.23 204.46
  L 336.22 207.34
  Q 337.01 209.62 337.77 207.33
  C 340.00 200.60 341.81 188.31 338.06 181.36
  C 335.66 176.91 331.61 177.49 327.46 178.49
  Q 320.88 180.08 316.56 186.10"
/>
<path stroke="#404040" vector-effect="non-scaling-stroke" d="
  M 335.23 204.46
  Q 333.24 196.94 325.82 194.91
  A 0.67 0.67 0.0 0 1 325.55 193.77
  C 327.75 191.75 331.12 191.57 334.02 191.67
  Q 335.70 191.73 335.85 190.05
  Q 336.16 186.52 334.14 183.95
  Q 332.74 182.17 329.21 182.16
  Q 323.03 182.14 316.56 186.10"
/>
<path stroke="#404040" vector-effect="non-scaling-stroke" d="
  M 333.52 208.57
  Q 331.18 210.21 329.17 213.10
  A 1.77 1.77 0.0 0 1 326.61 213.47
  C 324.14 211.48 324.09 209.32 323.18 206.48
  Q 322.91 205.63 322.57 206.45
  Q 321.42 209.20 320.41 211.88
  Q 319.87 213.28 318.40 214.28"
/>
<path stroke="#c0c0c0" vector-effect="non-scaling-stroke" d="
  M 312.95 330.44
  C 311.72 336.71 310.09 343.19 308.00 349.47
  Q 307.95 349.62 308.10 349.67
  L 308.10 349.67
  Q 308.23 349.71 308.29 349.59
  Q 317.28 329.81 322.25 308.83
  Q 325.27 296.10 325.52 282.93
  Q 325.56 280.42 324.16 278.16
  C 323.08 276.42 320.57 276.12 319.67 278.20
  Q 318.69 280.47 318.58 283.00
  Q 317.44 307.41 312.95 330.44"
/>
</g>
<path fill="#ffffff" d="
  M 248.40 0.00
  L 263.75 0.00
  Q 273.20 0.64 282.60 1.59
  Q 327.81 6.14 367.74 25.66
  C 401.37 42.10 431.29 65.60 454.71 94.65
  Q 508.32 161.16 512.00 248.13
  L 512.00 264.00
  Q 511.55 270.00 511.09 275.99
  C 505.92 343.66 474.03 406.22 422.86 450.06
  C 381.78 485.25 330.11 507.53 275.63 511.16
  Q 269.75 511.55 263.87 512.00
  L 248.00 512.00
  Q 243.07 511.58 238.13 511.24
  Q 186.20 507.67 140.54 484.50
  C 105.90 466.91 75.16 441.47 51.72 410.24
  Q 3.28 345.71 0.00 263.61
  L 0.00 248.26
  Q 3.78 157.06 61.97 88.98
  Q 92.30 53.49 135.07 30.31
  Q 186.94 2.19 248.40 0.00
  Z
  M 199.29 336.32
  Q 203.27 337.58 206.97 339.82
  C 208.28 340.61 208.75 342.01 209.13 343.41
  Q 211.54 352.23 212.48 361.49
  Q 213.08 367.42 213.77 372.46
  C 214.37 376.78 214.45 381.15 214.42 385.53
  Q 214.40 387.68 215.46 389.93
  Q 216.84 392.86 218.20 395.72
  C 228.00 416.38 242.98 433.33 263.73 444.00
  Q 264.21 444.25 264.74 444.11
  Q 266.75 443.60 268.53 442.24
  Q 303.58 415.22 321.57 373.57
  Q 322.62 371.14 324.80 369.30
  Q 345.25 352.00 365.55 334.84
  A 1.23 1.22 53.2 0 0 365.78 333.23
  Q 353.18 314.13 341.33 295.96
  C 340.38 294.49 339.52 293.46 339.72 291.58
  Q 340.85 280.83 340.98 269.63
  C 341.09 258.89 342.59 248.42 342.57 237.56
  Q 342.55 228.34 343.57 218.06
  C 344.05 213.19 348.99 211.18 348.93 206.01
  Q 348.84 197.57 349.05 189.26
  C 349.24 181.71 348.44 172.22 343.16 166.84
  Q 342.58 166.24 342.61 165.41
  C 342.91 155.43 341.40 145.28 336.39 137.07
  A 2.10 2.10 0.0 0 1 336.17 135.35
  Q 337.59 130.75 337.37 126.42
  C 336.80 114.89 335.80 102.07 323.68 96.80
  C 321.69 95.94 319.67 95.13 318.35 93.28
  C 312.65 85.28 306.13 80.93 296.75 78.09
  C 289.74 75.97 283.20 72.74 275.85 70.99
  Q 266.71 68.81 260.28 68.28
  Q 252.85 67.68 239.83 67.97
  C 233.68 68.11 228.17 69.50 222.30 69.81
  Q 221.63 69.84 221.16 70.32
  L 218.06 73.51
  A 1.92 1.91 -52.6 0 1 215.72 73.83
  Q 211.81 71.51 206.56 73.12
  Q 185.21 79.65 169.13 97.46
  Q 167.71 99.03 166.74 100.71
  C 165.44 102.95 167.04 105.32 165.32 107.21
  Q 157.72 115.51 153.81 124.94
  Q 153.65 125.32 153.92 125.65
  Q 159.71 132.75 159.40 140.64
  Q 159.12 147.89 156.13 159.03
  C 155.29 162.16 153.09 163.94 151.24 166.39
  Q 145.87 173.46 146.11 180.81
  C 146.32 187.30 152.27 191.02 152.50 197.85
  Q 152.61 201.23 151.20 204.88
  C 148.92 210.75 148.28 220.13 150.78 226.56
  C 153.09 232.49 155.25 237.34 158.05 244.34
  C 159.52 248.02 159.85 251.45 160.07 255.32
  Q 160.29 259.17 161.07 263.30
  Q 163.54 276.43 167.47 287.12
  Q 167.67 287.65 167.52 288.21
  Q 166.66 291.49 166.01 294.98
  Q 164.04 305.65 161.92 315.74
  C 161.05 319.88 160.95 323.97 163.65 327.31
  Q 171.16 336.58 177.60 342.60
  Q 179.73 344.59 182.37 346.05
  Q 182.78 346.28 183.24 346.19
  Q 191.99 344.63 200.65 344.55
  A 0.71 0.71 0.0 0 0 201.25 343.46
  Q 199.33 340.36 198.72 336.82
  Q 198.60 336.10 199.29 336.32
  Z"
/>
<path fill="#000000" d="
  M 198.72 336.82
  Q 199.33 340.36 201.25 343.46
  A 0.71 0.71 0.0 0 1 200.65 344.55
  Q 191.99 344.63 183.24 346.19
  Q 182.78 346.28 182.37 346.05
  Q 179.73 344.59 177.60 342.60
  Q 171.16 336.58 163.65 327.31
  C 160.95 323.97 161.05 319.88 161.92 315.74
  Q 164.04 305.65 166.01 294.98
  Q 166.66 291.49 167.52 288.21
  Q 167.67 287.65 167.47 287.12
  Q 163.54 276.43 161.07 263.30
  Q 160.29 259.17 160.07 255.32
  C 159.85 251.45 159.52 248.02 158.05 244.34
  C 155.25 237.34 153.09 232.49 150.78 226.56
  C 148.28 220.13 148.92 210.75 151.20 204.88
  Q 152.61 201.23 152.50 197.85
  C 152.27 191.02 146.32 187.30 146.11 180.81
  Q 145.87 173.46 151.24 166.39
  C 153.09 163.94 155.29 162.16 156.13 159.03
  Q 159.12 147.89 159.40 140.64
  Q 159.71 132.75 153.92 125.65
  Q 153.65 125.32 153.81 124.94
  Q 157.72 115.51 165.32 107.21
  C 167.04 105.32 165.44 102.95 166.74 100.71
  Q 167.71 99.03 169.13 97.46
  Q 185.21 79.65 206.56 73.12
  Q 211.81 71.51 215.72 73.83
  A 1.92 1.91 -52.6 0 0 218.06 73.51
  L 221.16 70.32
  Q 221.63 69.84 222.30 69.81
  C 228.17 69.50 233.68 68.11 239.83 67.97
  Q 252.85 67.68 260.28 68.28
  Q 266.71 68.81 275.85 70.99
  C 283.20 72.74 289.74 75.97 296.75 78.09
  C 306.13 80.93 312.65 85.28 318.35 93.28
  C 319.67 95.13 321.69 95.94 323.68 96.80
  C 335.80 102.07 336.80 114.89 337.37 126.42
  Q 337.59 130.75 336.17 135.35
  A 2.10 2.10 0.0 0 0 336.39 137.07
  C 341.40 145.28 342.91 155.43 342.61 165.41
  Q 342.58 166.24 343.16 166.84
  C 348.44 172.22 349.24 181.71 349.05 189.26
  Q 348.84 197.57 348.93 206.01
  C 348.99 211.18 344.05 213.19 343.57 218.06
  Q 342.55 228.34 342.57 237.56
  C 342.59 248.42 341.09 258.89 340.98 269.63
  Q 340.85 280.83 339.72 291.58
  C 339.52 293.46 340.38 294.49 341.33 295.96
  Q 353.18 314.13 365.78 333.23
  A 1.23 1.22 53.2 0 1 365.55 334.84
  Q 345.25 352.00 324.80 369.30
  Q 322.62 371.14 321.57 373.57
  Q 303.58 415.22 268.53 442.24
  Q 266.75 443.60 264.74 444.11
  Q 264.21 444.25 263.73 444.00
  C 242.98 433.33 228.00 416.38 218.20 395.72
  Q 216.84 392.86 215.46 389.93
  Q 214.40 387.68 214.42 385.53
  C 214.45 381.15 214.37 376.78 213.77 372.46
  Q 213.08 367.42 212.48 361.49
  Q 211.54 352.23 209.13 343.41
  C 208.75 342.01 208.28 340.61 206.97 339.82
  Q 203.27 337.58 199.29 336.32
  Q 198.60 336.10 198.72 336.82
  Z
  M 213.28 100.26
  Q 230.02 91.88 249.70 94.29
  Q 250.17 94.35 250.29 93.89
  C 252.53 84.89 261.63 79.18 269.74 75.43
  Q 271.20 74.75 269.61 74.52
  Q 250.34 71.74 232.86 73.83
  C 216.60 75.76 202.46 83.27 206.59 102.96
  Q 206.73 103.65 207.35 103.32
  Q 210.23 101.79 213.28 100.26
  Z
  M 289.98 101.85
  Q 291.99 101.98 290.20 102.91
  Q 284.76 105.72 280.76 111.91
  A 0.37 0.37 0.0 0 0 280.94 112.46
  Q 287.29 114.71 292.15 118.46
  Q 292.60 118.81 293.17 118.83
  C 305.89 119.24 318.85 123.82 330.65 129.45
  A 0.33 0.33 0.0 0 0 331.12 129.20
  C 333.30 114.54 329.08 100.82 313.27 97.01
  C 312.56 96.84 311.64 96.35 311.25 95.72
  C 307.02 88.75 301.53 82.93 293.45 81.11
  Q 287.17 79.70 280.26 79.68
  Q 279.42 79.68 279.32 78.84
  Q 279.30 78.66 279.15 78.55
  Q 278.53 78.10 277.78 78.33
  C 269.73 80.81 260.09 85.59 255.72 92.93
  Q 251.53 99.97 256.39 106.06
  Q 256.72 106.47 257.23 106.30
  Q 273.28 100.77 289.98 101.85
  Z
  M 202.73 102.81
  C 199.67 94.68 200.89 87.70 205.04 80.38
  Q 205.67 79.27 204.42 79.48
  C 190.70 81.80 179.65 92.02 172.20 103.52
  Q 171.29 104.93 172.90 104.45
  Q 184.75 100.92 195.83 101.58
  Q 199.14 101.78 202.28 103.23
  Q 203.01 103.56 202.73 102.81
  Z
  M 239.17 101.49
  Q 222.29 102.29 206.59 112.39
  A 0.71 0.70 62.1 0 1 205.56 112.07
  C 203.32 106.85 195.90 105.92 191.47 107.18
  Q 179.19 107.42 171.34 117.11
  C 166.87 122.63 163.80 128.95 162.62 136.10
  Q 160.88 146.66 158.80 156.53
  Q 158.46 158.14 159.47 156.85
  Q 161.58 154.14 165.36 153.57
  L 160.22 161.73
  A 0.37 0.37 0.0 0 0 160.70 162.26
  Q 166.59 159.21 172.71 158.19
  A 1.86 1.85 -18.4 0 1 174.66 159.16
  Q 178.82 167.13 185.52 172.43
  Q 182.21 174.48 180.22 179.01
  A 0.54 0.54 0.0 0 0 180.84 179.75
  Q 184.19 178.94 187.61 179.37
  A 0.65 0.64 88.1 0 1 188.16 179.89
  L 188.22 180.24
  Q 188.27 180.54 187.97 180.56
  Q 185.35 180.68 183.76 182.85
  Q 180.39 184.48 177.96 189.70
  Q 174.55 197.03 168.82 211.51
  Q 167.38 215.15 167.97 218.33
  Q 167.59 221.88 170.20 224.32
  Q 171.97 225.98 175.01 226.64
  Q 178.13 227.32 180.50 226.72
  Q 187.54 224.95 191.54 226.41
  L 180.07 229.80
  Q 179.47 229.98 179.63 230.58
  Q 179.85 231.49 180.75 231.72
  Q 187.35 233.45 193.58 229.92
  Q 198.69 227.02 202.62 223.43
  Q 206.18 220.19 201.67 221.87
  Q 199.80 222.57 197.07 223.19
  Q 194.81 222.95 189.75 223.53
  Q 187.57 223.78 185.60 221.73
  Q 192.34 219.73 194.99 219.62
  Q 200.94 219.37 206.64 219.06
  Q 209.17 218.92 210.60 217.85
  A 2.93 2.92 57.3 0 0 211.41 214.10
  Q 208.30 208.40 200.74 208.20
  Q 203.19 206.63 205.52 205.75
  C 209.52 204.26 212.77 205.84 215.91 208.57
  Q 219.32 211.54 219.32 215.45
  Q 218.94 218.98 217.47 221.10
  A 0.31 0.31 0.0 0 0 217.74 221.59
  L 224.50 221.28
  C 227.49 222.14 230.74 222.90 233.38 224.24
  Q 237.37 226.26 241.20 229.82
  Q 243.47 231.93 242.68 228.93
  C 242.04 226.54 241.46 224.30 240.08 222.17
  Q 235.27 214.71 227.39 208.99
  Q 238.13 212.68 245.73 220.26
  Q 250.66 225.19 251.20 231.21
  Q 251.87 238.65 248.32 247.87
  C 247.21 250.74 245.37 253.35 243.67 255.88
  Q 243.37 256.33 243.83 256.04
  Q 249.05 252.80 252.33 247.81
  Q 259.41 240.61 259.35 229.72
  Q 259.28 219.70 251.21 214.41
  Q 250.96 214.24 251.00 213.94
  Q 251.05 213.54 251.77 213.52
  A 0.94 0.77 -32.1 0 1 252.00 213.55
  Q 264.46 217.26 277.11 220.69
  A 1.54 1.53 -63.9 0 0 278.75 220.12
  Q 280.21 218.12 281.85 216.57
  Q 282.59 215.87 282.51 216.89
  Q 282.05 222.71 281.14 227.40
  Q 280.56 230.41 282.25 227.85
  Q 289.10 217.51 295.55 205.70
  L 303.00 194.88
  Q 303.50 194.87 303.87 195.29
  Q 303.65 195.79 303.90 196.12
  Q 315.65 212.16 321.53 231.51
  Q 321.96 232.92 323.41 232.62
  C 328.07 231.64 331.95 227.18 334.05 223.25
  Q 338.16 215.57 342.65 207.08
  C 347.35 198.18 346.49 187.10 344.15 177.65
  C 343.18 173.73 340.50 166.77 335.51 166.73
  C 326.43 166.66 318.34 172.73 312.95 179.80
  L 314.29 173.53
  A 2.08 2.06 25.2 0 0 313.54 171.47
  Q 307.93 167.07 300.68 166.38
  A 0.37 0.36 86.5 0 0 300.29 166.83
  Q 302.41 176.69 298.90 186.22
  A 0.29 0.29 0.0 0 1 298.46 186.36
  Q 298.15 186.14 298.18 185.77
  Q 298.94 175.70 294.76 166.12
  C 294.18 164.78 293.32 163.70 291.71 163.77
  A 2.57 2.57 0.0 0 1 289.31 162.37
  Q 280.02 144.18 263.51 132.59
  A 0.61 0.61 0.0 0 1 263.52 131.58
  C 270.21 127.23 277.62 125.43 285.53 125.05
  A 0.46 0.46 0.0 0 0 285.82 124.25
  Q 281.78 120.47 276.93 117.95
  L 273.95 116.19
  A 1.24 1.24 0.0 0 1 273.41 114.71
  Q 274.52 111.64 276.33 108.66
  A 0.65 0.65 0.0 0 0 275.96 107.70
  Q 274.95 107.41 273.37 107.77
  Q 263.91 106.62 255.97 111.40
  A 2.14 2.13 -37.0 0 1 253.30 111.03
  C 250.73 108.29 250.11 105.83 249.42 102.34
  Q 249.31 101.79 248.77 101.62
  Q 244.63 100.36 239.17 101.49
  Z
  M 166.14 109.96
  C 162.56 113.00 158.32 118.37 157.04 123.09
  Q 156.81 123.90 157.09 124.55
  Q 158.20 127.22 160.38 130.91
  Q 160.93 131.85 161.07 130.76
  C 162.31 121.30 167.26 115.70 174.25 109.37
  Q 175.06 108.64 173.97 108.76
  L 167.05 109.56
  A 1.75 1.68 -67.6 0 0 166.14 109.96
  Z
  M 336.17 158.14
  C 337.91 141.34 327.60 129.23 310.49 128.78
  Q 291.45 128.27 275.09 133.29
  Q 273.08 133.91 274.89 134.97
  C 284.32 140.52 292.72 148.11 295.85 158.72
  A 0.96 0.96 0.0 0 0 296.76 159.41
  Q 303.68 159.49 310.47 163.12
  Q 310.95 163.37 311.47 163.18
  Q 322.60 159.01 334.65 159.46
  A 1.47 1.47 0.0 0 0 336.17 158.14
  Z
  M 178.35 173.17
  C 176.74 169.58 175.62 167.09 172.36 164.21
  A 0.89 0.88 -37.2 0 0 171.36 164.08
  Q 169.33 165.10 167.00 165.22
  C 162.28 165.45 157.35 167.13 154.08 170.50
  Q 152.75 171.86 154.64 171.67
  C 155.96 171.53 157.25 171.20 158.59 171.09
  Q 168.34 170.26 177.73 173.82
  A 0.49 0.49 0.0 0 0 178.35 173.17
  Z
  M 152.22 180.75
  Q 150.43 181.34 150.79 182.50
  Q 151.29 184.14 152.92 185.61
  Q 155.84 188.24 159.96 185.40
  L 168.86 180.98
  A 1.17 1.17 0.0 0 0 168.95 178.93
  Q 166.90 177.68 164.75 177.58
  Q 157.74 177.27 152.22 180.75
  Z
  M 166.99 185.38
  Q 159.93 185.39 157.08 192.10
  A 1.88 1.88 0.0 0 0 158.24 194.63
  Q 161.22 195.58 164.34 194.25
  Q 166.60 193.29 169.13 192.15
  Q 166.46 197.36 160.58 198.23
  A 1.15 1.14 64.4 0 0 159.91 200.14
  Q 162.29 202.70 164.84 204.69
  A 1.14 1.11 37.3 0 1 165.07 206.23
  Q 165.01 206.32 164.61 206.36
  L 158.30 203.11
  A 0.61 0.60 31.0 0 0 157.53 203.30
  C 153.34 209.28 153.12 219.38 154.32 226.23
  Q 155.74 234.36 159.50 241.87
  Q 161.06 247.94 163.44 253.14
  Q 164.57 255.62 164.99 252.93
  Q 166.53 243.13 171.56 233.18
  Q 171.80 232.70 171.32 232.47
  Q 164.64 229.32 164.05 222.02
  C 163.86 219.61 164.61 215.61 165.53 213.36
  C 169.11 204.62 172.68 196.20 175.15 187.37
  Q 175.49 186.18 175.08 185.22
  C 173.76 182.06 169.08 183.52 166.99 185.38
  Z
  M 295.89 259.67
  Q 294.77 262.09 295.27 259.47
  C 297.89 245.63 298.38 230.79 298.24 216.63
  C 298.23 215.65 298.63 214.21 298.60 213.50
  Q 298.45 210.14 297.25 213.28
  Q 295.03 219.05 292.84 224.64
  Q 291.56 227.91 291.02 232.63
  C 287.99 258.95 279.23 283.78 265.78 307.10
  Q 265.13 308.24 266.21 307.50
  C 277.45 299.83 288.37 291.14 299.01 282.51
  Q 306.07 276.78 312.46 270.93
  Q 314.83 268.76 314.96 267.19
  Q 315.22 264.02 314.99 261.10
  Q 314.80 258.56 316.32 260.59
  Q 317.22 261.79 318.30 262.71
  Q 318.99 263.30 318.91 262.40
  Q 318.42 256.52 317.98 251.02
  Q 316.04 226.41 304.99 205.71
  Q 303.42 202.78 303.59 206.10
  Q 304.81 230.67 297.73 254.76
  Q 296.97 257.33 295.89 259.67
  Z
  M 276.64 245.30
  Q 275.93 231.99 264.89 222.59
  Q 263.60 221.49 263.79 223.17
  Q 267.84 260.06 243.98 289.74
  Q 242.29 291.84 242.42 289.15
  C 242.92 278.21 244.74 267.56 249.73 257.67
  Q 250.04 257.07 249.36 257.05
  Q 249.15 257.05 249.00 257.18
  C 233.39 269.82 219.63 287.83 213.57 307.02
  C 209.11 321.13 219.50 328.64 231.51 331.05
  Q 233.79 331.51 232.04 329.98
  C 228.02 326.47 224.17 322.09 222.58 316.96
  Q 221.96 314.98 223.53 316.34
  Q 231.40 323.20 242.53 326.38
  Q 243.16 326.56 243.67 326.14
  Q 246.23 324.04 248.71 321.15
  C 265.23 301.96 275.94 276.81 281.79 251.92
  Q 283.55 244.43 285.03 237.60
  Q 285.80 234.04 283.89 237.14
  L 278.55 245.79
  Q 276.81 248.61 276.64 245.30
  Z
  M 196.68 236.10
  C 211.29 230.44 227.68 229.65 239.98 240.58
  Q 241.70 242.11 240.97 239.92
  C 238.09 231.32 232.76 225.51 223.20 225.11
  C 213.30 224.70 202.30 227.46 195.53 234.34
  Q 192.01 237.91 196.68 236.10
  Z
  M 338.54 226.44
  L 333.43 233.89
  A 2.49 2.44 58.5 0 0 333.03 235.64
  Q 334.43 245.17 336.41 253.70
  Q 337.48 258.30 337.53 253.58
  Q 337.64 243.11 339.21 230.81
  Q 339.47 228.77 339.48 226.73
  Q 339.49 225.04 338.54 226.44
  Z
  M 171.45 248.60
  C 174.77 242.64 179.98 239.24 186.60 238.55
  Q 192.70 237.91 187.06 235.52
  Q 184.11 234.27 179.73 234.61
  C 172.85 235.15 169.68 241.94 170.06 248.28
  Q 170.21 250.83 171.45 248.60
  Z
  M 280.72 305.64
  Q 283.30 314.30 283.17 326.00
  Q 282.94 346.61 282.37 367.21
  Q 282.21 373.08 281.51 382.28
  Q 280.94 389.78 280.63 397.36
  L 283.17 413.04
  A 0.61 0.61 0.0 0 0 284.18 413.40
  Q 306.92 393.43 319.74 367.59
  C 320.19 366.70 320.66 364.71 320.80 363.79
  Q 323.21 348.50 326.51 332.97
  L 327.76 357.13
  Q 327.80 357.87 328.43 357.48
  Q 336.03 352.78 342.75 347.28
  C 347.79 343.15 350.43 337.55 353.32 332.03
  Q 353.63 331.43 353.30 330.85
  L 340.66 308.80
  L 334.84 298.49
  A 8.41 8.32 28.6 0 1 333.78 294.96
  L 329.71 235.50
  Q 329.64 234.51 329.03 235.29
  L 325.12 240.32
  A 2.51 2.50 -33.0 0 0 324.66 242.46
  Q 327.15 252.66 328.73 263.62
  C 329.02 265.70 328.74 266.45 327.23 267.72
  Q 300.96 289.96 280.72 305.64
  Z
  M 209.29 238.55
  C 215.29 237.77 221.48 239.06 227.28 240.47
  Q 228.31 240.72 227.50 240.03
  C 224.95 237.84 220.20 236.66 216.99 236.09
  Q 213.31 235.43 208.39 236.30
  Q 197.62 238.21 188.01 241.83
  C 181.62 244.24 177.38 246.05 175.52 253.21
  Q 175.48 253.34 175.51 253.46
  Q 175.61 253.87 176.18 253.78
  A 0.58 0.57 -78.7 0 0 176.59 253.50
  Q 180.03 247.87 188.23 244.51
  Q 199.74 239.80 209.29 238.55
  Z
  M 227.09 244.81
  C 212.83 241.72 196.56 242.51 184.40 251.43
  A 0.84 0.84 0.0 0 0 184.23 252.62
  Q 186.20 255.21 186.45 258.03
  C 186.61 259.79 188.08 260.81 189.78 260.54
  Q 204.62 258.13 218.33 252.34
  C 221.70 250.92 225.23 248.62 227.37 245.53
  Q 227.77 244.95 227.09 244.81
  Z
  M 232.90 251.67
  Q 231.44 251.81 230.00 252.63
  Q 229.41 252.97 229.44 252.29
  Q 229.51 250.33 230.80 248.66
  A 0.32 0.32 0.0 0 0 230.71 248.19
  L 230.45 248.03
  Q 230.35 247.97 230.27 248.05
  Q 226.50 252.09 222.14 254.27
  Q 220.70 254.99 219.60 256.16
  C 218.36 257.49 216.63 257.11 214.93 257.51
  Q 200.26 260.95 183.81 264.70
  Q 183.03 264.88 183.23 264.11
  Q 183.38 263.51 183.30 262.92
  Q 183.21 262.31 182.64 262.05
  Q 178.73 260.30 175.88 257.47
  A 0.32 0.32 0.0 0 0 175.33 257.71
  L 175.50 262.46
  L 176.80 276.73
  Q 176.90 277.79 177.78 277.19
  Q 181.64 274.55 186.12 273.48
  A 0.49 0.49 0.0 0 0 186.31 272.62
  L 180.97 268.43
  Q 182.46 268.74 184.55 269.67
  Q 186.92 270.71 188.89 270.01
  Q 195.18 273.47 201.49 272.22
  C 214.61 269.63 235.67 261.41 240.23 246.66
  Q 240.71 245.13 239.34 245.97
  Q 235.61 248.24 232.90 251.67
  Z
  M 170.09 278.64
  A 0.81 0.81 0.0 0 0 170.14 278.93
  L 171.42 282.17
  A 0.81 0.81 0.0 0 0 172.99 281.86
  L 172.69 264.25
  A 0.81 0.81 0.0 0 0 172.60 263.89
  L 171.39 261.52
  A 0.81 0.81 0.0 0 0 169.86 261.91
  L 170.09 278.64
  Z
  M 209.32 306.72
  C 212.32 294.26 218.98 282.55 226.81 272.18
  Q 227.54 271.21 226.42 271.65
  Q 211.97 277.34 198.02 279.92
  Q 197.57 280.00 197.46 280.44
  C 192.33 300.18 195.87 322.56 216.33 331.63
  Q 217.11 331.98 217.24 331.13
  C 217.40 330.07 217.09 329.04 216.36 328.25
  C 210.50 321.99 207.17 315.61 209.32 306.72
  Z
  M 180.86 291.64
  Q 181.49 287.19 182.83 282.87
  Q 184.00 279.09 181.44 282.10
  C 173.38 291.59 168.71 303.47 166.67 315.75
  C 165.81 320.85 165.03 324.25 169.14 328.27
  Q 175.52 334.53 184.39 340.49
  A 1.83 1.82 -34.3 0 0 185.83 340.76
  L 192.98 339.10
  A 0.59 0.59 0.0 0 0 193.19 338.04
  Q 186.44 333.19 183.29 324.55
  Q 183.08 323.99 183.16 323.39
  A 0.47 0.47 0.0 0 1 183.91 323.08
  C 190.67 328.33 198.57 331.99 206.61 335.38
  Q 207.29 335.66 207.77 335.11
  Q 208.71 334.05 208.85 332.83
  A 1.31 1.30 21.0 0 0 208.30 331.61
  C 192.45 320.58 188.02 301.48 191.16 283.09
  A 0.39 0.38 83.3 0 0 190.63 282.67
  Q 189.91 282.98 189.35 283.53
  Q 185.46 287.36 182.00 292.10
  Q 180.50 294.15 180.86 291.64
  Z
  M 224.19 352.00
  Q 222.79 349.32 220.77 346.25
  Q 219.18 343.83 216.59 342.34
  A 0.40 0.39 -74.8 0 0 216.00 342.68
  Q 215.95 359.51 217.53 376.36
  C 218.73 389.16 222.45 401.21 231.30 411.12
  Q 232.69 412.68 235.19 413.62
  Q 240.52 415.62 246.47 417.20
  Q 253.14 419.79 255.50 420.27
  C 261.54 421.49 267.11 415.82 269.07 410.58
  Q 276.23 391.49 277.19 369.83
  Q 277.83 355.56 273.84 342.45
  Q 270.77 332.37 263.23 323.38
  A 0.41 0.41 0.0 0 0 262.57 323.43
  Q 257.69 331.24 251.78 336.76
  C 247.78 340.49 242.23 340.66 237.04 340.94
  Q 236.24 340.99 236.10 341.78
  Q 235.51 345.15 236.85 347.90
  Q 242.86 360.25 249.58 373.85
  Q 250.71 376.14 248.95 374.30
  C 242.27 367.33 235.84 360.32 228.38 354.11
  Q 227.34 353.24 224.19 352.00
  Z"
/>
<path fill="#fcc900" d="
  M 213.28 100.26
  Q 210.23 101.79 207.35 103.32
  Q 206.73 103.65 206.59 102.96
  C 202.46 83.27 216.60 75.76 232.86 73.83
  Q 250.34 71.74 269.61 74.52
  Q 271.20 74.75 269.74 75.43
  C 261.63 79.18 252.53 84.89 250.29 93.89
  Q 250.17 94.35 249.70 94.29
  Q 230.02 91.88 213.28 100.26
  Z"
/>
<path fill="#fcc900" d="
  M 289.98 101.85
  Q 273.28 100.77 257.23 106.30
  Q 256.72 106.47 256.39 106.06
  Q 251.53 99.97 255.72 92.93
  C 260.09 85.59 269.73 80.81 277.78 78.33
  Q 278.53 78.10 279.15 78.55
  Q 279.30 78.66 279.32 78.84
  Q 279.42 79.68 280.26 79.68
  Q 287.17 79.70 293.45 81.11
  C 301.53 82.93 307.02 88.75 311.25 95.72
  C 311.64 96.35 312.56 96.84 313.27 97.01
  C 329.08 100.82 333.30 114.54 331.12 129.20
  A 0.33 0.33 0.0 0 1 330.65 129.45
  C 318.85 123.82 305.89 119.24 293.17 118.83
  Q 292.60 118.81 292.15 118.46
  Q 287.29 114.71 280.94 112.46
  A 0.37 0.37 0.0 0 1 280.76 111.91
  Q 284.76 105.72 290.20 102.91
  Q 291.99 101.98 289.98 101.85
  Z"
/>
<path fill="#fcc900" d="
  M 205.04 80.38
  C 200.89 87.70 199.67 94.68 202.73 102.81
  Q 203.01 103.56 202.28 103.23
  Q 199.14 101.78 195.83 101.58
  Q 184.75 100.92 172.90 104.45
  Q 171.29 104.93 172.20 103.52
  C 179.65 92.02 190.70 81.80 204.42 79.48
  Q 205.67 79.27 205.04 80.38
  Z"
/>
<path fill="#808080" d="
  M 273.37 107.77
  L 261.37 126.79
  Q 260.20 128.65 262.05 127.47
  L 276.93 117.95
  Q 281.78 120.47 285.82 124.25
  A 0.46 0.46 0.0 0 1 285.53 125.05
  C 277.62 125.43 270.21 127.23 263.52 131.58
  A 0.61 0.61 0.0 0 0 263.51 132.59
  Q 280.02 144.18 289.31 162.37
  A 2.57 2.57 0.0 0 0 291.71 163.77
  C 293.32 163.70 294.18 164.78 294.76 166.12
  Q 298.94 175.70 298.18 185.77
  Q 298.15 186.14 298.46 186.36
  A 0.29 0.29 0.0 0 0 298.90 186.22
  Q 302.41 176.69 300.29 166.83
  A 0.37 0.36 86.5 0 1 300.68 166.38
  Q 307.93 167.07 313.54 171.47
  A 2.08 2.06 25.2 0 1 314.29 173.53
  L 312.95 179.80
  Q 309.18 187.92 303.87 195.29
  Q 303.50 194.87 303.00 194.88
  L 303.02 190.31
  Q 303.04 187.06 301.39 189.86
  Q 295.48 199.87 288.15 209.52
  A 0.42 0.41 -50.5 0 0 288.20 210.07
  L 288.40 210.24
  Q 288.49 210.33 288.57 210.24
  Q 291.60 207.27 295.55 205.70
  Q 289.10 217.51 282.25 227.85
  Q 280.56 230.41 281.14 227.40
  Q 282.05 222.71 282.51 216.89
  Q 282.59 215.87 281.85 216.57
  Q 280.21 218.12 278.75 220.12
  A 1.54 1.53 -63.9 0 1 277.11 220.69
  Q 264.46 217.26 252.00 213.55
  A 0.94 0.77 -32.1 0 0 251.77 213.52
  Q 251.05 213.54 251.00 213.94
  Q 250.96 214.24 251.21 214.41
  Q 259.28 219.70 259.35 229.72
  Q 259.41 240.61 252.33 247.81
  Q 252.92 244.51 253.57 241.27
  Q 254.43 236.97 254.51 234.68
  C 254.97 221.21 247.12 211.86 236.24 205.05
  Q 236.10 204.96 236.15 204.80
  L 236.24 204.46
  Q 236.41 203.87 236.96 204.15
  Q 252.55 212.04 269.28 208.44
  C 280.48 206.04 287.69 195.04 292.09 184.97
  C 292.86 183.20 292.56 181.09 292.05 179.27
  C 286.01 157.70 270.41 143.82 248.67 139.22
  A 0.88 0.88 0.0 0 1 248.07 137.96
  Q 253.24 127.90 253.01 116.85
  C 252.97 114.86 252.09 112.68 250.83 111.19
  Q 246.50 106.08 239.17 101.49
  Q 244.63 100.36 248.77 101.62
  Q 249.31 101.79 249.42 102.34
  C 250.11 105.83 250.73 108.29 253.30 111.03
  A 2.14 2.13 -37.0 0 0 255.97 111.40
  Q 263.91 106.62 273.37 107.77
  Z"
/>
<path fill="#ffffff" d="
  M 239.17 101.49
  Q 246.50 106.08 250.83 111.19
  C 252.09 112.68 252.97 114.86 253.01 116.85
  Q 253.24 127.90 248.07 137.96
  A 0.88 0.88 0.0 0 0 248.67 139.22
  C 270.41 143.82 286.01 157.70 292.05 179.27
  C 292.56 181.09 292.86 183.20 292.09 184.97
  C 287.69 195.04 280.48 206.04 269.28 208.44
  Q 252.55 212.04 236.96 204.15
  Q 236.41 203.87 236.24 204.46
  L 236.15 204.80
  Q 236.10 204.96 236.24 205.05
  C 247.12 211.86 254.97 221.21 254.51 234.68
  Q 254.43 236.97 253.57 241.27
  Q 252.92 244.51 252.33 247.81
  Q 249.05 252.80 243.83 256.04
  Q 243.37 256.33 243.67 255.88
  C 245.37 253.35 247.21 250.74 248.32 247.87
  Q 251.87 238.65 251.20 231.21
  Q 250.66 225.19 245.73 220.26
  Q 238.13 212.68 227.39 208.99
  Q 218.58 203.82 207.73 201.32
  Q 207.18 201.19 206.69 201.45
  Q 201.32 204.29 196.25 207.53
  Q 195.18 208.22 196.45 208.21
  L 200.74 208.20
  Q 208.30 208.40 211.41 214.10
  A 2.93 2.92 57.3 0 1 210.60 217.85
  Q 209.17 218.92 206.64 219.06
  Q 200.94 219.37 194.99 219.62
  Q 192.34 219.73 185.60 221.73
  Q 186.03 224.10 183.76 224.22
  Q 177.73 224.56 172.84 220.97
  A 1.50 1.49 50.3 0 1 173.07 218.42
  Q 176.86 216.59 180.48 216.68
  Q 182.98 216.75 181.16 215.03
  L 179.54 213.49
  A 0.69 0.68 -59.3 0 1 179.36 212.77
  Q 183.70 199.40 190.17 188.38
  Q 190.67 187.52 191.36 186.80
  Q 191.72 186.43 192.22 186.31
  Q 195.99 185.34 199.70 183.64
  A 0.47 0.47 0.0 0 0 199.69 182.78
  C 196.51 181.35 195.68 178.23 198.98 176.23
  C 202.09 176.79 207.53 177.54 208.86 180.02
  Q 209.09 180.46 209.00 180.96
  Q 208.38 184.50 206.75 187.66
  A 0.49 0.49 0.0 0 0 207.12 188.37
  Q 209.74 188.73 210.08 189.63
  Q 221.53 206.44 237.57 199.25
  Q 241.09 197.67 243.96 195.05
  C 247.40 191.92 251.48 188.21 255.88 186.47
  C 262.83 183.74 268.18 180.18 274.20 176.39
  Q 275.01 175.88 276.26 175.69
  Q 276.98 175.59 276.74 174.90
  Q 271.97 160.99 259.78 155.54
  Q 255.80 152.66 251.88 148.90
  Q 247.81 145.00 242.35 143.15
  Q 238.12 141.72 231.44 142.72
  C 222.48 144.07 214.28 146.43 205.70 149.04
  A 1.36 1.35 81.8 0 0 204.75 150.32
  L 204.73 153.67
  A 0.45 0.45 0.0 0 1 204.06 154.06
  L 199.45 151.55
  Q 198.91 151.25 198.32 151.47
  L 190.00 154.56
  Q 189.32 154.82 189.56 155.50
  C 192.12 163.03 197.86 169.49 206.32 168.62
  Q 207.40 168.51 206.84 169.44
  L 206.47 170.06
  A 2.17 2.17 0.0 0 1 204.39 171.10
  Q 198.32 170.47 193.39 166.89
  Q 188.92 163.64 185.70 159.87
  Q 184.92 158.95 185.19 160.13
  Q 186.61 166.20 190.89 171.31
  L 185.52 172.43
  Q 178.82 167.13 174.66 159.16
  A 1.86 1.85 -18.4 0 0 172.71 158.19
  Q 166.59 159.21 160.70 162.26
  A 0.37 0.37 0.0 0 1 160.22 161.73
  L 165.36 153.57
  Q 165.95 151.97 165.99 150.75
  C 166.18 145.94 165.84 140.29 167.62 135.89
  Q 172.71 123.36 183.36 114.12
  Q 187.32 110.69 191.47 107.18
  C 195.90 105.92 203.32 106.85 205.56 112.07
  A 0.71 0.70 62.1 0 0 206.59 112.39
  Q 222.29 102.29 239.17 101.49
  Z"
/>
<path fill="#808080" d="
  M 191.47 107.18
  Q 187.32 110.69 183.36 114.12
  Q 172.71 123.36 167.62 135.89
  C 165.84 140.29 166.18 145.94 165.99 150.75
  Q 165.95 151.97 165.36 153.57
  Q 161.58 154.14 159.47 156.85
  Q 158.46 158.14 158.80 156.53
  Q 160.88 146.66 162.62 136.10
  C 163.80 128.95 166.87 122.63 171.34 117.11
  Q 179.19 107.42 191.47 107.18
  Z"
/>
<path fill="#ffffff" d="
  M 276.93 117.95
  L 262.05 127.47
  Q 260.20 128.65 261.37 126.79
  L 273.37 107.77
  Q 274.95 107.41 275.96 107.70
  A 0.65 0.65 0.0 0 1 276.33 108.66
  Q 274.52 111.64 273.41 114.71
  A 1.24 1.24 0.0 0 0 273.95 116.19
  L 276.93 117.95
  Z"
/>
<path fill="#fcc900" d="
  M 157.04 123.09
  C 158.32 118.37 162.56 113.00 166.14 109.96
  A 1.75 1.68 -67.6 0 1 167.05 109.56
  L 173.97 108.76
  Q 175.06 108.64 174.25 109.37
  C 167.26 115.70 162.31 121.30 161.07 130.76
  Q 160.93 131.85 160.38 130.91
  Q 158.20 127.22 157.09 124.55
  Q 156.81 123.90 157.04 123.09
  Z"
/>
<path fill="#fcc900" d="
  M 310.49 128.78
  C 327.60 129.23 337.91 141.34 336.17 158.14
  A 1.47 1.47 0.0 0 1 334.65 159.46
  Q 322.60 159.01 311.47 163.18
  Q 310.95 163.37 310.47 163.12
  Q 303.68 159.49 296.76 159.41
  A 0.96 0.96 0.0 0 1 295.85 158.72
  C 292.72 148.11 284.32 140.52 274.89 134.97
  Q 273.08 133.91 275.09 133.29
  Q 291.45 128.27 310.49 128.78
  Z"
/>
<path fill="#000000" d="
  M 259.78 155.54
  L 261.14 161.72
  A 0.76 0.76 0.0 0 1 260.01 162.53
  Q 248.60 155.84 235.72 157.85
  Q 227.38 159.16 215.39 164.77
  A 2.16 2.12 7.4 0 0 214.70 165.29
  Q 213.65 166.47 214.08 167.53
  A 0.60 0.60 0.0 0 0 214.99 167.79
  Q 222.93 161.97 233.42 164.26
  Q 236.50 164.93 238.99 165.61
  Q 246.31 168.82 250.69 172.07
  Q 252.18 173.18 257.16 177.60
  Q 258.19 178.79 258.62 179.84
  Q 259.08 180.97 257.97 180.46
  L 253.48 178.38
  Q 248.39 174.88 242.47 176.41
  Q 233.33 178.76 220.59 184.05
  L 217.61 185.03
  L 216.53 185.14
  A 1.36 1.36 0.0 0 0 215.95 187.65
  L 224.26 192.76
  Q 217.79 192.97 210.08 189.63
  Q 209.74 188.73 207.12 188.37
  A 0.49 0.49 0.0 0 1 206.75 187.66
  Q 208.38 184.50 209.00 180.96
  Q 209.09 180.46 208.86 180.02
  C 207.53 177.54 202.09 176.79 198.98 176.23
  L 190.89 171.31
  Q 186.61 166.20 185.19 160.13
  Q 184.92 158.95 185.70 159.87
  Q 188.92 163.64 193.39 166.89
  Q 198.32 170.47 204.39 171.10
  A 2.17 2.17 0.0 0 0 206.47 170.06
  L 206.84 169.44
  Q 207.40 168.51 206.32 168.62
  C 197.86 169.49 192.12 163.03 189.56 155.50
  Q 189.32 154.82 190.00 154.56
  L 198.32 151.47
  Q 198.91 151.25 199.45 151.55
  L 204.06 154.06
  A 0.45 0.45 0.0 0 0 204.73 153.67
  L 204.75 150.32
  A 1.36 1.35 81.8 0 1 205.70 149.04
  C 214.28 146.43 222.48 144.07 231.44 142.72
  Q 238.12 141.72 242.35 143.15
  Q 247.81 145.00 251.88 148.90
  Q 255.80 152.66 259.78 155.54
  Z
  M 206.27 156.86
  A 0.54 0.53 26.9 0 1 205.37 157.15
  Q 200.80 152.71 194.12 155.18
  Q 193.02 155.59 193.75 156.51
  C 195.73 159.02 202.09 166.28 205.85 163.34
  C 217.18 154.48 230.26 149.62 244.25 151.42
  Q 246.17 151.67 244.86 150.24
  Q 238.89 143.73 228.85 145.36
  Q 219.39 146.90 208.55 151.97
  Q 208.03 152.21 207.74 152.71
  Q 206.68 154.54 206.27 156.86
  Z
  M 232.65 174.08
  Q 234.44 173.17 236.44 172.72
  Q 237.29 172.53 236.73 171.87
  C 230.37 164.31 221.87 166.99 217.54 174.75
  A 1.89 1.88 25.3 0 0 218.50 177.42
  C 222.15 178.86 229.24 175.81 232.65 174.08
  Z"
/>
<path fill="#fcc900" d="
  M 206.27 156.86
  Q 206.68 154.54 207.74 152.71
  Q 208.03 152.21 208.55 151.97
  Q 219.39 146.90 228.85 145.36
  Q 238.89 143.73 244.86 150.24
  Q 246.17 151.67 244.25 151.42
  C 230.26 149.62 217.18 154.48 205.85 163.34
  C 202.09 166.28 195.73 159.02 193.75 156.51
  Q 193.02 155.59 194.12 155.18
  Q 200.80 152.71 205.37 157.15
  A 0.54 0.53 26.9 0 0 206.27 156.86
  Z"
/>
<path fill="#808080" d="
  M 259.78 155.54
  Q 271.97 160.99 276.74 174.90
  Q 276.98 175.59 276.26 175.69
  Q 275.01 175.88 274.20 176.39
  C 268.18 180.18 262.83 183.74 255.88 186.47
  C 251.48 188.21 247.40 191.92 243.96 195.05
  Q 241.09 197.67 237.57 199.25
  Q 221.53 206.44 210.08 189.63
  Q 217.79 192.97 224.26 192.76
  Q 228.85 194.32 233.24 193.12
  Q 235.44 192.52 233.19 192.15
  Q 224.91 190.82 217.61 185.03
  L 220.59 184.05
  L 223.20 184.06
  Q 223.69 184.06 224.15 184.23
  Q 232.28 187.13 240.21 184.71
  Q 242.12 184.13 246.80 181.53
  Q 250.11 179.69 253.48 178.38
  L 257.97 180.46
  Q 259.08 180.97 258.62 179.84
  Q 258.19 178.79 257.16 177.60
  Q 259.18 177.33 260.18 176.20
  Q 260.53 175.82 260.23 175.40
  Q 256.08 169.53 248.84 166.93
  Q 243.60 165.05 238.99 165.61
  Q 236.50 164.93 233.42 164.26
  Q 222.93 161.97 214.99 167.79
  A 0.60 0.60 0.0 0 1 214.08 167.53
  Q 213.65 166.47 214.70 165.29
  A 2.16 2.12 7.4 0 1 215.39 164.77
  Q 227.38 159.16 235.72 157.85
  Q 248.60 155.84 260.01 162.53
  A 0.76 0.76 0.0 0 0 261.14 161.72
  L 259.78 155.54
  Z"
/>
<path fill="#fcc900" d="
  M 172.36 164.21
  C 175.62 167.09 176.74 169.58 178.35 173.17
  A 0.49 0.49 0.0 0 1 177.73 173.82
  Q 168.34 170.26 158.59 171.09
  C 157.25 171.20 155.96 171.53 154.64 171.67
  Q 152.75 171.86 154.08 170.50
  C 157.35 167.13 162.28 165.45 167.00 165.22
  Q 169.33 165.10 171.36 164.08
  A 0.89 0.88 -37.2 0 1 172.36 164.21
  Z"
/>
<path fill="#ffffff" d="
  M 257.16 177.60
  Q 252.18 173.18 250.69 172.07
  Q 246.31 168.82 238.99 165.61
  Q 243.60 165.05 248.84 166.93
  Q 256.08 169.53 260.23 175.40
  Q 260.53 175.82 260.18 176.20
  Q 259.18 177.33 257.16 177.60
  Z"
/>
<path fill="#ffffff" d="
  M 303.87 195.29
  Q 309.18 187.92 312.95 179.80
  C 318.34 172.73 326.43 166.66 335.51 166.73
  C 340.50 166.77 343.18 173.73 344.15 177.65
  C 346.49 187.10 347.35 198.18 342.65 207.08
  Q 338.16 215.57 334.05 223.25
  C 331.95 227.18 328.07 231.64 323.41 232.62
  Q 321.96 232.92 321.53 231.51
  Q 315.65 212.16 303.90 196.12
  Q 303.65 195.79 303.87 195.29
  Z
  M 316.56 186.10
  L 310.71 192.86
  Q 309.80 193.90 311.05 193.31
  C 314.41 191.71 316.52 189.80 320.46 189.38
  A 0.72 0.72 0.0 0 1 321.25 190.01
  C 321.42 191.36 321.03 192.70 320.03 193.64
  Q 317.08 196.42 315.14 199.88
  A 2.53 2.52 48.0 0 0 315.03 202.12
  Q 317.62 208.04 318.40 214.28
  Q 317.89 221.78 323.73 221.01
  Q 327.25 220.55 329.73 217.86
  Q 333.02 214.29 333.52 208.57
  Q 334.06 207.77 334.19 205.00
  Q 334.23 204.04 335.23 204.46
  L 336.22 207.34
  Q 337.01 209.62 337.77 207.33
  C 340.00 200.60 341.81 188.31 338.06 181.36
  C 335.66 176.91 331.61 177.49 327.46 178.49
  Q 320.88 180.08 316.56 186.10
  Z"
/>
<path fill="#ff000a" d="
  M 232.65 174.08
  C 229.24 175.81 222.15 178.86 218.50 177.42
  A 1.89 1.88 25.3 0 1 217.54 174.75
  C 221.87 166.99 230.37 164.31 236.73 171.87
  Q 237.29 172.53 236.44 172.72
  Q 234.44 173.17 232.65 174.08
  Z"
/>
<path fill="#808080" d="
  M 190.89 171.31
  L 198.98 176.23
  C 195.68 178.23 196.51 181.35 199.69 182.78
  A 0.47 0.47 0.0 0 1 199.70 183.64
  Q 195.99 185.34 192.22 186.31
  Q 191.72 186.43 191.36 186.80
  Q 190.67 187.52 190.17 188.38
  Q 183.70 199.40 179.36 212.77
  A 0.69 0.68 -59.3 0 0 179.54 213.49
  L 181.16 215.03
  Q 182.98 216.75 180.48 216.68
  Q 176.86 216.59 173.07 218.42
  A 1.50 1.49 50.3 0 0 172.84 220.97
  Q 177.73 224.56 183.76 224.22
  Q 186.03 224.10 185.60 221.73
  Q 187.57 223.78 189.75 223.53
  Q 194.81 222.95 197.07 223.19
  Q 193.57 225.83 191.54 226.41
  Q 187.54 224.95 180.50 226.72
  Q 178.13 227.32 175.01 226.64
  Q 171.97 225.98 170.20 224.32
  Q 167.59 221.88 167.97 218.33
  Q 176.47 201.51 184.54 185.02
  Q 185.30 183.48 183.76 182.85
  Q 185.35 180.68 187.97 180.56
  Q 188.27 180.54 188.22 180.24
  L 188.16 179.89
  A 0.65 0.64 88.1 0 0 187.61 179.37
  Q 184.19 178.94 180.84 179.75
  A 0.54 0.54 0.0 0 1 180.22 179.01
  Q 182.21 174.48 185.52 172.43
  L 190.89 171.31
  Z"
/>
<path fill="#ffffff" d="
  M 253.48 178.38
  Q 250.11 179.69 246.80 181.53
  Q 242.12 184.13 240.21 184.71
  Q 232.28 187.13 224.15 184.23
  Q 223.69 184.06 223.20 184.06
  L 220.59 184.05
  Q 233.33 178.76 242.47 176.41
  Q 248.39 174.88 253.48 178.38
  Z"
/>
<path fill="#808080" d="
  M 159.96 185.40
  Q 155.05 183.96 152.22 180.75
  Q 157.74 177.27 164.75 177.58
  Q 166.90 177.68 168.95 178.93
  A 1.17 1.17 0.0 0 1 168.86 180.98
  L 159.96 185.40
  Z"
/>
<path fill="#000000" d="
  M 335.23 204.46
  Q 333.24 196.94 325.82 194.91
  A 0.67 0.67 0.0 0 1 325.55 193.77
  C 327.75 191.75 331.12 191.57 334.02 191.67
  Q 335.70 191.73 335.85 190.05
  Q 336.16 186.52 334.14 183.95
  Q 332.74 182.17 329.21 182.16
  Q 323.03 182.14 316.56 186.10
  Q 320.88 180.08 327.46 178.49
  C 331.61 177.49 335.66 176.91 338.06 181.36
  C 341.81 188.31 340.00 200.60 337.77 207.33
  Q 337.01 209.62 336.22 207.34
  L 335.23 204.46
  Z"
/>
<path fill="#ffffff" d="
  M 152.22 180.75
  Q 155.05 183.96 159.96 185.40
  Q 155.84 188.24 152.92 185.61
  Q 151.29 184.14 150.79 182.50
  Q 150.43 181.34 152.22 180.75
  Z"
/>
<path fill="#808080" d="
  M 335.23 204.46
  Q 334.23 204.04 334.19 205.00
  Q 334.06 207.77 333.52 208.57
  Q 331.18 210.21 329.17 213.10
  A 1.77 1.77 0.0 0 1 326.61 213.47
  C 324.14 211.48 324.09 209.32 323.18 206.48
  Q 322.91 205.63 322.57 206.45
  Q 321.42 209.20 320.41 211.88
  Q 319.87 213.28 318.40 214.28
  Q 317.62 208.04 315.03 202.12
  A 2.53 2.52 48.0 0 1 315.14 199.88
  Q 317.08 196.42 320.03 193.64
  C 321.03 192.70 321.42 191.36 321.25 190.01
  A 0.72 0.72 0.0 0 0 320.46 189.38
  C 316.52 189.80 314.41 191.71 311.05 193.31
  Q 309.80 193.90 310.71 192.86
  L 316.56 186.10
  Q 323.03 182.14 329.21 182.16
  Q 332.74 182.17 334.14 183.95
  Q 336.16 186.52 335.85 190.05
  Q 335.70 191.73 334.02 191.67
  C 331.12 191.57 327.75 191.75 325.55 193.77
  A 0.67 0.67 0.0 0 0 325.82 194.91
  Q 333.24 196.94 335.23 204.46
  Z"
/>
<path fill="#ffffff" d="
  M 183.76 182.85
  Q 185.30 183.48 184.54 185.02
  Q 176.47 201.51 167.97 218.33
  Q 167.38 215.15 168.82 211.51
  Q 174.55 197.03 177.96 189.70
  Q 180.39 184.48 183.76 182.85
  Z"
/>
<path fill="#808080" d="
  M 159.50 241.87
  Q 160.45 241.48 160.58 239.82
  Q 160.66 238.75 160.30 237.61
  C 158.12 230.63 158.51 223.92 161.47 217.35
  C 163.01 213.95 165.35 210.34 164.61 206.36
  Q 165.01 206.32 165.07 206.23
  A 1.14 1.11 37.3 0 0 164.84 204.69
  Q 162.29 202.70 159.91 200.14
  A 1.15 1.14 64.4 0 1 160.58 198.23
  Q 166.46 197.36 169.13 192.15
  L 170.91 189.78
  A 1.29 1.28 30.2 0 0 170.39 187.83
  Q 168.14 186.85 166.99 185.38
  C 169.08 183.52 173.76 182.06 175.08 185.22
  Q 175.49 186.18 175.15 187.37
  C 172.68 196.20 169.11 204.62 165.53 213.36
  C 164.61 215.61 163.86 219.61 164.05 222.02
  Q 164.64 229.32 171.32 232.47
  Q 171.80 232.70 171.56 233.18
  Q 166.53 243.13 164.99 252.93
  Q 164.57 255.62 163.44 253.14
  Q 161.06 247.94 159.50 241.87
  Z"
/>
<path fill="#ffffff" d="
  M 217.61 185.03
  Q 224.91 190.82 233.19 192.15
  Q 235.44 192.52 233.24 193.12
  Q 228.85 194.32 224.26 192.76
  L 215.95 187.65
  A 1.36 1.36 0.0 0 1 216.53 185.14
  L 217.61 185.03
  Z"
/>
<path fill="#ff000a" d="
  M 166.99 185.38
  Q 168.14 186.85 170.39 187.83
  A 1.29 1.28 30.2 0 1 170.91 189.78
  L 169.13 192.15
  Q 166.60 193.29 164.34 194.25
  Q 161.22 195.58 158.24 194.63
  A 1.88 1.88 0.0 0 1 157.08 192.10
  Q 159.93 185.39 166.99 185.38
  Z"
/>
<path fill="#ffffff" d="
  M 303.00 194.88
  L 295.55 205.70
  Q 291.60 207.27 288.57 210.24
  Q 288.49 210.33 288.40 210.24
  L 288.20 210.07
  A 0.42 0.41 -50.5 0 1 288.15 209.52
  Q 295.48 199.87 301.39 189.86
  Q 303.04 187.06 303.02 190.31
  L 303.00 194.88
  Z"
/>
<path fill="#808080" d="
  M 227.39 208.99
  Q 235.27 214.71 240.08 222.17
  C 241.46 224.30 242.04 226.54 242.68 228.93
  Q 243.47 231.93 241.20 229.82
  Q 237.37 226.26 233.38 224.24
  C 230.74 222.90 227.49 222.14 224.50 221.28
  L 219.32 215.45
  Q 219.32 211.54 215.91 208.57
  C 212.77 205.84 209.52 204.26 205.52 205.75
  Q 203.19 206.63 200.74 208.20
  L 196.45 208.21
  Q 195.18 208.22 196.25 207.53
  Q 201.32 204.29 206.69 201.45
  Q 207.18 201.19 207.73 201.32
  Q 218.58 203.82 227.39 208.99
  Z"
/>
<path fill="#ffffff" d="
  M 164.61 206.36
  C 165.35 210.34 163.01 213.95 161.47 217.35
  C 158.51 223.92 158.12 230.63 160.30 237.61
  Q 160.66 238.75 160.58 239.82
  Q 160.45 241.48 159.50 241.87
  Q 155.74 234.36 154.32 226.23
  C 153.12 219.38 153.34 209.28 157.53 203.30
  A 0.61 0.60 31.0 0 1 158.30 203.11
  L 164.61 206.36
  Z"
/>
<path fill="#fcc900" d="
  M 295.89 259.67
  Q 296.97 257.33 297.73 254.76
  Q 304.81 230.67 303.59 206.10
  Q 303.42 202.78 304.99 205.71
  Q 316.04 226.41 317.98 251.02
  Q 318.42 256.52 318.91 262.40
  Q 318.99 263.30 318.30 262.71
  Q 317.22 261.79 316.32 260.59
  Q 314.80 258.56 314.99 261.10
  Q 315.22 264.02 314.96 267.19
  Q 314.83 268.76 312.46 270.93
  Q 306.07 276.78 299.01 282.51
  C 288.37 291.14 277.45 299.83 266.21 307.50
  Q 265.13 308.24 265.78 307.10
  C 279.23 283.78 287.99 258.95 291.02 232.63
  Q 291.56 227.91 292.84 224.64
  Q 295.03 219.05 297.25 213.28
  Q 298.45 210.14 298.60 213.50
  C 298.63 214.21 298.23 215.65 298.24 216.63
  C 298.38 230.79 297.89 245.63 295.27 259.47
  Q 294.77 262.09 295.89 259.67
  Z"
/>
<path fill="#000000" d="
  M 333.52 208.57
  Q 333.02 214.29 329.73 217.86
  Q 327.25 220.55 323.73 221.01
  Q 317.89 221.78 318.40 214.28
  Q 319.87 213.28 320.41 211.88
  Q 321.42 209.20 322.57 206.45
  Q 322.91 205.63 323.18 206.48
  C 324.09 209.32 324.14 211.48 326.61 213.47
  A 1.77 1.77 0.0 0 0 329.17 213.10
  Q 331.18 210.21 333.52 208.57
  Z"
/>
<path fill="#ffffff" d="
  M 219.32 215.45
  L 224.50 221.28
  L 217.74 221.59
  A 0.31 0.31 0.0 0 1 217.47 221.10
  Q 218.94 218.98 219.32 215.45
  Z"
/>
<path fill="#ffffff" d="
  M 191.54 226.41
  Q 193.57 225.83 197.07 223.19
  Q 199.80 222.57 201.67 221.87
  Q 206.18 220.19 202.62 223.43
  Q 198.69 227.02 193.58 229.92
  Q 187.35 233.45 180.75 231.72
  Q 179.85 231.49 179.63 230.58
  Q 179.47 229.98 180.07 229.80
  L 191.54 226.41
  Z"
/>
<path fill="#fcc900" d="
  M 276.64 245.30
  Q 276.81 248.61 278.55 245.79
  L 283.89 237.14
  Q 285.80 234.04 285.03 237.60
  Q 283.55 244.43 281.79 251.92
  C 275.94 276.81 265.23 301.96 248.71 321.15
  Q 246.23 324.04 243.67 326.14
  Q 243.16 326.56 242.53 326.38
  Q 231.40 323.20 223.53 316.34
  Q 221.96 314.98 222.58 316.96
  C 224.17 322.09 228.02 326.47 232.04 329.98
  Q 233.79 331.51 231.51 331.05
  C 219.50 328.64 209.11 321.13 213.57 307.02
  C 219.63 287.83 233.39 269.82 249.00 257.18
  Q 249.15 257.05 249.36 257.05
  Q 250.04 257.07 249.73 257.67
  C 244.74 267.56 242.92 278.21 242.42 289.15
  Q 242.29 291.84 243.98 289.74
  Q 267.84 260.06 263.79 223.17
  Q 263.60 221.49 264.89 222.59
  Q 275.93 231.99 276.64 245.30
  Z"
/>
<path fill="#fcc900" d="
  M 239.98 240.58
  C 227.68 229.65 211.29 230.44 196.68 236.10
  Q 192.01 237.91 195.53 234.34
  C 202.30 227.46 213.30 224.70 223.20 225.11
  C 232.76 225.51 238.09 231.32 240.97 239.92
  Q 241.70 242.11 239.98 240.58
  Z"
/>
<path fill="#fcc900" d="
  M 338.54 226.44
  Q 339.49 225.04 339.48 226.73
  Q 339.47 228.77 339.21 230.81
  Q 337.64 243.11 337.53 253.58
  Q 337.48 258.30 336.41 253.70
  Q 334.43 245.17 333.03 235.64
  A 2.49 2.44 58.5 0 1 333.43 233.89
  L 338.54 226.44
  Z"
/>
<path fill="#fcc900" d="
  M 186.60 238.55
  C 179.98 239.24 174.77 242.64 171.45 248.60
  Q 170.21 250.83 170.06 248.28
  C 169.68 241.94 172.85 235.15 179.73 234.61
  Q 184.11 234.27 187.06 235.52
  Q 192.70 237.91 186.60 238.55
  Z"
/>
<path fill="#808080" d="
  M 340.66 308.80
  Q 338.85 310.36 337.13 311.70
  Q 334.90 313.44 333.77 314.75
  Q 327.05 322.60 326.51 332.97
  Q 323.21 348.50 320.80 363.79
  C 320.66 364.71 320.19 366.70 319.74 367.59
  Q 306.92 393.43 284.18 413.40
  A 0.61 0.61 0.0 0 1 283.17 413.04
  L 280.63 397.36
  Q 284.88 384.00 286.02 379.26
  Q 289.05 366.68 291.72 359.50
  Q 295.95 348.10 295.39 332.52
  C 295.07 323.70 291.55 315.38 285.01 309.45
  Q 283.03 307.65 280.72 305.64
  Q 300.96 289.96 327.23 267.72
  C 328.74 266.45 329.02 265.70 328.73 263.62
  Q 327.15 252.66 324.66 242.46
  A 2.51 2.50 -33.0 0 1 325.12 240.32
  L 329.03 235.29
  Q 329.64 234.51 329.71 235.50
  L 333.78 294.96
  A 8.41 8.32 28.6 0 0 334.84 298.49
  L 340.66 308.80
  Z
  M 312.95 330.44
  C 311.72 336.71 310.09 343.19 308.00 349.47
  Q 307.95 349.62 308.10 349.67
  L 308.10 349.67
  Q 308.23 349.71 308.29 349.59
  Q 317.28 329.81 322.25 308.83
  Q 325.27 296.10 325.52 282.93
  Q 325.56 280.42 324.16 278.16
  C 323.08 276.42 320.57 276.12 319.67 278.20
  Q 318.69 280.47 318.58 283.00
  Q 317.44 307.41 312.95 330.44
  Z"
/>
<path fill="#808080" d="
  M 209.29 238.55
  Q 199.74 239.80 188.23 244.51
  Q 180.03 247.87 176.59 253.50
  A 0.58 0.57 -78.7 0 1 176.18 253.78
  Q 175.61 253.87 175.51 253.46
  Q 175.48 253.34 175.52 253.21
  C 177.38 246.05 181.62 244.24 188.01 241.83
  Q 197.62 238.21 208.39 236.30
  Q 213.31 235.43 216.99 236.09
  C 220.20 236.66 224.95 237.84 227.50 240.03
  Q 228.31 240.72 227.28 240.47
  C 221.48 239.06 215.29 237.77 209.29 238.55
  Z"
/>
<path fill="#ffffff" d="
  M 184.40 251.43
  C 196.56 242.51 212.83 241.72 227.09 244.81
  Q 227.77 244.95 227.37 245.53
  C 225.23 248.62 221.70 250.92 218.33 252.34
  Q 204.62 258.13 189.78 260.54
  C 188.08 260.81 186.61 259.79 186.45 258.03
  Q 186.20 255.21 184.23 252.62
  A 0.84 0.84 0.0 0 1 184.40 251.43
  Z"
/>
<path fill="#ffffff" d="
  M 188.89 270.01
  Q 196.37 269.35 205.24 266.72
  Q 214.93 263.84 221.94 260.44
  Q 228.62 257.19 232.90 251.67
  Q 235.61 248.24 239.34 245.97
  Q 240.71 245.13 240.23 246.66
  C 235.67 261.41 214.61 269.63 201.49 272.22
  Q 195.18 273.47 188.89 270.01
  Z"
/>
<path fill="#808080" d="
  M 232.90 251.67
  Q 228.62 257.19 221.94 260.44
  Q 214.93 263.84 205.24 266.72
  Q 196.37 269.35 188.89 270.01
  Q 186.92 270.71 184.55 269.67
  Q 182.46 268.74 180.97 268.43
  L 175.50 262.46
  L 175.33 257.71
  A 0.32 0.32 0.0 0 1 175.88 257.47
  Q 178.73 260.30 182.64 262.05
  Q 183.21 262.31 183.30 262.92
  Q 183.38 263.51 183.23 264.11
  Q 183.03 264.88 183.81 264.70
  Q 200.26 260.95 214.93 257.51
  C 216.63 257.11 218.36 257.49 219.60 256.16
  Q 220.70 254.99 222.14 254.27
  Q 226.50 252.09 230.27 248.05
  Q 230.35 247.97 230.45 248.03
  L 230.71 248.19
  A 0.32 0.32 0.0 0 1 230.80 248.66
  Q 229.51 250.33 229.44 252.29
  Q 229.41 252.97 230.00 252.63
  Q 231.44 251.81 232.90 251.67
  Z"
/>
<path fill="#fcc900" d="
  M 170.09 278.64
  L 169.86 261.91
  A 0.81 0.81 0.0 0 1 171.39 261.52
  L 172.60 263.89
  A 0.81 0.81 0.0 0 1 172.69 264.25
  L 172.99 281.86
  A 0.81 0.81 0.0 0 1 171.42 282.17
  L 170.14 278.93
  A 0.81 0.81 0.0 0 1 170.09 278.64
  Z"
/>
<path fill="#ffffff" d="
  M 175.50 262.46
  L 180.97 268.43
  L 186.31 272.62
  A 0.49 0.49 0.0 0 1 186.12 273.48
  Q 181.64 274.55 177.78 277.19
  Q 176.90 277.79 176.80 276.73
  L 175.50 262.46
  Z"
/>
<path fill="#fcc900" d="
  M 226.81 272.18
  C 218.98 282.55 212.32 294.26 209.32 306.72
  C 207.17 315.61 210.50 321.99 216.36 328.25
  C 217.09 329.04 217.40 330.07 217.24 331.13
  Q 217.11 331.98 216.33 331.63
  C 195.87 322.56 192.33 300.18 197.46 280.44
  Q 197.57 280.00 198.02 279.92
  Q 211.97 277.34 226.42 271.65
  Q 227.54 271.21 226.81 272.18
  Z"
/>
<path fill="#ffffff" d="
  M 308.00 349.47
  C 310.09 343.19 311.72 336.71 312.95 330.44
  Q 317.44 307.41 318.58 283.00
  Q 318.69 280.47 319.67 278.20
  C 320.57 276.12 323.08 276.42 324.16 278.16
  Q 325.56 280.42 325.52 282.93
  Q 325.27 296.10 322.25 308.83
  Q 317.28 329.81 308.29 349.59
  Q 308.23 349.71 308.10 349.67
  L 308.10 349.67
  Q 307.95 349.62 308.00 349.47
  Z"
/>
<path fill="#fcc900" d="
  M 180.86 291.64
  Q 180.50 294.15 182.00 292.10
  Q 185.46 287.36 189.35 283.53
  Q 189.91 282.98 190.63 282.67
  A 0.39 0.38 83.3 0 1 191.16 283.09
  C 188.02 301.48 192.45 320.58 208.30 331.61
  A 1.31 1.30 21.0 0 1 208.85 332.83
  Q 208.71 334.05 207.77 335.11
  Q 207.29 335.66 206.61 335.38
  C 198.57 331.99 190.67 328.33 183.91 323.08
  A 0.47 0.47 0.0 0 0 183.16 323.39
  Q 183.08 323.99 183.29 324.55
  Q 186.44 333.19 193.19 338.04
  A 0.59 0.59 0.0 0 1 192.98 339.10
  L 185.83 340.76
  A 1.83 1.82 -34.3 0 1 184.39 340.49
  Q 175.52 334.53 169.14 328.27
  C 165.03 324.25 165.81 320.85 166.67 315.75
  C 168.71 303.47 173.38 291.59 181.44 282.10
  Q 184.00 279.09 182.83 282.87
  Q 181.49 287.19 180.86 291.64
  Z"
/>
<path fill="#ffffff" d="
  M 280.72 305.64
  Q 283.03 307.65 285.01 309.45
  C 291.55 315.38 295.07 323.70 295.39 332.52
  Q 295.95 348.10 291.72 359.50
  Q 289.05 366.68 286.02 379.26
  Q 284.88 384.00 280.63 397.36
  Q 280.94 389.78 281.51 382.28
  Q 282.21 373.08 282.37 367.21
  Q 282.94 346.61 283.17 326.00
  Q 283.30 314.30 280.72 305.64
  Z"
/>
<path fill="#ffffff" d="
  M 340.66 308.80
  L 353.30 330.85
  Q 353.63 331.43 353.32 332.03
  C 350.43 337.55 347.79 343.15 342.75 347.28
  Q 336.03 352.78 328.43 357.48
  Q 327.80 357.87 327.76 357.13
  L 326.51 332.97
  Q 327.05 322.60 333.77 314.75
  Q 334.90 313.44 337.13 311.70
  Q 338.85 310.36 340.66 308.80
  Z"
/>
<path fill="#808080" d="
  M 246.47 417.20
  L 249.65 412.05
  A 7.36 7.35 -29.2 0 0 250.73 408.25
  L 250.73 399.48
  A 2.38 2.36 -63.6 0 0 250.26 398.06
  Q 242.57 387.63 236.59 376.62
  Q 230.12 364.71 224.19 352.00
  Q 227.34 353.24 228.38 354.11
  C 235.84 360.32 242.27 367.33 248.95 374.30
  Q 250.71 376.14 249.58 373.85
  Q 242.86 360.25 236.85 347.90
  Q 235.51 345.15 236.10 341.78
  Q 236.24 340.99 237.04 340.94
  C 242.23 340.66 247.78 340.49 251.78 336.76
  Q 257.69 331.24 262.57 323.43
  A 0.41 0.41 0.0 0 1 263.23 323.38
  Q 270.77 332.37 273.84 342.45
  Q 277.83 355.56 277.19 369.83
  Q 276.23 391.49 269.07 410.58
  C 267.11 415.82 261.54 421.49 255.50 420.27
  Q 253.14 419.79 246.47 417.20
  Z"
/>
<path fill="#ffffff" d="
  M 224.19 352.00
  Q 230.12 364.71 236.59 376.62
  Q 242.57 387.63 250.26 398.06
  A 2.38 2.36 -63.6 0 1 250.73 399.48
  L 250.73 408.25
  A 7.36 7.35 -29.2 0 1 249.65 412.05
  L 246.47 417.20
  Q 240.52 415.62 235.19 413.62
  Q 232.69 412.68 231.30 411.12
  C 222.45 401.21 218.73 389.16 217.53 376.36
  Q 215.95 359.51 216.00 342.68
  A 0.40 0.39 -74.8 0 1 216.59 342.34
  Q 219.18 343.83 220.77 346.25
  Q 222.79 349.32 224.19 352.00
  Z"
/>
</svg>
