<?xml version="1.0" encoding="UTF-8" standalone="no"?>
<!DOCTYPE svg PUBLIC "-//W3C//DTD SVG 1.1//EN" "http://www.w3.org/Graphics/SVG/1.1/DTD/svg11.dtd">
<svg xmlns="http://www.w3.org/2000/svg" version="1.1" viewBox="0.00 0.00 512.00 512.00">
<g stroke-width="2.00" fill="none" stroke-linecap="butt">
<path stroke="#404040" vector-effect="non-scaling-stroke" d="
  M 401.65 91.27
  L 401.77 111.29"
/>
<path stroke="#404040" vector-effect="non-scaling-stroke" d="
  M 412.41 253.00
  L 412.33 251.15
  Q 412.32 250.96 412.13 251.01
  L 411.78 251.12
  Q 411.65 251.16 411.66 251.29
  L 411.74 261.34"
/>
<path stroke="#404040" vector-effect="non-scaling-stroke" d="
  M 410.39 292.92
  Q 409.37 293.26 409.43 295.75
  Q 409.58 302.00 409.15 310.00
  Q 409.15 310.06 408.47 314.94
  Q 408.05 317.90 408.79 320.86"
/>
<path stroke="#404040" vector-effect="non-scaling-stroke" d="
  M 407.67 344.60
  Q 405.35 357.73 405.63 371.51"
/>
<path stroke="#404040" vector-effect="non-scaling-stroke" d="
  M 400.86 385.94
  Q 398.91 382.85 397.45 379.81
  Q 396.12 377.04 395.97 373.97
  C 395.29 360.20 393.93 346.56 393.14 333.49
  Q 391.69 309.31 389.62 285.73
  C 389.39 283.10 389.55 280.44 389.65 277.82
  Q 389.72 276.02 388.58 277.42
  Q 384.81 282.09 381.45 287.24
  A 2.12 2.09 -35.5 0 0 381.17 288.85
  Q 385.37 306.17 388.00 325.01
  Q 388.43 328.06 386.21 329.97
  Q 348.83 362.01 309.81 392.05"
/>
<path stroke="#808080" vector-effect="non-scaling-stroke" d="
  M 309.81 392.05
  Q 310.35 395.06 311.09 397.56
  Q 312.20 401.33 312.46 403.03
  Q 313.68 410.96 313.68 419.00
  Q 313.70 441.30 312.96 463.48"
/>
<path stroke="#404040" vector-effect="non-scaling-stroke" d="
  M 302.94 471.50
  C 300.81 457.28 296.95 444.29 289.41 432.36
  Q 285.72 426.50 280.96 420.64
  A 0.25 0.25 0.0 0 0 280.55 420.66
  Q 273.01 432.68 263.72 441.86
  C 259.74 445.80 255.22 448.10 249.53 448.60
  Q 243.52 449.14 237.42 450.03
  A 0.44 0.43 88.4 0 0 237.05 450.43
  C 236.63 455.04 236.95 458.00 239.15 462.52
  Q 247.65 479.96 256.30 497.49"
/>
<path stroke="#404040" vector-effect="non-scaling-stroke" d="
  M 253.87 499.68
  Q 239.89 484.04 226.00 472.27
  Q 222.66 469.45 217.39 466.84"
/>
<path stroke="#808080" vector-effect="non-scaling-stroke" d="
  M 217.39 466.84
  C 215.07 462.53 209.69 453.06 205.11 451.85
  Q 204.62 451.72 204.61 452.22
  Q 204.21 470.79 205.66 490.50
  Q 206.35 499.76 207.02 508.88"
/>
<path stroke="#c0c0c0" vector-effect="non-scaling-stroke" d="
  M 217.39 466.84
  Q 219.22 471.47 221.48 475.88
  Q 229.37 491.21 237.32 506.49"
/>
<path stroke="#d1d0d2" stroke-opacity="0.733" vector-effect="non-scaling-stroke" d="
  M 232.69 507.40
  Q 220.04 503.43 208.85 508.94"
/>
<path stroke="#c0c0c0" vector-effect="non-scaling-stroke" d="
  M 369.25 425.09
  Q 370.69 421.08 371.89 417.20
  Q 377.37 399.35 380.01 383.33
  Q 381.38 374.98 382.25 363.40
  C 382.69 357.62 383.22 351.62 379.63 346.57
  C 377.77 343.95 374.14 344.97 372.96 347.72
  Q 371.63 350.86 371.50 353.25
  Q 369.41 392.67 362.90 429.35"
/>
<path stroke="#c0c0c0" vector-effect="non-scaling-stroke" d="
  M 333.13 452.64
  Q 334.98 438.26 332.02 424.75
  Q 329.39 412.74 322.45 404.31
  Q 318.65 399.70 309.81 392.05"
/>
<path stroke="#7e6500" vector-effect="non-scaling-stroke" d="
  M 229.32 15.60
  C 208.72 18.63 186.79 28.19 187.93 52.79
  Q 188.18 58.03 189.26 63.02
  A 0.52 0.51 69.0 0 0 190.02 63.36
  C 210.94 51.37 235.35 44.31 258.98 48.71
  A 1.09 1.09 0.0 0 0 260.23 47.89
  C 264.13 31.81 279.72 24.06 293.14 16.97
  A 0.47 0.47 0.0 0 0 292.96 16.09
  Q 283.81 15.39 272.66 14.45
  Q 250.09 12.56 229.32 15.60"
/>
<path stroke="#7e6500" vector-effect="non-scaling-stroke" d="
  M 326.61 60.98
  Q 326.32 62.08 325.28 62.55
  C 318.55 65.62 314.12 70.87 309.77 77.13
  A 0.63 0.63 0.0 0 0 310.08 78.08
  Q 320.11 81.56 327.81 87.45
  Q 329.02 88.38 330.54 88.45
  C 335.10 88.67 339.69 88.92 344.19 89.78
  C 360.67 92.95 375.94 98.56 391.06 105.73
  A 0.51 0.51 0.0 0 0 391.78 105.33
  Q 392.86 95.56 392.00 87.05
  C 390.24 69.44 380.22 56.46 362.24 52.98
  C 360.76 52.70 359.70 51.69 358.96 50.42
  C 352.88 39.96 343.98 30.35 332.26 27.25
  Q 320.82 24.22 308.51 26.13
  A 0.72 0.72 0.0 0 1 307.69 25.49
  L 307.33 21.89
  Q 307.26 21.26 306.67 21.49
  C 291.75 27.28 268.09 36.68 266.04 55.20
  Q 265.34 61.54 269.74 67.20
  Q 270.64 68.35 272.01 67.86
  Q 283.47 63.79 295.28 62.01
  C 305.04 60.54 316.11 60.52 326.18 60.42
  A 0.45 0.44 7.5 0 1 326.61 60.98"
/>
<path stroke="#7e6500" vector-effect="non-scaling-stroke" d="
  M 181.75 36.44
  C 182.95 32.46 185.14 28.56 187.15 24.81
  Q 187.52 24.12 186.74 24.24
  Q 176.56 25.78 167.67 30.35
  C 153.97 37.41 141.53 50.55 132.84 64.25
  Q 131.91 65.71 133.57 65.22
  Q 147.89 60.93 163.42 60.04
  Q 173.87 59.44 182.36 62.96
  Q 183.29 63.35 182.91 62.41
  Q 177.79 49.59 181.75 36.44"
/>
<path stroke="#808080" vector-effect="non-scaling-stroke" d="
  M 241.24 60.53
  Q 236.15 60.12 232.74 60.75
  Q 209.25 65.10 189.06 78.09
  A 1.21 1.21 0.0 0 1 187.26 77.45
  C 184.64 69.59 173.41 67.79 166.43 68.99"
/>
<path stroke="#404040" vector-effect="non-scaling-stroke" d="
  M 166.43 68.99
  Q 154.35 69.31 145.72 74.01
  Q 132.50 81.22 123.92 97.73
  Q 119.76 105.73 118.54 112.69
  Q 115.21 131.54 111.17 149.82
  Q 111.07 150.26 111.34 150.62
  A 0.69 0.68 -41.5 0 0 112.38 150.68
  Q 114.01 149.01 115.80 147.51
  Q 118.52 145.23 121.46 145.96"
/>
<path stroke="#808080" vector-effect="non-scaling-stroke" d="
  M 121.46 145.96
  C 120.00 148.86 117.39 150.98 116.09 152.92
  Q 114.57 155.19 113.43 157.82
  A 0.96 0.96 0.0 0 0 113.89 159.06
  Q 114.33 159.27 114.75 159.01
  C 120.68 155.48 127.09 153.87 134.01 152.35
  C 135.27 152.07 136.68 153.02 137.22 154.03
  Q 144.55 167.71 155.30 175.72"
/>
<path stroke="#404040" vector-effect="non-scaling-stroke" d="
  M 155.30 175.72
  Q 153.33 176.52 150.92 178.93
  Q 147.55 182.31 146.34 186.72
  A 0.80 0.80 0.0 0 0 147.31 187.70
  C 150.27 186.93 155.70 185.48 158.52 187.12
  Q 160.27 188.15 158.27 188.50
  Q 154.36 189.19 151.46 192.74"
/>
<path stroke="#808080" vector-effect="non-scaling-stroke" d="
  M 151.46 192.74
  Q 146.41 195.29 143.79 201.01
  Q 135.62 218.85 129.95 233.25
  Q 126.37 242.36 125.83 248.52"
/>
<path stroke="#404040" vector-effect="non-scaling-stroke" d="
  M 125.83 248.52
  Q 125.45 259.24 134.50 262.67
  C 141.58 265.36 150.21 263.78 157.48 262.04
  Q 158.35 261.83 159.21 261.57
  Q 161.18 260.97 163.29 261.48
  Q 164.80 261.84 166.16 261.21
  Q 167.11 260.77 167.31 262.07"
/>
<path stroke="#808080" vector-effect="non-scaling-stroke" d="
  M 167.31 262.07
  Q 160.20 265.74 154.78 266.81
  Q 150.43 267.67 146.19 269.00
  Q 145.12 269.34 145.43 270.42
  Q 145.61 271.06 146.24 271.51
  Q 146.87 271.96 147.59 272.11
  Q 156.08 273.93 161.77 271.80
  C 170.36 268.58 177.65 263.28 183.52 257.77
  Q 187.51 254.03 182.28 255.61
  L 173.85 258.15"
/>
<path stroke="#404040" vector-effect="non-scaling-stroke" d="
  M 173.85 258.15
  Q 168.20 257.48 162.12 258.62
  Q 158.18 259.36 155.59 256.31"
/>
<path stroke="#808080" vector-effect="non-scaling-stroke" d="
  M 155.59 256.31
  Q 155.27 255.53 155.90 255.40
  C 160.87 254.37 165.78 252.78 170.67 252.43
  Q 178.95 251.84 187.32 251.66
  Q 190.77 251.58 194.27 250.23
  C 199.72 248.11 197.12 242.40 194.08 239.43
  Q 188.75 234.22 182.06 234.25"
/>
<path stroke="#404040" vector-effect="non-scaling-stroke" d="
  M 182.06 234.25
  L 181.28 233.59
  Q 180.91 233.27 181.32 233.01
  C 185.18 230.57 192.21 227.36 196.78 229.64
  C 201.43 231.95 207.22 235.97 209.02 240.97
  Q 209.95 243.55 209.98 245.81"
/>
<path stroke="#808080" vector-effect="non-scaling-stroke" d="
  M 209.98 245.81
  Q 208.94 251.61 206.86 255.03
  A 0.42 0.41 -75.2 0 0 207.22 255.66
  L 218.09 255.30"
/>
<path stroke="#404040" vector-effect="non-scaling-stroke" d="
  M 218.09 255.30
  Q 228.00 256.89 236.54 261.91
  C 240.08 263.99 243.47 267.17 246.64 269.98
  Q 248.35 271.50 248.06 269.23
  Q 246.95 260.36 241.46 253.00
  Q 234.55 243.74 222.42 234.66"
/>
<path stroke="#808080" vector-effect="non-scaling-stroke" d="
  M 222.42 234.66
  Q 237.68 240.00 249.37 250.13
  C 256.46 256.29 262.25 264.70 261.95 274.26
  C 261.56 286.22 258.41 298.49 251.86 307.76
  Q 250.82 309.22 249.85 310.94
  Q 249.39 311.75 250.19 311.27
  Q 257.63 306.79 262.55 299.47"
/>
<path stroke="#404040" vector-effect="non-scaling-stroke" d="
  M 262.55 299.47
  C 271.75 290.67 275.07 279.18 274.96 266.52
  C 274.87 256.21 268.87 249.16 261.35 243.08
  A 0.55 0.55 0.0 0 1 261.18 242.46
  Q 261.38 241.92 261.81 242.03
  C 265.31 242.93 268.56 244.27 272.02 245.21
  Q 288.00 249.56 303.47 253.99
  A 3.02 3.02 0.0 0 0 306.75 252.85
  C 308.10 250.97 310.52 247.42 312.68 246.61
  Q 313.36 246.35 313.23 247.07
  Q 311.58 256.26 310.34 266.36
  Q 310.32 266.60 310.49 266.82
  Q 311.09 267.57 311.59 266.75
  Q 322.71 248.61 333.08 232.26
  Q 334.14 230.60 334.99 227.58"
/>
<path stroke="#808080" vector-effect="non-scaling-stroke" d="
  M 334.99 227.58
  L 345.31 212.69"
/>
<path stroke="#404040" vector-effect="non-scaling-stroke" d="
  M 345.31 212.69
  Q 346.79 212.69 347.18 213.91"
/>
<path stroke="#808080" vector-effect="non-scaling-stroke" d="
  M 347.18 213.91
  Q 353.63 222.58 355.98 226.53
  Q 368.31 247.31 375.79 270.49
  Q 376.21 271.80 376.79 273.10
  A 0.79 0.77 75.1 0 0 377.55 273.55
  C 387.88 272.74 394.96 261.84 399.15 253.42
  Q 403.96 243.73 410.01 232.73
  Q 414.21 225.07 415.20 217.97
  Q 416.58 208.04 415.02 195.32
  C 413.99 186.94 411.97 177.73 406.83 170.81
  Q 403.18 165.89 397.11 166.23
  C 385.82 166.85 375.77 172.98 368.05 180.80
  Q 365.46 183.42 363.00 186.42"
/>
<path stroke="#404040" vector-effect="non-scaling-stroke" d="
  M 363.00 186.42
  Q 363.28 181.92 364.18 177.74
  Q 364.72 175.22 362.74 173.74
  Q 353.40 166.77 341.83 165.70
  Q 341.36 165.66 341.47 166.12
  Q 345.27 182.22 339.33 198.15
  Q 339.19 198.54 338.79 198.46
  A 0.60 0.59 7.5 0 1 338.30 197.83
  C 339.04 186.91 336.96 172.63 331.03 162.68
  Q 330.78 162.25 330.30 162.09
  C 327.47 161.15 325.36 162.41 323.65 159.08
  Q 308.40 129.44 281.20 110.46
  A 0.56 0.56 0.0 0 1 281.19 109.55
  C 291.32 102.00 305.33 99.20 317.61 98.29
  A 0.65 0.64 -25.9 0 0 318.00 97.17
  Q 311.49 91.21 303.91 87.29"
/>
<path stroke="#808080" vector-effect="non-scaling-stroke" d="
  M 303.91 87.29
  L 298.28 83.69
  Q 297.25 83.03 297.69 81.89
  Q 299.70 76.68 302.68 71.42
  A 0.78 0.78 0.0 0 0 301.99 70.26
  L 297.67 70.35"
/>
<path stroke="#404040" vector-effect="non-scaling-stroke" d="
  M 297.67 70.35
  Q 285.99 69.31 274.77 73.55
  Q 273.09 74.19 268.15 77.29
  Q 267.73 77.56 267.33 77.25
  Q 259.59 71.41 258.81 61.52
  A 1.51 1.51 0.0 0 0 257.49 60.14
  Q 251.47 59.37 245.75 59.26
  Q 244.51 59.23 241.24 60.53"
/>
<path stroke="#c0c0c0" vector-effect="non-scaling-stroke" d="
  M 297.67 70.35
  Q 288.73 84.56 279.83 98.36
  Q 278.55 100.34 277.64 102.44
  Q 276.87 104.21 278.49 103.15
  Q 286.83 97.69 295.32 91.94
  C 298.11 90.06 300.89 88.75 303.91 87.29"
/>
<path stroke="#c0c0c0" vector-effect="non-scaling-stroke" d="
  M 363.00 186.42
  L 347.18 213.91"
/>
<path stroke="#c0c0c0" vector-effect="non-scaling-stroke" d="
  M 345.31 212.69
  L 346.14 201.94
  Q 346.18 201.41 345.68 201.59
  Q 344.48 202.01 343.80 203.13
  Q 333.15 220.65 322.64 234.87
  Q 319.54 239.07 323.63 235.83
  Q 328.46 232.01 334.99 227.58"
/>
<path stroke="#c0c0c0" vector-effect="non-scaling-stroke" d="
  M 262.55 299.47
  Q 263.59 296.78 264.17 293.98
  Q 264.85 290.71 265.52 288.43
  Q 268.54 278.09 266.74 267.33
  C 263.79 249.77 252.20 238.07 237.50 228.68
  A 0.62 0.62 0.0 0 1 237.36 227.75
  Q 237.48 227.61 237.67 227.56
  Q 238.85 227.30 239.81 227.77
  C 256.29 235.82 273.97 238.13 291.75 234.02
  Q 298.23 232.52 303.05 229.37
  C 314.39 221.97 323.73 207.42 328.70 194.48
  C 329.15 193.31 329.11 192.09 328.89 190.87
  Q 325.48 171.83 313.36 155.71
  C 299.71 137.54 280.14 126.40 257.22 121.46
  A 1.14 1.14 0.0 0 1 256.45 119.81
  Q 264.86 103.85 264.61 85.70
  Q 264.55 81.38 263.70 80.06
  Q 255.38 67.09 241.24 60.53"
/>
<path stroke="#c0c0c0" vector-effect="non-scaling-stroke" d="
  M 222.42 234.66
  Q 207.93 226.23 190.55 222.58
  Q 189.97 222.46 189.44 222.72
  Q 180.10 227.42 172.39 232.70
  Q 170.19 234.20 172.83 233.86
  Q 176.96 233.34 182.06 234.25"
/>
<path stroke="#c0c0c0" vector-effect="non-scaling-stroke" d="
  M 155.59 256.31
  Q 155.47 258.93 151.75 259.39
  C 146.01 260.11 137.59 258.35 133.49 253.56
  A 1.87 1.86 56.6 0 1 134.08 250.68
  C 137.26 249.10 141.20 247.74 144.78 247.73
  Q 146.50 247.73 148.08 247.45
  A 1.01 1.01 0.0 0 0 148.66 245.78
  L 145.30 242.09
  A 1.42 1.41 -57.2 0 1 145.00 240.69
  Q 151.74 220.25 161.27 203.43
  Q 162.83 200.68 164.86 198.53
  Q 165.23 198.13 165.76 198.05
  Q 171.13 197.25 176.02 194.39
  C 176.49 194.12 177.18 194.04 177.71 194.02
  A 0.74 0.74 0.0 0 0 178.39 193.46
  Q 178.58 192.72 177.86 192.40
  Q 174.58 190.93 173.44 188.04
  C 172.37 185.34 175.47 182.57 177.73 181.91"
/>
<path stroke="#808080" vector-effect="non-scaling-stroke" d="
  M 177.73 181.91
  Q 186.86 183.81 189.47 184.79
  C 191.03 185.38 193.48 187.64 193.05 189.71
  Q 191.70 196.16 189.25 200.56
  A 0.70 0.70 0.0 0 0 189.89 201.60
  Q 193.11 201.47 194.89 203.49"
/>
<path stroke="#c0c0c0" vector-effect="non-scaling-stroke" d="
  M 194.89 203.49
  Q 201.25 214.59 212.10 219.56
  C 225.08 225.50 238.19 222.45 248.64 213.41
  C 255.39 207.58 262.08 201.20 270.05 198.10
  C 280.09 194.21 288.56 188.87 297.41 182.98
  C 298.96 181.95 301.00 181.12 302.88 180.94
  Q 303.57 180.88 303.35 180.22
  Q 297.05 161.12 280.52 150.03
  Q 279.05 149.05 273.88 147.26"
/>
<path stroke="#808080" vector-effect="non-scaling-stroke" d="
  M 273.88 147.26
  C 264.51 138.83 255.98 129.03 242.77 126.83
  C 238.43 126.11 233.49 126.72 229.10 127.38
  Q 211.41 130.03 195.03 135.49
  C 192.68 136.27 190.32 136.81 187.92 137.39
  Q 186.22 137.81 186.17 139.55
  L 186.01 145.27
  Q 185.98 146.17 185.20 145.74
  L 177.99 141.85
  A 3.31 3.31 0.0 0 0 175.26 141.65
  L 162.08 146.51
  A 1.12 1.12 0.0 0 0 161.42 147.96
  C 163.96 154.66 166.51 159.50 172.57 164.81"
/>
<path stroke="#c0c0c0" vector-effect="non-scaling-stroke" d="
  M 172.57 164.81
  Q 168.94 165.72 163.53 163.10"
/>
<path stroke="#808080" vector-effect="non-scaling-stroke" d="
  M 163.53 163.10
  Q 158.71 159.71 154.80 154.59
  Q 154.72 154.48 154.58 154.46
  Q 154.43 154.45 154.31 154.53
  A 0.40 0.39 -26.2 0 0 154.15 154.98
  Q 155.62 159.31 157.10 163.62
  Q 158.64 168.11 163.94 173.94"
/>
<path stroke="#c0c0c0" vector-effect="non-scaling-stroke" d="
  M 163.94 173.94
  L 155.30 175.72"
/>
<path stroke="#c0c0c0" vector-effect="non-scaling-stroke" d="
  M 121.46 145.96
  Q 123.82 142.43 123.79 138.25
  C 123.73 131.09 123.09 122.95 125.81 116.28
  Q 134.72 94.43 152.69 79.19
  Q 159.22 73.66 166.43 68.99"
/>
<path stroke="#c0c0c0" vector-effect="non-scaling-stroke" d="
  M 218.09 255.30
  L 209.98 245.81"
/>
<path stroke="#404040" vector-effect="non-scaling-stroke" d="
  M 273.88 147.26
  Q 275.24 149.88 276.72 152.27
  Q 277.73 153.90 277.72 158.93
  Q 277.72 159.50 277.15 159.50
  C 274.87 159.51 273.27 157.76 271.32 156.86
  Q 252.68 148.33 233.85 152.30
  C 223.57 154.47 214.58 158.43 204.97 162.32
  C 202.90 163.16 200.52 165.14 201.37 167.61
  A 0.89 0.89 0.0 0 0 202.74 168.03
  Q 210.96 161.93 221.51 161.36
  Q 232.20 160.79 241.78 164.67"
/>
<path stroke="#808080" vector-effect="non-scaling-stroke" d="
  M 241.78 164.67
  Q 252.87 169.02 261.95 175.81
  Q 264.45 177.68 270.90 183.69"
/>
<path stroke="#404040" vector-effect="non-scaling-stroke" d="
  M 270.90 183.69
  L 274.11 188.26
  A 0.45 0.45 0.0 0 1 273.55 188.92
  L 264.98 184.89"
/>
<path stroke="#808080" vector-effect="non-scaling-stroke" d="
  M 264.98 184.89
  Q 256.06 179.51 246.50 182.27
  Q 231.82 186.51 214.40 193.34"
/>
<path stroke="#404040" vector-effect="non-scaling-stroke" d="
  M 214.40 193.34
  L 207.05 196.14"
/>
<path stroke="#808080" vector-effect="non-scaling-stroke" d="
  M 207.05 196.14
  Q 205.16 196.27 204.06 196.86
  A 1.56 1.56 0.0 0 0 203.66 199.31
  Q 206.51 202.31 209.85 204.12
  Q 213.67 206.19 218.15 208.74"
/>
<path stroke="#404040" vector-effect="non-scaling-stroke" d="
  M 218.15 208.74
  Q 209.75 209.54 202.22 205.88
  Q 200.49 205.04 198.61 204.59
  Q 196.79 204.15 194.89 203.49"
/>
<path stroke="#404040" vector-effect="non-scaling-stroke" d="
  M 177.73 181.91
  C 174.57 180.07 171.09 178.68 168.18 176.79
  Q 165.95 175.34 163.94 173.94"
/>
<path stroke="#404040" vector-effect="non-scaling-stroke" d="
  M 163.53 163.10
  Q 166.58 167.24 171.58 169.40
  Q 178.16 172.23 183.48 173.55
  Q 186.10 174.21 188.36 172.78
  Q 189.82 171.86 189.95 169.89
  Q 190.01 168.94 189.06 169.06
  Q 179.10 170.39 172.57 164.81"
/>
<path stroke="#c0c0c0" vector-effect="non-scaling-stroke" d="
  M 218.15 208.74
  Q 225.42 211.14 232.98 208.93
  Q 233.51 208.78 233.75 208.53
  A 0.44 0.44 0.0 0 0 233.50 207.79
  Q 218.98 205.34 207.05 196.14"
/>
<path stroke="#c0c0c0" vector-effect="non-scaling-stroke" d="
  M 214.40 193.34
  Q 217.46 194.96 220.76 195.81
  Q 238.64 200.44 254.11 190.88
  Q 260.33 187.04 264.98 184.89"
/>
<path stroke="#c0c0c0" vector-effect="non-scaling-stroke" d="
  M 270.90 183.69
  L 276.40 182.24
  A 0.88 0.87 64.9 0 0 276.89 180.88
  Q 267.09 167.18 250.50 164.74
  Q 244.90 163.92 241.78 164.67"
/>
<path stroke="#c0c0c0" vector-effect="non-scaling-stroke" d="
  M 173.85 258.15
  L 167.31 262.07"
/>
<path stroke="#c0c0c0" vector-effect="non-scaling-stroke" d="
  M 125.83 248.52
  C 127.92 248.79 128.60 246.33 129.40 244.68
  Q 140.87 220.99 152.68 197.44
  C 153.42 195.96 154.03 192.73 151.46 192.74"
/>
<path stroke="#7e6500" vector-effect="non-scaling-stroke" d="
  M 108.57 97.54
  C 110.25 101.09 111.86 104.68 113.97 107.93
  Q 115.05 109.58 115.21 107.61
  C 116.04 97.45 121.98 87.05 129.00 79.99
  Q 132.58 76.40 136.69 72.88
  Q 138.05 71.71 136.28 72.01
  Q 131.66 72.78 127.33 73.03
  C 125.21 73.15 123.49 73.77 121.98 75.21
  Q 113.33 83.38 108.57 95.04
  Q 108.02 96.39 108.57 97.54"
/>
<path stroke="#7e6500" vector-effect="non-scaling-stroke" d="
  M 359.40 160.72
  C 372.18 155.57 384.98 154.57 398.76 154.26
  A 1.05 1.05 0.0 0 0 399.78 153.34
  C 402.56 131.94 392.86 112.69 371.32 106.67
  Q 364.36 104.72 357.13 104.56
  Q 338.22 104.15 319.42 107.31
  C 312.46 108.48 305.72 110.61 299.00 112.37
  A 0.44 0.44 0.0 0 0 298.80 113.10
  Q 300.55 114.87 302.62 116.14
  C 316.84 124.87 330.23 137.42 334.32 153.72
  A 0.97 0.96 82.1 0 0 335.28 154.45
  C 343.77 154.33 351.34 156.97 358.85 160.70
  A 0.69 0.69 0.0 0 0 359.40 160.72"
/>
<path stroke="#7e6500" vector-effect="non-scaling-stroke" d="
  M 111.69 166.99
  C 108.77 168.26 104.58 170.71 103.05 173.65
  A 0.69 0.68 7.0 0 0 103.82 174.63
  C 116.73 171.61 130.56 173.21 142.62 178.01
  A 0.43 0.42 -70.0 0 0 143.19 177.74
  Q 143.26 177.51 143.19 177.27
  Q 140.45 168.01 132.88 161.70
  A 0.95 0.94 41.5 0 0 131.60 161.77
  C 130.62 162.79 129.42 163.52 127.98 163.56
  Q 119.18 163.75 111.69 166.99"
/>
<path stroke="#808080" vector-effect="non-scaling-stroke" d="
  M 101.32 188.92
  C 99.98 189.41 98.28 190.00 98.53 191.68
  C 99.05 195.22 103.01 198.10 106.24 199.09
  Q 107.95 199.61 111.32 198.04"
/>
<path stroke="#404040" vector-effect="non-scaling-stroke" d="
  M 111.32 198.04
  L 127.89 189.43
  A 1.67 1.67 0.0 0 0 128.59 187.15
  Q 128.03 186.12 126.93 185.55
  Q 123.02 183.52 119.00 183.61
  Q 108.98 183.83 101.32 188.92"
/>
<path stroke="#c0c0c0" vector-effect="non-scaling-stroke" d="
  M 111.32 198.04
  L 111.48 196.75
  Q 111.55 196.25 111.06 196.10
  Q 105.11 194.32 101.32 188.92"
/>
<path stroke="#800005" vector-effect="non-scaling-stroke" d="
  M 124.65 196.59
  Q 115.59 196.26 110.26 204.27
  C 108.64 206.71 107.38 210.94 110.99 211.80
  C 117.41 213.34 124.00 210.72 128.85 206.57"
/>
<path stroke="#404040" vector-effect="non-scaling-stroke" d="
  M 128.85 206.57
  C 126.17 213.67 120.31 215.96 113.49 217.86
  A 1.07 1.07 0.0 0 0 112.79 219.33
  C 114.16 222.38 116.93 224.49 119.60 226.38
  Q 120.62 227.10 121.27 228.12
  Q 122.69 230.35 120.93 230.69"
/>
<path stroke="#808080" vector-effect="non-scaling-stroke" d="
  M 120.93 230.69
  L 110.45 225.35
  A 0.68 0.68 0.0 0 0 109.58 225.57
  C 102.23 236.01 102.07 253.13 104.64 265.23
  Q 106.62 274.54 108.86 280.43
  Q 109.52 282.15 112.40 287.49"
/>
<path stroke="#404040" vector-effect="non-scaling-stroke" d="
  M 112.40 287.49
  Q 112.40 290.12 113.38 292.59
  Q 116.11 299.44 119.16 306.54
  Q 119.80 308.01 120.85 308.67
  Q 121.37 309.00 121.45 308.38
  Q 123.82 290.19 132.52 273.83
  A 0.39 0.39 0.0 0 0 132.27 273.27
  C 126.58 271.82 121.62 265.14 120.57 259.89
  Q 119.09 252.43 121.32 246.10
  Q 125.84 233.23 131.62 218.65
  Q 135.30 209.37 137.89 200.51
  Q 138.57 198.18 137.90 196.65
  C 135.58 191.35 128.35 193.71 124.65 196.59"
/>
<path stroke="#c0c0c0" vector-effect="non-scaling-stroke" d="
  M 112.40 287.49
  Q 113.48 287.90 114.14 286.36
  Q 114.45 285.65 114.18 283.59
  Q 113.99 282.03 113.49 280.44
  Q 108.01 262.70 117.53 245.02
  Q 120.00 240.43 121.18 236.15
  Q 121.94 233.37 120.93 230.69"
/>
<path stroke="#c04045" vector-effect="non-scaling-stroke" d="
  M 128.85 206.57
  L 131.30 203.80
  A 1.95 1.95 0.0 0 0 130.94 200.90
  L 124.65 196.59"
/>
<path stroke="#7e6500" vector-effect="non-scaling-stroke" d="
  M 333.35 319.07
  Q 333.18 318.70 333.26 318.25
  Q 336.22 300.80 337.28 283.77
  Q 338.08 270.98 338.33 246.50
  C 338.35 244.25 338.69 241.99 338.69 239.79
  Q 338.69 237.92 337.75 239.53
  Q 337.01 240.79 336.47 242.16
  Q 331.93 253.83 327.77 265.18
  C 327.27 266.55 326.79 268.54 326.70 269.97
  Q 325.96 281.93 323.69 293.41
  Q 312.95 347.81 285.05 395.00
  Q 284.60 395.76 285.41 395.42
  Q 287.34 394.60 289.08 393.35
  Q 323.59 368.57 355.97 340.69
  C 358.33 338.65 365.11 332.82 365.40 330.02
  Q 366.05 323.84 365.33 318.56
  Q 365.29 318.24 365.41 317.95
  Q 365.60 317.49 366.42 317.82
  A 0.79 0.71 -7.2 0 1 366.72 318.03
  L 370.50 322.26
  Q 371.98 323.92 371.77 321.70
  C 371.64 320.28 371.24 318.84 371.20 317.41
  C 370.54 289.93 364.85 262.75 353.30 237.76
  Q 350.56 231.83 347.10 226.93
  A 0.28 0.28 0.0 0 0 346.61 227.00
  Q 346.44 227.49 346.51 228.00
  Q 347.37 234.57 347.27 241.76
  Q 346.84 273.68 339.56 301.97
  C 338.05 307.85 336.04 313.50 333.80 319.06
  A 0.25 0.24 43.5 0 1 333.35 319.07"
/>
<path stroke="#7e6500" vector-effect="non-scaling-stroke" d="
  M 303.74 297.09
  A 0.26 0.26 0.0 0 1 303.38 296.87
  Q 302.43 272.16 283.58 256.85
  Q 282.08 255.64 281.89 257.55
  C 281.71 259.37 282.57 261.52 282.72 263.38
  C 285.77 299.59 274.64 334.60 252.35 363.45
  Q 250.48 365.87 248.07 367.71
  A 0.49 0.49 0.0 0 1 247.28 367.29
  Q 247.84 359.42 248.52 352.27
  Q 250.40 332.39 259.09 314.47
  Q 259.38 313.87 259.39 313.20
  Q 259.40 312.50 258.85 312.93
  C 236.72 330.18 218.19 354.09 206.35 379.29
  Q 202.55 387.38 200.22 395.68
  C 194.09 417.43 208.80 427.71 227.19 433.07
  Q 228.63 433.49 230.03 433.64
  Q 233.24 433.98 230.77 431.91
  Q 218.65 421.77 214.75 409.81
  A 0.64 0.64 0.0 0 1 215.52 408.99
  Q 216.50 409.23 217.26 409.92
  C 225.95 417.86 236.09 422.08 247.25 425.99
  A 2.34 2.34 0.0 0 0 249.59 425.52
  C 258.10 417.80 265.24 408.71 271.68 399.08
  Q 290.40 371.07 302.40 336.02
  C 309.12 316.37 313.26 298.15 317.21 278.84
  A 0.39 0.38 -10.1 0 0 316.63 278.44
  Q 316.05 278.80 315.68 279.41
  Q 310.86 287.37 306.06 295.05
  Q 305.18 296.45 303.74 297.09"
/>
<path stroke="#7e6500" vector-effect="non-scaling-stroke" d="
  M 212.43 272.89
  C 224.48 273.62 234.93 278.65 244.11 287.09
  Q 245.97 288.80 245.29 286.36
  C 241.72 273.46 232.99 262.99 219.40 261.53
  Q 199.04 259.35 181.24 268.90
  C 177.10 271.13 171.05 275.12 168.56 279.49
  A 0.47 0.47 0.0 0 0 169.04 280.19
  C 170.42 279.98 171.82 279.75 173.12 279.21
  Q 191.03 271.58 212.43 272.89"
/>
<path stroke="#7e6500" vector-effect="non-scaling-stroke" d="
  M 400.52 310.08
  Q 400.65 310.85 401.18 311.18
  Q 401.91 311.62 401.83 310.77
  C 401.19 303.73 402.63 296.75 403.06 289.49
  Q 403.74 277.82 405.31 265.93
  Q 405.48 264.61 405.36 263.27
  Q 405.18 261.25 404.07 262.95
  Q 400.13 268.94 395.80 274.75
  C 394.67 276.27 394.64 277.94 394.95 279.72
  Q 397.28 292.93 399.45 305.63
  C 399.70 307.13 400.28 308.61 400.52 310.08"
/>
<path stroke="#7e6500" vector-effect="non-scaling-stroke" d="
  M 134.72 295.41
  C 140.18 287.58 149.20 283.19 158.91 282.94
  Q 160.07 282.91 160.91 282.22
  A 1.58 1.57 -49.1 0 0 160.73 279.66
  Q 154.86 276.05 145.11 276.79
  C 135.96 277.48 130.35 286.13 129.84 294.77
  Q 129.68 297.52 129.79 300.42
  Q 129.86 302.63 131.08 300.78
  Q 132.89 298.03 134.72 295.41"
/>
<path stroke="#404040" vector-effect="non-scaling-stroke" d="
  M 207.32 283.21
  C 212.50 284.08 217.64 284.82 222.80 286.25
  Q 224.07 286.60 223.44 285.45
  Q 223.18 284.96 222.68 284.73
  C 216.30 281.71 208.21 278.60 201.00 278.73
  C 189.12 278.95 177.81 282.38 166.30 285.74
  C 159.94 287.60 152.19 290.76 146.59 294.18
  Q 140.87 297.67 138.86 306.54
  Q 138.05 310.08 140.27 307.21
  C 145.23 300.79 150.33 296.82 157.80 293.54
  Q 176.25 285.44 194.58 283.00
  Q 201.02 282.14 207.32 283.21"
/>
<path stroke="#808080" vector-effect="non-scaling-stroke" d="
  M 205.40 290.79
  C 187.59 289.30 168.22 293.33 153.38 303.80
  A 1.90 1.89 -37.9 0 0 153.03 306.58
  Q 156.38 310.51 156.45 315.72
  Q 156.46 316.25 156.77 316.68
  Q 158.70 319.38 162.28 318.81
  Q 177.96 316.31 196.98 309.90
  C 205.61 306.99 218.78 302.24 223.01 293.93
  A 0.36 0.36 0.0 0 0 222.77 293.42
  Q 214.08 291.52 205.40 290.79"
/>
<path stroke="#404040" vector-effect="non-scaling-stroke" d="
  M 232.46 303.96
  Q 229.01 304.56 226.10 306.85
  Q 225.59 307.25 224.97 307.19
  A 0.46 0.46 0.0 0 1 224.61 306.51
  L 228.66 299.34
  Q 228.90 298.91 228.51 298.61
  L 228.29 298.45
  Q 228.13 298.32 227.99 298.47
  Q 222.52 304.12 219.79 305.66
  Q 215.03 308.34 210.48 311.22
  Q 209.22 312.01 209.73 313.11
  A 0.47 0.46 83.3 0 1 209.22 313.76
  C 207.32 313.37 205.47 313.26 203.57 313.74
  Q 182.28 319.17 161.72 323.44
  Q 156.46 324.53 151.33 326.22
  Q 150.64 326.45 150.92 325.78
  Q 151.82 323.69 150.72 321.63
  Q 150.45 321.13 149.91 320.93
  Q 143.77 318.63 139.55 313.98
  Q 137.97 312.24 138.14 314.58
  L 138.66 321.97"
/>
<path stroke="#808080" vector-effect="non-scaling-stroke" d="
  M 138.66 321.97
  L 140.49 345.11
  Q 140.65 347.05 142.26 345.95
  Q 148.84 341.48 155.65 340.04
  A 0.92 0.91 58.8 0 0 156.04 338.44
  L 147.60 331.47"
/>
<path stroke="#404040" vector-effect="non-scaling-stroke" d="
  M 147.60 331.47
  Q 154.34 334.95 160.07 334.69"
/>
<path stroke="#808080" vector-effect="non-scaling-stroke" d="
  M 160.07 334.69
  C 163.68 335.67 166.95 337.50 170.42 337.92
  Q 177.19 338.74 182.87 337.43
  Q 201.90 333.07 219.16 323.54
  C 230.26 317.41 240.01 308.13 244.18 295.72
  Q 244.39 295.10 243.69 294.74
  A 0.85 0.84 -46.6 0 0 242.86 294.77
  Q 236.62 298.69 232.46 303.96"
/>
<path stroke="#c0c0c0" vector-effect="non-scaling-stroke" d="
  M 160.07 334.69
  Q 161.50 333.90 163.55 334.09
  Q 165.66 334.28 166.93 333.98
  Q 170.32 333.17 173.73 332.43
  Q 190.56 328.79 206.43 322.15
  Q 222.77 315.31 232.46 303.96"
/>
<path stroke="#c0c0c0" vector-effect="non-scaling-stroke" d="
  M 147.60 331.47
  Q 144.07 329.47 141.38 323.87
  Q 140.66 322.39 138.66 321.97"
/>
<path stroke="#7e6500" vector-effect="non-scaling-stroke" d="
  M 129.66 348.51
  A 1.10 1.10 0.0 0 0 129.76 348.96
  L 132.25 354.36
  A 1.10 1.10 0.0 0 0 134.34 353.89
  L 134.02 324.09
  A 1.10 1.10 0.0 0 0 133.81 323.44
  L 131.36 320.13
  A 1.10 1.10 0.0 0 0 129.37 320.80
  L 129.66 348.51"
/>
<path stroke="#7e6500" vector-effect="non-scaling-stroke" d="
  M 194.87 414.44
  Q 191.54 407.27 192.89 398.35
  Q 194.51 387.72 198.44 378.37
  C 204.75 363.35 212.83 350.31 222.37 337.34
  Q 223.00 336.48 221.98 336.80
  C 218.26 337.95 214.70 339.58 211.01 340.85
  Q 193.71 346.79 175.58 350.29
  A 1.62 1.61 -87.9 0 0 174.32 351.47
  C 166.00 383.08 171.85 420.58 205.53 434.70
  Q 206.34 435.04 206.52 434.18
  C 206.96 432.03 205.89 429.80 204.40 428.26
  Q 198.41 422.07 194.87 414.44"
/>
<path stroke="#7e6500" vector-effect="non-scaling-stroke" d="
  M 150.80 420.59
  A 0.47 0.47 0.0 0 1 151.54 420.25
  C 163.50 428.97 176.22 434.88 189.64 440.83
  Q 190.24 441.09 190.67 440.62
  Q 192.31 438.83 192.87 436.65
  A 1.91 1.90 24.3 0 0 192.10 434.62
  Q 172.61 421.31 165.95 397.79
  Q 160.16 377.39 164.12 355.72
  Q 164.53 353.45 162.80 354.98
  C 158.48 358.77 154.45 363.15 151.03 367.87
  Q 149.53 369.94 148.09 371.36
  Q 147.04 372.41 147.21 370.93
  Q 148.26 361.41 150.93 353.74
  Q 151.28 352.74 151.16 351.65
  A 0.39 0.39 0.0 0 0 150.49 351.43
  C 133.92 369.49 124.85 394.66 123.08 418.53
  C 122.74 423.16 126.69 427.74 129.85 430.67
  Q 139.62 439.73 152.28 448.38
  C 153.68 449.33 155.07 449.37 156.66 449.04
  Q 161.96 447.92 166.85 446.69
  Q 167.48 446.53 167.82 445.98
  A 0.63 0.62 33.7 0 0 167.65 445.15
  Q 155.97 436.82 150.95 421.91
  Q 150.73 421.28 150.80 420.59"
/>
<path stroke="#7e6500" vector-effect="non-scaling-stroke" d="
  M 188.53 150.75
  A 0.39 0.39 0.0 0 1 187.91 150.97
  C 184.84 148.61 180.84 145.72 176.77 146.13
  Q 172.88 146.53 169.31 147.30
  Q 166.81 147.84 168.39 149.85
  Q 172.34 154.85 178.25 159.46
  C 185.02 164.73 188.43 160.23 193.77 156.53
  C 210.56 144.90 230.69 138.52 251.02 141.48
  Q 253.40 141.83 251.83 140.01
  C 246.53 133.87 239.72 131.16 231.79 131.14
  C 218.91 131.11 204.78 136.81 192.70 142.03
  C 189.98 143.21 189.09 148.20 188.53 150.75"
/>
<path stroke="#800005" vector-effect="non-scaling-stroke" d="
  M 233.44 177.51
  Q 235.67 176.57 238.17 175.74
  A 0.50 0.50 0.0 0 0 238.40 174.94
  C 234.60 170.38 227.92 165.96 221.76 167.41
  Q 212.51 169.59 207.09 179.15
  C 206.38 180.40 206.57 182.21 207.74 183.13
  C 213.06 187.35 228.00 179.80 233.44 177.51"
/>
<path stroke="#c0c0c0" vector-effect="non-scaling-stroke" d="
  M 367.71 197.55
  L 357.57 209.39
  A 0.41 0.41 0.0 0 0 357.76 210.05
  Q 358.22 210.21 358.63 209.94
  C 361.84 207.85 365.38 205.69 369.08 204.59
  Q 371.52 203.87 373.87 202.82
  A 1.07 1.06 66.7 0 1 375.29 203.39
  C 376.28 205.76 375.63 208.08 373.87 209.83
  C 371.34 212.36 366.00 218.13 365.41 221.55
  Q 365.24 222.53 365.76 223.86
  Q 369.41 233.12 371.54 243.17"
/>
<path stroke="#808080" vector-effect="non-scaling-stroke" d="
  M 371.54 243.17
  C 369.42 247.33 370.62 250.21 373.98 253.11
  C 377.69 256.30 383.26 254.82 386.57 252.08
  Q 394.69 245.36 395.76 234.63"
/>
<path stroke="#c0c0c0" vector-effect="non-scaling-stroke" d="
  M 395.76 234.63
  Q 395.98 230.04 397.63 226.42"
/>
<path stroke="#808080" vector-effect="non-scaling-stroke" d="
  M 397.63 226.42
  L 400.08 233.53
  A 1.03 1.03 0.0 0 0 401.85 233.85
  Q 402.23 233.39 402.42 232.79
  Q 406.74 218.61 406.26 204.86
  Q 406.05 198.90 404.84 194.42
  C 403.70 190.25 400.26 184.82 395.73 184.47
  Q 392.98 184.25 389.35 184.80
  Q 376.10 186.79 367.71 197.55"
/>
<path stroke="#404040" vector-effect="non-scaling-stroke" d="
  M 397.63 226.42
  Q 396.13 219.46 389.93 215.16
  C 387.76 213.66 385.37 213.04 382.95 212.16
  A 1.10 1.10 0.0 0 1 382.58 210.32
  C 386.58 206.66 391.77 206.73 396.89 206.71
  A 2.21 2.21 0.0 0 0 399.03 204.99
  C 400.10 200.33 397.96 192.53 392.37 191.70
  Q 379.33 189.74 369.02 198.25
  A 0.77 0.76 -50.9 0 1 368.16 198.34
  Q 367.70 198.09 367.71 197.55"
/>
<path stroke="#404040" vector-effect="non-scaling-stroke" d="
  M 395.76 234.63
  Q 395.23 233.95 395.21 233.93
  Q 394.54 233.31 394.10 234.11
  Q 391.97 237.93 389.09 241.14
  C 383.72 247.14 379.42 235.16 378.82 231.66
  Q 378.36 228.92 377.27 231.47
  Q 376.50 233.27 375.90 235.21
  Q 374.58 239.51 371.54 243.17"
/>
</g>
<path fill="#000000" d="
  M 401.65 91.27
  L 401.77 111.29
  Q 400.49 113.79 400.32 116.54
  A 1.58 1.52 -60.6 0 0 400.56 117.47
  Q 405.35 125.07 407.32 132.60
  C 408.65 137.68 410.12 143.05 410.49 148.37
  Q 411.07 156.68 411.00 164.16
  A 2.68 2.65 24.8 0 0 411.67 165.95
  C 414.61 169.21 417.38 173.21 418.37 177.52
  C 418.99 180.23 419.96 182.70 420.30 185.50
  Q 422.19 200.94 421.64 208.33
  Q 420.93 217.86 421.32 223.48
  Q 421.73 229.30 421.01 232.61
  Q 419.87 237.81 416.86 241.13
  Q 411.87 246.63 412.41 253.00
  L 412.33 251.15
  Q 412.32 250.96 412.13 251.01
  L 411.78 251.12
  Q 411.65 251.16 411.66 251.29
  L 411.74 261.34
  L 410.39 292.92
  Q 409.37 293.26 409.43 295.75
  Q 409.58 302.00 409.15 310.00
  Q 409.15 310.06 408.47 314.94
  Q 408.05 317.90 408.79 320.86
  L 407.67 344.60
  Q 405.35 357.73 405.63 371.51
  L 400.86 385.94
  Q 398.91 382.85 397.45 379.81
  Q 396.12 377.04 395.97 373.97
  C 395.29 360.20 393.93 346.56 393.14 333.49
  Q 391.69 309.31 389.62 285.73
  C 389.39 283.10 389.55 280.44 389.65 277.82
  Q 389.72 276.02 388.58 277.42
  Q 384.81 282.09 381.45 287.24
  A 2.12 2.09 -35.5 0 0 381.17 288.85
  Q 385.37 306.17 388.00 325.01
  Q 388.43 328.06 386.21 329.97
  Q 348.83 362.01 309.81 392.05
  Q 310.35 395.06 311.09 397.56
  Q 312.20 401.33 312.46 403.03
  Q 313.68 410.96 313.68 419.00
  Q 313.70 441.30 312.96 463.48
  L 302.94 471.50
  C 300.81 457.28 296.95 444.29 289.41 432.36
  Q 285.72 426.50 280.96 420.64
  A 0.25 0.25 0.0 0 0 280.55 420.66
  Q 273.01 432.68 263.72 441.86
  C 259.74 445.80 255.22 448.10 249.53 448.60
  Q 243.52 449.14 237.42 450.03
  A 0.44 0.43 88.4 0 0 237.05 450.43
  C 236.63 455.04 236.95 458.00 239.15 462.52
  Q 247.65 479.96 256.30 497.49
  L 253.87 499.68
  Q 239.89 484.04 226.00 472.27
  Q 222.66 469.45 217.39 466.84
  C 215.07 462.53 209.69 453.06 205.11 451.85
  Q 204.62 451.72 204.61 452.22
  Q 204.21 470.79 205.66 490.50
  Q 206.35 499.76 207.02 508.88
  Q 204.19 509.76 201.44 508.72
  Q 200.97 508.54 200.89 508.04
  Q 199.42 498.57 199.07 490.55
  C 198.75 483.16 197.04 476.25 196.26 468.96
  C 195.88 465.39 194.24 462.13 193.91 458.43
  C 193.67 455.76 192.40 453.34 191.60 450.78
  C 191.19 449.46 190.01 448.48 188.82 447.88
  Q 184.10 445.47 179.02 442.99
  Q 178.32 442.64 177.55 442.61
  A 0.77 0.76 83.4 0 0 176.78 443.59
  Q 178.47 449.43 181.57 454.29
  A 0.96 0.96 0.0 0 1 180.80 455.77
  Q 166.32 456.33 152.71 458.54
  Q 150.60 458.88 148.82 458.00
  Q 144.99 456.11 140.71 451.93
  Q 127.95 439.48 117.90 426.42
  Q 114.77 422.35 114.99 417.00
  C 115.34 408.88 117.57 401.03 119.03 393.01
  Q 120.80 383.31 122.70 374.85
  C 123.57 370.99 123.77 367.21 124.93 363.45
  A 2.26 2.26 0.0 0 0 124.90 362.06
  C 123.24 357.23 121.50 352.53 120.19 347.60
  Q 118.68 341.93 117.14 336.14
  Q 116.16 332.48 115.65 328.80
  C 115.19 325.39 114.06 322.22 113.70 318.72
  Q 112.74 309.42 111.78 300.50
  Q 111.51 297.94 110.68 295.73
  C 107.50 287.22 104.24 278.84 100.55 270.62
  Q 98.94 267.04 97.43 262.72
  C 94.89 255.49 95.10 247.24 95.76 239.68
  C 96.21 234.51 98.14 229.12 99.70 223.97
  C 101.60 217.69 100.73 212.38 97.48 206.36
  Q 95.30 202.34 92.54 197.92
  C 89.01 192.29 89.64 182.64 92.25 176.75
  Q 95.82 168.72 100.59 162.87
  C 102.58 160.42 105.19 158.46 105.94 155.18
  C 106.61 152.27 107.89 149.57 108.25 146.61
  C 108.81 142.04 110.58 138.06 110.88 133.38
  C 111.12 129.71 111.89 126.10 111.78 122.39
  Q 111.41 110.43 103.83 100.60
  Q 102.76 99.22 103.36 97.48
  C 106.89 87.26 113.47 78.41 120.80 70.12
  C 122.09 68.65 122.96 66.56 122.58 64.55
  Q 121.92 60.98 124.28 57.78
  C 131.61 47.84 141.25 39.56 151.34 32.19
  Q 168.65 19.54 188.86 13.64
  Q 191.12 12.97 193.65 12.49
  C 197.43 11.76 201.61 13.15 204.82 14.89
  A 2.13 2.12 33.7 0 0 207.49 14.36
  C 209.23 12.20 211.70 8.56 214.61 8.34
  C 221.57 7.79 228.25 6.24 235.43 5.61
  Q 256.34 3.76 277.16 5.60
  Q 281.64 6.00 285.74 6.87
  C 289.65 7.70 293.72 7.96 297.68 8.85
  Q 313.01 12.29 325.29 18.39
  Q 329.14 20.31 333.17 21.25
  Q 337.40 22.24 341.31 23.50
  Q 360.22 29.59 371.74 47.25
  C 372.60 48.58 374.92 49.93 376.50 50.56
  C 386.14 54.40 393.63 60.38 397.40 70.09
  Q 401.17 79.78 401.65 91.27
  Z
  M 229.32 15.60
  C 208.72 18.63 186.79 28.19 187.93 52.79
  Q 188.18 58.03 189.26 63.02
  A 0.52 0.51 69.0 0 0 190.02 63.36
  C 210.94 51.37 235.35 44.31 258.98 48.71
  A 1.09 1.09 0.0 0 0 260.23 47.89
  C 264.13 31.81 279.72 24.06 293.14 16.97
  A 0.47 0.47 0.0 0 0 292.96 16.09
  Q 283.81 15.39 272.66 14.45
  Q 250.09 12.56 229.32 15.60
  Z
  M 326.61 60.98
  Q 326.32 62.08 325.28 62.55
  C 318.55 65.62 314.12 70.87 309.77 77.13
  A 0.63 0.63 0.0 0 0 310.08 78.08
  Q 320.11 81.56 327.81 87.45
  Q 329.02 88.38 330.54 88.45
  C 335.10 88.67 339.69 88.92 344.19 89.78
  C 360.67 92.95 375.94 98.56 391.06 105.73
  A 0.51 0.51 0.0 0 0 391.78 105.33
  Q 392.86 95.56 392.00 87.05
  C 390.24 69.44 380.22 56.46 362.24 52.98
  C 360.76 52.70 359.70 51.69 358.96 50.42
  C 352.88 39.96 343.98 30.35 332.26 27.25
  Q 320.82 24.22 308.51 26.13
  A 0.72 0.72 0.0 0 1 307.69 25.49
  L 307.33 21.89
  Q 307.26 21.26 306.67 21.49
  C 291.75 27.28 268.09 36.68 266.04 55.20
  Q 265.34 61.54 269.74 67.20
  Q 270.64 68.35 272.01 67.86
  Q 283.47 63.79 295.28 62.01
  C 305.04 60.54 316.11 60.52 326.18 60.42
  A 0.45 0.44 7.5 0 1 326.61 60.98
  Z
  M 181.75 36.44
  C 182.95 32.46 185.14 28.56 187.15 24.81
  Q 187.52 24.12 186.74 24.24
  Q 176.56 25.78 167.67 30.35
  C 153.97 37.41 141.53 50.55 132.84 64.25
  Q 131.91 65.71 133.57 65.22
  Q 147.89 60.93 163.42 60.04
  Q 173.87 59.44 182.36 62.96
  Q 183.29 63.35 182.91 62.41
  Q 177.79 49.59 181.75 36.44
  Z
  M 241.24 60.53
  Q 236.15 60.12 232.74 60.75
  Q 209.25 65.10 189.06 78.09
  A 1.21 1.21 0.0 0 1 187.26 77.45
  C 184.64 69.59 173.41 67.79 166.43 68.99
  Q 154.35 69.31 145.72 74.01
  Q 132.50 81.22 123.92 97.73
  Q 119.76 105.73 118.54 112.69
  Q 115.21 131.54 111.17 149.82
  Q 111.07 150.26 111.34 150.62
  A 0.69 0.68 -41.5 0 0 112.38 150.68
  Q 114.01 149.01 115.80 147.51
  Q 118.52 145.23 121.46 145.96
  C 120.00 148.86 117.39 150.98 116.09 152.92
  Q 114.57 155.19 113.43 157.82
  A 0.96 0.96 0.0 0 0 113.89 159.06
  Q 114.33 159.27 114.75 159.01
  C 120.68 155.48 127.09 153.87 134.01 152.35
  C 135.27 152.07 136.68 153.02 137.22 154.03
  Q 144.55 167.71 155.30 175.72
  Q 153.33 176.52 150.92 178.93
  Q 147.55 182.31 146.34 186.72
  A 0.80 0.80 0.0 0 0 147.31 187.70
  C 150.27 186.93 155.70 185.48 158.52 187.12
  Q 160.27 188.15 158.27 188.50
  Q 154.36 189.19 151.46 192.74
  Q 146.41 195.29 143.79 201.01
  Q 135.62 218.85 129.95 233.25
  Q 126.37 242.36 125.83 248.52
  Q 125.45 259.24 134.50 262.67
  C 141.58 265.36 150.21 263.78 157.48 262.04
  Q 158.35 261.83 159.21 261.57
  Q 161.18 260.97 163.29 261.48
  Q 164.80 261.84 166.16 261.21
  Q 167.11 260.77 167.31 262.07
  Q 160.20 265.74 154.78 266.81
  Q 150.43 267.67 146.19 269.00
  Q 145.12 269.34 145.43 270.42
  Q 145.61 271.06 146.24 271.51
  Q 146.87 271.96 147.59 272.11
  Q 156.08 273.93 161.77 271.80
  C 170.36 268.58 177.65 263.28 183.52 257.77
  Q 187.51 254.03 182.28 255.61
  L 173.85 258.15
  Q 168.20 257.48 162.12 258.62
  Q 158.18 259.36 155.59 256.31
  Q 155.27 255.53 155.90 255.40
  C 160.87 254.37 165.78 252.78 170.67 252.43
  Q 178.95 251.84 187.32 251.66
  Q 190.77 251.58 194.27 250.23
  C 199.72 248.11 197.12 242.40 194.08 239.43
  Q 188.75 234.22 182.06 234.25
  L 181.28 233.59
  Q 180.91 233.27 181.32 233.01
  C 185.18 230.57 192.21 227.36 196.78 229.64
  C 201.43 231.95 207.22 235.97 209.02 240.97
  Q 209.95 243.55 209.98 245.81
  Q 208.94 251.61 206.86 255.03
  A 0.42 0.41 -75.2 0 0 207.22 255.66
  L 218.09 255.30
  Q 228.00 256.89 236.54 261.91
  C 240.08 263.99 243.47 267.17 246.64 269.98
  Q 248.35 271.50 248.06 269.23
  Q 246.95 260.36 241.46 253.00
  Q 234.55 243.74 222.42 234.66
  Q 237.68 240.00 249.37 250.13
  C 256.46 256.29 262.25 264.70 261.95 274.26
  C 261.56 286.22 258.41 298.49 251.86 307.76
  Q 250.82 309.22 249.85 310.94
  Q 249.39 311.75 250.19 311.27
  Q 257.63 306.79 262.55 299.47
  C 271.75 290.67 275.07 279.18 274.96 266.52
  C 274.87 256.21 268.87 249.16 261.35 243.08
  A 0.55 0.55 0.0 0 1 261.18 242.46
  Q 261.38 241.92 261.81 242.03
  C 265.31 242.93 268.56 244.27 272.02 245.21
  Q 288.00 249.56 303.47 253.99
  A 3.02 3.02 0.0 0 0 306.75 252.85
  C 308.10 250.97 310.52 247.42 312.68 246.61
  Q 313.36 246.35 313.23 247.07
  Q 311.58 256.26 310.34 266.36
  Q 310.32 266.60 310.49 266.82
  Q 311.09 267.57 311.59 266.75
  Q 322.71 248.61 333.08 232.26
  Q 334.14 230.60 334.99 227.58
  L 345.31 212.69
  Q 346.79 212.69 347.18 213.91
  Q 353.63 222.58 355.98 226.53
  Q 368.31 247.31 375.79 270.49
  Q 376.21 271.80 376.79 273.10
  A 0.79 0.77 75.1 0 0 377.55 273.55
  C 387.88 272.74 394.96 261.84 399.15 253.42
  Q 403.96 243.73 410.01 232.73
  Q 414.21 225.07 415.20 217.97
  Q 416.58 208.04 415.02 195.32
  C 413.99 186.94 411.97 177.73 406.83 170.81
  Q 403.18 165.89 397.11 166.23
  C 385.82 166.85 375.77 172.98 368.05 180.80
  Q 365.46 183.42 363.00 186.42
  Q 363.28 181.92 364.18 177.74
  Q 364.72 175.22 362.74 173.74
  Q 353.40 166.77 341.83 165.70
  Q 341.36 165.66 341.47 166.12
  Q 345.27 182.22 339.33 198.15
  Q 339.19 198.54 338.79 198.46
  A 0.60 0.59 7.5 0 1 338.30 197.83
  C 339.04 186.91 336.96 172.63 331.03 162.68
  Q 330.78 162.25 330.30 162.09
  C 327.47 161.15 325.36 162.41 323.65 159.08
  Q 308.40 129.44 281.20 110.46
  A 0.56 0.56 0.0 0 1 281.19 109.55
  C 291.32 102.00 305.33 99.20 317.61 98.29
  A 0.65 0.64 -25.9 0 0 318.00 97.17
  Q 311.49 91.21 303.91 87.29
  L 298.28 83.69
  Q 297.25 83.03 297.69 81.89
  Q 299.70 76.68 302.68 71.42
  A 0.78 0.78 0.0 0 0 301.99 70.26
  L 297.67 70.35
  Q 285.99 69.31 274.77 73.55
  Q 273.09 74.19 268.15 77.29
  Q 267.73 77.56 267.33 77.25
  Q 259.59 71.41 258.81 61.52
  A 1.51 1.51 0.0 0 0 257.49 60.14
  Q 251.47 59.37 245.75 59.26
  Q 244.51 59.23 241.24 60.53
  Z
  M 108.57 97.54
  C 110.25 101.09 111.86 104.68 113.97 107.93
  Q 115.05 109.58 115.21 107.61
  C 116.04 97.45 121.98 87.05 129.00 79.99
  Q 132.58 76.40 136.69 72.88
  Q 138.05 71.71 136.28 72.01
  Q 131.66 72.78 127.33 73.03
  C 125.21 73.15 123.49 73.77 121.98 75.21
  Q 113.33 83.38 108.57 95.04
  Q 108.02 96.39 108.57 97.54
  Z
  M 359.40 160.72
  C 372.18 155.57 384.98 154.57 398.76 154.26
  A 1.05 1.05 0.0 0 0 399.78 153.34
  C 402.56 131.94 392.86 112.69 371.32 106.67
  Q 364.36 104.72 357.13 104.56
  Q 338.22 104.15 319.42 107.31
  C 312.46 108.48 305.72 110.61 299.00 112.37
  A 0.44 0.44 0.0 0 0 298.80 113.10
  Q 300.55 114.87 302.62 116.14
  C 316.84 124.87 330.23 137.42 334.32 153.72
  A 0.97 0.96 82.1 0 0 335.28 154.45
  C 343.77 154.33 351.34 156.97 358.85 160.70
  A 0.69 0.69 0.0 0 0 359.40 160.72
  Z
  M 111.69 166.99
  C 108.77 168.26 104.58 170.71 103.05 173.65
  A 0.69 0.68 7.0 0 0 103.82 174.63
  C 116.73 171.61 130.56 173.21 142.62 178.01
  A 0.43 0.42 -70.0 0 0 143.19 177.74
  Q 143.26 177.51 143.19 177.27
  Q 140.45 168.01 132.88 161.70
  A 0.95 0.94 41.5 0 0 131.60 161.77
  C 130.62 162.79 129.42 163.52 127.98 163.56
  Q 119.18 163.75 111.69 166.99
  Z
  M 101.32 188.92
  C 99.98 189.41 98.28 190.00 98.53 191.68
  C 99.05 195.22 103.01 198.10 106.24 199.09
  Q 107.95 199.61 111.32 198.04
  L 127.89 189.43
  A 1.67 1.67 0.0 0 0 128.59 187.15
  Q 128.03 186.12 126.93 185.55
  Q 123.02 183.52 119.00 183.61
  Q 108.98 183.83 101.32 188.92
  Z
  M 124.65 196.59
  Q 115.59 196.26 110.26 204.27
  C 108.64 206.71 107.38 210.94 110.99 211.80
  C 117.41 213.34 124.00 210.72 128.85 206.57
  C 126.17 213.67 120.31 215.96 113.49 217.86
  A 1.07 1.07 0.0 0 0 112.79 219.33
  C 114.16 222.38 116.93 224.49 119.60 226.38
  Q 120.62 227.10 121.27 228.12
  Q 122.69 230.35 120.93 230.69
  L 110.45 225.35
  A 0.68 0.68 0.0 0 0 109.58 225.57
  C 102.23 236.01 102.07 253.13 104.64 265.23
  Q 106.62 274.54 108.86 280.43
  Q 109.52 282.15 112.40 287.49
  Q 112.40 290.12 113.38 292.59
  Q 116.11 299.44 119.16 306.54
  Q 119.80 308.01 120.85 308.67
  Q 121.37 309.00 121.45 308.38
  Q 123.82 290.19 132.52 273.83
  A 0.39 0.39 0.0 0 0 132.27 273.27
  C 126.58 271.82 121.62 265.14 120.57 259.89
  Q 119.09 252.43 121.32 246.10
  Q 125.84 233.23 131.62 218.65
  Q 135.30 209.37 137.89 200.51
  Q 138.57 198.18 137.90 196.65
  C 135.58 191.35 128.35 193.71 124.65 196.59
  Z
  M 333.35 319.07
  Q 333.18 318.70 333.26 318.25
  Q 336.22 300.80 337.28 283.77
  Q 338.08 270.98 338.33 246.50
  C 338.35 244.25 338.69 241.99 338.69 239.79
  Q 338.69 237.92 337.75 239.53
  Q 337.01 240.79 336.47 242.16
  Q 331.93 253.83 327.77 265.18
  C 327.27 266.55 326.79 268.54 326.70 269.97
  Q 325.96 281.93 323.69 293.41
  Q 312.95 347.81 285.05 395.00
  Q 284.60 395.76 285.41 395.42
  Q 287.34 394.60 289.08 393.35
  Q 323.59 368.57 355.97 340.69
  C 358.33 338.65 365.11 332.82 365.40 330.02
  Q 366.05 323.84 365.33 318.56
  Q 365.29 318.24 365.41 317.95
  Q 365.60 317.49 366.42 317.82
  A 0.79 0.71 -7.2 0 1 366.72 318.03
  L 370.50 322.26
  Q 371.98 323.92 371.77 321.70
  C 371.64 320.28 371.24 318.84 371.20 317.41
  C 370.54 289.93 364.85 262.75 353.30 237.76
  Q 350.56 231.83 347.10 226.93
  A 0.28 0.28 0.0 0 0 346.61 227.00
  Q 346.44 227.49 346.51 228.00
  Q 347.37 234.57 347.27 241.76
  Q 346.84 273.68 339.56 301.97
  C 338.05 307.85 336.04 313.50 333.80 319.06
  A 0.25 0.24 43.5 0 1 333.35 319.07
  Z
  M 303.74 297.09
  A 0.26 0.26 0.0 0 1 303.38 296.87
  Q 302.43 272.16 283.58 256.85
  Q 282.08 255.64 281.89 257.55
  C 281.71 259.37 282.57 261.52 282.72 263.38
  C 285.77 299.59 274.64 334.60 252.35 363.45
  Q 250.48 365.87 248.07 367.71
  A 0.49 0.49 0.0 0 1 247.28 367.29
  Q 247.84 359.42 248.52 352.27
  Q 250.40 332.39 259.09 314.47
  Q 259.38 313.87 259.39 313.20
  Q 259.40 312.50 258.85 312.93
  C 236.72 330.18 218.19 354.09 206.35 379.29
  Q 202.55 387.38 200.22 395.68
  C 194.09 417.43 208.80 427.71 227.19 433.07
  Q 228.63 433.49 230.03 433.64
  Q 233.24 433.98 230.77 431.91
  Q 218.65 421.77 214.75 409.81
  A 0.64 0.64 0.0 0 1 215.52 408.99
  Q 216.50 409.23 217.26 409.92
  C 225.95 417.86 236.09 422.08 247.25 425.99
  A 2.34 2.34 0.0 0 0 249.59 425.52
  C 258.10 417.80 265.24 408.71 271.68 399.08
  Q 290.40 371.07 302.40 336.02
  C 309.12 316.37 313.26 298.15 317.21 278.84
  A 0.39 0.38 -10.1 0 0 316.63 278.44
  Q 316.05 278.80 315.68 279.41
  Q 310.86 287.37 306.06 295.05
  Q 305.18 296.45 303.74 297.09
  Z
  M 212.43 272.89
  C 224.48 273.62 234.93 278.65 244.11 287.09
  Q 245.97 288.80 245.29 286.36
  C 241.72 273.46 232.99 262.99 219.40 261.53
  Q 199.04 259.35 181.24 268.90
  C 177.10 271.13 171.05 275.12 168.56 279.49
  A 0.47 0.47 0.0 0 0 169.04 280.19
  C 170.42 279.98 171.82 279.75 173.12 279.21
  Q 191.03 271.58 212.43 272.89
  Z
  M 400.52 310.08
  Q 400.65 310.85 401.18 311.18
  Q 401.91 311.62 401.83 310.77
  C 401.19 303.73 402.63 296.75 403.06 289.49
  Q 403.74 277.82 405.31 265.93
  Q 405.48 264.61 405.36 263.27
  Q 405.18 261.25 404.07 262.95
  Q 400.13 268.94 395.80 274.75
  C 394.67 276.27 394.64 277.94 394.95 279.72
  Q 397.28 292.93 399.45 305.63
  C 399.70 307.13 400.28 308.61 400.52 310.08
  Z
  M 134.72 295.41
  C 140.18 287.58 149.20 283.19 158.91 282.94
  Q 160.07 282.91 160.91 282.22
  A 1.58 1.57 -49.1 0 0 160.73 279.66
  Q 154.86 276.05 145.11 276.79
  C 135.96 277.48 130.35 286.13 129.84 294.77
  Q 129.68 297.52 129.79 300.42
  Q 129.86 302.63 131.08 300.78
  Q 132.89 298.03 134.72 295.41
  Z
  M 207.32 283.21
  C 212.50 284.08 217.64 284.82 222.80 286.25
  Q 224.07 286.60 223.44 285.45
  Q 223.18 284.96 222.68 284.73
  C 216.30 281.71 208.21 278.60 201.00 278.73
  C 189.12 278.95 177.81 282.38 166.30 285.74
  C 159.94 287.60 152.19 290.76 146.59 294.18
  Q 140.87 297.67 138.86 306.54
  Q 138.05 310.08 140.27 307.21
  C 145.23 300.79 150.33 296.82 157.80 293.54
  Q 176.25 285.44 194.58 283.00
  Q 201.02 282.14 207.32 283.21
  Z
  M 205.40 290.79
  C 187.59 289.30 168.22 293.33 153.38 303.80
  A 1.90 1.89 -37.9 0 0 153.03 306.58
  Q 156.38 310.51 156.45 315.72
  Q 156.46 316.25 156.77 316.68
  Q 158.70 319.38 162.28 318.81
  Q 177.96 316.31 196.98 309.90
  C 205.61 306.99 218.78 302.24 223.01 293.93
  A 0.36 0.36 0.0 0 0 222.77 293.42
  Q 214.08 291.52 205.40 290.79
  Z
  M 232.46 303.96
  Q 229.01 304.56 226.10 306.85
  Q 225.59 307.25 224.97 307.19
  A 0.46 0.46 0.0 0 1 224.61 306.51
  L 228.66 299.34
  Q 228.90 298.91 228.51 298.61
  L 228.29 298.45
  Q 228.13 298.32 227.99 298.47
  Q 222.52 304.12 219.79 305.66
  Q 215.03 308.34 210.48 311.22
  Q 209.22 312.01 209.73 313.11
  A 0.47 0.46 83.3 0 1 209.22 313.76
  C 207.32 313.37 205.47 313.26 203.57 313.74
  Q 182.28 319.17 161.72 323.44
  Q 156.46 324.53 151.33 326.22
  Q 150.64 326.45 150.92 325.78
  Q 151.82 323.69 150.72 321.63
  Q 150.45 321.13 149.91 320.93
  Q 143.77 318.63 139.55 313.98
  Q 137.97 312.24 138.14 314.58
  L 138.66 321.97
  L 140.49 345.11
  Q 140.65 347.05 142.26 345.95
  Q 148.84 341.48 155.65 340.04
  A 0.92 0.91 58.8 0 0 156.04 338.44
  L 147.60 331.47
  Q 154.34 334.95 160.07 334.69
  C 163.68 335.67 166.95 337.50 170.42 337.92
  Q 177.19 338.74 182.87 337.43
  Q 201.90 333.07 219.16 323.54
  C 230.26 317.41 240.01 308.13 244.18 295.72
  Q 244.39 295.10 243.69 294.74
  A 0.85 0.84 -46.6 0 0 242.86 294.77
  Q 236.62 298.69 232.46 303.96
  Z
  M 129.66 348.51
  A 1.10 1.10 0.0 0 0 129.76 348.96
  L 132.25 354.36
  A 1.10 1.10 0.0 0 0 134.34 353.89
  L 134.02 324.09
  A 1.10 1.10 0.0 0 0 133.81 323.44
  L 131.36 320.13
  A 1.10 1.10 0.0 0 0 129.37 320.80
  L 129.66 348.51
  Z
  M 194.87 414.44
  Q 191.54 407.27 192.89 398.35
  Q 194.51 387.72 198.44 378.37
  C 204.75 363.35 212.83 350.31 222.37 337.34
  Q 223.00 336.48 221.98 336.80
  C 218.26 337.95 214.70 339.58 211.01 340.85
  Q 193.71 346.79 175.58 350.29
  A 1.62 1.61 -87.9 0 0 174.32 351.47
  C 166.00 383.08 171.85 420.58 205.53 434.70
  Q 206.34 435.04 206.52 434.18
  C 206.96 432.03 205.89 429.80 204.40 428.26
  Q 198.41 422.07 194.87 414.44
  Z
  M 150.80 420.59
  A 0.47 0.47 0.0 0 1 151.54 420.25
  C 163.50 428.97 176.22 434.88 189.64 440.83
  Q 190.24 441.09 190.67 440.62
  Q 192.31 438.83 192.87 436.65
  A 1.91 1.90 24.3 0 0 192.10 434.62
  Q 172.61 421.31 165.95 397.79
  Q 160.16 377.39 164.12 355.72
  Q 164.53 353.45 162.80 354.98
  C 158.48 358.77 154.45 363.15 151.03 367.87
  Q 149.53 369.94 148.09 371.36
  Q 147.04 372.41 147.21 370.93
  Q 148.26 361.41 150.93 353.74
  Q 151.28 352.74 151.16 351.65
  A 0.39 0.39 0.0 0 0 150.49 351.43
  C 133.92 369.49 124.85 394.66 123.08 418.53
  C 122.74 423.16 126.69 427.74 129.85 430.67
  Q 139.62 439.73 152.28 448.38
  C 153.68 449.33 155.07 449.37 156.66 449.04
  Q 161.96 447.92 166.85 446.69
  Q 167.48 446.53 167.82 445.98
  A 0.63 0.62 33.7 0 0 167.65 445.15
  Q 155.97 436.82 150.95 421.91
  Q 150.73 421.28 150.80 420.59
  Z"
/>
<path fill="#fcc900" d="
  M 187.93 52.79
  C 186.79 28.19 208.72 18.63 229.32 15.60
  Q 250.09 12.56 272.66 14.45
  Q 283.81 15.39 292.96 16.09
  A 0.47 0.47 0.0 0 1 293.14 16.97
  C 279.72 24.06 264.13 31.81 260.23 47.89
  A 1.09 1.09 0.0 0 1 258.98 48.71
  C 235.35 44.31 210.94 51.37 190.02 63.36
  A 0.52 0.51 69.0 0 1 189.26 63.02
  Q 188.18 58.03 187.93 52.79
  Z"
/>
<path fill="#fcc900" d="
  M 326.61 60.98
  A 0.45 0.44 7.5 0 0 326.18 60.42
  C 316.11 60.52 305.04 60.54 295.28 62.01
  Q 283.47 63.79 272.01 67.86
  Q 270.64 68.35 269.74 67.20
  Q 265.34 61.54 266.04 55.20
  C 268.09 36.68 291.75 27.28 306.67 21.49
  Q 307.26 21.26 307.33 21.89
  L 307.69 25.49
  A 0.72 0.72 0.0 0 0 308.51 26.13
  Q 320.82 24.22 332.26 27.25
  C 343.98 30.35 352.88 39.96 358.96 50.42
  C 359.70 51.69 360.76 52.70 362.24 52.98
  C 380.22 56.46 390.24 69.44 392.00 87.05
  Q 392.86 95.56 391.78 105.33
  A 0.51 0.51 0.0 0 1 391.06 105.73
  C 375.94 98.56 360.67 92.95 344.19 89.78
  C 339.69 88.92 335.10 88.67 330.54 88.45
  Q 329.02 88.38 327.81 87.45
  Q 320.11 81.56 310.08 78.08
  A 0.63 0.63 0.0 0 1 309.77 77.13
  C 314.12 70.87 318.55 65.62 325.28 62.55
  Q 326.32 62.08 326.61 60.98
  Z"
/>
<path fill="#fcc900" d="
  M 181.75 36.44
  Q 177.79 49.59 182.91 62.41
  Q 183.29 63.35 182.36 62.96
  Q 173.87 59.44 163.42 60.04
  Q 147.89 60.93 133.57 65.22
  Q 131.91 65.71 132.84 64.25
  C 141.53 50.55 153.97 37.41 167.67 30.35
  Q 176.56 25.78 186.74 24.24
  Q 187.52 24.12 187.15 24.81
  C 185.14 28.56 182.95 32.46 181.75 36.44
  Z"
/>
<path fill="#808080" d="
  M 297.67 70.35
  Q 288.73 84.56 279.83 98.36
  Q 278.55 100.34 277.64 102.44
  Q 276.87 104.21 278.49 103.15
  Q 286.83 97.69 295.32 91.94
  C 298.11 90.06 300.89 88.75 303.91 87.29
  Q 311.49 91.21 318.00 97.17
  A 0.65 0.64 -25.9 0 1 317.61 98.29
  C 305.33 99.20 291.32 102.00 281.19 109.55
  A 0.56 0.56 0.0 0 0 281.20 110.46
  Q 308.40 129.44 323.65 159.08
  C 325.36 162.41 327.47 161.15 330.30 162.09
  Q 330.78 162.25 331.03 162.68
  C 336.96 172.63 339.04 186.91 338.30 197.83
  A 0.60 0.59 7.5 0 0 338.79 198.46
  Q 339.19 198.54 339.33 198.15
  Q 345.27 182.22 341.47 166.12
  Q 341.36 165.66 341.83 165.70
  Q 353.40 166.77 362.74 173.74
  Q 364.72 175.22 364.18 177.74
  Q 363.28 181.92 363.00 186.42
  L 347.18 213.91
  Q 346.79 212.69 345.31 212.69
  L 346.14 201.94
  Q 346.18 201.41 345.68 201.59
  Q 344.48 202.01 343.80 203.13
  Q 333.15 220.65 322.64 234.87
  Q 319.54 239.07 323.63 235.83
  Q 328.46 232.01 334.99 227.58
  Q 334.14 230.60 333.08 232.26
  Q 322.71 248.61 311.59 266.75
  Q 311.09 267.57 310.49 266.82
  Q 310.32 266.60 310.34 266.36
  Q 311.58 256.26 313.23 247.07
  Q 313.36 246.35 312.68 246.61
  C 310.52 247.42 308.10 250.97 306.75 252.85
  A 3.02 3.02 0.0 0 1 303.47 253.99
  Q 288.00 249.56 272.02 245.21
  C 268.56 244.27 265.31 242.93 261.81 242.03
  Q 261.38 241.92 261.18 242.46
  A 0.55 0.55 0.0 0 0 261.35 243.08
  C 268.87 249.16 274.87 256.21 274.96 266.52
  C 275.07 279.18 271.75 290.67 262.55 299.47
  Q 263.59 296.78 264.17 293.98
  Q 264.85 290.71 265.52 288.43
  Q 268.54 278.09 266.74 267.33
  C 263.79 249.77 252.20 238.07 237.50 228.68
  A 0.62 0.62 0.0 0 1 237.36 227.75
  Q 237.48 227.61 237.67 227.56
  Q 238.85 227.30 239.81 227.77
  C 256.29 235.82 273.97 238.13 291.75 234.02
  Q 298.23 232.52 303.05 229.37
  C 314.39 221.97 323.73 207.42 328.70 194.48
  C 329.15 193.31 329.11 192.09 328.89 190.87
  Q 325.48 171.83 313.36 155.71
  C 299.71 137.54 280.14 126.40 257.22 121.46
  A 1.14 1.14 0.0 0 1 256.45 119.81
  Q 264.86 103.85 264.61 85.70
  Q 264.55 81.38 263.70 80.06
  Q 255.38 67.09 241.24 60.53
  Q 244.51 59.23 245.75 59.26
  Q 251.47 59.37 257.49 60.14
  A 1.51 1.51 0.0 0 1 258.81 61.52
  Q 259.59 71.41 267.33 77.25
  Q 267.73 77.56 268.15 77.29
  Q 273.09 74.19 274.77 73.55
  Q 285.99 69.31 297.67 70.35
  Z"
/>
<path fill="#ffffff" d="
  M 241.24 60.53
  Q 255.38 67.09 263.70 80.06
  Q 264.55 81.38 264.61 85.70
  Q 264.86 103.85 256.45 119.81
  A 1.14 1.14 0.0 0 0 257.22 121.46
  C 280.14 126.40 299.71 137.54 313.36 155.71
  Q 325.48 171.83 328.89 190.87
  C 329.11 192.09 329.15 193.31 328.70 194.48
  C 323.73 207.42 314.39 221.97 303.05 229.37
  Q 298.23 232.52 291.75 234.02
  C 273.97 238.13 256.29 235.82 239.81 227.77
  Q 238.85 227.30 237.67 227.56
  Q 237.48 227.61 237.36 227.75
  A 0.62 0.62 0.0 0 0 237.50 228.68
  C 252.20 238.07 263.79 249.77 266.74 267.33
  Q 268.54 278.09 265.52 288.43
  Q 264.85 290.71 264.17 293.98
  Q 263.59 296.78 262.55 299.47
  Q 257.63 306.79 250.19 311.27
  Q 249.39 311.75 249.85 310.94
  Q 250.82 309.22 251.86 307.76
  C 258.41 298.49 261.56 286.22 261.95 274.26
  C 262.25 264.70 256.46 256.29 249.37 250.13
  Q 237.68 240.00 222.42 234.66
  Q 207.93 226.23 190.55 222.58
  Q 189.97 222.46 189.44 222.72
  Q 180.10 227.42 172.39 232.70
  Q 170.19 234.20 172.83 233.86
  Q 176.96 233.34 182.06 234.25
  Q 188.75 234.22 194.08 239.43
  C 197.12 242.40 199.72 248.11 194.27 250.23
  Q 190.77 251.58 187.32 251.66
  Q 178.95 251.84 170.67 252.43
  C 165.78 252.78 160.87 254.37 155.90 255.40
  Q 155.27 255.53 155.59 256.31
  Q 155.47 258.93 151.75 259.39
  C 146.01 260.11 137.59 258.35 133.49 253.56
  A 1.87 1.86 56.6 0 1 134.08 250.68
  C 137.26 249.10 141.20 247.74 144.78 247.73
  Q 146.50 247.73 148.08 247.45
  A 1.01 1.01 0.0 0 0 148.66 245.78
  L 145.30 242.09
  A 1.42 1.41 -57.2 0 1 145.00 240.69
  Q 151.74 220.25 161.27 203.43
  Q 162.83 200.68 164.86 198.53
  Q 165.23 198.13 165.76 198.05
  Q 171.13 197.25 176.02 194.39
  C 176.49 194.12 177.18 194.04 177.71 194.02
  A 0.74 0.74 0.0 0 0 178.39 193.46
  Q 178.58 192.72 177.86 192.40
  Q 174.58 190.93 173.44 188.04
  C 172.37 185.34 175.47 182.57 177.73 181.91
  Q 186.86 183.81 189.47 184.79
  C 191.03 185.38 193.48 187.64 193.05 189.71
  Q 191.70 196.16 189.25 200.56
  A 0.70 0.70 0.0 0 0 189.89 201.60
  Q 193.11 201.47 194.89 203.49
  Q 201.25 214.59 212.10 219.56
  C 225.08 225.50 238.19 222.45 248.64 213.41
  C 255.39 207.58 262.08 201.20 270.05 198.10
  C 280.09 194.21 288.56 188.87 297.41 182.98
  C 298.96 181.95 301.00 181.12 302.88 180.94
  Q 303.57 180.88 303.35 180.22
  Q 297.05 161.12 280.52 150.03
  Q 279.05 149.05 273.88 147.26
  C 264.51 138.83 255.98 129.03 242.77 126.83
  C 238.43 126.11 233.49 126.72 229.10 127.38
  Q 211.41 130.03 195.03 135.49
  C 192.68 136.27 190.32 136.81 187.92 137.39
  Q 186.22 137.81 186.17 139.55
  L 186.01 145.27
  Q 185.98 146.17 185.20 145.74
  L 177.99 141.85
  A 3.31 3.31 0.0 0 0 175.26 141.65
  L 162.08 146.51
  A 1.12 1.12 0.0 0 0 161.42 147.96
  C 163.96 154.66 166.51 159.50 172.57 164.81
  Q 168.94 165.72 163.53 163.10
  Q 158.71 159.71 154.80 154.59
  Q 154.72 154.48 154.58 154.46
  Q 154.43 154.45 154.31 154.53
  A 0.40 0.39 -26.2 0 0 154.15 154.98
  Q 155.62 159.31 157.10 163.62
  Q 158.64 168.11 163.94 173.94
  L 155.30 175.72
  Q 144.55 167.71 137.22 154.03
  C 136.68 153.02 135.27 152.07 134.01 152.35
  C 127.09 153.87 120.68 155.48 114.75 159.01
  Q 114.33 159.27 113.89 159.06
  A 0.96 0.96 0.0 0 1 113.43 157.82
  Q 114.57 155.19 116.09 152.92
  C 117.39 150.98 120.00 148.86 121.46 145.96
  Q 123.82 142.43 123.79 138.25
  C 123.73 131.09 123.09 122.95 125.81 116.28
  Q 134.72 94.43 152.69 79.19
  Q 159.22 73.66 166.43 68.99
  C 173.41 67.79 184.64 69.59 187.26 77.45
  A 1.21 1.21 0.0 0 0 189.06 78.09
  Q 209.25 65.10 232.74 60.75
  Q 236.15 60.12 241.24 60.53
  Z"
/>
<path fill="#808080" d="
  M 166.43 68.99
  Q 159.22 73.66 152.69 79.19
  Q 134.72 94.43 125.81 116.28
  C 123.09 122.95 123.73 131.09 123.79 138.25
  Q 123.82 142.43 121.46 145.96
  Q 118.52 145.23 115.80 147.51
  Q 114.01 149.01 112.38 150.68
  A 0.69 0.68 -41.5 0 1 111.34 150.62
  Q 111.07 150.26 111.17 149.82
  Q 115.21 131.54 118.54 112.69
  Q 119.76 105.73 123.92 97.73
  Q 132.50 81.22 145.72 74.01
  Q 154.35 69.31 166.43 68.99
  Z"
/>
<path fill="#ffffff" d="
  M 303.91 87.29
  C 300.89 88.75 298.11 90.06 295.32 91.94
  Q 286.83 97.69 278.49 103.15
  Q 276.87 104.21 277.64 102.44
  Q 278.55 100.34 279.83 98.36
  Q 288.73 84.56 297.67 70.35
  L 301.99 70.26
  A 0.78 0.78 0.0 0 1 302.68 71.42
  Q 299.70 76.68 297.69 81.89
  Q 297.25 83.03 298.28 83.69
  L 303.91 87.29
  Z"
/>
<path fill="#fcc900" d="
  M 113.97 107.93
  C 111.86 104.68 110.25 101.09 108.57 97.54
  Q 108.02 96.39 108.57 95.04
  Q 113.33 83.38 121.98 75.21
  C 123.49 73.77 125.21 73.15 127.33 73.03
  Q 131.66 72.78 136.28 72.01
  Q 138.05 71.71 136.69 72.88
  Q 132.58 76.40 129.00 79.99
  C 121.98 87.05 116.04 97.45 115.21 107.61
  Q 115.05 109.58 113.97 107.93
  Z"
/>
<path fill="#808080" d="
  M 401.65 91.27
  Q 403.34 101.30 401.77 111.29
  L 401.65 91.27
  Z"
/>
<path fill="#fcc900" d="
  M 359.40 160.72
  A 0.69 0.69 0.0 0 1 358.85 160.70
  C 351.34 156.97 343.77 154.33 335.28 154.45
  A 0.97 0.96 82.1 0 1 334.32 153.72
  C 330.23 137.42 316.84 124.87 302.62 116.14
  Q 300.55 114.87 298.80 113.10
  A 0.44 0.44 0.0 0 1 299.00 112.37
  C 305.72 110.61 312.46 108.48 319.42 107.31
  Q 338.22 104.15 357.13 104.56
  Q 364.36 104.72 371.32 106.67
  C 392.86 112.69 402.56 131.94 399.78 153.34
  A 1.05 1.05 0.0 0 1 398.76 154.26
  C 384.98 154.57 372.18 155.57 359.40 160.72
  Z"
/>
<path fill="#000000" d="
  M 273.88 147.26
  Q 275.24 149.88 276.72 152.27
  Q 277.73 153.90 277.72 158.93
  Q 277.72 159.50 277.15 159.50
  C 274.87 159.51 273.27 157.76 271.32 156.86
  Q 252.68 148.33 233.85 152.30
  C 223.57 154.47 214.58 158.43 204.97 162.32
  C 202.90 163.16 200.52 165.14 201.37 167.61
  A 0.89 0.89 0.0 0 0 202.74 168.03
  Q 210.96 161.93 221.51 161.36
  Q 232.20 160.79 241.78 164.67
  Q 252.87 169.02 261.95 175.81
  Q 264.45 177.68 270.90 183.69
  L 274.11 188.26
  A 0.45 0.45 0.0 0 1 273.55 188.92
  L 264.98 184.89
  Q 256.06 179.51 246.50 182.27
  Q 231.82 186.51 214.40 193.34
  L 207.05 196.14
  Q 205.16 196.27 204.06 196.86
  A 1.56 1.56 0.0 0 0 203.66 199.31
  Q 206.51 202.31 209.85 204.12
  Q 213.67 206.19 218.15 208.74
  Q 209.75 209.54 202.22 205.88
  Q 200.49 205.04 198.61 204.59
  Q 196.79 204.15 194.89 203.49
  Q 193.11 201.47 189.89 201.60
  A 0.70 0.70 0.0 0 1 189.25 200.56
  Q 191.70 196.16 193.05 189.71
  C 193.48 187.64 191.03 185.38 189.47 184.79
  Q 186.86 183.81 177.73 181.91
  C 174.57 180.07 171.09 178.68 168.18 176.79
  Q 165.95 175.34 163.94 173.94
  Q 158.64 168.11 157.10 163.62
  Q 155.62 159.31 154.15 154.98
  A 0.40 0.39 -26.2 0 1 154.31 154.53
  Q 154.43 154.45 154.58 154.46
  Q 154.72 154.48 154.80 154.59
  Q 158.71 159.71 163.53 163.10
  Q 166.58 167.24 171.58 169.40
  Q 178.16 172.23 183.48 173.55
  Q 186.10 174.21 188.36 172.78
  Q 189.82 171.86 189.95 169.89
  Q 190.01 168.94 189.06 169.06
  Q 179.10 170.39 172.57 164.81
  C 166.51 159.50 163.96 154.66 161.42 147.96
  A 1.12 1.12 0.0 0 1 162.08 146.51
  L 175.26 141.65
  A 3.31 3.31 0.0 0 1 177.99 141.85
  L 185.20 145.74
  Q 185.98 146.17 186.01 145.27
  L 186.17 139.55
  Q 186.22 137.81 187.92 137.39
  C 190.32 136.81 192.68 136.27 195.03 135.49
  Q 211.41 130.03 229.10 127.38
  C 233.49 126.72 238.43 126.11 242.77 126.83
  C 255.98 129.03 264.51 138.83 273.88 147.26
  Z
  M 188.53 150.75
  A 0.39 0.39 0.0 0 1 187.91 150.97
  C 184.84 148.61 180.84 145.72 176.77 146.13
  Q 172.88 146.53 169.31 147.30
  Q 166.81 147.84 168.39 149.85
  Q 172.34 154.85 178.25 159.46
  C 185.02 164.73 188.43 160.23 193.77 156.53
  C 210.56 144.90 230.69 138.52 251.02 141.48
  Q 253.40 141.83 251.83 140.01
  C 246.53 133.87 239.72 131.16 231.79 131.14
  C 218.91 131.11 204.78 136.81 192.70 142.03
  C 189.98 143.21 189.09 148.20 188.53 150.75
  Z
  M 233.44 177.51
  Q 235.67 176.57 238.17 175.74
  A 0.50 0.50 0.0 0 0 238.40 174.94
  C 234.60 170.38 227.92 165.96 221.76 167.41
  Q 212.51 169.59 207.09 179.15
  C 206.38 180.40 206.57 182.21 207.74 183.13
  C 213.06 187.35 228.00 179.80 233.44 177.51
  Z"
/>
<path fill="#fcc900" d="
  M 188.53 150.75
  C 189.09 148.20 189.98 143.21 192.70 142.03
  C 204.78 136.81 218.91 131.11 231.79 131.14
  C 239.72 131.16 246.53 133.87 251.83 140.01
  Q 253.40 141.83 251.02 141.48
  C 230.69 138.52 210.56 144.90 193.77 156.53
  C 188.43 160.23 185.02 164.73 178.25 159.46
  Q 172.34 154.85 168.39 149.85
  Q 166.81 147.84 169.31 147.30
  Q 172.88 146.53 176.77 146.13
  C 180.84 145.72 184.84 148.61 187.91 150.97
  A 0.39 0.39 0.0 0 0 188.53 150.75
  Z"
/>
<path fill="#808080" d="
  M 273.88 147.26
  Q 279.05 149.05 280.52 150.03
  Q 297.05 161.12 303.35 180.22
  Q 303.57 180.88 302.88 180.94
  C 301.00 181.12 298.96 181.95 297.41 182.98
  C 288.56 188.87 280.09 194.21 270.05 198.10
  C 262.08 201.20 255.39 207.58 248.64 213.41
  C 238.19 222.45 225.08 225.50 212.10 219.56
  Q 201.25 214.59 194.89 203.49
  Q 196.79 204.15 198.61 204.59
  Q 200.49 205.04 202.22 205.88
  Q 209.75 209.54 218.15 208.74
  Q 225.42 211.14 232.98 208.93
  Q 233.51 208.78 233.75 208.53
  A 0.44 0.44 0.0 0 0 233.50 207.79
  Q 218.98 205.34 207.05 196.14
  L 214.40 193.34
  Q 217.46 194.96 220.76 195.81
  Q 238.64 200.44 254.11 190.88
  Q 260.33 187.04 264.98 184.89
  L 273.55 188.92
  A 0.45 0.45 0.0 0 0 274.11 188.26
  L 270.90 183.69
  L 276.40 182.24
  A 0.88 0.87 64.9 0 0 276.89 180.88
  Q 267.09 167.18 250.50 164.74
  Q 244.90 163.92 241.78 164.67
  Q 232.20 160.79 221.51 161.36
  Q 210.96 161.93 202.74 168.03
  A 0.89 0.89 0.0 0 1 201.37 167.61
  C 200.52 165.14 202.90 163.16 204.97 162.32
  C 214.58 158.43 223.57 154.47 233.85 152.30
  Q 252.68 148.33 271.32 156.86
  C 273.27 157.76 274.87 159.51 277.15 159.50
  Q 277.72 159.50 277.72 158.93
  Q 277.73 153.90 276.72 152.27
  Q 275.24 149.88 273.88 147.26
  Z"
/>
<path fill="#fcc900" d="
  M 111.69 166.99
  Q 119.18 163.75 127.98 163.56
  C 129.42 163.52 130.62 162.79 131.60 161.77
  A 0.95 0.94 41.5 0 1 132.88 161.70
  Q 140.45 168.01 143.19 177.27
  Q 143.26 177.51 143.19 177.74
  A 0.43 0.42 -70.0 0 1 142.62 178.01
  C 130.56 173.21 116.73 171.61 103.82 174.63
  A 0.69 0.68 7.0 0 1 103.05 173.65
  C 104.58 170.71 108.77 168.26 111.69 166.99
  Z"
/>
<path fill="#808080" d="
  M 163.53 163.10
  Q 168.94 165.72 172.57 164.81
  Q 179.10 170.39 189.06 169.06
  Q 190.01 168.94 189.95 169.89
  Q 189.82 171.86 188.36 172.78
  Q 186.10 174.21 183.48 173.55
  Q 178.16 172.23 171.58 169.40
  Q 166.58 167.24 163.53 163.10
  Z"
/>
<path fill="#ffffff" d="
  M 270.90 183.69
  Q 264.45 177.68 261.95 175.81
  Q 252.87 169.02 241.78 164.67
  Q 244.90 163.92 250.50 164.74
  Q 267.09 167.18 276.89 180.88
  A 0.88 0.87 64.9 0 1 276.40 182.24
  L 270.90 183.69
  Z"
/>
<path fill="#ffffff" d="
  M 347.18 213.91
  L 363.00 186.42
  Q 365.46 183.42 368.05 180.80
  C 375.77 172.98 385.82 166.85 397.11 166.23
  Q 403.18 165.89 406.83 170.81
  C 411.97 177.73 413.99 186.94 415.02 195.32
  Q 416.58 208.04 415.20 217.97
  Q 414.21 225.07 410.01 232.73
  Q 403.96 243.73 399.15 253.42
  C 394.96 261.84 387.88 272.74 377.55 273.55
  A 0.79 0.77 75.1 0 1 376.79 273.10
  Q 376.21 271.80 375.79 270.49
  Q 368.31 247.31 355.98 226.53
  Q 353.63 222.58 347.18 213.91
  Z
  M 367.71 197.55
  L 357.57 209.39
  A 0.41 0.41 0.0 0 0 357.76 210.05
  Q 358.22 210.21 358.63 209.94
  C 361.84 207.85 365.38 205.69 369.08 204.59
  Q 371.52 203.87 373.87 202.82
  A 1.07 1.06 66.7 0 1 375.29 203.39
  C 376.28 205.76 375.63 208.08 373.87 209.83
  C 371.34 212.36 366.00 218.13 365.41 221.55
  Q 365.24 222.53 365.76 223.86
  Q 369.41 233.12 371.54 243.17
  C 369.42 247.33 370.62 250.21 373.98 253.11
  C 377.69 256.30 383.26 254.82 386.57 252.08
  Q 394.69 245.36 395.76 234.63
  Q 395.98 230.04 397.63 226.42
  L 400.08 233.53
  A 1.03 1.03 0.0 0 0 401.85 233.85
  Q 402.23 233.39 402.42 232.79
  Q 406.74 218.61 406.26 204.86
  Q 406.05 198.90 404.84 194.42
  C 403.70 190.25 400.26 184.82 395.73 184.47
  Q 392.98 184.25 389.35 184.80
  Q 376.10 186.79 367.71 197.55
  Z"
/>
<path fill="#ff000a" d="
  M 233.44 177.51
  C 228.00 179.80 213.06 187.35 207.74 183.13
  C 206.57 182.21 206.38 180.40 207.09 179.15
  Q 212.51 169.59 221.76 167.41
  C 227.92 165.96 234.60 170.38 238.40 174.94
  A 0.50 0.50 0.0 0 1 238.17 175.74
  Q 235.67 176.57 233.44 177.51
  Z"
/>
<path fill="#808080" d="
  M 163.94 173.94
  Q 165.95 175.34 168.18 176.79
  C 171.09 178.68 174.57 180.07 177.73 181.91
  C 175.47 182.57 172.37 185.34 173.44 188.04
  Q 174.58 190.93 177.86 192.40
  Q 178.58 192.72 178.39 193.46
  A 0.74 0.74 0.0 0 1 177.71 194.02
  C 177.18 194.04 176.49 194.12 176.02 194.39
  Q 171.13 197.25 165.76 198.05
  Q 165.23 198.13 164.86 198.53
  Q 162.83 200.68 161.27 203.43
  Q 151.74 220.25 145.00 240.69
  A 1.42 1.41 -57.2 0 0 145.30 242.09
  L 148.66 245.78
  A 1.01 1.01 0.0 0 1 148.08 247.45
  Q 146.50 247.73 144.78 247.73
  C 141.20 247.74 137.26 249.10 134.08 250.68
  A 1.87 1.86 56.6 0 0 133.49 253.56
  C 137.59 258.35 146.01 260.11 151.75 259.39
  Q 155.47 258.93 155.59 256.31
  Q 158.18 259.36 162.12 258.62
  Q 168.20 257.48 173.85 258.15
  L 167.31 262.07
  Q 167.11 260.77 166.16 261.21
  Q 164.80 261.84 163.29 261.48
  Q 161.18 260.97 159.21 261.57
  Q 158.35 261.83 157.48 262.04
  C 150.21 263.78 141.58 265.36 134.50 262.67
  Q 125.45 259.24 125.83 248.52
  C 127.92 248.79 128.60 246.33 129.40 244.68
  Q 140.87 220.99 152.68 197.44
  C 153.42 195.96 154.03 192.73 151.46 192.74
  Q 154.36 189.19 158.27 188.50
  Q 160.27 188.15 158.52 187.12
  C 155.70 185.48 150.27 186.93 147.31 187.70
  A 0.80 0.80 0.0 0 1 146.34 186.72
  Q 147.55 182.31 150.92 178.93
  Q 153.33 176.52 155.30 175.72
  L 163.94 173.94
  Z"
/>
<path fill="#ffffff" d="
  M 264.98 184.89
  Q 260.33 187.04 254.11 190.88
  Q 238.64 200.44 220.76 195.81
  Q 217.46 194.96 214.40 193.34
  Q 231.82 186.51 246.50 182.27
  Q 256.06 179.51 264.98 184.89
  Z"
/>
<path fill="#808080" d="
  M 111.32 198.04
  L 111.48 196.75
  Q 111.55 196.25 111.06 196.10
  Q 105.11 194.32 101.32 188.92
  Q 108.98 183.83 119.00 183.61
  Q 123.02 183.52 126.93 185.55
  Q 128.03 186.12 128.59 187.15
  A 1.67 1.67 0.0 0 1 127.89 189.43
  L 111.32 198.04
  Z"
/>
<path fill="#000000" d="
  M 397.63 226.42
  Q 396.13 219.46 389.93 215.16
  C 387.76 213.66 385.37 213.04 382.95 212.16
  A 1.10 1.10 0.0 0 1 382.58 210.32
  C 386.58 206.66 391.77 206.73 396.89 206.71
  A 2.21 2.21 0.0 0 0 399.03 204.99
  C 400.10 200.33 397.96 192.53 392.37 191.70
  Q 379.33 189.74 369.02 198.25
  A 0.77 0.76 -50.9 0 1 368.16 198.34
  Q 367.70 198.09 367.71 197.55
  Q 376.10 186.79 389.35 184.80
  Q 392.98 184.25 395.73 184.47
  C 400.26 184.82 403.70 190.25 404.84 194.42
  Q 406.05 198.90 406.26 204.86
  Q 406.74 218.61 402.42 232.79
  Q 402.23 233.39 401.85 233.85
  A 1.03 1.03 0.0 0 1 400.08 233.53
  L 397.63 226.42
  Z"
/>
<path fill="#ffffff" d="
  M 101.32 188.92
  Q 105.11 194.32 111.06 196.10
  Q 111.55 196.25 111.48 196.75
  L 111.32 198.04
  Q 107.95 199.61 106.24 199.09
  C 103.01 198.10 99.05 195.22 98.53 191.68
  C 98.28 190.00 99.98 189.41 101.32 188.92
  Z"
/>
<path fill="#808080" d="
  M 397.63 226.42
  Q 395.98 230.04 395.76 234.63
  Q 395.23 233.95 395.21 233.93
  Q 394.54 233.31 394.10 234.11
  Q 391.97 237.93 389.09 241.14
  C 383.72 247.14 379.42 235.16 378.82 231.66
  Q 378.36 228.92 377.27 231.47
  Q 376.50 233.27 375.90 235.21
  Q 374.58 239.51 371.54 243.17
  Q 369.41 233.12 365.76 223.86
  Q 365.24 222.53 365.41 221.55
  C 366.00 218.13 371.34 212.36 373.87 209.83
  C 375.63 208.08 376.28 205.76 375.29 203.39
  A 1.07 1.06 66.7 0 0 373.87 202.82
  Q 371.52 203.87 369.08 204.59
  C 365.38 205.69 361.84 207.85 358.63 209.94
  Q 358.22 210.21 357.76 210.05
  A 0.41 0.41 0.0 0 1 357.57 209.39
  L 367.71 197.55
  Q 367.70 198.09 368.16 198.34
  A 0.77 0.76 -50.9 0 0 369.02 198.25
  Q 379.33 189.74 392.37 191.70
  C 397.96 192.53 400.10 200.33 399.03 204.99
  A 2.21 2.21 0.0 0 1 396.89 206.71
  C 391.77 206.73 386.58 206.66 382.58 210.32
  A 1.10 1.10 0.0 0 0 382.95 212.16
  C 385.37 213.04 387.76 213.66 389.93 215.16
  Q 396.13 219.46 397.63 226.42
  Z"
/>
<path fill="#ffffff" d="
  M 151.46 192.74
  C 154.03 192.73 153.42 195.96 152.68 197.44
  Q 140.87 220.99 129.40 244.68
  C 128.60 246.33 127.92 248.79 125.83 248.52
  Q 126.37 242.36 129.95 233.25
  Q 135.62 218.85 143.79 201.01
  Q 146.41 195.29 151.46 192.74
  Z"
/>
<path fill="#808080" d="
  M 112.40 287.49
  Q 113.48 287.90 114.14 286.36
  Q 114.45 285.65 114.18 283.59
  Q 113.99 282.03 113.49 280.44
  Q 108.01 262.70 117.53 245.02
  Q 120.00 240.43 121.18 236.15
  Q 121.94 233.37 120.93 230.69
  Q 122.69 230.35 121.27 228.12
  Q 120.62 227.10 119.60 226.38
  C 116.93 224.49 114.16 222.38 112.79 219.33
  A 1.07 1.07 0.0 0 1 113.49 217.86
  C 120.31 215.96 126.17 213.67 128.85 206.57
  L 131.30 203.80
  A 1.95 1.95 0.0 0 0 130.94 200.90
  L 124.65 196.59
  C 128.35 193.71 135.58 191.35 137.90 196.65
  Q 138.57 198.18 137.89 200.51
  Q 135.30 209.37 131.62 218.65
  Q 125.84 233.23 121.32 246.10
  Q 119.09 252.43 120.57 259.89
  C 121.62 265.14 126.58 271.82 132.27 273.27
  A 0.39 0.39 0.0 0 1 132.52 273.83
  Q 123.82 290.19 121.45 308.38
  Q 121.37 309.00 120.85 308.67
  Q 119.80 308.01 119.16 306.54
  Q 116.11 299.44 113.38 292.59
  Q 112.40 290.12 112.40 287.49
  Z"
/>
<path fill="#ffffff" d="
  M 207.05 196.14
  Q 218.98 205.34 233.50 207.79
  A 0.44 0.44 0.0 0 1 233.75 208.53
  Q 233.51 208.78 232.98 208.93
  Q 225.42 211.14 218.15 208.74
  Q 213.67 206.19 209.85 204.12
  Q 206.51 202.31 203.66 199.31
  A 1.56 1.56 0.0 0 1 204.06 196.86
  Q 205.16 196.27 207.05 196.14
  Z"
/>
<path fill="#ff000a" d="
  M 124.65 196.59
  L 130.94 200.90
  A 1.95 1.95 0.0 0 1 131.30 203.80
  L 128.85 206.57
  C 124.00 210.72 117.41 213.34 110.99 211.80
  C 107.38 210.94 108.64 206.71 110.26 204.27
  Q 115.59 196.26 124.65 196.59
  Z"
/>
<path fill="#ffffff" d="
  M 345.31 212.69
  L 334.99 227.58
  Q 328.46 232.01 323.63 235.83
  Q 319.54 239.07 322.64 234.87
  Q 333.15 220.65 343.80 203.13
  Q 344.48 202.01 345.68 201.59
  Q 346.18 201.41 346.14 201.94
  L 345.31 212.69
  Z"
/>
<path fill="#808080" d="
  M 222.42 234.66
  Q 234.55 243.74 241.46 253.00
  Q 246.95 260.36 248.06 269.23
  Q 248.35 271.50 246.64 269.98
  C 243.47 267.17 240.08 263.99 236.54 261.91
  Q 228.00 256.89 218.09 255.30
  L 209.98 245.81
  Q 209.95 243.55 209.02 240.97
  C 207.22 235.97 201.43 231.95 196.78 229.64
  C 192.21 227.36 185.18 230.57 181.32 233.01
  Q 180.91 233.27 181.28 233.59
  L 182.06 234.25
  Q 176.96 233.34 172.83 233.86
  Q 170.19 234.20 172.39 232.70
  Q 180.10 227.42 189.44 222.72
  Q 189.97 222.46 190.55 222.58
  Q 207.93 226.23 222.42 234.66
  Z"
/>
<path fill="#ffffff" d="
  M 120.93 230.69
  Q 121.94 233.37 121.18 236.15
  Q 120.00 240.43 117.53 245.02
  Q 108.01 262.70 113.49 280.44
  Q 113.99 282.03 114.18 283.59
  Q 114.45 285.65 114.14 286.36
  Q 113.48 287.90 112.40 287.49
  Q 109.52 282.15 108.86 280.43
  Q 106.62 274.54 104.64 265.23
  C 102.07 253.13 102.23 236.01 109.58 225.57
  A 0.68 0.68 0.0 0 1 110.45 225.35
  L 120.93 230.69
  Z"
/>
<path fill="#fcc900" d="
  M 333.35 319.07
  A 0.25 0.24 43.5 0 0 333.80 319.06
  C 336.04 313.50 338.05 307.85 339.56 301.97
  Q 346.84 273.68 347.27 241.76
  Q 347.37 234.57 346.51 228.00
  Q 346.44 227.49 346.61 227.00
  A 0.28 0.28 0.0 0 1 347.10 226.93
  Q 350.56 231.83 353.30 237.76
  C 364.85 262.75 370.54 289.93 371.20 317.41
  C 371.24 318.84 371.64 320.28 371.77 321.70
  Q 371.98 323.92 370.50 322.26
  L 366.72 318.03
  A 0.79 0.71 -7.2 0 0 366.42 317.82
  Q 365.60 317.49 365.41 317.95
  Q 365.29 318.24 365.33 318.56
  Q 366.05 323.84 365.40 330.02
  C 365.11 332.82 358.33 338.65 355.97 340.69
  Q 323.59 368.57 289.08 393.35
  Q 287.34 394.60 285.41 395.42
  Q 284.60 395.76 285.05 395.00
  Q 312.95 347.81 323.69 293.41
  Q 325.96 281.93 326.70 269.97
  C 326.79 268.54 327.27 266.55 327.77 265.18
  Q 331.93 253.83 336.47 242.16
  Q 337.01 240.79 337.75 239.53
  Q 338.69 237.92 338.69 239.79
  C 338.69 241.99 338.35 244.25 338.33 246.50
  Q 338.08 270.98 337.28 283.77
  Q 336.22 300.80 333.26 318.25
  Q 333.18 318.70 333.35 319.07
  Z"
/>
<path fill="#000000" d="
  M 395.76 234.63
  Q 394.69 245.36 386.57 252.08
  C 383.26 254.82 377.69 256.30 373.98 253.11
  C 370.62 250.21 369.42 247.33 371.54 243.17
  Q 374.58 239.51 375.90 235.21
  Q 376.50 233.27 377.27 231.47
  Q 378.36 228.92 378.82 231.66
  C 379.42 235.16 383.72 247.14 389.09 241.14
  Q 391.97 237.93 394.10 234.11
  Q 394.54 233.31 395.21 233.93
  Q 395.23 233.95 395.76 234.63
  Z"
/>
<path fill="#ffffff" d="
  M 218.09 255.30
  L 207.22 255.66
  A 0.42 0.41 -75.2 0 1 206.86 255.03
  Q 208.94 251.61 209.98 245.81
  L 218.09 255.30
  Z"
/>
<path fill="#808080" d="
  M 412.41 253.00
  L 411.74 261.34
  L 411.66 251.29
  Q 411.65 251.16 411.78 251.12
  L 412.13 251.01
  Q 412.32 250.96 412.33 251.15
  L 412.41 253.00
  Z"
/>
<path fill="#ffffff" d="
  M 167.31 262.07
  L 173.85 258.15
  L 182.28 255.61
  Q 187.51 254.03 183.52 257.77
  C 177.65 263.28 170.36 268.58 161.77 271.80
  Q 156.08 273.93 147.59 272.11
  Q 146.87 271.96 146.24 271.51
  Q 145.61 271.06 145.43 270.42
  Q 145.12 269.34 146.19 269.00
  Q 150.43 267.67 154.78 266.81
  Q 160.20 265.74 167.31 262.07
  Z"
/>
<path fill="#fcc900" d="
  M 303.74 297.09
  Q 305.18 296.45 306.06 295.05
  Q 310.86 287.37 315.68 279.41
  Q 316.05 278.80 316.63 278.44
  A 0.39 0.38 -10.1 0 1 317.21 278.84
  C 313.26 298.15 309.12 316.37 302.40 336.02
  Q 290.40 371.07 271.68 399.08
  C 265.24 408.71 258.10 417.80 249.59 425.52
  A 2.34 2.34 0.0 0 1 247.25 425.99
  C 236.09 422.08 225.95 417.86 217.26 409.92
  Q 216.50 409.23 215.52 408.99
  A 0.64 0.64 0.0 0 0 214.75 409.81
  Q 218.65 421.77 230.77 431.91
  Q 233.24 433.98 230.03 433.64
  Q 228.63 433.49 227.19 433.07
  C 208.80 427.71 194.09 417.43 200.22 395.68
  Q 202.55 387.38 206.35 379.29
  C 218.19 354.09 236.72 330.18 258.85 312.93
  Q 259.40 312.50 259.39 313.20
  Q 259.38 313.87 259.09 314.47
  Q 250.40 332.39 248.52 352.27
  Q 247.84 359.42 247.28 367.29
  A 0.49 0.49 0.0 0 0 248.07 367.71
  Q 250.48 365.87 252.35 363.45
  C 274.64 334.60 285.77 299.59 282.72 263.38
  C 282.57 261.52 281.71 259.37 281.89 257.55
  Q 282.08 255.64 283.58 256.85
  Q 302.43 272.16 303.38 296.87
  A 0.26 0.26 0.0 0 0 303.74 297.09
  Z"
/>
<path fill="#fcc900" d="
  M 244.11 287.09
  C 234.93 278.65 224.48 273.62 212.43 272.89
  Q 191.03 271.58 173.12 279.21
  C 171.82 279.75 170.42 279.98 169.04 280.19
  A 0.47 0.47 0.0 0 1 168.56 279.49
  C 171.05 275.12 177.10 271.13 181.24 268.90
  Q 199.04 259.35 219.40 261.53
  C 232.99 262.99 241.72 273.46 245.29 286.36
  Q 245.97 288.80 244.11 287.09
  Z"
/>
<path fill="#fcc900" d="
  M 400.52 310.08
  C 400.28 308.61 399.70 307.13 399.45 305.63
  Q 397.28 292.93 394.95 279.72
  C 394.64 277.94 394.67 276.27 395.80 274.75
  Q 400.13 268.94 404.07 262.95
  Q 405.18 261.25 405.36 263.27
  Q 405.48 264.61 405.31 265.93
  Q 403.74 277.82 403.06 289.49
  C 402.63 296.75 401.19 303.73 401.83 310.77
  Q 401.91 311.62 401.18 311.18
  Q 400.65 310.85 400.52 310.08
  Z"
/>
<path fill="#fcc900" d="
  M 158.91 282.94
  C 149.20 283.19 140.18 287.58 134.72 295.41
  Q 132.89 298.03 131.08 300.78
  Q 129.86 302.63 129.79 300.42
  Q 129.68 297.52 129.84 294.77
  C 130.35 286.13 135.96 277.48 145.11 276.79
  Q 154.86 276.05 160.73 279.66
  A 1.58 1.57 -49.1 0 1 160.91 282.22
  Q 160.07 282.91 158.91 282.94
  Z"
/>
<path fill="#808080" d="
  M 400.86 385.94
  Q 396.64 392.15 393.15 401.10
  C 392.77 402.08 391.55 403.82 390.61 404.72
  Q 387.33 407.86 384.21 411.29
  C 381.70 414.05 378.71 416.19 375.84 418.55
  C 373.57 420.42 371.61 423.00 369.25 425.09
  Q 370.69 421.08 371.89 417.20
  Q 377.37 399.35 380.01 383.33
  Q 381.38 374.98 382.25 363.40
  C 382.69 357.62 383.22 351.62 379.63 346.57
  C 377.77 343.95 374.14 344.97 372.96 347.72
  Q 371.63 350.86 371.50 353.25
  Q 369.41 392.67 362.90 429.35
  Q 361.73 430.24 360.37 431.20
  Q 359.07 432.12 357.96 433.17
  C 354.84 436.11 351.67 438.94 348.15 441.42
  Q 340.54 446.76 333.13 452.64
  Q 334.98 438.26 332.02 424.75
  Q 329.39 412.74 322.45 404.31
  Q 318.65 399.70 309.81 392.05
  Q 348.83 362.01 386.21 329.97
  Q 388.43 328.06 388.00 325.01
  Q 385.37 306.17 381.17 288.85
  A 2.12 2.09 -35.5 0 1 381.45 287.24
  Q 384.81 282.09 388.58 277.42
  Q 389.72 276.02 389.65 277.82
  C 389.55 280.44 389.39 283.10 389.62 285.73
  Q 391.69 309.31 393.14 333.49
  C 393.93 346.56 395.29 360.20 395.97 373.97
  Q 396.12 377.04 397.45 379.81
  Q 398.91 382.85 400.86 385.94
  Z"
/>
<path fill="#808080" d="
  M 207.32 283.21
  Q 201.02 282.14 194.58 283.00
  Q 176.25 285.44 157.80 293.54
  C 150.33 296.82 145.23 300.79 140.27 307.21
  Q 138.05 310.08 138.86 306.54
  Q 140.87 297.67 146.59 294.18
  C 152.19 290.76 159.94 287.60 166.30 285.74
  C 177.81 282.38 189.12 278.95 201.00 278.73
  C 208.21 278.60 216.30 281.71 222.68 284.73
  Q 223.18 284.96 223.44 285.45
  Q 224.07 286.60 222.80 286.25
  C 217.64 284.82 212.50 284.08 207.32 283.21
  Z"
/>
<path fill="#ffffff" d="
  M 153.38 303.80
  C 168.22 293.33 187.59 289.30 205.40 290.79
  Q 214.08 291.52 222.77 293.42
  A 0.36 0.36 0.0 0 1 223.01 293.93
  C 218.78 302.24 205.61 306.99 196.98 309.90
  Q 177.96 316.31 162.28 318.81
  Q 158.70 319.38 156.77 316.68
  Q 156.46 316.25 156.45 315.72
  Q 156.38 310.51 153.03 306.58
  A 1.90 1.89 -37.9 0 1 153.38 303.80
  Z"
/>
<path fill="#808080" d="
  M 410.39 292.92
  L 408.79 320.86
  Q 408.05 317.90 408.47 314.94
  Q 409.15 310.06 409.15 310.00
  Q 409.58 302.00 409.43 295.75
  Q 409.37 293.26 410.39 292.92
  Z"
/>
<path fill="#ffffff" d="
  M 160.07 334.69
  Q 161.50 333.90 163.55 334.09
  Q 165.66 334.28 166.93 333.98
  Q 170.32 333.17 173.73 332.43
  Q 190.56 328.79 206.43 322.15
  Q 222.77 315.31 232.46 303.96
  Q 236.62 298.69 242.86 294.77
  A 0.85 0.84 -46.6 0 1 243.69 294.74
  Q 244.39 295.10 244.18 295.72
  C 240.01 308.13 230.26 317.41 219.16 323.54
  Q 201.90 333.07 182.87 337.43
  Q 177.19 338.74 170.42 337.92
  C 166.95 337.50 163.68 335.67 160.07 334.69
  Z"
/>
<path fill="#808080" d="
  M 232.46 303.96
  Q 222.77 315.31 206.43 322.15
  Q 190.56 328.79 173.73 332.43
  Q 170.32 333.17 166.93 333.98
  Q 165.66 334.28 163.55 334.09
  Q 161.50 333.90 160.07 334.69
  Q 154.34 334.95 147.60 331.47
  Q 144.07 329.47 141.38 323.87
  Q 140.66 322.39 138.66 321.97
  L 138.14 314.58
  Q 137.97 312.24 139.55 313.98
  Q 143.77 318.63 149.91 320.93
  Q 150.45 321.13 150.72 321.63
  Q 151.82 323.69 150.92 325.78
  Q 150.64 326.45 151.33 326.22
  Q 156.46 324.53 161.72 323.44
  Q 182.28 319.17 203.57 313.74
  C 205.47 313.26 207.32 313.37 209.22 313.76
  A 0.47 0.46 83.3 0 0 209.73 313.11
  Q 209.22 312.01 210.48 311.22
  Q 215.03 308.34 219.79 305.66
  Q 222.52 304.12 227.99 298.47
  Q 228.13 298.32 228.29 298.45
  L 228.51 298.61
  Q 228.90 298.91 228.66 299.34
  L 224.61 306.51
  A 0.46 0.46 0.0 0 0 224.97 307.19
  Q 225.59 307.25 226.10 306.85
  Q 229.01 304.56 232.46 303.96
  Z"
/>
<path fill="#fcc900" d="
  M 129.66 348.51
  L 129.37 320.80
  A 1.10 1.10 0.0 0 1 131.36 320.13
  L 133.81 323.44
  A 1.10 1.10 0.0 0 1 134.02 324.09
  L 134.34 353.89
  A 1.10 1.10 0.0 0 1 132.25 354.36
  L 129.76 348.96
  A 1.10 1.10 0.0 0 1 129.66 348.51
  Z"
/>
<path fill="#ffffff" d="
  M 138.66 321.97
  Q 140.66 322.39 141.38 323.87
  Q 144.07 329.47 147.60 331.47
  L 156.04 338.44
  A 0.92 0.91 58.8 0 1 155.65 340.04
  Q 148.84 341.48 142.26 345.95
  Q 140.65 347.05 140.49 345.11
  L 138.66 321.97
  Z"
/>
<path fill="#fcc900" d="
  M 194.87 414.44
  Q 198.41 422.07 204.40 428.26
  C 205.89 429.80 206.96 432.03 206.52 434.18
  Q 206.34 435.04 205.53 434.70
  C 171.85 420.58 166.00 383.08 174.32 351.47
  A 1.62 1.61 -87.9 0 1 175.58 350.29
  Q 193.71 346.79 211.01 340.85
  C 214.70 339.58 218.26 337.95 221.98 336.80
  Q 223.00 336.48 222.37 337.34
  C 212.83 350.31 204.75 363.35 198.44 378.37
  Q 194.51 387.72 192.89 398.35
  Q 191.54 407.27 194.87 414.44
  Z"
/>
<path fill="#808080" d="
  M 407.67 344.60
  Q 407.72 355.99 406.75 367.00
  Q 406.62 368.55 405.63 371.51
  Q 405.35 357.73 407.67 344.60
  Z"
/>
<path fill="#ffffff" d="
  M 369.25 425.09
  L 362.90 429.35
  Q 369.41 392.67 371.50 353.25
  Q 371.63 350.86 372.96 347.72
  C 374.14 344.97 377.77 343.95 379.63 346.57
  C 383.22 351.62 382.69 357.62 382.25 363.40
  Q 381.38 374.98 380.01 383.33
  Q 377.37 399.35 371.89 417.20
  Q 370.69 421.08 369.25 425.09
  Z"
/>
<path fill="#fcc900" d="
  M 150.80 420.59
  Q 150.73 421.28 150.95 421.91
  Q 155.97 436.82 167.65 445.15
  A 0.63 0.62 33.7 0 1 167.82 445.98
  Q 167.48 446.53 166.85 446.69
  Q 161.96 447.92 156.66 449.04
  C 155.07 449.37 153.68 449.33 152.28 448.38
  Q 139.62 439.73 129.85 430.67
  C 126.69 427.74 122.74 423.16 123.08 418.53
  C 124.85 394.66 133.92 369.49 150.49 351.43
  A 0.39 0.39 0.0 0 1 151.16 351.65
  Q 151.28 352.74 150.93 353.74
  Q 148.26 361.41 147.21 370.93
  Q 147.04 372.41 148.09 371.36
  Q 149.53 369.94 151.03 367.87
  C 154.45 363.15 158.48 358.77 162.80 354.98
  Q 164.53 353.45 164.12 355.72
  Q 160.16 377.39 165.95 397.79
  Q 172.61 421.31 192.10 434.62
  A 1.91 1.90 24.3 0 1 192.87 436.65
  Q 192.31 438.83 190.67 440.62
  Q 190.24 441.09 189.64 440.83
  C 176.22 434.88 163.50 428.97 151.54 420.25
  A 0.47 0.47 0.0 0 0 150.80 420.59
  Z"
/>
<path fill="#ffffff" d="
  M 309.81 392.05
  Q 318.65 399.70 322.45 404.31
  Q 329.39 412.74 332.02 424.75
  Q 334.98 438.26 333.13 452.64
  Q 321.80 455.73 312.96 463.48
  Q 313.70 441.30 313.68 419.00
  Q 313.68 410.96 312.46 403.03
  Q 312.20 401.33 311.09 397.56
  Q 310.35 395.06 309.81 392.05
  Z"
/>
<path fill="#808080" d="
  M 302.94 471.50
  Q 297.06 475.65 290.76 479.69
  C 285.92 482.79 280.46 484.21 275.69 487.37
  C 273.25 489.00 271.08 490.55 268.26 491.57
  Q 262.18 493.77 256.30 497.49
  Q 247.65 479.96 239.15 462.52
  C 236.95 458.00 236.63 455.04 237.05 450.43
  A 0.44 0.43 88.4 0 1 237.42 450.03
  Q 243.52 449.14 249.53 448.60
  C 255.22 448.10 259.74 445.80 263.72 441.86
  Q 273.01 432.68 280.55 420.66
  A 0.25 0.25 0.0 0 1 280.96 420.64
  Q 285.72 426.50 289.41 432.36
  C 296.95 444.29 300.81 457.28 302.94 471.50
  Z"
/>
<path fill="#ffffff" d="
  M 217.39 466.84
  Q 219.22 471.47 221.48 475.88
  Q 229.37 491.21 237.32 506.49
  L 232.69 507.40
  Q 220.04 503.43 208.85 508.94
  L 207.02 508.88
  Q 206.35 499.76 205.66 490.50
  Q 204.21 470.79 204.61 452.22
  Q 204.62 451.72 205.11 451.85
  C 209.69 453.06 215.07 462.53 217.39 466.84
  Z"
/>
<path fill="#808080" d="
  M 217.39 466.84
  Q 222.66 469.45 226.00 472.27
  Q 239.89 484.04 253.87 499.68
  Q 246.45 504.50 237.32 506.49
  Q 229.37 491.21 221.48 475.88
  Q 219.22 471.47 217.39 466.84
  Z"
/>
<path fill="#6e6a70" fill-opacity="0.467" d="
  M 232.69 507.40
  Q 228.82 508.22 224.94 508.46
  Q 222.88 508.59 217.61 509.24
  Q 213.19 509.79 208.85 508.94
  Q 220.04 503.43 232.69 507.40
  Z"
/>
</svg>
