<svg id="logoAnimated" xmlns="http://www.w3.org/2000/svg" xmlns:xlink="http://www.w3.org/1999/xlink" viewBox="0 0 264 264" shape-rendering="geometricPrecision" text-rendering="geometricPrecision">
    <g transform="translate(54 0)">
        <path d="M129.935,153.908l2.424-50.333.056-.193.088-.103c.248-.292.479-.569.69-.805c3.022-3.416,2.899-5.197,2.732-7.659-.068-.969-.143-2.067-.041-3.394.596-7.785-.335-16.704-3.747-19.222h-.039l-.236-.237.002-.167c.232-14.068-4.47-19.439-4.518-19.493l-.361-.358.437-.244c.01-.005.885-.729.885-4.875c0-16.324-5.37-18.596-10.563-20.792l-1.123-.481-.066-.121c-5.235-9.785-16.301-10.868-16.573-10.929C92.549,10.295,82.824,8.16,71.083,8.16c-9.199,0-16.515,1.375-17.569,1.584l-2.291,2.621-4.335-1.391C29.463,14.54,18.346,29.083,18.032,29.977v3.157l-.107.115c-6.607,7.089-7.434,11.272-7.533,12.067.578.711,3.164,4.115,3.456,8.548.257,3.917-1.708,11.404-2.657,14.605C5.764,74.332,3.869,79.994,5.99,84.006c.308.583.659,1.146,1.015,1.718c1.568,2.514,3.344,5.362,1.613,10.358-2.092,6.033-1.917,11.484.536,16.665c1.19,2.514,3.604,8.821,4.586,11.416l.078.205.002.068c.208,8.289,2.776,18.617,5.229,25.176l.039.106-.021.111c0,0-3.077,15.626-3.728,18.824-.622,3.049-.437,4.454.822,6.261c2.015,2.885,10.777,12.505,12.425,12.505c3.145-.258,6.258-.599,9.863-.992l2.153-.233c-1.855-2.356-1.602-4.718-1.588-4.825l.064-.555l6.092,2.933.057.15c3.655,9.742,4.205,30.21,4.189,30.298.09.263,9.167,26.323,32.484,36.839c26.663-18.875,36.621-46.741,36.718-47.021l.035-.103L147,179.92l-17.065-26.012Z" fill="#fff"/>
        <path d="M90.471,161.293c0,0,19.888,6.786,6.393,41.313-2.248,11.601-6.393,21.07-6.393,21.07l1.974,13.612l19.413-22.411l8.996-17.045.631-19.652c0,0,1.658-12.15,10.261-14.282-3.868-8.643-3.395-18.112-3.395-18.112l-4.501-32.227-6.034,5.239l1.894,16.571-22.964,20.479-6.275,5.445Z" fill="#808080"/>
        <path d="M55.039,190.888c0,0,10.574,22.411,17.519,30.618c0,3.71,0,6.55,0,7.575l-3.55,5.682l10.417,3.395l7.733-10.22l3.314-13.415v-31.212l-4.499-13.139-9.469,2.486-16.977,9.122-4.488,9.108Z" fill="#808080"/>
        <path d="M38.268,31.793c0,0-13.138,4.971-19.412,20.359-1.625,4.332.427,9.413-1.539,11.681-1.966,2.264-4.084,3.351-4.084,3.351h-1.125l2.249-11.776l3.492-12.902l5.091-6.215l6.57-4.201l8.758-.297Z" fill="#808080"/>
        <path d="M45.569,85.455c0,0,4.182,8.758,12.942,8.758s10.89-7.26,17.834-9.785c6.946-2.525,10.734-6.867,13.259-6.944-2.525-6.551-6.551-12.468-15.467-14.758-8.92-2.287-24.544,5.366-24.544,5.366L46.99,74.958l2.445.663c0,0,5.05-5.791,8.918-5.003c3.868.791,6.786.631,6.786.631s8.996-1.374,14.087,7.007c-1.894-.002-4.824.421-6.808,1.715-2.899,1.894-9.824,7.337-19.473,1.952-9.646-5.386-2.365,1.126-2.365,1.126s3.963,4.166,12.014,5.663c-6.451,2.089-13.437-2.467-13.437-2.467l-3.588-.79Z" fill="#808080"/>
        <path d="M39.649,98.555h-3.078l7.576-4.341c0,0,12.863,1.579,21.15,11.286s2.683,10.066,2.683,10.066l-6.391-5.253-5.684-1.814c0,0-2.841-5.446-6.155-7.102s-7.427-3.227-7.427-3.227l-2.674.385Z" fill="#808080"/>
        <path d="M40.971,107.342c0,0-7.003,3.681-14.777,5.3-7.772,1.617-9.312-6.116-9.312-6.116L20,103.527L30.219,82.889l-2.585.327-2.978-3.68l4.481-4.916c0,0,3.765,1.759,4.593-.431-1.302-1.833-2.25-5.662-2.25-5.662s4.46,3.829,9.709,3.197c5.248-.631,5.483,1.222,5.483,1.222L41.92,78.497c0,0-4.164-.895-4.164,1.354c0,2.25,2.486,2.25,2.486,2.25s-3.827,2.761-5.8,2.327c-4.932,7.143-8.049,17.52-8.049,17.52s1.185.472,1.695,2.21c-4.458-.277-6.43,1.734-6.43,1.734s2.525,4.855,11.402,2.17c8.879-2.68,7.911-.72,7.911-.72Z" fill="#808080"/>
        <path d="M11.635,117.848l3.254,1.896c0,0-3.856-7.755.356-15.804c3.552-6.787,1.282-7.122,1.282-7.122l-3.906-4.024-2.249-5.999l5.109-2.878c0,0-5.682.253-6.628-4.421-.947-4.676,11.186-2.25,11.186-2.25l4.618,3.948v4.575l-3.375,9.472-3.61,10.652l2.825,6.395l1.792,3.727c0,0-3.316,5.682-3.729,10.298-.416,4.618-1.832,4.734-1.832,4.734l-2.787-6.804-2.306-6.395Z" fill="#808080"/>
        <path d="M22.999,131.779c0,0,3.079,6.549,8.838,8.523.473-.554.896-1.399.896-1.399s27.278-4.127,30.433-15.648L58.038,117.1c0,0-9.628-5.288-22.807,0-13.18,5.288-13.337,12.311-13.337,12.311l1.105,2.368Z" fill="#808080"/>
        <path d="M110.515,89.795c0,0,4.38-6.187,7.913-8.655c3.531-2.471,8.739-.421,8.739-.421l.316,13.89-.433.947-.709,1.974-2.804,4.97-4.538,2.367-2.564-1.886c0,0-.947-5.927-2.603-8.846.471-2.052,4.261-5.759,4.261-5.759v-2.054c-.001,0-4.106.709-7.578,3.473Z" fill="#808080"/>
        <path d="M70.979,128.228c0,0,13.257-18.781-7.813-31.725l.672-.396c0,0,10.477,6.021,22.617,2.157c8.515-2.708,13.25-15.73,13.25-15.73s-2.229-23.042-29.11-28.607c4.369-8.404,3.421-15.389,3.421-15.389s-2.129-6.867-14.085-10.298c-11.956-3.433,28.41-4.023,28.41-4.023L87.275,33.63L78.71,47.299l12.234-8.168L107.58,49.489l7.749,26.733-1.822,3.275-7.174,12.271v-6.55c0,0-5.84,9.549-10.259,15.309c5.67-4.261,8.996-7.496,8.996-7.496L90.077,121.176l-19.098,7.052Z" fill="#808080"/>
        <path d="M136.281,91.453c.612-7.975-.358-17.117-4.014-19.65l-.004-.002c.238-14.434-4.622-19.767-4.622-19.767s1.064-.592,1.064-5.208c0-17.638-6.274-19.177-11.798-21.583-5.405-10.101-16.729-11.087-16.729-11.087C81.356,3.502,53.303,9.38,53.303,9.38l-2.21,2.525-4.183-1.342C28.918,14.195,17.633,29.268,17.633,29.977s0,2.999,0,2.999C10.057,41.103,9.98,45.445,9.98,45.445s3.154,3.631,3.472,8.444c.255,3.913-1.781,11.574-2.553,14.31-6.473,6.993-7.104,12.509-5.261,15.995c1.67,3.162,4.655,5.839,2.604,11.759-2.873,8.285-.868,13.966.553,16.967c1.42,2.999,4.625,11.527,4.625,11.527h.001c.199,7.872,2.547,18.062,5.255,25.306c0,0-3.077,15.625-3.728,18.822-.65,3.195-.435,4.674.887,6.568c1.67,2.391,10.864,12.832,12.786,12.674c3.965-.322,7.872-.779,12.784-1.309-2.309-2.428-1.993-5.092-1.993-5.092l8.524,4.104c0,0,16.572-.789,21.938-1.894c5.368-1.105,13.417-15.309,13.417-15.309s29.513-22.729,39.932-32.356c-.75-5.905-1.794-11.184-3-15.868c3.314-4.536,10.28-13.974,13.269-17.353c4.328-4.894,2.43-6.594,2.789-11.287ZM8.083,81.626c2.206-1.96,5.325-2.843,8.223-2.911c2.157.006,4.799,1.204,3.536,2.398-3.947,1.183-6.235,4.025-8.814,3.63-2.583-.392-2.945-3.117-2.945-3.117Zm8.996,47.231c-.59-.483-1.147-1.208-1.644-1.983l1.644,1.983c0,0-7.1-13.413-7.1-22.647c0-9.233,2.761-10.969,2.761-10.969l4.419,2.29.158-1.185c0,0-3.552-2.132-3.552-3.945c1.027-.396,5.052-1.027,6.471-4.34-2.918,1.657-6.892,1.485-6.892,1.485l-.822-1.169c0,0,1.955-2.37,6.531-4.895c4.411-2.434,4.78.845,4.801,1.087-.779,4.33-3.682,10.867-6.42,18.366-3.196,8.76,4.145,11.601,4.145,11.601s-3.67,6.866-4.5,14.321Zm23.649,11.141c-2.409.204-4.211.096-5.103-.249-3.472-1.341-6.707-1.263-6.707-1.263s2.287,1.224,2.209,2.132c-2.545.693-4.665,1.765-6.393,2.934.175-3.328-1.073-8.811-.867-13.518c1.972,2.436,5.444,3.718,5.444,3.718s-.552,1.185-.867,1.894c4.154-1.699,14.833-3.324,21.805-5.401c1.046.213,2.237.322,3.882-.319-1.011,0-1.734-.305-2.194-.587.818-.302,1.573-.617,2.233-.953c2.987-1.512,4.875-3.291,6.033-4.735-.674,1.579-1.633,3.469-2.658,4.38c3.687-1.489,6.564-4.464,8.376-5.461.016.004.033.01.047.016-2.46,12.768-24.779,17.32-25.24,17.412ZM23.965,128.764c.226-2.048.799-3.881,1.993-5.232c2.669-3.022,18.229-7.577,24.03-7.102c2.307.187,5.531,1.557,8.639,2.985-3.39-.13-6.892-1.531-11.815-1.18-4.959.353-12.529,2.731-17.264,5.257-3.401,1.813-4.277,3.668-5.583,5.272ZM133.96,91.815c-.896,5.407-3.165,7.836-4.782,11.236-2.741,5.771-5.682,11.377-10.572,11.377v.002c-5.348-16.967-12.431-24.398-12.431-24.398L92.206,112.523l1.107-9.156-3.159,3.472-18.564-5.206c0,0,6.599,3.608,6.599,9.943c0,2.946.09,10.062-8.341,16.696-.842.663-1.697,1.29-2.564,1.888.002-.002,5.668-5.21,5.668-15.979c0-9.826-16.178-15.468-16.178-15.468s11.206,7.18,10.575,14.757c-7.338-8.129-16.572-6.039-16.572-6.039s1.499-1.379,1.499-4.3c0-4.577-6.551-6.786-6.551-6.786l-6.076,2.209c4.815-.238,7.734,3.018,7.734,4.854c0,1.833-1.362,2.426-7.517,2.426s-9.706,2.013-9.706,2.013s1.243.592,3.847.592c2.603,0,8.877-1.539,8.877-1.539s-3.965,4.795-9.411,6.748c-3.54,1.271-6.551.44-7.279-1.005c6.062-1.082,10.062-3.079,10.062-3.079s-2.731.273-7.93.947c-8.883,1.152-9.469-3.671-9.469-6.273c0-2.604,3.55-10.3,5.682-15.271c2.129-4.971,3.433-7.576,8.404-8.758-2.722-1.067-5.917.236-5.917.236s.472-3.197,3.314-4.737c-4.261-3.55-7.221-9.349-7.221-9.349s-3.433-.121-8.522,2.484c-.226.115-.448.244-.668.376.489-2.771,3.391-5.385,3.391-5.385h-1.816c-.97.818-1.859,1.621-2.682,2.41.708-3.189,2.198-10.032,3.077-14.958c1.183-6.628,5.524-12.944,10.259-15.705C30.89,32.818,41.702,31.082,43.675,37c15.625-9.941,28.093-7.26,28.093-7.26s-.347,4.103,3.472,6.944c5.446-4.339,14.207-2.841,14.207-2.841s-2.212,2.841-2.212,5.288c4.184,1.736,8.445,5.682,8.445,5.682s-9.115,0-15.231,4.657c12.628,8.838,17.479,20.439,17.479,20.439s1.146.078,2.25.238c3.552,5.089,3.314,15.268,3.314,15.268s3.078-8.168.947-13.731c4.146-.099,8.024,2.644,9.068,3.447v4.366c0,0,5.619-7.694,13.658-7.694c6.513,0,7.464,15.981,6.795,20.012Z"/>
        <path d="M36.02,182.995l-5.839,1.342c0,0-12.31-8.051-12.31-11.679c0-3.632,2.05-18.705,11.363-27.701c0,0-1.914,5.327-1.619,8.938c2.843-4.854,6.63-7.518,6.63-7.518s-5.011,21.702,11.56,32.435c-.67,1.185-1.183,2.132-1.183,2.132s-10.496-4.025-15.942-8.702c1.481,7.104,7.34,10.753,7.34,10.753Z" fill="#fcc900"/>
        <path d="M50.935,178.575c-17.521-7.26-14.53-27.498-12.548-33.618c8.129-1.42,16.474-4.42,19.157-5.648-4.795,6.336-12.135,18.116-12.135,27.115c0,5.049,5.446,10.258,5.446,10.258l.08,1.893Z" fill="#fcc900"/>
        <path d="M72.321,129.806c-12.509,8.618-24.385,28.251-24.385,36.934c0,9.784,13.493,11.44,13.493,11.44s-7.103-5.682-7.022-10.416c4.657,5.21,13.415,7.26,13.415,7.26s19.728-16.084,27.148-59.187l-5.327,8.522c0,0-.234-11.607-8.76-16.928c4.025,26.753-13.495,44.746-13.495,44.746s-.709-12.073,4.933-22.371Z" fill="#fcc900"/>
        <path d="M106.649,95.556c0,0,9.785,13.891,9.785,38.984-1.025-1.657-2.406-3.076-2.406-3.076s.513,3.866-.119,5.918c-.631,2.052-23.882,20.612-31.88,25.726C98.52,134.54,98.758,112.05,98.758,112.05l4.497-11.839c0,0,.592,19.177-2.13,33.502c7.34-18.113,5.524-38.157,5.524-38.157Z" fill="#fcc900"/>
        <path d="M66.62,65.766c7.219,0,12.606,3.728,12.606,3.728v-2.899c0,0-7.34-10.477-15.034-10.477-5.506,0-13.195,1.944-21.308,4.563v3.131l-3.788-1.871c-1.992.68-3.993,1.387-5.978,2.106c0,0,1.777,10.062,11.511,8.69-.267.791-.705,1.686-1.43,2.299-9.943-1.025-12.98-8.68-12.98-8.68C32.058,80.443,45.608,77.07,45.608,80.798c0,1.65-1.54,5.05-1.54,5.05c2.447-.235,7.813,4.341,11.995,2.368-2.938-.257-5.917-2.132-6.471-4.181c4.734-1.263,16.1-6.235,19.888-6.235s8.68,3.55,8.68,3.55-2.763-5.997-13.021-10.101c-10.258-4.103-16.255,1.738-16.255,1.738l.169-2.042c4.489-2.069,11.315-5.179,17.567-5.179Z"/>
        <path d="M87.275,50.849c0,0,12.4,6.157,14.559,16.335c2.843-.236,6.589.717,9.707,2.486c6.866-2.841,13.259-2.486,15.981-2.486c1.656-7.93-2.013-19.886-17.64-19.886-15.623.001-22.607,3.551-22.607,3.551Z" fill="#fcc900"/>
        <path d="M124.444,47.892c0,0-13.968-7.104-24.858-6.983-3.195-2.841-7.694-4.145-7.694-4.145s2.841-5.208,7.576-6.864c-13.495-.592-19.249,1.919-22.964,2.958-3.905-3.55-3.314-12.783,14.796-18.584l-.354,2.013c0,0,5.446-1.183,10.89.59c5.446,1.777,8.996,7.578,10.181,9.826c5.68.827,14.677,4.969,12.427,21.189Z" fill="#fcc900"/>
        <path d="M85.972,12.496c0,0-12.784,4.736-13.731,12.785-13.73-3.195-27.935,5.801-27.935,5.801s-3.671-10.011,5.237-15.605c11.282-7.085,36.429-2.981,36.429-2.981Z" fill="#fcc900"/>
        <path d="M41.781,31.082c0,0-3.945-7.813,1.775-15.625C30.102,16.56,21.498,31.792,21.498,31.792s14.286-4.34,20.283-.71Z" fill="#fcc900"/>
        <path d="M14.476,49.489l-2.605-5.385c0,0,1.831-5.756,6.451-9.234c2.073-.177,5.504-.354,5.504-.354s-8.3,5.114-9.35,14.973Z" fill="#fcc900"/>
        <g>
            <g>
                <path d="M114.302,85.415c0,0,3.278-6.352,11.404-6.352c7.146,0,4.479,18.545,2.18,20.281c0,0-.405-8.602-7.427-9.312c1.499-2.763,6.629-2.054,6.629-2.054s1.816-6.272-3.866-6.272c-5.683.001-8.92,3.709-8.92,3.709Z"/>
                <path d="M126.34,97.53c0,0-2.787,4.813-4.018,4.813s-2.967-3.04-3.244-5.919c-.867,4.538-3.236,7.38-3.236,7.38s.672,3.234,3.632,3.234c2.957,0,6.589-3.433,6.866-9.508Z"/>
            </g>
        </g>
        <path d="M21.658,86.322c0,0-2.954-3.211-5.486-2.209-4.186,1.656-4.063,5.288-4.063,5.288s4.183,2.802,9.549-3.079Z" fill="#ff000a"/>
        <path d="M63.838,75.707c0,0-2.408-3.943-6.452-3.431-2.995.38-5.029,2.632-5.976,4.407s.546,2.548,2.365,2.281c5.624-.829,6.511-2.781,10.063-3.257Z" fill="#ff000a"/>
        <path d="M36.139,116.43c0,0,5.031-6.983,17.873-6.983c11.127,0,12.429,10.948,12.429,10.948s-5.148-6.274-14.678-6.274-13.553,2.426-14.619,2.901c-1.066.472-1.005-.592-1.005-.592Z" fill="#fcc900"/>
        <path d="M32.822,116.901c0,0-2.919-1.981-6.985-1.123-3.386.717-6.508,4.971-4.91,10.179c2.071-6.095,8.345-7.813,10.652-7.692c2.309.117,1.243-1.364,1.243-1.364Z" fill="#fcc900"/>
        <path d="M20.497,132.489c0,0,1.792,1.103,1.792,2.919c0,1.815,0,11.759,0,11.759s-1.792-1.341-1.792-3.788c0-2.445,0-10.89,0-10.89Z" fill="#fcc900"/>
        <path d="M35.488,64.936c0,0,3.728,4.499,5.798,5.089c2.074.593,3.079-1.122,4.439-1.952c1.362-.828,11.484-8.285,23.617-5.978-2.013-3.195-5.091-4.261-8.996-4.261-5.742,0-15.685,4.795-15.685,4.795l-.83,3.077-3.492-2.013c0,0-5.623.357-4.851,1.243Z" fill="#fcc900"/>
        <path d="M25.781,76.656c0,0-.415-4.32-4.557-6.867l-.474.887c0,0-8.76-.117-11.069,4.618c5.208-1.775,13.318-.117,16.1,1.362Z" fill="#fcc900"/>
        <path d="M32.784,132.489c0,0,4.895-.362,15.153-3.866c9.074-3.102,9.608-6.274,9.608-6.274-18.489-4.304-28.272,4.614-28.272,4.614s1.224,1.185,1.539,2.369c.315,1.186-.081,2.919,1.972,3.157Z" fill="#fff"/>
        <path d="M132.848,101.731l-2.508,52.066l17.187,26.199-28.529,24.148c0,0-9.824,28.171-37.05,47.348-23.911-10.652-32.907-37.169-32.907-37.169s-.573-23.085-4.895-31.96c1.58.315,6.157,1.104,6.157,1.104s-.472,15.533,1.421,28.095c1.892,12.562,9.469,19.257,9.469,19.257s11.759,3.943,14.126,4.654s7.26,0,10.021-8.524c2.763-8.521,10.496-37.365-4.906-54.04l.21-5.461l10.537-7.103c0,0,2.368,3.434,2.368,11.127s-.238,39.063-1.896,48.297c1.658,6.038,2.015,11.837,2.015,11.837s15.664-12.784,23.871-30.934l3.945-22.493.947,17.127c0,0,10.418-6.473,12.786-10.26c2.367-3.788,3.788-6.867,3.788-6.867L126.34,155.847l-2.964-41.67l9.472-12.446Z"/>
        <polygon points="125.588,115.76 130.007,109.525 128.193,130.279" fill="#facd19"/>
        <path d="M63.166,181.259v6.56l9.392,19.323c0,0-11.837-13.413-17.519-16.254-1.736-3.947-5.888-7.618-5.888-7.618l14.015-2.011Z"/>
        <path d="M107.753,194.2c0,0,13.1-25.669,13.1-47.033c0-5.131-4.419-6.313-4.419,0c0,0-1.578,32.986-8.681,47.033Z" fill="#fff"/>
    </g>
    <ellipse id="ejUmMdKya7u41" rx="18.832351" ry="6.325784" transform="matrix(.948789-.267426-.532631-1.8897 235.368551 246.660085)" opacity="0" fill="#ff000a" stroke-width="0" stroke-linecap="round" stroke-linejoin="round"/>
    <ellipse id="ejUmMdKya7u42" rx="18.832351" ry="6.325784" transform="matrix(.948789-.267426-.532631-1.8897 276.849137 236.027235)" opacity="0" fill="#ff000a" stroke-width="0" stroke-linecap="round" stroke-linejoin="round"/>
    <ellipse id="ejUmMdKya7u43" rx="18.832351" ry="6.325784" transform="matrix(.751802-.211903-.136058-.482714 277.479475 235.617264)" opacity="0" fill="#ff000a" stroke-width="0" stroke-linecap="round" stroke-linejoin="round"/>
    <ellipse id="ejUmMdKya7u44" rx="18.832351" ry="6.325784" transform="matrix(.145918 0.963246 0.09822-.014879 276.849137 236.656)" opacity="0" fill="#ff000a" stroke-width="0" stroke-linecap="round" stroke-linejoin="round"/>
    <ellipse id="ejUmMdKya7u45" rx="18.832351" ry="6.325784" transform="matrix(.145918 0.963246 0.09822-.014879 234.74723 244.828997)" opacity="0" fill="#ff000a" stroke-width="0" stroke-linecap="round" stroke-linejoin="round"/>
    <ellipse id="ejUmMdKya7u46" rx="18.832351" ry="6.325784" transform="matrix(.756043-.196236-.125998-.485437 235.368551 246.997063)" opacity="0" fill="#ff000a" stroke-width="0" stroke-linecap="round" stroke-linejoin="round"/>
    <ellipse id="ejUmMdKya7u47" rx="18.832351" ry="6.325784" transform="matrix(.756043-.196236-.125998-.485437 235.172077 247.019886)" opacity="0" fill="#ff000a" stroke-width="0" stroke-linecap="round" stroke-linejoin="round"/>
    <ellipse id="ejUmMdKya7u48" rx="18.832351" ry="6.325784" transform="matrix(.61564-.159794-.028207-.108672 276.849137 235.617264)" opacity="0" fill="#fff" stroke-width="0" stroke-linecap="round" stroke-linejoin="round"/>
    <ellipse id="ejUmMdKya7u49" rx="18.832351" ry="6.325784" transform="matrix(.61564-.159794-.028207-.108672 234.74723 246.977418)" opacity="0" fill="#fff" stroke-width="0" stroke-linecap="round" stroke-linejoin="round"/>
</svg>