<?xml version="1.0" encoding="utf-8"?>
<!-- Generator: Adobe Illustrator 15.0.0, SVG Export Plug-In . SVG Version: 6.00 Build 0)  -->
<!DOCTYPE svg PUBLIC "-//W3C//DTD SVG 1.1//EN" "http://www.w3.org/Graphics/SVG/1.1/DTD/svg11.dtd">
<svg class="gigaswap" version="1.1" id="Layer_1" xmlns="http://www.w3.org/2000/svg" xmlns:xlink="http://www.w3.org/1999/xlink" x="0px" y="0px" viewBox="0 0 616 258" enable-background="new 0 0 616 258" xml:space="preserve">
<g>
	<g id="text">
		<path d="M288.18,96.558c-15.79,0-28.634,12.844-28.634,28.633c0,15.784,12.844,28.63,28.634,28.63
			c6.442,0,12.373-2.164,17.16-5.767c-0.306,9.212-7.874,16.617-17.16,16.617v11.44c15.786,0,28.631-12.843,28.631-28.631v-22.29
			C316.811,109.402,303.966,96.558,288.18,96.558z M288.18,142.38c-9.479,0-17.191-7.712-17.191-17.189
			c0-9.479,7.712-17.193,17.191-17.193c9.478,0,17.189,7.714,17.189,17.193C305.369,134.668,297.657,142.38,288.18,142.38z"/>
		<path d="M349.8,96.558c-15.786,0-28.631,12.844-28.631,28.633c0,15.784,12.845,28.63,28.631,28.63
			c6.455,0,12.397-2.17,17.191-5.791v5.319h11.44V125.19C378.432,109.402,365.588,96.558,349.8,96.558z M349.8,142.38
			c-9.478,0-17.189-7.712-17.189-17.189c0-9.479,7.712-17.193,17.189-17.193c9.479,0,17.191,7.714,17.191,17.193
			C366.991,134.668,359.278,142.38,349.8,142.38z"/>
		<path fill="#808080" d="M403.535,113.191c-5.13,0-9.301-4.173-9.301-9.304s4.171-9.304,9.301-9.304h14.595V83.143h-14.595
			c-11.438,0-20.744,9.308-20.744,20.745c0,11.439,9.307,20.745,20.744,20.745c4.893,0,8.876,3.983,8.876,8.875
			c0,4.891-3.983,8.872-8.876,8.872h-15.023v11.44h15.023c11.204,0,20.315-9.113,20.315-20.313
			C423.851,122.304,414.739,113.191,403.535,113.191z"/>
		<path fill="#808080" d="M518.813,96.558c-15.79,0-28.635,12.844-28.635,28.633c0,15.784,12.845,28.63,28.635,28.63
			c6.451,0,12.392-2.17,17.185-5.791v5.319h11.443V125.19C547.441,109.402,534.598,96.558,518.813,96.558z M518.813,142.38
			c-9.48,0-17.192-7.712-17.192-17.189c0-9.479,7.712-17.193,17.192-17.193c9.476,0,17.185,7.714,17.185,17.193
			C535.998,134.668,528.289,142.38,518.813,142.38z"/>
		<path d="M204.108,124.259h23.146c-2.566,10.391-11.971,18.121-23.146,18.121c-13.15,0-23.845-10.696-23.845-23.844
			c0-13.146,10.695-23.841,23.845-23.841c6.365,0,12.355,2.48,16.858,6.983l8.09-8.09c-6.664-6.664-15.523-10.334-24.948-10.334
			c-19.459,0-35.286,15.83-35.286,35.283c0,19.455,15.827,35.284,35.286,35.284c19.453,0,35.282-15.829,35.282-35.284v-5.721
			h-23.843L204.108,124.259z"/>
		<polygon points="243.747,153.349 255.189,153.349 255.189,100.905 243.747,112.344 		"/>
		<polygon points="243.747,83.253 243.747,102.162 255.185,90.722 255.185,83.253 		"/>
		<polygon fill="#808080" points="474.03,108.453 474.03,130.479 456.839,113.289 439.648,130.479 439.648,97.01 428.208,108.453 
			428.208,149.541 428.215,149.555 432.484,153.824 456.839,129.469 481.188,153.82 485.472,149.541 485.472,97.01 		"/>
		<path fill="#808080" d="M580.432,96.558c-15.787,0-28.631,12.844-28.631,28.633v50.921l11.44-11.442v-16.64
			c4.796,3.621,10.736,5.791,17.19,5.791c15.789,0,28.632-12.846,28.632-28.63C609.063,109.402,596.221,96.558,580.432,96.558z
			 M580.432,142.38c-9.479,0-17.19-7.712-17.19-17.189c0-9.479,7.712-17.193,17.19-17.193s17.19,7.714,17.19,17.193
			C597.622,134.668,589.91,142.38,580.432,142.38z"/>
	</g>
	<g id="head">
		<path fill="#FFFFFF" d="M129.935,153.908l2.424-50.333l0.056-0.193l0.088-0.103c0.248-0.292,0.479-0.569,0.69-0.805
			c3.022-3.416,2.899-5.197,2.732-7.659c-0.068-0.969-0.143-2.067-0.041-3.394c0.596-7.785-0.335-16.704-3.747-19.222h-0.039
			l-0.236-0.237l0.002-0.167c0.232-14.068-4.47-19.439-4.518-19.493l-0.361-0.358l0.437-0.244c0.01-0.005,0.885-0.729,0.885-4.875
			c0-16.324-5.37-18.596-10.563-20.792l-1.123-0.481l-0.066-0.121c-5.235-9.785-16.301-10.868-16.573-10.929
			c-7.433-4.207-17.158-6.342-28.899-6.342c-9.199,0-16.515,1.375-17.569,1.584l-2.291,2.621l-4.335-1.391
			C29.463,14.54,18.346,29.083,18.032,29.977v3.157l-0.107,0.115c-6.607,7.089-7.434,11.272-7.533,12.067
			c0.578,0.711,3.164,4.115,3.456,8.548c0.257,3.917-1.708,11.404-2.657,14.605C5.764,74.332,3.869,79.994,5.99,84.006
			c0.308,0.583,0.659,1.146,1.015,1.718c1.568,2.514,3.344,5.362,1.613,10.358c-2.092,6.033-1.917,11.484,0.536,16.665
			c1.19,2.514,3.604,8.821,4.586,11.416l0.078,0.205l0.002,0.068c0.208,8.289,2.776,18.617,5.229,25.176l0.039,0.106l-0.021,0.111
			c0,0-3.077,15.626-3.728,18.824c-0.622,3.049-0.437,4.454,0.822,6.261c2.015,2.885,10.777,12.505,12.425,12.505
			c3.145-0.258,6.258-0.599,9.863-0.992l2.153-0.233c-1.855-2.356-1.602-4.718-1.588-4.825l0.064-0.555l6.092,2.933l0.057,0.15
			c3.655,9.742,4.205,30.21,4.189,30.298c0.09,0.263,9.167,26.323,32.484,36.839c26.663-18.875,36.621-46.741,36.718-47.021
			l0.035-0.103L147,179.92L129.935,153.908z"/>
		<path fill="#808080" d="M90.471,161.293c0,0,19.888,6.786,6.393,41.313c-2.248,11.601-6.393,21.07-6.393,21.07l1.974,13.612
			l19.413-22.411l8.996-17.045l0.631-19.652c0,0,1.658-12.15,10.261-14.282c-3.868-8.643-3.395-18.112-3.395-18.112l-4.501-32.227
			l-6.034,5.239l1.894,16.571l-22.964,20.479L90.471,161.293z"/>
		<path fill="#808080" d="M55.039,190.888c0,0,10.574,22.411,17.519,30.618c0,3.71,0,6.55,0,7.575l-3.55,5.682l10.417,3.395
			l7.733-10.22l3.314-13.415v-31.212l-4.499-13.139l-9.469,2.486l-16.977,9.122L55.039,190.888z"/>
		<path fill="#808080" d="M38.268,31.793c0,0-13.138,4.971-19.412,20.359c-1.625,4.332,0.427,9.413-1.539,11.681
			c-1.966,2.264-4.084,3.351-4.084,3.351h-1.125l2.249-11.776l3.492-12.902l5.091-6.215l6.57-4.201L38.268,31.793z"/>
		<path fill="#808080" d="M45.569,85.455c0,0,4.182,8.758,12.942,8.758s10.89-7.26,17.834-9.785
			c6.946-2.525,10.734-6.867,13.259-6.944c-2.525-6.551-6.551-12.468-15.467-14.758c-8.92-2.287-24.544,5.366-24.544,5.366
			l-2.603,6.866l2.445,0.663c0,0,5.05-5.791,8.918-5.003c3.868,0.791,6.786,0.631,6.786,0.631s8.996-1.374,14.087,7.007
			c-1.894-0.002-4.824,0.421-6.808,1.715c-2.899,1.894-9.824,7.337-19.473,1.952c-9.646-5.386-2.365,1.126-2.365,1.126
			s3.963,4.166,12.014,5.663c-6.451,2.089-13.437-2.467-13.437-2.467L45.569,85.455z"/>
		<path fill="#808080" d="M39.649,98.555h-3.078l7.576-4.341c0,0,12.863,1.579,21.15,11.286c8.287,9.707,2.683,10.066,2.683,10.066
			l-6.391-5.253l-5.684-1.814c0,0-2.841-5.446-6.155-7.102c-3.314-1.656-7.427-3.227-7.427-3.227L39.649,98.555z"/>
		<path fill="#808080" d="M40.971,107.342c0,0-7.003,3.681-14.777,5.3c-7.772,1.617-9.312-6.116-9.312-6.116L20,103.527
			l10.219-20.638l-2.585,0.327l-2.978-3.68l4.481-4.916c0,0,3.765,1.759,4.593-0.431c-1.302-1.833-2.25-5.662-2.25-5.662
			s4.46,3.829,9.709,3.197c5.248-0.631,5.483,1.222,5.483,1.222l-4.752,5.551c0,0-4.164-0.895-4.164,1.354
			c0,2.25,2.486,2.25,2.486,2.25s-3.827,2.761-5.8,2.327c-4.932,7.143-8.049,17.52-8.049,17.52s1.185,0.472,1.695,2.21
			c-4.458-0.277-6.43,1.734-6.43,1.734s2.525,4.855,11.402,2.17C41.939,105.382,40.971,107.342,40.971,107.342z"/>
		<path fill="#808080" d="M11.635,117.848l3.254,1.896c0,0-3.856-7.755,0.356-15.804c3.552-6.787,1.282-7.122,1.282-7.122
			l-3.906-4.024l-2.249-5.999l5.109-2.878c0,0-5.682,0.253-6.628-4.421c-0.947-4.676,11.186-2.25,11.186-2.25l4.618,3.948v4.575
			l-3.375,9.472l-3.61,10.652l2.825,6.395l1.792,3.727c0,0-3.316,5.682-3.729,10.298c-0.416,4.618-1.832,4.734-1.832,4.734
			l-2.787-6.804L11.635,117.848z"/>
		<path fill="#808080" d="M22.999,131.779c0,0,3.079,6.549,8.838,8.523c0.473-0.554,0.896-1.399,0.896-1.399
			s27.278-4.127,30.433-15.648l-5.128-6.155c0,0-9.628-5.288-22.807,0c-13.18,5.288-13.337,12.311-13.337,12.311L22.999,131.779z"/>
		<path fill="#808080" d="M110.515,89.795c0,0,4.38-6.187,7.913-8.655c3.531-2.471,8.739-0.421,8.739-0.421l0.316,13.89
			l-0.433,0.947l-0.709,1.974l-2.804,4.97l-4.538,2.367l-2.564-1.886c0,0-0.947-5.927-2.603-8.846
			c0.471-2.052,4.261-5.759,4.261-5.759v-2.054C118.092,86.322,113.987,87.031,110.515,89.795z"/>
		<path fill="#808080" d="M70.979,128.228c0,0,13.257-18.781-7.813-31.725l0.672-0.396c0,0,10.477,6.021,22.617,2.157
			c8.515-2.708,13.25-15.73,13.25-15.73s-2.229-23.042-29.11-28.607c4.369-8.404,3.421-15.389,3.421-15.389
			s-2.129-6.867-14.085-10.298c-11.956-3.433,28.41-4.023,28.41-4.023l-1.066,9.413L78.71,47.299l12.234-8.168l16.636,10.358
			l7.749,26.733l-1.822,3.275l-7.174,12.271v-6.55c0,0-5.84,9.549-10.259,15.309c5.67-4.261,8.996-7.496,8.996-7.496l-14.993,28.145
			L70.979,128.228z"/>
		<path d="M136.281,91.453c0.612-7.975-0.358-17.117-4.014-19.65l-0.004-0.002c0.238-14.434-4.622-19.767-4.622-19.767
			s1.064-0.592,1.064-5.208c0-17.638-6.274-19.177-11.798-21.583c-5.405-10.101-16.729-11.087-16.729-11.087
			C81.356,3.502,53.303,9.38,53.303,9.38l-2.21,2.525l-4.183-1.342c-17.992,3.632-29.277,18.705-29.277,19.414
			c0,0.709,0,2.999,0,2.999c-7.576,8.127-7.653,12.469-7.653,12.469s3.154,3.631,3.472,8.444c0.255,3.913-1.781,11.574-2.553,14.31
			c-6.473,6.993-7.104,12.509-5.261,15.995c1.67,3.162,4.655,5.839,2.604,11.759c-2.873,8.285-0.868,13.966,0.553,16.967
			c1.42,2.999,4.625,11.527,4.625,11.527h0.001c0.199,7.872,2.547,18.062,5.255,25.306c0,0-3.077,15.625-3.728,18.822
			c-0.65,3.195-0.435,4.674,0.887,6.568c1.67,2.391,10.864,12.832,12.786,12.674c3.965-0.322,7.872-0.779,12.784-1.309
			c-2.309-2.428-1.993-5.092-1.993-5.092l8.524,4.104c0,0,16.572-0.789,21.938-1.894c5.368-1.105,13.417-15.309,13.417-15.309
			s29.513-22.729,39.932-32.356c-0.75-5.905-1.794-11.184-3-15.868c3.314-4.536,10.28-13.974,13.269-17.353
			C137.82,97.846,135.922,96.146,136.281,91.453z M8.083,81.626c2.206-1.96,5.325-2.843,8.223-2.911
			c2.157,0.006,4.799,1.204,3.536,2.398c-3.947,1.183-6.235,4.025-8.814,3.63C8.445,84.351,8.083,81.626,8.083,81.626z
			 M17.079,128.857c-0.59-0.483-1.147-1.208-1.644-1.983L17.079,128.857c0,0-7.1-13.413-7.1-22.647
			c0-9.233,2.761-10.969,2.761-10.969l4.419,2.29l0.158-1.185c0,0-3.552-2.132-3.552-3.945c1.027-0.396,5.052-1.027,6.471-4.34
			c-2.918,1.657-6.892,1.485-6.892,1.485l-0.822-1.169c0,0,1.955-2.37,6.531-4.895c4.411-2.434,4.78,0.845,4.801,1.087
			c-0.779,4.33-3.682,10.867-6.42,18.366c-3.196,8.76,4.145,11.601,4.145,11.601S17.909,121.402,17.079,128.857z M40.728,139.998
			c-2.409,0.204-4.211,0.096-5.103-0.249c-3.472-1.341-6.707-1.263-6.707-1.263s2.287,1.224,2.209,2.132
			c-2.545,0.693-4.665,1.765-6.393,2.934c0.175-3.328-1.073-8.811-0.867-13.518c1.972,2.436,5.444,3.718,5.444,3.718
			s-0.552,1.185-0.867,1.894c4.154-1.699,14.833-3.324,21.805-5.401c1.046,0.213,2.237,0.322,3.882-0.319
			c-1.011,0-1.734-0.305-2.194-0.587c0.818-0.302,1.573-0.617,2.233-0.953c2.987-1.512,4.875-3.291,6.033-4.735
			c-0.674,1.579-1.633,3.469-2.658,4.38c3.687-1.489,6.564-4.464,8.376-5.461c0.016,0.004,0.033,0.01,0.047,0.016
			C63.508,135.354,41.189,139.906,40.728,139.998z M23.965,128.764c0.226-2.048,0.799-3.881,1.993-5.232
			c2.669-3.022,18.229-7.577,24.03-7.102c2.307,0.187,5.531,1.557,8.639,2.985c-3.39-0.13-6.892-1.531-11.815-1.18
			c-4.959,0.353-12.529,2.731-17.264,5.257C26.147,125.305,25.271,127.16,23.965,128.764z M133.96,91.815
			c-0.896,5.407-3.165,7.836-4.782,11.236c-2.741,5.771-5.682,11.377-10.572,11.377v0.002
			c-5.348-16.967-12.431-24.398-12.431-24.398l-13.969,22.491l1.107-9.156l-3.159,3.472l-18.564-5.206c0,0,6.599,3.608,6.599,9.943
			c0,2.946,0.09,10.062-8.341,16.696c-0.842,0.663-1.697,1.29-2.564,1.888c0.002-0.002,5.668-5.21,5.668-15.979
			c0-9.826-16.178-15.468-16.178-15.468s11.206,7.18,10.575,14.757c-7.338-8.129-16.572-6.039-16.572-6.039s1.499-1.379,1.499-4.3
			c0-4.577-6.551-6.786-6.551-6.786l-6.076,2.209c4.815-0.238,7.734,3.018,7.734,4.854c0,1.833-1.362,2.426-7.517,2.426
			c-6.155,0-9.706,2.013-9.706,2.013s1.243,0.592,3.847,0.592c2.603,0,8.877-1.539,8.877-1.539s-3.965,4.795-9.411,6.748
			c-3.54,1.271-6.551,0.44-7.279-1.005c6.062-1.082,10.062-3.079,10.062-3.079s-2.731,0.273-7.93,0.947
			c-8.883,1.152-9.469-3.671-9.469-6.273c0-2.604,3.55-10.3,5.682-15.271c2.129-4.971,3.433-7.576,8.404-8.758
			c-2.722-1.067-5.917,0.236-5.917,0.236s0.472-3.197,3.314-4.737c-4.261-3.55-7.221-9.349-7.221-9.349s-3.433-0.121-8.522,2.484
			c-0.226,0.115-0.448,0.244-0.668,0.376c0.489-2.771,3.391-5.385,3.391-5.385h-1.816c-0.97,0.818-1.859,1.621-2.682,2.41
			c0.708-3.189,2.198-10.032,3.077-14.958c1.183-6.628,5.524-12.944,10.259-15.705C30.89,32.818,41.702,31.082,43.675,37
			c15.625-9.941,28.093-7.26,28.093-7.26s-0.347,4.103,3.472,6.944c5.446-4.339,14.207-2.841,14.207-2.841s-2.212,2.841-2.212,5.288
			c4.184,1.736,8.445,5.682,8.445,5.682s-9.115,0-15.231,4.657c12.628,8.838,17.479,20.439,17.479,20.439s1.146,0.078,2.25,0.238
			c3.552,5.089,3.314,15.268,3.314,15.268s3.078-8.168,0.947-13.731c4.146-0.099,8.024,2.644,9.068,3.447v4.366
			c0,0,5.619-7.694,13.658-7.694C133.678,71.803,134.629,87.784,133.96,91.815z"/>
		<path fill="#FCC900" d="M36.02,182.995l-5.839,1.342c0,0-12.31-8.051-12.31-11.679c0-3.632,2.05-18.705,11.363-27.701
			c0,0-1.914,5.327-1.619,8.938c2.843-4.854,6.63-7.518,6.63-7.518s-5.011,21.702,11.56,32.435c-0.67,1.185-1.183,2.132-1.183,2.132
			s-10.496-4.025-15.942-8.702C30.161,179.346,36.02,182.995,36.02,182.995z"/>
		<path fill="#FCC900" d="M50.935,178.575c-17.521-7.26-14.53-27.498-12.548-33.618c8.129-1.42,16.474-4.42,19.157-5.648
			c-4.795,6.336-12.135,18.116-12.135,27.115c0,5.049,5.446,10.258,5.446,10.258L50.935,178.575z"/>
		<path fill="#FCC900" d="M72.321,129.806c-12.509,8.618-24.385,28.251-24.385,36.934c0,9.784,13.493,11.44,13.493,11.44
			s-7.103-5.682-7.022-10.416c4.657,5.21,13.415,7.26,13.415,7.26S87.55,158.94,94.97,115.837l-5.327,8.522
			c0,0-0.234-11.607-8.76-16.928c4.025,26.753-13.495,44.746-13.495,44.746S66.679,140.104,72.321,129.806z"/>
		<path fill="#FCC900" d="M106.649,95.556c0,0,9.785,13.891,9.785,38.984c-1.025-1.657-2.406-3.076-2.406-3.076
			s0.513,3.866-0.119,5.918c-0.631,2.052-23.882,20.612-31.88,25.726C98.52,134.54,98.758,112.05,98.758,112.05l4.497-11.839
			c0,0,0.592,19.177-2.13,33.502C108.465,115.6,106.649,95.556,106.649,95.556z"/>
		<path d="M66.62,65.766c7.219,0,12.606,3.728,12.606,3.728v-2.899c0,0-7.34-10.477-15.034-10.477
			c-5.506,0-13.195,1.944-21.308,4.563v3.131l-3.788-1.871c-1.992,0.68-3.993,1.387-5.978,2.106c0,0,1.777,10.062,11.511,8.69
			c-0.267,0.791-0.705,1.686-1.43,2.299c-9.943-1.025-12.98-8.68-12.98-8.68c1.839,14.087,15.389,10.714,15.389,14.442
			c0,1.65-1.54,5.05-1.54,5.05c2.447-0.235,7.813,4.341,11.995,2.368c-2.938-0.257-5.917-2.132-6.471-4.181
			c4.734-1.263,16.1-6.235,19.888-6.235c3.788,0,8.68,3.55,8.68,3.55s-2.763-5.997-13.021-10.101
			c-10.258-4.103-16.255,1.738-16.255,1.738l0.169-2.042C53.542,68.876,60.368,65.766,66.62,65.766z"/>
		<path fill="#FCC900" d="M87.275,50.849c0,0,12.4,6.157,14.559,16.335c2.843-0.236,6.589,0.717,9.707,2.486
			c6.866-2.841,13.259-2.486,15.981-2.486c1.656-7.93-2.013-19.886-17.64-19.886C94.259,47.299,87.275,50.849,87.275,50.849z"/>
		<path fill="#FCC900" d="M124.444,47.892c0,0-13.968-7.104-24.858-6.983c-3.195-2.841-7.694-4.145-7.694-4.145
			s2.841-5.208,7.576-6.864c-13.495-0.592-19.249,1.919-22.964,2.958c-3.905-3.55-3.314-12.783,14.796-18.584l-0.354,2.013
			c0,0,5.446-1.183,10.89,0.59c5.446,1.777,8.996,7.578,10.181,9.826C117.697,27.53,126.694,31.672,124.444,47.892z"/>
		<path fill="#FCC900" d="M85.972,12.496c0,0-12.784,4.736-13.731,12.785c-13.73-3.195-27.935,5.801-27.935,5.801
			s-3.671-10.011,5.237-15.605C60.825,8.392,85.972,12.496,85.972,12.496z"/>
		<path fill="#FCC900" d="M41.781,31.082c0,0-3.945-7.813,1.775-15.625c-13.454,1.103-22.058,16.335-22.058,16.335
			S35.784,27.452,41.781,31.082z"/>
		<path fill="#FCC900" d="M14.476,49.489l-2.605-5.385c0,0,1.831-5.756,6.451-9.234c2.073-0.177,5.504-0.354,5.504-0.354
			S15.526,39.63,14.476,49.489z"/>
		<g>
			<g>
				<path d="M114.302,85.415c0,0,3.278-6.352,11.404-6.352c7.146,0,4.479,18.545,2.18,20.281c0,0-0.405-8.602-7.427-9.312
					c1.499-2.763,6.629-2.054,6.629-2.054s1.816-6.272-3.866-6.272C117.539,81.707,114.302,85.415,114.302,85.415z"/>
				<path d="M126.34,97.53c0,0-2.787,4.813-4.018,4.813s-2.967-3.04-3.244-5.919c-0.867,4.538-3.236,7.38-3.236,7.38
					s0.672,3.234,3.632,3.234C122.431,107.038,126.063,103.605,126.34,97.53z"/>
			</g>
		</g>
		<path fill="#FF000A" d="M21.658,86.322c0,0-2.954-3.211-5.486-2.209c-4.186,1.656-4.063,5.288-4.063,5.288
			S16.292,92.203,21.658,86.322z"/>
		<path fill="#FF000A" d="M63.838,75.707c0,0-2.408-3.943-6.452-3.431c-2.995,0.38-5.029,2.632-5.976,4.407s0.546,2.548,2.365,2.281
			C59.399,78.135,60.286,76.183,63.838,75.707z"/>
		<path fill="#FCC900" d="M36.139,116.43c0,0,5.031-6.983,17.873-6.983c11.127,0,12.429,10.948,12.429,10.948
			s-5.148-6.274-14.678-6.274s-13.553,2.426-14.619,2.901C36.078,117.494,36.139,116.43,36.139,116.43z"/>
		<path fill="#FCC900" d="M32.822,116.901c0,0-2.919-1.981-6.985-1.123c-3.386,0.717-6.508,4.971-4.91,10.179
			c2.071-6.095,8.345-7.813,10.652-7.692C33.888,118.382,32.822,116.901,32.822,116.901z"/>
		<path fill="#FCC900" d="M20.497,132.489c0,0,1.792,1.103,1.792,2.919c0,1.815,0,11.759,0,11.759s-1.792-1.341-1.792-3.788
			C20.497,140.934,20.497,132.489,20.497,132.489z"/>
		<path fill="#FCC900" d="M35.488,64.936c0,0,3.728,4.499,5.798,5.089c2.074,0.593,3.079-1.122,4.439-1.952
			c1.362-0.828,11.484-8.285,23.617-5.978c-2.013-3.195-5.091-4.261-8.996-4.261c-5.742,0-15.685,4.795-15.685,4.795l-0.83,3.077
			l-3.492-2.013C40.339,63.693,34.716,64.05,35.488,64.936z"/>
		<path fill="#FCC900" d="M25.781,76.656c0,0-0.415-4.32-4.557-6.867l-0.474,0.887c0,0-8.76-0.117-11.069,4.618
			C14.889,73.519,22.999,75.177,25.781,76.656z"/>
		<path fill="#FFFFFF" d="M32.784,132.489c0,0,4.895-0.362,15.153-3.866c9.074-3.102,9.608-6.274,9.608-6.274
			c-18.489-4.304-28.272,4.614-28.272,4.614s1.224,1.185,1.539,2.369C31.127,130.518,30.731,132.251,32.784,132.489z"/>
		<path d="M132.848,101.731l-2.508,52.066l17.187,26.199l-28.529,24.148c0,0-9.824,28.171-37.05,47.348
			c-23.911-10.652-32.907-37.169-32.907-37.169s-0.573-23.085-4.895-31.96c1.58,0.315,6.157,1.104,6.157,1.104
			s-0.472,15.533,1.421,28.095c1.892,12.562,9.469,19.257,9.469,19.257s11.759,3.943,14.126,4.654c2.367,0.711,7.26,0,10.021-8.524
			c2.763-8.521,10.496-37.365-4.906-54.04l0.21-5.461l10.537-7.103c0,0,2.368,3.434,2.368,11.127s-0.238,39.063-1.896,48.297
			c1.658,6.038,2.015,11.837,2.015,11.837s15.664-12.784,23.871-30.934l3.945-22.493l0.947,17.127c0,0,10.418-6.473,12.786-10.26
			c2.367-3.788,3.788-6.867,3.788-6.867l-12.665-22.332l-2.964-41.67L132.848,101.731z"/>
		<polygon fill="#FACD19" points="125.588,115.76 130.007,109.525 128.193,130.279 		"/>
		<path d="M63.166,181.259v6.56l9.392,19.323c0,0-11.837-13.413-17.519-16.254c-1.736-3.947-5.888-7.618-5.888-7.618L63.166,181.259
			z"/>
		<path fill="#FFFFFF" d="M107.753,194.2c0,0,13.1-25.669,13.1-47.033c0-5.131-4.419-6.313-4.419,0
			C116.434,147.167,114.856,180.153,107.753,194.2z"/>
	</g>
</g>
</svg>
