<?xml version="1.0" encoding="UTF-8" standalone="no"?>
<!DOCTYPE svg PUBLIC "-//W3C//DTD SVG 1.1//EN" "http://www.w3.org/Graphics/SVG/1.1/DTD/svg11.dtd">
<svg xmlns="http://www.w3.org/2000/svg" version="1.1" viewBox="0.00 0.00 188.00 188.00">
<g stroke-width="2.00" fill="none" stroke-linecap="butt">
<path stroke="#7e6500" vector-effect="non-scaling-stroke" d="
  M 108.18 9.26
  C 96.04 7.63 63.68 5.33 68.06 27.24
  A 0.71 0.70 -21.0 0 0 69.11 27.70
  Q 81.45 20.35 95.79 22.09
  Q 96.27 22.15 96.40 21.68
  C 97.99 16.02 103.49 12.36 108.32 10.25
  Q 110.04 9.50 108.18 9.26"
/>
<path stroke="#7e6500" vector-effect="non-scaling-stroke" d="
  M 122.86 27.20
  Q 118.69 29.28 116.27 33.27
  Q 115.96 33.77 116.52 33.97
  Q 120.07 35.21 123.07 37.46
  Q 123.51 37.79 124.05 37.84
  Q 136.58 38.95 147.77 44.68
  Q 148.22 44.91 148.32 44.41
  C 150.13 35.19 146.73 25.64 136.48 23.89
  Q 135.95 23.80 135.71 23.32
  Q 129.46 11.27 115.57 13.22
  Q 114.91 13.32 115.00 12.66
  L 115.07 12.17
  Q 115.17 11.39 114.42 11.64
  C 108.70 13.54 93.22 21.17 100.20 29.45
  Q 100.53 29.84 101.01 29.69
  Q 111.61 26.31 122.77 26.82
  A 0.20 0.20 0.0 0 1 122.86 27.20"
/>
<path stroke="#7e6500" vector-effect="non-scaling-stroke" d="
  M 46.25 28.57
  C 52.02 26.94 59.29 25.77 65.11 27.71
  A 0.31 0.31 0.0 0 0 65.50 27.31
  Q 62.87 19.82 67.13 13.21
  A 0.54 0.54 0.0 0 0 66.54 12.40
  Q 53.02 16.08 46.01 28.25
  Q 45.74 28.71 46.25 28.57"
/>
<path stroke="#808080" vector-effect="non-scaling-stroke" d="
  M 88.41 26.77
  C 81.08 27.14 74.82 30.08 68.29 33.59
  Q 67.85 33.83 67.54 33.44
  Q 64.00 28.97 58.58 30.46"
/>
<path stroke="#404040" vector-effect="non-scaling-stroke" d="
  M 58.58 30.46
  C 41.29 30.91 39.61 49.65 37.17 62.22
  A 0.33 0.33 0.0 0 0 37.77 62.46
  Q 38.97 60.53 41.18 60.80"
/>
<path stroke="#808080" vector-effect="non-scaling-stroke" d="
  M 41.18 60.80
  L 38.11 65.32
  A 0.43 0.42 2.6 0 0 38.67 65.93
  Q 42.38 63.88 46.60 63.36
  Q 47.15 63.29 47.41 63.79
  Q 49.98 68.81 54.33 72.37"
/>
<path stroke="#404040" vector-effect="non-scaling-stroke" d="
  M 54.33 72.37
  Q 52.18 74.24 51.27 76.79
  Q 50.97 77.63 51.80 77.28
  Q 53.84 76.41 55.98 77.01
  A 0.35 0.35 0.0 0 1 55.93 77.69
  Q 53.82 77.97 52.75 79.71"
/>
<path stroke="#808080" vector-effect="non-scaling-stroke" d="
  M 52.75 79.71
  Q 51.39 80.37 50.93 81.19
  Q 45.57 90.78 42.98 101.61"
/>
<path stroke="#404040" vector-effect="non-scaling-stroke" d="
  M 42.98 101.61
  C 42.62 111.19 55.05 106.18 59.50 106.71"
/>
<path stroke="#808080" vector-effect="non-scaling-stroke" d="
  M 59.50 106.71
  L 50.85 109.56
  A 0.39 0.39 0.0 0 0 50.74 110.24
  C 55.24 113.58 63.15 107.95 66.15 104.63
  Q 66.65 104.08 65.93 104.26
  L 61.61 105.36"
/>
<path stroke="#404040" vector-effect="non-scaling-stroke" d="
  M 61.61 105.36
  L 54.88 105.29"
/>
<path stroke="#808080" vector-effect="non-scaling-stroke" d="
  M 54.88 105.29
  Q 54.55 104.33 55.24 104.16
  Q 61.16 102.65 68.06 102.57
  C 69.91 102.55 71.99 101.75 71.21 99.55
  Q 70.06 96.29 65.03 95.66"
/>
<path stroke="#404040" vector-effect="non-scaling-stroke" d="
  M 65.03 95.66
  C 69.61 90.80 75.79 95.57 76.41 100.81"
/>
<path stroke="#808080" vector-effect="non-scaling-stroke" d="
  M 76.41 100.81
  L 75.28 103.81
  Q 75.13 104.23 75.58 104.23
  L 79.25 104.21"
/>
<path stroke="#404040" vector-effect="non-scaling-stroke" d="
  M 79.25 104.21
  Q 85.27 105.00 91.16 109.95
  A 0.15 0.15 0.0 0 0 91.40 109.82
  C 90.70 103.99 86.11 99.88 81.86 96.24"
/>
<path stroke="#808080" vector-effect="non-scaling-stroke" d="
  M 81.86 96.24
  C 96.09 101.58 101.46 111.63 92.75 125.43
  Q 92.15 126.39 93.10 125.76
  Q 95.62 124.09 97.41 121.38"
/>
<path stroke="#404040" vector-effect="non-scaling-stroke" d="
  M 97.41 121.38
  Q 103.56 114.72 101.60 105.97
  C 100.99 103.27 98.93 101.37 96.98 99.48
  A 0.27 0.27 0.0 0 1 97.24 99.03
  L 113.61 103.70
  Q 114.14 103.85 114.51 103.44
  L 116.81 100.81
  Q 117.36 100.19 117.26 101.01
  L 116.41 108.20
  Q 116.30 109.17 116.81 108.34
  L 126.21 93.00"
/>
<path stroke="#808080" vector-effect="non-scaling-stroke" d="
  M 126.21 93.00
  L 130.21 87.16"
/>
<path stroke="#404040" vector-effect="non-scaling-stroke" d="
  M 130.21 87.16
  Q 130.47 87.30 130.71 87.25"
/>
<path stroke="#808080" vector-effect="non-scaling-stroke" d="
  M 130.71 87.25
  Q 138.45 98.31 142.42 110.98
  A 0.78 0.77 71.1 0 0 143.42 111.48
  C 149.53 109.27 151.79 102.80 154.61 97.48
  C 158.04 90.98 158.92 85.62 157.48 78.63
  C 156.16 72.25 154.27 66.40 146.17 69.88
  Q 141.65 71.82 137.86 75.84"
/>
<path stroke="#404040" vector-effect="non-scaling-stroke" d="
  M 137.86 75.84
  Q 137.56 69.36 129.09 68.86
  Q 128.63 68.84 128.70 69.29
  Q 129.69 75.52 127.78 81.52
  A 0.17 0.17 0.0 0 1 127.44 81.47
  Q 127.44 74.35 124.66 67.84
  Q 124.44 67.33 123.90 67.22
  L 122.35 66.91
  A 0.96 0.95 82.2 0 1 121.68 66.40
  Q 115.63 54.74 105.06 46.98
  A 0.64 0.64 0.0 0 1 105.11 45.91
  Q 111.43 42.19 118.78 41.88
  Q 119.66 41.85 118.94 41.33
  L 113.20 37.23"
/>
<path stroke="#808080" vector-effect="non-scaling-stroke" d="
  M 113.20 37.23
  Q 112.09 36.67 111.60 36.12
  Q 111.10 35.55 111.52 34.44
  Q 112.13 32.83 113.04 31.38
  Q 113.32 30.93 112.81 30.81
  Q 111.97 30.61 111.09 30.76"
/>
<path stroke="#404040" vector-effect="non-scaling-stroke" d="
  M 111.09 30.76
  Q 104.85 30.17 99.72 33.34
  Q 99.22 33.66 98.77 33.27
  Q 96.00 30.86 95.73 27.14
  Q 95.69 26.62 95.16 26.63
  L 88.41 26.77"
/>
<path stroke="#c0c0c0" vector-effect="non-scaling-stroke" d="
  M 111.09 30.76
  L 103.12 43.46
  A 0.21 0.21 0.0 0 0 103.41 43.74
  L 113.20 37.23"
/>
<path stroke="#c0c0c0" vector-effect="non-scaling-stroke" d="
  M 137.86 75.84
  L 130.71 87.25"
/>
<path stroke="#c0c0c0" vector-effect="non-scaling-stroke" d="
  M 130.21 87.16
  Q 130.58 85.48 130.14 83.60
  Q 129.98 82.93 129.60 83.50
  Q 125.22 90.10 120.79 96.66
  Q 120.72 96.76 120.75 96.83
  Q 120.79 96.94 120.93 97.03
  Q 121.04 97.10 121.15 97.02
  L 126.21 93.00"
/>
<path stroke="#c0c0c0" vector-effect="non-scaling-stroke" d="
  M 97.41 121.38
  Q 103.22 103.25 87.49 93.84
  A 0.32 0.32 0.0 0 1 87.49 93.29
  Q 87.83 93.08 88.20 93.26
  C 95.60 96.80 108.40 98.60 115.08 92.58
  C 117.55 90.36 124.48 81.71 123.47 77.80
  C 119.36 62.02 109.95 55.73 95.14 50.90
  Q 94.65 50.74 94.88 50.28
  Q 97.89 44.26 98.04 37.53
  C 98.16 32.58 92.55 28.73 88.41 26.77"
/>
<path stroke="#c0c0c0" vector-effect="non-scaling-stroke" d="
  M 81.86 96.24
  C 78.89 94.53 70.58 90.49 67.26 91.77
  Q 65.50 92.44 61.64 95.03
  Q 61.11 95.38 61.74 95.43
  L 65.03 95.66"
/>
<path stroke="#c0c0c0" vector-effect="non-scaling-stroke" d="
  M 54.88 105.29
  Q 50.78 106.88 46.48 103.99
  A 0.99 0.99 0.0 0 1 46.57 102.29
  Q 48.79 101.12 51.29 101.25
  A 0.58 0.58 0.0 0 0 51.78 100.32
  L 50.76 99.00
  A 0.88 0.87 -55.0 0 1 50.62 98.18
  Q 53.36 89.83 57.85 82.28
  Q 58.08 81.90 58.50 81.75
  L 63.31 79.97
  A 0.52 0.52 0.0 0 0 63.32 79.00
  Q 61.62 78.32 61.79 76.57
  A 0.91 0.89 -7.1 0 1 62.40 75.80
  L 64.28 75.18"
/>
<path stroke="#808080" vector-effect="non-scaling-stroke" d="
  M 64.28 75.18
  L 68.26 76.26
  A 1.85 1.85 0.0 0 1 69.53 78.61
  L 68.39 82.17
  Q 68.25 82.62 68.68 82.80
  L 70.54 83.56"
/>
<path stroke="#c0c0c0" vector-effect="non-scaling-stroke" d="
  M 70.54 83.56
  C 74.64 91.01 83.42 93.71 90.38 88.35
  C 93.71 85.79 96.63 83.27 100.51 81.39
  Q 106.98 78.27 112.99 74.37
  Q 113.34 74.14 113.20 73.74
  Q 110.21 65.24 102.05 61.34"
/>
<path stroke="#808080" vector-effect="non-scaling-stroke" d="
  M 102.05 61.34
  C 96.47 56.96 92.94 52.02 84.55 53.32
  Q 75.82 54.66 67.38 57.62
  Q 66.86 57.80 66.91 58.35
  L 67.03 59.99
  Q 67.11 60.93 66.26 60.51
  L 63.72 59.23
  Q 63.19 58.97 62.64 59.16
  L 57.70 60.83
  Q 57.12 61.03 57.28 61.62
  Q 58.24 65.28 61.04 67.83"
/>
<path stroke="#c0c0c0" vector-effect="non-scaling-stroke" d="
  M 61.04 67.83
  L 57.67 67.52"
/>
<path stroke="#808080" vector-effect="non-scaling-stroke" d="
  M 57.67 67.52
  L 54.77 64.64
  Q 54.46 64.33 54.53 64.76
  Q 55.13 68.38 57.72 71.53"
/>
<path stroke="#c0c0c0" vector-effect="non-scaling-stroke" d="
  M 57.72 71.53
  Q 56.54 72.42 54.33 72.37"
/>
<path stroke="#c0c0c0" vector-effect="non-scaling-stroke" d="
  M 41.18 60.80
  C 41.82 59.99 42.38 58.76 42.26 57.61
  C 41.03 46.13 49.81 36.51 58.58 30.46"
/>
<path stroke="#c0c0c0" vector-effect="non-scaling-stroke" d="
  M 61.61 105.36
  Q 60.66 106.62 59.50 106.71"
/>
<path stroke="#c0c0c0" vector-effect="non-scaling-stroke" d="
  M 42.98 101.61
  L 53.66 80.89
  A 0.78 0.78 0.0 0 0 53.75 80.57
  Q 53.77 79.63 52.75 79.71"
/>
<path stroke="#404040" vector-effect="non-scaling-stroke" d="
  M 102.05 61.34
  Q 103.35 63.73 103.29 65.93
  Q 103.27 66.50 102.78 66.22
  C 93.03 60.72 83.00 62.90 73.61 67.86
  Q 73.26 68.04 73.13 68.33
  Q 72.97 68.67 73.00 68.96
  Q 73.06 69.56 73.57 69.26
  Q 81.27 64.79 89.65 68.44"
/>
<path stroke="#808080" vector-effect="non-scaling-stroke" d="
  M 89.65 68.44
  Q 96.07 71.21 100.37 75.74"
/>
<path stroke="#404040" vector-effect="non-scaling-stroke" d="
  M 100.37 75.74
  Q 101.51 76.60 101.75 77.39
  Q 101.93 77.97 101.36 77.76
  Q 99.31 77.00 97.65 75.44"
/>
<path stroke="#808080" vector-effect="non-scaling-stroke" d="
  M 97.65 75.44
  Q 87.96 74.44 78.46 79.76"
/>
<path stroke="#404040" vector-effect="non-scaling-stroke" d="
  M 78.46 79.76
  Q 76.98 79.44 75.60 80.87"
/>
<path stroke="#808080" vector-effect="non-scaling-stroke" d="
  M 75.60 80.87
  Q 74.50 80.43 73.97 81.11
  Q 73.61 81.56 73.99 82.00
  Q 75.80 84.08 79.56 85.60"
/>
<path stroke="#404040" vector-effect="non-scaling-stroke" d="
  M 79.56 85.60
  Q 75.47 86.02 70.54 83.56"
/>
<path stroke="#404040" vector-effect="non-scaling-stroke" d="
  M 64.28 75.18
  L 57.72 71.53"
/>
<path stroke="#404040" vector-effect="non-scaling-stroke" d="
  M 57.67 67.52
  Q 61.20 71.81 66.86 71.77
  Q 68.21 71.77 68.19 70.20
  Q 68.19 69.71 67.70 69.75
  Q 63.93 70.07 61.04 67.83"
/>
<path stroke="#c0c0c0" vector-effect="non-scaling-stroke" d="
  M 79.25 104.21
  L 76.41 100.81"
/>
<path stroke="#c0c0c0" vector-effect="non-scaling-stroke" d="
  M 79.56 85.60
  Q 82.31 86.90 85.25 85.82
  Q 85.95 85.56 85.22 85.40
  Q 79.90 84.19 75.60 80.87"
/>
<path stroke="#c0c0c0" vector-effect="non-scaling-stroke" d="
  M 78.46 79.76
  Q 89.20 83.95 97.65 75.44"
/>
<path stroke="#c0c0c0" vector-effect="non-scaling-stroke" d="
  M 100.37 75.74
  Q 101.80 75.52 102.36 75.10
  Q 102.98 74.62 102.12 73.61
  Q 97.24 67.84 89.65 68.44"
/>
<path stroke="#7e6500" vector-effect="non-scaling-stroke" d="
  M 47.00 31.69
  C 41.29 30.71 38.88 35.05 36.75 39.27
  C 35.56 41.61 36.70 43.68 38.20 45.47
  Q 38.64 46.00 38.77 45.32
  Q 40.32 37.05 47.10 32.10
  Q 47.53 31.78 47.00 31.69"
/>
<path stroke="#7e6500" vector-effect="non-scaling-stroke" d="
  M 151.48 63.88
  C 153.41 53.08 146.70 45.23 136.00 44.57
  Q 124.46 43.85 112.86 47.16
  Q 110.87 47.73 112.68 48.72
  Q 122.00 53.80 125.87 63.61
  Q 126.09 64.19 126.71 64.20
  Q 131.15 64.31 135.06 66.44
  A 1.14 1.13 -41.1 0 0 135.99 66.50
  Q 143.22 63.80 150.95 64.29
  Q 151.40 64.32 151.48 63.88"
/>
<path stroke="#7e6500" vector-effect="non-scaling-stroke" d="
  M 34.51 72.01
  C 39.98 71.19 44.04 71.60 49.27 73.36
  Q 49.84 73.55 49.67 72.97
  Q 48.76 69.81 46.28 67.67
  Q 45.90 67.34 45.40 67.41
  C 41.79 67.85 36.60 68.40 34.21 71.49
  Q 33.71 72.13 34.51 72.01"
/>
<path stroke="#808080" vector-effect="non-scaling-stroke" d="
  M 33.19 77.94
  Q 31.04 78.73 33.19 80.79
  Q 35.24 82.74 37.94 81.04"
/>
<path stroke="#404040" vector-effect="non-scaling-stroke" d="
  M 37.94 81.04
  L 43.54 78.11
  A 0.91 0.90 -49.6 0 0 43.41 76.45
  Q 38.10 74.69 33.19 77.94"
/>
<path stroke="#c0c0c0" vector-effect="non-scaling-stroke" d="
  M 37.94 81.04
  Q 35.03 80.06 33.19 77.94"
/>
<path stroke="#800005" vector-effect="non-scaling-stroke" d="
  M 42.50 80.95
  Q 37.59 80.86 36.21 85.68
  A 0.90 0.89 -76.5 0 0 36.89 86.80
  Q 40.29 87.50 43.85 85.25"
/>
<path stroke="#404040" vector-effect="non-scaling-stroke" d="
  M 43.85 85.25
  Q 42.47 88.54 38.20 89.14
  A 0.58 0.58 0.0 0 0 37.85 90.10
  L 41.03 93.57
  A 0.47 0.46 35.2 0 1 41.12 94.06
  Q 41.07 94.19 40.99 94.30"
/>
<path stroke="#808080" vector-effect="non-scaling-stroke" d="
  M 40.99 94.30
  L 37.65 92.65
  A 1.42 1.42 0.0 0 0 35.69 93.44
  Q 31.42 105.28 37.67 116.66"
/>
<path stroke="#404040" vector-effect="non-scaling-stroke" d="
  M 37.67 116.66
  Q 38.19 120.93 40.84 125.07
  Q 41.14 125.53 41.22 124.99
  Q 42.21 118.15 45.39 112.01
  Q 45.62 111.57 45.18 111.33
  C 34.65 105.40 47.01 89.97 47.78 81.22
  A 0.96 0.96 0.0 0 0 47.38 80.35
  Q 45.13 78.78 42.50 80.95"
/>
<path stroke="#c0c0c0" vector-effect="non-scaling-stroke" d="
  M 37.67 116.66
  Q 37.52 112.18 37.63 107.96
  Q 37.71 104.99 38.77 102.24
  C 39.51 100.31 41.85 96.20 40.99 94.30"
/>
<path stroke="#c04045" vector-effect="non-scaling-stroke" d="
  M 43.85 85.25
  L 45.28 83.74
  Q 45.72 83.27 45.20 82.89
  L 42.50 80.95"
/>
<path stroke="#7e6500" vector-effect="non-scaling-stroke" d="
  M 125.53 129.00
  Q 127.49 113.94 127.25 98.75
  A 0.27 0.27 0.0 0 0 126.73 98.66
  C 124.82 103.40 123.23 107.25 122.52 112.58
  Q 119.16 137.63 106.25 159.41
  A 0.24 0.24 0.0 0 0 106.60 159.73
  Q 121.47 149.26 135.20 137.20
  Q 139.00 133.86 138.00 129.71
  Q 137.94 129.44 138.13 129.24
  Q 138.25 129.12 138.38 129.00
  Q 138.48 128.90 138.56 129.01
  L 139.76 130.70
  Q 140.32 131.49 140.32 130.52
  Q 140.36 110.78 131.30 93.36
  A 0.35 0.35 0.0 0 0 130.64 93.54
  Q 131.67 111.80 125.82 129.07
  A 0.15 0.15 0.0 0 1 125.53 129.00"
/>
<path stroke="#7e6500" vector-effect="non-scaling-stroke" d="
  M 91.39 148.05
  Q 91.42 137.45 95.70 127.78
  A 0.25 0.25 0.0 0 0 95.31 127.48
  C 86.16 134.99 55.21 170.15 84.27 174.89
  A 0.37 0.37 0.0 0 0 84.56 174.23
  Q 80.27 170.93 78.46 165.83
  A 0.36 0.35 10.0 0 1 79.02 165.44
  Q 84.47 169.96 91.29 171.89
  Q 91.77 172.03 92.13 171.69
  C 106.92 157.46 115.49 133.86 118.57 114.08
  A 0.18 0.18 0.0 0 0 118.24 113.96
  L 114.19 120.47
  A 0.38 0.38 0.0 0 1 113.49 120.30
  Q 112.72 111.20 106.05 105.17
  Q 105.03 104.25 105.15 105.62
  Q 107.32 129.79 92.11 148.31
  Q 91.39 149.19 91.39 148.05"
/>
<path stroke="#7e6500" vector-effect="non-scaling-stroke" d="
  M 90.14 116.24
  C 86.92 101.39 67.90 106.10 60.29 113.17
  A 0.54 0.54 0.0 0 0 60.87 114.06
  C 69.89 110.09 81.79 109.44 89.67 116.51
  A 0.29 0.28 14.9 0 0 90.14 116.24"
/>
<path stroke="#7e6500" vector-effect="non-scaling-stroke" d="
  M 56.63 113.96
  C 50.22 110.13 43.61 114.78 44.59 121.95
  A 0.36 0.36 0.0 0 0 45.26 122.07
  Q 48.76 115.48 56.32 115.17
  A 0.65 0.65 0.0 0 0 56.63 113.96"
/>
<path stroke="#404040" vector-effect="non-scaling-stroke" d="
  M 80.68 115.81
  Q 75.71 113.05 70.83 113.59
  C 65.48 114.18 49.08 117.08 48.41 124.53
  Q 48.35 125.15 48.73 124.66
  C 53.65 118.35 65.36 115.58 72.86 115.21
  C 75.12 115.10 77.96 115.81 80.63 116.00
  Q 81.09 116.03 80.68 115.81"
/>
<path stroke="#808080" vector-effect="non-scaling-stroke" d="
  M 80.79 119.32
  Q 66.46 115.83 54.02 123.27
  A 0.85 0.84 -34.3 0 0 53.78 124.51
  Q 55.13 126.25 55.18 128.50
  A 0.71 0.70 -84.7 0 0 55.72 129.16
  C 61.14 130.34 78.10 124.03 81.09 120.20
  Q 81.62 119.52 80.79 119.32"
/>
<path stroke="#404040" vector-effect="non-scaling-stroke" d="
  M 85.00 123.68
  Q 83.77 123.83 82.84 124.76
  Q 82.33 125.27 82.25 124.55
  Q 82.20 123.97 82.75 123.52
  Q 83.54 122.87 83.45 121.93
  Q 83.39 121.24 82.91 121.75
  Q 80.44 124.40 77.12 125.90
  C 76.59 126.14 76.39 126.60 76.21 127.12
  Q 76.07 127.55 75.63 127.50
  Q 75.23 127.46 74.89 127.40
  Q 74.47 127.32 74.13 127.40
  Q 63.85 129.76 53.53 132.18
  Q 53.00 132.31 53.00 131.76
  L 53.00 131.24
  Q 53.00 130.78 52.61 130.54
  L 48.56 128.06
  Q 48.07 127.76 48.06 128.34
  L 48.04 130.70"
/>
<path stroke="#808080" vector-effect="non-scaling-stroke" d="
  M 48.04 130.70
  L 48.84 139.96
  Q 48.87 140.26 49.15 140.14
  L 54.59 137.66
  Q 54.97 137.49 54.74 137.16
  Q 54.11 136.25 52.78 135.52"
/>
<path stroke="#404040" vector-effect="non-scaling-stroke" d="
  M 52.78 135.52
  Q 55.75 135.19 57.67 136.50"
/>
<path stroke="#808080" vector-effect="non-scaling-stroke" d="
  M 57.67 136.50
  Q 72.42 137.89 84.78 127.79
  Q 88.33 124.89 89.71 120.46
  A 0.31 0.31 0.0 0 0 89.21 120.13
  L 85.00 123.68"
/>
<path stroke="#c0c0c0" vector-effect="non-scaling-stroke" d="
  M 57.67 136.50
  Q 61.11 134.83 67.24 133.48
  C 71.37 132.57 82.58 128.33 85.00 123.68"
/>
<path stroke="#c0c0c0" vector-effect="non-scaling-stroke" d="
  M 52.78 135.52
  L 48.04 130.70"
/>
<path stroke="#7e6500" vector-effect="non-scaling-stroke" d="
  M 46.37 143.46
  L 46.01 130.00
  A 0.14 0.14 0.0 0 0 45.87 129.86
  L 45.77 129.87
  A 2.17 1.44 88.5 0 0 44.39 132.07
  L 44.63 141.47
  A 2.17 1.44 88.5 0 0 46.13 143.60
  L 46.23 143.60
  A 0.14 0.14 0.0 0 0 46.37 143.46"
/>
<path stroke="#7e6500" vector-effect="non-scaling-stroke" d="
  M 62.24 142.71
  C 59.13 153.76 61.35 170.39 74.03 175.05
  A 0.83 0.83 0.0 0 0 74.88 173.66
  Q 71.38 170.42 70.09 166.22
  C 67.34 157.24 76.07 144.30 80.87 137.20
  Q 81.41 136.40 80.51 136.75
  Q 72.07 140.02 63.20 141.82
  A 1.26 1.25 -87.6 0 0 62.24 142.71"
/>
<path stroke="#7e6500" vector-effect="non-scaling-stroke" d="
  M 51.53 149.88
  Q 51.84 146.40 52.87 143.05
  A 0.30 0.29 -16.8 0 0 52.36 142.78
  Q 43.22 153.89 42.03 168.29
  C 41.63 173.11 50.39 178.82 53.66 181.00
  Q 54.11 181.30 54.63 181.19
  L 59.21 180.21
  A 0.40 0.39 -32.3 0 0 59.37 179.51
  Q 54.62 175.83 52.88 170.07
  Q 52.66 169.34 53.29 169.77
  Q 60.00 174.45 67.68 177.59
  A 1.39 1.39 0.0 0 0 68.99 175.16
  C 59.17 168.43 56.18 155.70 58.05 144.43
  A 0.51 0.50 -19.9 0 0 57.17 144.02
  L 51.95 150.06
  Q 51.46 150.63 51.53 149.88"
/>
<path stroke="#7e6500" vector-effect="non-scaling-stroke" d="
  M 67.10 62.42
  Q 63.81 59.62 59.98 61.57
  Q 59.54 61.80 59.84 62.19
  C 61.35 64.17 64.03 67.22 66.79 67.01
  Q 67.29 66.97 67.67 66.66
  Q 78.57 57.74 92.73 58.85
  A 0.33 0.32 -21.1 0 0 92.98 58.29
  C 86.31 51.96 76.08 56.13 69.01 59.48
  A 0.83 0.81 85.4 0 0 68.57 60.01
  L 68.00 62.14
  Q 67.77 62.99 67.10 62.42"
/>
<path stroke="#800005" vector-effect="non-scaling-stroke" d="
  M 87.07 71.45
  C 82.87 68.41 76.83 68.86 75.35 74.19
  A 1.46 1.46 0.0 0 0 77.02 76.02
  Q 82.17 75.10 86.96 72.72
  A 0.75 0.74 -40.2 0 0 87.07 71.45"
/>
<path stroke="#c0c0c0" vector-effect="non-scaling-stroke" d="
  M 139.53 80.76
  L 135.29 85.76
  Q 134.78 86.37 135.50 86.03
  C 137.13 85.28 139.05 83.94 140.79 83.67
  A 1.15 1.15 0.0 0 1 141.86 85.53
  L 138.12 90.13
  Q 137.81 90.51 137.95 90.99
  L 140.56 99.63"
/>
<path stroke="#808080" vector-effect="non-scaling-stroke" d="
  M 140.56 99.63
  C 138.38 101.71 142.33 104.77 144.98 103.61
  Q 149.62 101.57 150.07 95.53"
/>
<path stroke="#c0c0c0" vector-effect="non-scaling-stroke" d="
  M 150.07 95.53
  Q 150.26 93.17 151.17 93.22"
/>
<path stroke="#808080" vector-effect="non-scaling-stroke" d="
  M 151.17 93.22
  L 151.91 95.42
  Q 152.17 96.21 152.47 95.44
  C 153.95 91.69 156.71 76.45 149.71 76.13
  Q 143.73 75.85 139.53 80.76"
/>
<path stroke="#404040" vector-effect="non-scaling-stroke" d="
  M 151.17 93.22
  Q 149.80 88.46 145.88 87.48
  A 1.05 1.04 -41.7 0 1 146.00 85.43
  L 150.84 84.77
  Q 151.29 84.71 151.39 84.27
  C 153.11 76.22 143.06 79.24 139.53 80.76"
/>
<path stroke="#404040" vector-effect="non-scaling-stroke" d="
  M 150.07 95.53
  L 146.77 99.14
  A 0.68 0.67 41.6 0 1 145.83 99.19
  Q 143.74 97.38 143.43 94.64
  A 0.37 0.37 0.0 0 0 142.70 94.62
  Q 142.26 97.14 140.56 99.63"
/>
</g>
<path fill="#000000" d="
  M 136.07 142.07
  C 130.67 147.57 123.42 153.26 116.84 157.93
  C 110.77 162.25 106.65 165.67 101.50 169.55
  Q 96.46 173.34 91.73 175.24
  C 85.82 177.62 80.99 177.67 75.44 178.89
  C 70.58 179.97 68.39 180.46 64.36 178.86
  Q 63.75 178.62 63.58 179.25
  Q 63.07 181.27 61.35 182.61
  Q 60.90 182.96 60.33 182.97
  L 50.22 183.07
  Q 49.77 183.08 49.44 182.76
  C 45.20 178.67 37.77 172.17 38.86 166.52
  Q 40.75 156.78 42.53 147.01
  A 1.85 1.84 40.4 0 0 42.45 146.05
  Q 38.82 136.14 37.78 125.73
  Q 37.36 121.60 36.27 118.56
  C 32.69 108.62 28.59 102.79 32.64 91.69
  C 34.61 86.28 28.85 82.65 28.80 77.59
  C 28.74 70.85 33.75 68.70 35.39 63.27
  C 37.55 56.13 38.95 49.02 34.20 42.76
  A 1.01 1.01 0.0 0 1 34.04 41.84
  C 35.47 37.25 38.11 34.00 41.57 29.93
  A 1.13 1.12 60.4 0 0 41.82 29.01
  Q 41.43 26.89 42.42 25.67
  C 47.75 19.10 65.68 4.08 74.37 8.82
  A 0.70 0.70 0.0 0 0 75.22 8.68
  L 77.13 6.66
  Q 77.47 6.30 77.96 6.21
  C 91.91 3.81 107.87 3.88 121.20 9.72
  C 129.65 13.42 135.29 13.18 140.83 21.93
  A 1.50 1.46 -6.2 0 0 141.62 22.55
  C 152.74 26.25 153.90 39.07 152.13 48.74
  Q 152.04 49.28 152.28 49.76
  Q 156.57 58.16 156.20 67.63
  Q 156.18 68.12 156.47 68.52
  C 161.43 75.50 160.19 83.62 160.16 91.66
  C 160.13 99.20 151.76 108.96 146.45 113.77
  C 143.45 116.48 144.17 125.59 144.06 129.45
  C 143.82 137.78 140.83 137.23 136.07 142.07
  Z
  M 108.18 9.26
  C 96.04 7.63 63.68 5.33 68.06 27.24
  A 0.71 0.70 -21.0 0 0 69.11 27.70
  Q 81.45 20.35 95.79 22.09
  Q 96.27 22.15 96.40 21.68
  C 97.99 16.02 103.49 12.36 108.32 10.25
  Q 110.04 9.50 108.18 9.26
  Z
  M 122.86 27.20
  Q 118.69 29.28 116.27 33.27
  Q 115.96 33.77 116.52 33.97
  Q 120.07 35.21 123.07 37.46
  Q 123.51 37.79 124.05 37.84
  Q 136.58 38.95 147.77 44.68
  Q 148.22 44.91 148.32 44.41
  C 150.13 35.19 146.73 25.64 136.48 23.89
  Q 135.95 23.80 135.71 23.32
  Q 129.46 11.27 115.57 13.22
  Q 114.91 13.32 115.00 12.66
  L 115.07 12.17
  Q 115.17 11.39 114.42 11.64
  C 108.70 13.54 93.22 21.17 100.20 29.45
  Q 100.53 29.84 101.01 29.69
  Q 111.61 26.31 122.77 26.82
  A 0.20 0.20 0.0 0 1 122.86 27.20
  Z
  M 46.25 28.57
  C 52.02 26.94 59.29 25.77 65.11 27.71
  A 0.31 0.31 0.0 0 0 65.50 27.31
  Q 62.87 19.82 67.13 13.21
  A 0.54 0.54 0.0 0 0 66.54 12.40
  Q 53.02 16.08 46.01 28.25
  Q 45.74 28.71 46.25 28.57
  Z
  M 88.41 26.77
  C 81.08 27.14 74.82 30.08 68.29 33.59
  Q 67.85 33.83 67.54 33.44
  Q 64.00 28.97 58.58 30.46
  C 41.29 30.91 39.61 49.65 37.17 62.22
  A 0.33 0.33 0.0 0 0 37.77 62.46
  Q 38.97 60.53 41.18 60.80
  L 38.11 65.32
  A 0.43 0.42 2.6 0 0 38.67 65.93
  Q 42.38 63.88 46.60 63.36
  Q 47.15 63.29 47.41 63.79
  Q 49.98 68.81 54.33 72.37
  Q 52.18 74.24 51.27 76.79
  Q 50.97 77.63 51.80 77.28
  Q 53.84 76.41 55.98 77.01
  A 0.35 0.35 0.0 0 1 55.93 77.69
  Q 53.82 77.97 52.75 79.71
  Q 51.39 80.37 50.93 81.19
  Q 45.57 90.78 42.98 101.61
  C 42.62 111.19 55.05 106.18 59.50 106.71
  L 50.85 109.56
  A 0.39 0.39 0.0 0 0 50.74 110.24
  C 55.24 113.58 63.15 107.95 66.15 104.63
  Q 66.65 104.08 65.93 104.26
  L 61.61 105.36
  L 54.88 105.29
  Q 54.55 104.33 55.24 104.16
  Q 61.16 102.65 68.06 102.57
  C 69.91 102.55 71.99 101.75 71.21 99.55
  Q 70.06 96.29 65.03 95.66
  C 69.61 90.80 75.79 95.57 76.41 100.81
  L 75.28 103.81
  Q 75.13 104.23 75.58 104.23
  L 79.25 104.21
  Q 85.27 105.00 91.16 109.95
  A 0.15 0.15 0.0 0 0 91.40 109.82
  C 90.70 103.99 86.11 99.88 81.86 96.24
  C 96.09 101.58 101.46 111.63 92.75 125.43
  Q 92.15 126.39 93.10 125.76
  Q 95.62 124.09 97.41 121.38
  Q 103.56 114.72 101.60 105.97
  C 100.99 103.27 98.93 101.37 96.98 99.48
  A 0.27 0.27 0.0 0 1 97.24 99.03
  L 113.61 103.70
  Q 114.14 103.85 114.51 103.44
  L 116.81 100.81
  Q 117.36 100.19 117.26 101.01
  L 116.41 108.20
  Q 116.30 109.17 116.81 108.34
  L 126.21 93.00
  L 130.21 87.16
  Q 130.47 87.30 130.71 87.25
  Q 138.45 98.31 142.42 110.98
  A 0.78 0.77 71.1 0 0 143.42 111.48
  C 149.53 109.27 151.79 102.80 154.61 97.48
  C 158.04 90.98 158.92 85.62 157.48 78.63
  C 156.16 72.25 154.27 66.40 146.17 69.88
  Q 141.65 71.82 137.86 75.84
  Q 137.56 69.36 129.09 68.86
  Q 128.63 68.84 128.70 69.29
  Q 129.69 75.52 127.78 81.52
  A 0.17 0.17 0.0 0 1 127.44 81.47
  Q 127.44 74.35 124.66 67.84
  Q 124.44 67.33 123.90 67.22
  L 122.35 66.91
  A 0.96 0.95 82.2 0 1 121.68 66.40
  Q 115.63 54.74 105.06 46.98
  A 0.64 0.64 0.0 0 1 105.11 45.91
  Q 111.43 42.19 118.78 41.88
  Q 119.66 41.85 118.94 41.33
  L 113.20 37.23
  Q 112.09 36.67 111.60 36.12
  Q 111.10 35.55 111.52 34.44
  Q 112.13 32.83 113.04 31.38
  Q 113.32 30.93 112.81 30.81
  Q 111.97 30.61 111.09 30.76
  Q 104.85 30.17 99.72 33.34
  Q 99.22 33.66 98.77 33.27
  Q 96.00 30.86 95.73 27.14
  Q 95.69 26.62 95.16 26.63
  L 88.41 26.77
  Z
  M 47.00 31.69
  C 41.29 30.71 38.88 35.05 36.75 39.27
  C 35.56 41.61 36.70 43.68 38.20 45.47
  Q 38.64 46.00 38.77 45.32
  Q 40.32 37.05 47.10 32.10
  Q 47.53 31.78 47.00 31.69
  Z
  M 151.48 63.88
  C 153.41 53.08 146.70 45.23 136.00 44.57
  Q 124.46 43.85 112.86 47.16
  Q 110.87 47.73 112.68 48.72
  Q 122.00 53.80 125.87 63.61
  Q 126.09 64.19 126.71 64.20
  Q 131.15 64.31 135.06 66.44
  A 1.14 1.13 -41.1 0 0 135.99 66.50
  Q 143.22 63.80 150.95 64.29
  Q 151.40 64.32 151.48 63.88
  Z
  M 34.51 72.01
  C 39.98 71.19 44.04 71.60 49.27 73.36
  Q 49.84 73.55 49.67 72.97
  Q 48.76 69.81 46.28 67.67
  Q 45.90 67.34 45.40 67.41
  C 41.79 67.85 36.60 68.40 34.21 71.49
  Q 33.71 72.13 34.51 72.01
  Z
  M 33.19 77.94
  Q 31.04 78.73 33.19 80.79
  Q 35.24 82.74 37.94 81.04
  L 43.54 78.11
  A 0.91 0.90 -49.6 0 0 43.41 76.45
  Q 38.10 74.69 33.19 77.94
  Z
  M 42.50 80.95
  Q 37.59 80.86 36.21 85.68
  A 0.90 0.89 -76.5 0 0 36.89 86.80
  Q 40.29 87.50 43.85 85.25
  Q 42.47 88.54 38.20 89.14
  A 0.58 0.58 0.0 0 0 37.85 90.10
  L 41.03 93.57
  A 0.47 0.46 35.2 0 1 41.12 94.06
  Q 41.07 94.19 40.99 94.30
  L 37.65 92.65
  A 1.42 1.42 0.0 0 0 35.69 93.44
  Q 31.42 105.28 37.67 116.66
  Q 38.19 120.93 40.84 125.07
  Q 41.14 125.53 41.22 124.99
  Q 42.21 118.15 45.39 112.01
  Q 45.62 111.57 45.18 111.33
  C 34.65 105.40 47.01 89.97 47.78 81.22
  A 0.96 0.96 0.0 0 0 47.38 80.35
  Q 45.13 78.78 42.50 80.95
  Z
  M 125.53 129.00
  Q 127.49 113.94 127.25 98.75
  A 0.27 0.27 0.0 0 0 126.73 98.66
  C 124.82 103.40 123.23 107.25 122.52 112.58
  Q 119.16 137.63 106.25 159.41
  A 0.24 0.24 0.0 0 0 106.60 159.73
  Q 121.47 149.26 135.20 137.20
  Q 139.00 133.86 138.00 129.71
  Q 137.94 129.44 138.13 129.24
  Q 138.25 129.12 138.38 129.00
  Q 138.48 128.90 138.56 129.01
  L 139.76 130.70
  Q 140.32 131.49 140.32 130.52
  Q 140.36 110.78 131.30 93.36
  A 0.35 0.35 0.0 0 0 130.64 93.54
  Q 131.67 111.80 125.82 129.07
  A 0.15 0.15 0.0 0 1 125.53 129.00
  Z
  M 91.39 148.05
  Q 91.42 137.45 95.70 127.78
  A 0.25 0.25 0.0 0 0 95.31 127.48
  C 86.16 134.99 55.21 170.15 84.27 174.89
  A 0.37 0.37 0.0 0 0 84.56 174.23
  Q 80.27 170.93 78.46 165.83
  A 0.36 0.35 10.0 0 1 79.02 165.44
  Q 84.47 169.96 91.29 171.89
  Q 91.77 172.03 92.13 171.69
  C 106.92 157.46 115.49 133.86 118.57 114.08
  A 0.18 0.18 0.0 0 0 118.24 113.96
  L 114.19 120.47
  A 0.38 0.38 0.0 0 1 113.49 120.30
  Q 112.72 111.20 106.05 105.17
  Q 105.03 104.25 105.15 105.62
  Q 107.32 129.79 92.11 148.31
  Q 91.39 149.19 91.39 148.05
  Z
  M 90.14 116.24
  C 86.92 101.39 67.90 106.10 60.29 113.17
  A 0.54 0.54 0.0 0 0 60.87 114.06
  C 69.89 110.09 81.79 109.44 89.67 116.51
  A 0.29 0.28 14.9 0 0 90.14 116.24
  Z
  M 56.63 113.96
  C 50.22 110.13 43.61 114.78 44.59 121.95
  A 0.36 0.36 0.0 0 0 45.26 122.07
  Q 48.76 115.48 56.32 115.17
  A 0.65 0.65 0.0 0 0 56.63 113.96
  Z
  M 80.68 115.81
  Q 75.71 113.05 70.83 113.59
  C 65.48 114.18 49.08 117.08 48.41 124.53
  Q 48.35 125.15 48.73 124.66
  C 53.65 118.35 65.36 115.58 72.86 115.21
  C 75.12 115.10 77.96 115.81 80.63 116.00
  Q 81.09 116.03 80.68 115.81
  Z
  M 80.79 119.32
  Q 66.46 115.83 54.02 123.27
  A 0.85 0.84 -34.3 0 0 53.78 124.51
  Q 55.13 126.25 55.18 128.50
  A 0.71 0.70 -84.7 0 0 55.72 129.16
  C 61.14 130.34 78.10 124.03 81.09 120.20
  Q 81.62 119.52 80.79 119.32
  Z
  M 85.00 123.68
  Q 83.77 123.83 82.84 124.76
  Q 82.33 125.27 82.25 124.55
  Q 82.20 123.97 82.75 123.52
  Q 83.54 122.87 83.45 121.93
  Q 83.39 121.24 82.91 121.75
  Q 80.44 124.40 77.12 125.90
  C 76.59 126.14 76.39 126.60 76.21 127.12
  Q 76.07 127.55 75.63 127.50
  Q 75.23 127.46 74.89 127.40
  Q 74.47 127.32 74.13 127.40
  Q 63.85 129.76 53.53 132.18
  Q 53.00 132.31 53.00 131.76
  L 53.00 131.24
  Q 53.00 130.78 52.61 130.54
  L 48.56 128.06
  Q 48.07 127.76 48.06 128.34
  L 48.04 130.70
  L 48.84 139.96
  Q 48.87 140.26 49.15 140.14
  L 54.59 137.66
  Q 54.97 137.49 54.74 137.16
  Q 54.11 136.25 52.78 135.52
  Q 55.75 135.19 57.67 136.50
  Q 72.42 137.89 84.78 127.79
  Q 88.33 124.89 89.71 120.46
  A 0.31 0.31 0.0 0 0 89.21 120.13
  L 85.00 123.68
  Z
  M 46.37 143.46
  L 46.01 130.00
  A 0.14 0.14 0.0 0 0 45.87 129.86
  L 45.77 129.87
  A 2.17 1.44 88.5 0 0 44.39 132.07
  L 44.63 141.47
  A 2.17 1.44 88.5 0 0 46.13 143.60
  L 46.23 143.60
  A 0.14 0.14 0.0 0 0 46.37 143.46
  Z
  M 62.24 142.71
  C 59.13 153.76 61.35 170.39 74.03 175.05
  A 0.83 0.83 0.0 0 0 74.88 173.66
  Q 71.38 170.42 70.09 166.22
  C 67.34 157.24 76.07 144.30 80.87 137.20
  Q 81.41 136.40 80.51 136.75
  Q 72.07 140.02 63.20 141.82
  A 1.26 1.25 -87.6 0 0 62.24 142.71
  Z
  M 51.53 149.88
  Q 51.84 146.40 52.87 143.05
  A 0.30 0.29 -16.8 0 0 52.36 142.78
  Q 43.22 153.89 42.03 168.29
  C 41.63 173.11 50.39 178.82 53.66 181.00
  Q 54.11 181.30 54.63 181.19
  L 59.21 180.21
  A 0.40 0.39 -32.3 0 0 59.37 179.51
  Q 54.62 175.83 52.88 170.07
  Q 52.66 169.34 53.29 169.77
  Q 60.00 174.45 67.68 177.59
  A 1.39 1.39 0.0 0 0 68.99 175.16
  C 59.17 168.43 56.18 155.70 58.05 144.43
  A 0.51 0.50 -19.9 0 0 57.17 144.02
  L 51.95 150.06
  Q 51.46 150.63 51.53 149.88
  Z"
/>
<path fill="#fcc900" d="
  M 108.18 9.26
  Q 110.04 9.50 108.32 10.25
  C 103.49 12.36 97.99 16.02 96.40 21.68
  Q 96.27 22.15 95.79 22.09
  Q 81.45 20.35 69.11 27.70
  A 0.71 0.70 -21.0 0 1 68.06 27.24
  C 63.68 5.33 96.04 7.63 108.18 9.26
  Z"
/>
<path fill="#fcc900" d="
  M 122.86 27.20
  A 0.20 0.20 0.0 0 0 122.77 26.82
  Q 111.61 26.31 101.01 29.69
  Q 100.53 29.84 100.20 29.45
  C 93.22 21.17 108.70 13.54 114.42 11.64
  Q 115.17 11.39 115.07 12.17
  L 115.00 12.66
  Q 114.91 13.32 115.57 13.22
  Q 129.46 11.27 135.71 23.32
  Q 135.95 23.80 136.48 23.89
  C 146.73 25.64 150.13 35.19 148.32 44.41
  Q 148.22 44.91 147.77 44.68
  Q 136.58 38.95 124.05 37.84
  Q 123.51 37.79 123.07 37.46
  Q 120.07 35.21 116.52 33.97
  Q 115.96 33.77 116.27 33.27
  Q 118.69 29.28 122.86 27.20
  Z"
/>
<path fill="#fcc900" d="
  M 65.11 27.71
  C 59.29 25.77 52.02 26.94 46.25 28.57
  Q 45.74 28.71 46.01 28.25
  Q 53.02 16.08 66.54 12.40
  A 0.54 0.54 0.0 0 1 67.13 13.21
  Q 62.87 19.82 65.50 27.31
  A 0.31 0.31 0.0 0 1 65.11 27.71
  Z"
/>
<path fill="#808080" d="
  M 111.09 30.76
  L 103.12 43.46
  A 0.21 0.21 0.0 0 0 103.41 43.74
  L 113.20 37.23
  L 118.94 41.33
  Q 119.66 41.85 118.78 41.88
  Q 111.43 42.19 105.11 45.91
  A 0.64 0.64 0.0 0 0 105.06 46.98
  Q 115.63 54.74 121.68 66.40
  A 0.96 0.95 82.2 0 0 122.35 66.91
  L 123.90 67.22
  Q 124.44 67.33 124.66 67.84
  Q 127.44 74.35 127.44 81.47
  A 0.17 0.17 0.0 0 0 127.78 81.52
  Q 129.69 75.52 128.70 69.29
  Q 128.63 68.84 129.09 68.86
  Q 137.56 69.36 137.86 75.84
  L 130.71 87.25
  Q 130.47 87.30 130.21 87.16
  Q 130.58 85.48 130.14 83.60
  Q 129.98 82.93 129.60 83.50
  Q 125.22 90.10 120.79 96.66
  Q 120.72 96.76 120.75 96.83
  Q 120.79 96.94 120.93 97.03
  Q 121.04 97.10 121.15 97.02
  L 126.21 93.00
  L 116.81 108.34
  Q 116.30 109.17 116.41 108.20
  L 117.26 101.01
  Q 117.36 100.19 116.81 100.81
  L 114.51 103.44
  Q 114.14 103.85 113.61 103.70
  L 97.24 99.03
  A 0.27 0.27 0.0 0 0 96.98 99.48
  C 98.93 101.37 100.99 103.27 101.60 105.97
  Q 103.56 114.72 97.41 121.38
  Q 103.22 103.25 87.49 93.84
  A 0.32 0.32 0.0 0 1 87.49 93.29
  Q 87.83 93.08 88.20 93.26
  C 95.60 96.80 108.40 98.60 115.08 92.58
  C 117.55 90.36 124.48 81.71 123.47 77.80
  C 119.36 62.02 109.95 55.73 95.14 50.90
  Q 94.65 50.74 94.88 50.28
  Q 97.89 44.26 98.04 37.53
  C 98.16 32.58 92.55 28.73 88.41 26.77
  L 95.16 26.63
  Q 95.69 26.62 95.73 27.14
  Q 96.00 30.86 98.77 33.27
  Q 99.22 33.66 99.72 33.34
  Q 104.85 30.17 111.09 30.76
  Z"
/>
<path fill="#ffffff" d="
  M 88.41 26.77
  C 92.55 28.73 98.16 32.58 98.04 37.53
  Q 97.89 44.26 94.88 50.28
  Q 94.65 50.74 95.14 50.90
  C 109.95 55.73 119.36 62.02 123.47 77.80
  C 124.48 81.71 117.55 90.36 115.08 92.58
  C 108.40 98.60 95.60 96.80 88.20 93.26
  Q 87.83 93.08 87.49 93.29
  A 0.32 0.32 0.0 0 0 87.49 93.84
  Q 103.22 103.25 97.41 121.38
  Q 95.62 124.09 93.10 125.76
  Q 92.15 126.39 92.75 125.43
  C 101.46 111.63 96.09 101.58 81.86 96.24
  C 78.89 94.53 70.58 90.49 67.26 91.77
  Q 65.50 92.44 61.64 95.03
  Q 61.11 95.38 61.74 95.43
  L 65.03 95.66
  Q 70.06 96.29 71.21 99.55
  C 71.99 101.75 69.91 102.55 68.06 102.57
  Q 61.16 102.65 55.24 104.16
  Q 54.55 104.33 54.88 105.29
  Q 50.78 106.88 46.48 103.99
  A 0.99 0.99 0.0 0 1 46.57 102.29
  Q 48.79 101.12 51.29 101.25
  A 0.58 0.58 0.0 0 0 51.78 100.32
  L 50.76 99.00
  A 0.88 0.87 -55.0 0 1 50.62 98.18
  Q 53.36 89.83 57.85 82.28
  Q 58.08 81.90 58.50 81.75
  L 63.31 79.97
  A 0.52 0.52 0.0 0 0 63.32 79.00
  Q 61.62 78.32 61.79 76.57
  A 0.91 0.89 -7.1 0 1 62.40 75.80
  L 64.28 75.18
  L 68.26 76.26
  A 1.85 1.85 0.0 0 1 69.53 78.61
  L 68.39 82.17
  Q 68.25 82.62 68.68 82.80
  L 70.54 83.56
  C 74.64 91.01 83.42 93.71 90.38 88.35
  C 93.71 85.79 96.63 83.27 100.51 81.39
  Q 106.98 78.27 112.99 74.37
  Q 113.34 74.14 113.20 73.74
  Q 110.21 65.24 102.05 61.34
  C 96.47 56.96 92.94 52.02 84.55 53.32
  Q 75.82 54.66 67.38 57.62
  Q 66.86 57.80 66.91 58.35
  L 67.03 59.99
  Q 67.11 60.93 66.26 60.51
  L 63.72 59.23
  Q 63.19 58.97 62.64 59.16
  L 57.70 60.83
  Q 57.12 61.03 57.28 61.62
  Q 58.24 65.28 61.04 67.83
  L 57.67 67.52
  L 54.77 64.64
  Q 54.46 64.33 54.53 64.76
  Q 55.13 68.38 57.72 71.53
  Q 56.54 72.42 54.33 72.37
  Q 49.98 68.81 47.41 63.79
  Q 47.15 63.29 46.60 63.36
  Q 42.38 63.88 38.67 65.93
  A 0.43 0.42 2.6 0 1 38.11 65.32
  L 41.18 60.80
  C 41.82 59.99 42.38 58.76 42.26 57.61
  C 41.03 46.13 49.81 36.51 58.58 30.46
  Q 64.00 28.97 67.54 33.44
  Q 67.85 33.83 68.29 33.59
  C 74.82 30.08 81.08 27.14 88.41 26.77
  Z"
/>
<path fill="#808080" d="
  M 58.58 30.46
  C 49.81 36.51 41.03 46.13 42.26 57.61
  C 42.38 58.76 41.82 59.99 41.18 60.80
  Q 38.97 60.53 37.77 62.46
  A 0.33 0.33 0.0 0 1 37.17 62.22
  C 39.61 49.65 41.29 30.91 58.58 30.46
  Z"
/>
<path fill="#ffffff" d="
  M 111.09 30.76
  Q 111.97 30.61 112.81 30.81
  Q 113.32 30.93 113.04 31.38
  Q 112.13 32.83 111.52 34.44
  Q 111.10 35.55 111.60 36.12
  Q 112.09 36.67 113.20 37.23
  L 103.41 43.74
  A 0.21 0.21 0.0 0 1 103.12 43.46
  L 111.09 30.76
  Z"
/>
<path fill="#fcc900" d="
  M 36.75 39.27
  C 38.88 35.05 41.29 30.71 47.00 31.69
  Q 47.53 31.78 47.10 32.10
  Q 40.32 37.05 38.77 45.32
  Q 38.64 46.00 38.20 45.47
  C 36.70 43.68 35.56 41.61 36.75 39.27
  Z"
/>
<path fill="#fcc900" d="
  M 136.00 44.57
  C 146.70 45.23 153.41 53.08 151.48 63.88
  Q 151.40 64.32 150.95 64.29
  Q 143.22 63.80 135.99 66.50
  A 1.14 1.13 -41.1 0 1 135.06 66.44
  Q 131.15 64.31 126.71 64.20
  Q 126.09 64.19 125.87 63.61
  Q 122.00 53.80 112.68 48.72
  Q 110.87 47.73 112.86 47.16
  Q 124.46 43.85 136.00 44.57
  Z"
/>
<path fill="#000000" d="
  M 102.05 61.34
  Q 103.35 63.73 103.29 65.93
  Q 103.27 66.50 102.78 66.22
  C 93.03 60.72 83.00 62.90 73.61 67.86
  Q 73.26 68.04 73.13 68.33
  Q 72.97 68.67 73.00 68.96
  Q 73.06 69.56 73.57 69.26
  Q 81.27 64.79 89.65 68.44
  Q 96.07 71.21 100.37 75.74
  Q 101.51 76.60 101.75 77.39
  Q 101.93 77.97 101.36 77.76
  Q 99.31 77.00 97.65 75.44
  Q 87.96 74.44 78.46 79.76
  Q 76.98 79.44 75.60 80.87
  Q 74.50 80.43 73.97 81.11
  Q 73.61 81.56 73.99 82.00
  Q 75.80 84.08 79.56 85.60
  Q 75.47 86.02 70.54 83.56
  L 68.68 82.80
  Q 68.25 82.62 68.39 82.17
  L 69.53 78.61
  A 1.85 1.85 0.0 0 0 68.26 76.26
  L 64.28 75.18
  L 57.72 71.53
  Q 55.13 68.38 54.53 64.76
  Q 54.46 64.33 54.77 64.64
  L 57.67 67.52
  Q 61.20 71.81 66.86 71.77
  Q 68.21 71.77 68.19 70.20
  Q 68.19 69.71 67.70 69.75
  Q 63.93 70.07 61.04 67.83
  Q 58.24 65.28 57.28 61.62
  Q 57.12 61.03 57.70 60.83
  L 62.64 59.16
  Q 63.19 58.97 63.72 59.23
  L 66.26 60.51
  Q 67.11 60.93 67.03 59.99
  L 66.91 58.35
  Q 66.86 57.80 67.38 57.62
  Q 75.82 54.66 84.55 53.32
  C 92.94 52.02 96.47 56.96 102.05 61.34
  Z
  M 67.10 62.42
  Q 63.81 59.62 59.98 61.57
  Q 59.54 61.80 59.84 62.19
  C 61.35 64.17 64.03 67.22 66.79 67.01
  Q 67.29 66.97 67.67 66.66
  Q 78.57 57.74 92.73 58.85
  A 0.33 0.32 -21.1 0 0 92.98 58.29
  C 86.31 51.96 76.08 56.13 69.01 59.48
  A 0.83 0.81 85.4 0 0 68.57 60.01
  L 68.00 62.14
  Q 67.77 62.99 67.10 62.42
  Z
  M 87.07 71.45
  C 82.87 68.41 76.83 68.86 75.35 74.19
  A 1.46 1.46 0.0 0 0 77.02 76.02
  Q 82.17 75.10 86.96 72.72
  A 0.75 0.74 -40.2 0 0 87.07 71.45
  Z"
/>
<path fill="#fcc900" d="
  M 68.00 62.14
  L 68.57 60.01
  A 0.83 0.81 85.4 0 1 69.01 59.48
  C 76.08 56.13 86.31 51.96 92.98 58.29
  A 0.33 0.32 -21.1 0 1 92.73 58.85
  Q 78.57 57.74 67.67 66.66
  Q 67.29 66.97 66.79 67.01
  C 64.03 67.22 61.35 64.17 59.84 62.19
  Q 59.54 61.80 59.98 61.57
  Q 63.81 59.62 67.10 62.42
  Q 67.77 62.99 68.00 62.14
  Z"
/>
<path fill="#808080" d="
  M 102.05 61.34
  Q 110.21 65.24 113.20 73.74
  Q 113.34 74.14 112.99 74.37
  Q 106.98 78.27 100.51 81.39
  C 96.63 83.27 93.71 85.79 90.38 88.35
  C 83.42 93.71 74.64 91.01 70.54 83.56
  Q 75.47 86.02 79.56 85.60
  Q 82.31 86.90 85.25 85.82
  Q 85.95 85.56 85.22 85.40
  Q 79.90 84.19 75.60 80.87
  Q 76.98 79.44 78.46 79.76
  Q 89.20 83.95 97.65 75.44
  Q 99.31 77.00 101.36 77.76
  Q 101.93 77.97 101.75 77.39
  Q 101.51 76.60 100.37 75.74
  Q 101.80 75.52 102.36 75.10
  Q 102.98 74.62 102.12 73.61
  Q 97.24 67.84 89.65 68.44
  Q 81.27 64.79 73.57 69.26
  Q 73.06 69.56 73.00 68.96
  Q 72.97 68.67 73.13 68.33
  Q 73.26 68.04 73.61 67.86
  C 83.00 62.90 93.03 60.72 102.78 66.22
  Q 103.27 66.50 103.29 65.93
  Q 103.35 63.73 102.05 61.34
  Z"
/>
<path fill="#fcc900" d="
  M 49.27 73.36
  C 44.04 71.60 39.98 71.19 34.51 72.01
  Q 33.71 72.13 34.21 71.49
  C 36.60 68.40 41.79 67.85 45.40 67.41
  Q 45.90 67.34 46.28 67.67
  Q 48.76 69.81 49.67 72.97
  Q 49.84 73.55 49.27 73.36
  Z"
/>
<path fill="#808080" d="
  M 57.67 67.52
  L 61.04 67.83
  Q 63.93 70.07 67.70 69.75
  Q 68.19 69.71 68.19 70.20
  Q 68.21 71.77 66.86 71.77
  Q 61.20 71.81 57.67 67.52
  Z"
/>
<path fill="#ffffff" d="
  M 100.37 75.74
  Q 96.07 71.21 89.65 68.44
  Q 97.24 67.84 102.12 73.61
  Q 102.98 74.62 102.36 75.10
  Q 101.80 75.52 100.37 75.74
  Z"
/>
<path fill="#ffffff" d="
  M 130.71 87.25
  L 137.86 75.84
  Q 141.65 71.82 146.17 69.88
  C 154.27 66.40 156.16 72.25 157.48 78.63
  C 158.92 85.62 158.04 90.98 154.61 97.48
  C 151.79 102.80 149.53 109.27 143.42 111.48
  A 0.78 0.77 71.1 0 1 142.42 110.98
  Q 138.45 98.31 130.71 87.25
  Z
  M 139.53 80.76
  L 135.29 85.76
  Q 134.78 86.37 135.50 86.03
  C 137.13 85.28 139.05 83.94 140.79 83.67
  A 1.15 1.15 0.0 0 1 141.86 85.53
  L 138.12 90.13
  Q 137.81 90.51 137.95 90.99
  L 140.56 99.63
  C 138.38 101.71 142.33 104.77 144.98 103.61
  Q 149.62 101.57 150.07 95.53
  Q 150.26 93.17 151.17 93.22
  L 151.91 95.42
  Q 152.17 96.21 152.47 95.44
  C 153.95 91.69 156.71 76.45 149.71 76.13
  Q 143.73 75.85 139.53 80.76
  Z"
/>
<path fill="#ff000a" d="
  M 87.07 71.45
  A 0.75 0.74 -40.2 0 1 86.96 72.72
  Q 82.17 75.10 77.02 76.02
  A 1.46 1.46 0.0 0 1 75.35 74.19
  C 76.83 68.86 82.87 68.41 87.07 71.45
  Z"
/>
<path fill="#808080" d="
  M 57.72 71.53
  L 64.28 75.18
  L 62.40 75.80
  A 0.91 0.89 -7.1 0 0 61.79 76.57
  Q 61.62 78.32 63.32 79.00
  A 0.52 0.52 0.0 0 1 63.31 79.97
  L 58.50 81.75
  Q 58.08 81.90 57.85 82.28
  Q 53.36 89.83 50.62 98.18
  A 0.88 0.87 -55.0 0 0 50.76 99.00
  L 51.78 100.32
  A 0.58 0.58 0.0 0 1 51.29 101.25
  Q 48.79 101.12 46.57 102.29
  A 0.99 0.99 0.0 0 0 46.48 103.99
  Q 50.78 106.88 54.88 105.29
  L 61.61 105.36
  Q 60.66 106.62 59.50 106.71
  C 55.05 106.18 42.62 111.19 42.98 101.61
  L 53.66 80.89
  A 0.78 0.78 0.0 0 0 53.75 80.57
  Q 53.77 79.63 52.75 79.71
  Q 53.82 77.97 55.93 77.69
  A 0.35 0.35 0.0 0 0 55.98 77.01
  Q 53.84 76.41 51.80 77.28
  Q 50.97 77.63 51.27 76.79
  Q 52.18 74.24 54.33 72.37
  Q 56.54 72.42 57.72 71.53
  Z"
/>
<path fill="#ffffff" d="
  M 97.65 75.44
  Q 89.20 83.95 78.46 79.76
  Q 87.96 74.44 97.65 75.44
  Z"
/>
<path fill="#808080" d="
  M 37.94 81.04
  Q 35.03 80.06 33.19 77.94
  Q 38.10 74.69 43.41 76.45
  A 0.91 0.90 -49.6 0 1 43.54 78.11
  L 37.94 81.04
  Z"
/>
<path fill="#000000" d="
  M 151.17 93.22
  Q 149.80 88.46 145.88 87.48
  A 1.05 1.04 -41.7 0 1 146.00 85.43
  L 150.84 84.77
  Q 151.29 84.71 151.39 84.27
  C 153.11 76.22 143.06 79.24 139.53 80.76
  Q 143.73 75.85 149.71 76.13
  C 156.71 76.45 153.95 91.69 152.47 95.44
  Q 152.17 96.21 151.91 95.42
  L 151.17 93.22
  Z"
/>
<path fill="#ffffff" d="
  M 33.19 77.94
  Q 35.03 80.06 37.94 81.04
  Q 35.24 82.74 33.19 80.79
  Q 31.04 78.73 33.19 77.94
  Z"
/>
<path fill="#808080" d="
  M 151.17 93.22
  Q 150.26 93.17 150.07 95.53
  L 146.77 99.14
  A 0.68 0.67 41.6 0 1 145.83 99.19
  Q 143.74 97.38 143.43 94.64
  A 0.37 0.37 0.0 0 0 142.70 94.62
  Q 142.26 97.14 140.56 99.63
  L 137.95 90.99
  Q 137.81 90.51 138.12 90.13
  L 141.86 85.53
  A 1.15 1.15 0.0 0 0 140.79 83.67
  C 139.05 83.94 137.13 85.28 135.50 86.03
  Q 134.78 86.37 135.29 85.76
  L 139.53 80.76
  C 143.06 79.24 153.11 76.22 151.39 84.27
  Q 151.29 84.71 150.84 84.77
  L 146.00 85.43
  A 1.05 1.04 -41.7 0 0 145.88 87.48
  Q 149.80 88.46 151.17 93.22
  Z"
/>
<path fill="#808080" d="
  M 37.67 116.66
  Q 37.52 112.18 37.63 107.96
  Q 37.71 104.99 38.77 102.24
  C 39.51 100.31 41.85 96.20 40.99 94.30
  Q 41.07 94.19 41.12 94.06
  A 0.47 0.46 35.2 0 0 41.03 93.57
  L 37.85 90.10
  A 0.58 0.58 0.0 0 1 38.20 89.14
  Q 42.47 88.54 43.85 85.25
  L 45.28 83.74
  Q 45.72 83.27 45.20 82.89
  L 42.50 80.95
  Q 45.13 78.78 47.38 80.35
  A 0.96 0.96 0.0 0 1 47.78 81.22
  C 47.01 89.97 34.65 105.40 45.18 111.33
  Q 45.62 111.57 45.39 112.01
  Q 42.21 118.15 41.22 124.99
  Q 41.14 125.53 40.84 125.07
  Q 38.19 120.93 37.67 116.66
  Z"
/>
<path fill="#ffffff" d="
  M 52.75 79.71
  Q 53.77 79.63 53.75 80.57
  A 0.78 0.78 0.0 0 1 53.66 80.89
  L 42.98 101.61
  Q 45.57 90.78 50.93 81.19
  Q 51.39 80.37 52.75 79.71
  Z"
/>
<path fill="#ffffff" d="
  M 75.60 80.87
  Q 79.90 84.19 85.22 85.40
  Q 85.95 85.56 85.25 85.82
  Q 82.31 86.90 79.56 85.60
  Q 75.80 84.08 73.99 82.00
  Q 73.61 81.56 73.97 81.11
  Q 74.50 80.43 75.60 80.87
  Z"
/>
<path fill="#ff000a" d="
  M 42.50 80.95
  L 45.20 82.89
  Q 45.72 83.27 45.28 83.74
  L 43.85 85.25
  Q 40.29 87.50 36.89 86.80
  A 0.90 0.89 -76.5 0 1 36.21 85.68
  Q 37.59 80.86 42.50 80.95
  Z"
/>
<path fill="#ffffff" d="
  M 130.21 87.16
  L 126.21 93.00
  L 121.15 97.02
  Q 121.04 97.10 120.93 97.03
  Q 120.79 96.94 120.75 96.83
  Q 120.72 96.76 120.79 96.66
  Q 125.22 90.10 129.60 83.50
  Q 129.98 82.93 130.14 83.60
  Q 130.58 85.48 130.21 87.16
  Z"
/>
<path fill="#808080" d="
  M 81.86 96.24
  C 86.11 99.88 90.70 103.99 91.40 109.82
  A 0.15 0.15 0.0 0 1 91.16 109.95
  Q 85.27 105.00 79.25 104.21
  L 76.41 100.81
  C 75.79 95.57 69.61 90.80 65.03 95.66
  L 61.74 95.43
  Q 61.11 95.38 61.64 95.03
  Q 65.50 92.44 67.26 91.77
  C 70.58 90.49 78.89 94.53 81.86 96.24
  Z"
/>
<path fill="#ffffff" d="
  M 40.99 94.30
  C 41.85 96.20 39.51 100.31 38.77 102.24
  Q 37.71 104.99 37.63 107.96
  Q 37.52 112.18 37.67 116.66
  Q 31.42 105.28 35.69 93.44
  A 1.42 1.42 0.0 0 1 37.65 92.65
  L 40.99 94.30
  Z"
/>
<path fill="#fcc900" d="
  M 125.82 129.07
  Q 131.67 111.80 130.64 93.54
  A 0.35 0.35 0.0 0 1 131.30 93.36
  Q 140.36 110.78 140.32 130.52
  Q 140.32 131.49 139.76 130.70
  L 138.56 129.01
  Q 138.48 128.90 138.38 129.00
  Q 138.25 129.12 138.13 129.24
  Q 137.94 129.44 138.00 129.71
  Q 139.00 133.86 135.20 137.20
  Q 121.47 149.26 106.60 159.73
  A 0.24 0.24 0.0 0 1 106.25 159.41
  Q 119.16 137.63 122.52 112.58
  C 123.23 107.25 124.82 103.40 126.73 98.66
  A 0.27 0.27 0.0 0 1 127.25 98.75
  Q 127.49 113.94 125.53 129.00
  A 0.15 0.15 0.0 0 0 125.82 129.07
  Z"
/>
<path fill="#000000" d="
  M 150.07 95.53
  Q 149.62 101.57 144.98 103.61
  C 142.33 104.77 138.38 101.71 140.56 99.63
  Q 142.26 97.14 142.70 94.62
  A 0.37 0.37 0.0 0 1 143.43 94.64
  Q 143.74 97.38 145.83 99.19
  A 0.68 0.67 41.6 0 0 146.77 99.14
  L 150.07 95.53
  Z"
/>
<path fill="#ffffff" d="
  M 76.41 100.81
  L 79.25 104.21
  L 75.58 104.23
  Q 75.13 104.23 75.28 103.81
  L 76.41 100.81
  Z"
/>
<path fill="#ffffff" d="
  M 59.50 106.71
  Q 60.66 106.62 61.61 105.36
  L 65.93 104.26
  Q 66.65 104.08 66.15 104.63
  C 63.15 107.95 55.24 113.58 50.74 110.24
  A 0.39 0.39 0.0 0 1 50.85 109.56
  L 59.50 106.71
  Z"
/>
<path fill="#fcc900" d="
  M 91.39 148.05
  Q 91.39 149.19 92.11 148.31
  Q 107.32 129.79 105.15 105.62
  Q 105.03 104.25 106.05 105.17
  Q 112.72 111.20 113.49 120.30
  A 0.38 0.38 0.0 0 0 114.19 120.47
  L 118.24 113.96
  A 0.18 0.18 0.0 0 1 118.57 114.08
  C 115.49 133.86 106.92 157.46 92.13 171.69
  Q 91.77 172.03 91.29 171.89
  Q 84.47 169.96 79.02 165.44
  A 0.36 0.35 10.0 0 0 78.46 165.83
  Q 80.27 170.93 84.56 174.23
  A 0.37 0.37 0.0 0 1 84.27 174.89
  C 55.21 170.15 86.16 134.99 95.31 127.48
  A 0.25 0.25 0.0 0 1 95.70 127.78
  Q 91.42 137.45 91.39 148.05
  Z"
/>
<path fill="#fcc900" d="
  M 60.29 113.17
  C 67.90 106.10 86.92 101.39 90.14 116.24
  A 0.29 0.28 14.9 0 1 89.67 116.51
  C 81.79 109.44 69.89 110.09 60.87 114.06
  A 0.54 0.54 0.0 0 1 60.29 113.17
  Z"
/>
<path fill="#fcc900" d="
  M 44.59 121.95
  C 43.61 114.78 50.22 110.13 56.63 113.96
  A 0.65 0.65 0.0 0 1 56.32 115.17
  Q 48.76 115.48 45.26 122.07
  A 0.36 0.36 0.0 0 1 44.59 121.95
  Z"
/>
<path fill="#808080" d="
  M 80.63 116.00
  C 77.96 115.81 75.12 115.10 72.86 115.21
  C 65.36 115.58 53.65 118.35 48.73 124.66
  Q 48.35 125.15 48.41 124.53
  C 49.08 117.08 65.48 114.18 70.83 113.59
  Q 75.71 113.05 80.68 115.81
  Q 81.09 116.03 80.63 116.00
  Z"
/>
<path fill="#ffffff" d="
  M 80.79 119.32
  Q 81.62 119.52 81.09 120.20
  C 78.10 124.03 61.14 130.34 55.72 129.16
  A 0.71 0.70 -84.7 0 1 55.18 128.50
  Q 55.13 126.25 53.78 124.51
  A 0.85 0.84 -34.3 0 1 54.02 123.27
  Q 66.46 115.83 80.79 119.32
  Z"
/>
<path fill="#ffffff" d="
  M 57.67 136.50
  Q 61.11 134.83 67.24 133.48
  C 71.37 132.57 82.58 128.33 85.00 123.68
  L 89.21 120.13
  A 0.31 0.31 0.0 0 1 89.71 120.46
  Q 88.33 124.89 84.78 127.79
  Q 72.42 137.89 57.67 136.50
  Z"
/>
<path fill="#808080" d="
  M 85.00 123.68
  C 82.58 128.33 71.37 132.57 67.24 133.48
  Q 61.11 134.83 57.67 136.50
  Q 55.75 135.19 52.78 135.52
  L 48.04 130.70
  L 48.06 128.34
  Q 48.07 127.76 48.56 128.06
  L 52.61 130.54
  Q 53.00 130.78 53.00 131.24
  L 53.00 131.76
  Q 53.00 132.31 53.53 132.18
  Q 63.85 129.76 74.13 127.40
  Q 74.47 127.32 74.89 127.40
  Q 75.23 127.46 75.63 127.50
  Q 76.07 127.55 76.21 127.12
  C 76.39 126.60 76.59 126.14 77.12 125.90
  Q 80.44 124.40 82.91 121.75
  Q 83.39 121.24 83.45 121.93
  Q 83.54 122.87 82.75 123.52
  Q 82.20 123.97 82.25 124.55
  Q 82.33 125.27 82.84 124.76
  Q 83.77 123.83 85.00 123.68
  Z"
/>
<path fill="#fcc900" d="
  M 46.37 143.46
  A 0.14 0.14 0.0 0 1 46.23 143.60
  L 46.13 143.60
  A 2.17 1.44 88.5 0 1 44.63 141.47
  L 44.39 132.07
  A 2.17 1.44 88.5 0 1 45.77 129.87
  L 45.87 129.86
  A 0.14 0.14 0.0 0 1 46.01 130.00
  L 46.37 143.46
  Z"
/>
<path fill="#ffffff" d="
  M 48.04 130.70
  L 52.78 135.52
  Q 54.11 136.25 54.74 137.16
  Q 54.97 137.49 54.59 137.66
  L 49.15 140.14
  Q 48.87 140.26 48.84 139.96
  L 48.04 130.70
  Z"
/>
<path fill="#fcc900" d="
  M 74.03 175.05
  C 61.35 170.39 59.13 153.76 62.24 142.71
  A 1.26 1.25 -87.6 0 1 63.20 141.82
  Q 72.07 140.02 80.51 136.75
  Q 81.41 136.40 80.87 137.20
  C 76.07 144.30 67.34 157.24 70.09 166.22
  Q 71.38 170.42 74.88 173.66
  A 0.83 0.83 0.0 0 1 74.03 175.05
  Z"
/>
<path fill="#fcc900" d="
  M 51.95 150.06
  L 57.17 144.02
  A 0.51 0.50 -19.9 0 1 58.05 144.43
  C 56.18 155.70 59.17 168.43 68.99 175.16
  A 1.39 1.39 0.0 0 1 67.68 177.59
  Q 60.00 174.45 53.29 169.77
  Q 52.66 169.34 52.88 170.07
  Q 54.62 175.83 59.37 179.51
  A 0.40 0.39 -32.3 0 1 59.21 180.21
  L 54.63 181.19
  Q 54.11 181.30 53.66 181.00
  C 50.39 178.82 41.63 173.11 42.03 168.29
  Q 43.22 153.89 52.36 142.78
  A 0.30 0.29 -16.8 0 1 52.87 143.05
  Q 51.84 146.40 51.53 149.88
  Q 51.46 150.63 51.95 150.06
  Z"
/>
</svg>
