<?xml version="1.0" encoding="UTF-8" standalone="no"?>
<!DOCTYPE svg PUBLIC "-//W3C//DTD SVG 1.1//EN" "http://www.w3.org/Graphics/SVG/1.1/DTD/svg11.dtd">
<svg xmlns="http://www.w3.org/2000/svg" version="1.1" viewBox="0.00 0.00 903.00 245.00">
    <style>
        @media (prefers-color-scheme: dark) {
            .text {
                fill: white !important;
            }
        }
    </style>
    <g fill="none">
        <path stroke="#7e6500" vector-effect="non-scaling-stroke" d="
  M 64.96 18.77
  C 65.77 18.81 66.81 19.21 67.71 19.25
  Q 68.25 19.27 68.39 18.74
  C 69.87 12.97 75.76 9.17 80.83 7.01
  A 0.37 0.37 0.0 0 0 80.73 6.31
  C 69.55 4.88 34.25 2.30 40.21 24.41
  A 0.56 0.56 0.0 0 0 41.03 24.75
  Q 52.08 18.15 64.96 18.77"
        />
        <path stroke="#7e6500" vector-effect="non-scaling-stroke" d="
  M 94.79 24.22
  Q 90.89 26.17 88.54 29.84
  Q 87.96 30.73 88.96 31.11
  Q 92.20 32.36 95.00 34.43
  Q 95.44 34.75 95.98 34.80
  Q 108.50 35.98 119.70 41.64
  Q 120.24 41.91 120.36 41.31
  C 122.16 32.14 118.60 22.60 108.45 20.85
  Q 107.93 20.76 107.68 20.29
  Q 101.51 8.38 87.88 10.21
  Q 87.33 10.28 87.14 9.76
  L 86.89 9.07
  Q 86.66 8.45 86.04 8.68
  C 80.54 10.67 65.22 18.32 72.22 26.44
  Q 72.54 26.82 73.02 26.67
  Q 83.58 23.35 94.70 23.83
  Q 95.50 23.86 94.79 24.22"
        />
        <path stroke="#7e6500" vector-effect="non-scaling-stroke" d="
  M 18.36 25.55
  C 24.73 23.81 30.72 23.02 37.14 24.72
  Q 37.72 24.88 37.52 24.32
  Q 34.83 16.85 39.11 10.28
  Q 39.57 9.58 38.73 9.66
  C 30.25 10.53 22.17 18.21 18.01 25.08
  Q 17.61 25.75 18.36 25.55"
        />
        <path stroke="#808080" vector-effect="non-scaling-stroke" d="
  M 60.40 23.73
  Q 50.23 24.49 40.92 30.42
  Q 40.32 30.80 39.88 30.73
  Q 39.15 30.61 38.92 29.77
  A 1.37 1.31 -81.1 0 0 38.41 29.04
  Q 34.54 26.24 30.64 27.50"
        />
        <path stroke="#404040" vector-effect="non-scaling-stroke" d="
  M 30.64 27.50
  C 13.66 27.39 11.62 46.55 9.13 59.32
  A 0.31 0.31 0.0 0 0 9.71 59.54
  Q 10.81 57.65 13.31 57.74"
        />
        <path stroke="#808080" vector-effect="non-scaling-stroke" d="
  M 13.31 57.74
  L 10.06 62.35
  A 0.27 0.26 8.4 0 0 10.36 62.75
  L 18.32 60.19
  Q 18.99 59.98 19.31 60.60
  Q 21.99 65.72 26.22 69.38"
        />
        <path stroke="#404040" vector-effect="non-scaling-stroke" d="
  M 26.22 69.38
  L 23.30 73.42
  A 0.51 0.51 0.0 0 0 23.90 74.20
  Q 25.95 73.42 28.03 73.99
  A 0.41 0.41 0.0 0 1 27.93 74.79
  Q 25.76 74.81 24.75 76.68"
        />
        <path stroke="#808080" vector-effect="non-scaling-stroke" d="
  M 24.75 76.68
  C 20.26 79.40 15.97 94.47 15.04 98.62"
        />
        <path stroke="#404040" vector-effect="non-scaling-stroke" d="
  M 15.04 98.62
  C 13.85 107.72 27.45 103.41 31.57 103.86"
        />
        <path stroke="#808080" vector-effect="non-scaling-stroke" d="
  M 31.57 103.86
  L 23.07 106.47
  A 0.61 0.61 0.0 0 0 23.06 107.63
  C 28.75 109.48 34.43 105.53 38.20 101.72
  A 0.31 0.31 0.0 0 0 37.90 101.20
  L 33.64 102.35"
        />
        <path stroke="#404040" vector-effect="non-scaling-stroke" d="
  M 33.64 102.35
  L 27.27 102.14"
        />
        <path stroke="#808080" vector-effect="non-scaling-stroke" d="
  M 27.27 102.14
  Q 27.08 102.02 26.95 101.83
  Q 26.67 101.42 27.15 101.28
  Q 33.53 99.44 39.67 99.68
  Q 42.26 99.78 42.99 98.11
  C 44.31 95.08 39.51 93.05 37.22 92.65"
        />
        <path stroke="#404040" vector-effect="non-scaling-stroke" d="
  M 37.22 92.65
  C 41.59 88.40 48.40 92.34 48.32 97.60"
        />
        <path stroke="#808080" vector-effect="non-scaling-stroke" d="
  M 48.32 97.60
  L 47.28 100.81
  Q 47.14 101.23 47.59 101.23
  L 51.26 101.24"
        />
        <path stroke="#404040" vector-effect="non-scaling-stroke" d="
  M 51.26 101.24
  Q 58.09 102.05 61.92 106.18
  Q 63.98 108.40 63.21 105.47
  C 61.78 100.03 57.82 97.02 53.93 93.26"
        />
        <path stroke="#808080" vector-effect="non-scaling-stroke" d="
  M 53.93 93.26
  C 68.47 98.81 73.91 109.99 64.10 123.33
  A 0.16 0.16 0.0 0 0 64.33 123.54
  L 69.44 118.73"
        />
        <path stroke="#404040" vector-effect="non-scaling-stroke" d="
  M 69.44 118.73
  Q 79.52 105.14 68.62 96.26
  A 0.17 0.17 0.0 0 1 68.78 95.96
  L 85.63 100.67
  Q 86.14 100.82 86.51 100.42
  L 88.88 97.85
  A 0.21 0.21 0.0 0 1 89.25 98.02
  L 88.43 105.20
  Q 88.32 106.12 88.80 105.33
  L 98.07 90.25"
        />
        <path stroke="#808080" vector-effect="non-scaling-stroke" d="
  M 98.07 90.25
  L 102.31 83.94"
        />
        <path stroke="#404040" vector-effect="non-scaling-stroke" d="
  M 102.31 83.94
  L 102.78 84.45"
        />
        <path stroke="#808080" vector-effect="non-scaling-stroke" d="
  M 102.78 84.45
  Q 110.27 95.02 114.44 107.96
  Q 114.61 108.50 115.16 108.38
  C 122.01 106.98 129.54 90.41 129.93 84.21
  C 130.23 79.54 129.74 71.39 126.25 67.52
  C 121.82 62.60 112.91 69.73 109.80 72.90"
        />
        <path stroke="#404040" vector-effect="non-scaling-stroke" d="
  M 109.80 72.90
  Q 109.88 66.48 101.09 65.84
  Q 100.61 65.81 100.69 66.28
  Q 101.70 72.41 99.86 78.34
  A 0.32 0.32 0.0 0 1 99.23 78.23
  Q 99.61 71.21 96.61 64.89
  Q 96.39 64.42 95.88 64.29
  L 94.49 63.94
  Q 93.94 63.81 93.67 63.30
  Q 87.47 51.69 76.92 43.87
  A 0.53 0.53 0.0 0 1 76.97 42.99
  Q 83.35 39.21 90.79 38.83
  Q 91.70 38.78 90.96 38.26
  L 85.34 34.25"
        />
        <path stroke="#808080" vector-effect="non-scaling-stroke" d="
  M 85.34 34.25
  L 83.50 33.10
  A 0.75 0.74 28.5 0 1 83.22 32.16
  L 84.95 28.32
  Q 85.18 27.80 84.61 27.79
  L 83.24 27.75"
        />
        <path stroke="#404040" vector-effect="non-scaling-stroke" d="
  M 83.24 27.75
  Q 76.96 27.16 71.59 30.37
  Q 71.18 30.62 70.81 30.30
  Q 68.04 27.86 67.71 24.16
  Q 67.67 23.66 67.17 23.67
  L 60.40 23.73"
        />
        <path stroke="#c0c0c0" vector-effect="non-scaling-stroke" d="
  M 83.24 27.75
  L 75.25 40.37
  A 0.24 0.23 -0.5 0 0 75.58 40.69
  L 85.34 34.25"
        />
        <path stroke="#c0c0c0" vector-effect="non-scaling-stroke" d="
  M 109.80 72.90
  L 102.78 84.45"
        />
        <path stroke="#c0c0c0" vector-effect="non-scaling-stroke" d="
  M 102.31 83.94
  L 102.49 80.32
  A 0.32 0.32 0.0 0 0 101.90 80.12
  L 92.86 93.56
  Q 92.64 93.88 93.02 93.94
  Q 93.38 94.01 93.55 93.80
  Q 95.34 91.54 98.07 90.25"
        />
        <path stroke="#c0c0c0" vector-effect="non-scaling-stroke" d="
  M 69.44 118.73
  Q 69.89 116.05 70.38 113.88
  C 72.86 103.07 67.81 96.79 59.62 90.73
  Q 59.14 90.37 59.71 90.19
  Q 59.99 90.11 60.26 90.24
  C 74.40 97.06 88.27 93.93 94.74 78.75
  C 96.02 75.73 95.25 73.25 94.14 70.40
  C 88.92 57.10 80.14 52.21 67.18 47.89
  Q 66.67 47.72 66.91 47.24
  Q 69.89 41.19 70.04 34.47
  C 70.15 29.60 64.48 25.71 60.40 23.73"
        />
        <path stroke="#c0c0c0" vector-effect="non-scaling-stroke" d="
  M 53.93 93.26
  Q 47.85 89.78 40.75 88.29
  A 1.24 1.22 36.2 0 0 39.92 88.41
  L 33.40 91.90
  Q 32.44 92.42 33.53 92.48
  L 37.22 92.65"
        />
        <path stroke="#c0c0c0" vector-effect="non-scaling-stroke" d="
  M 27.27 102.14
  Q 27.27 102.31 27.18 102.44
  Q 27.10 102.54 26.91 102.58
  Q 22.02 103.63 18.34 100.83
  A 0.84 0.84 0.0 0 1 18.42 99.44
  Q 20.79 98.03 23.53 98.26
  A 0.44 0.44 0.0 0 0 23.91 97.55
  L 22.79 96.08
  Q 22.46 95.66 22.63 95.16
  Q 25.42 86.63 30.07 78.95
  A 1.01 0.98 10.5 0 1 30.79 78.47
  Q 33.22 78.14 35.27 76.82
  Q 35.83 76.47 35.32 76.03
  L 33.99 74.88
  A 0.59 0.56 -72.3 0 1 33.79 74.46
  Q 33.68 72.61 36.33 72.15"
        />
        <path stroke="#808080" vector-effect="non-scaling-stroke" d="
  M 36.33 72.15
  L 40.42 73.32
  A 1.73 1.73 0.0 0 1 41.54 75.66
  Q 39.42 80.69 41.90 80.17"
        />
        <path stroke="#c0c0c0" vector-effect="non-scaling-stroke" d="
  M 41.90 80.17
  C 45.97 86.39 52.59 90.11 59.53 87.20
  C 63.42 85.58 67.68 80.20 71.31 78.81
  Q 76.65 76.77 82.81 72.56
  Q 83.25 72.26 84.98 71.63
  Q 85.41 71.47 85.26 71.04
  Q 82.17 61.95 73.60 58.12"
        />
        <path stroke="#808080" vector-effect="non-scaling-stroke" d="
  M 73.60 58.12
  Q 69.48 53.69 64.06 51.07
  C 58.69 48.47 45.83 52.31 40.29 54.30
  Q 39.27 54.67 38.98 55.25
  Q 38.62 55.97 39.09 56.94
  A 0.48 0.48 0.0 0 1 38.45 57.58
  L 35.60 56.19
  A 1.28 1.26 -41.2 0 0 34.61 56.13
  L 29.70 57.84
  Q 29.13 58.04 29.27 58.62
  Q 30.14 62.25 33.10 64.87"
        />
        <path stroke="#c0c0c0" vector-effect="non-scaling-stroke" d="
  M 33.10 64.87
  L 29.56 64.56"
        />
        <path stroke="#808080" vector-effect="non-scaling-stroke" d="
  M 29.56 64.56
  L 26.93 61.86
  Q 26.42 61.33 26.56 62.05
  Q 27.24 65.48 29.71 68.51"
        />
        <path stroke="#c0c0c0" vector-effect="non-scaling-stroke" d="
  M 29.71 68.51
  Q 28.46 69.41 26.22 69.38"
        />
        <path stroke="#c0c0c0" vector-effect="non-scaling-stroke" d="
  M 13.31 57.74
  C 14.87 54.17 13.81 50.31 14.72 47.11
  C 17.01 39.13 23.85 32.09 30.64 27.50"
        />
        <path stroke="#c0c0c0" vector-effect="non-scaling-stroke" d="
  M 51.03 82.26
  Q 54.09 83.95 57.25 82.83
  Q 57.98 82.58 57.23 82.39
  Q 51.86 81.06 47.42 77.90"
        />
        <path stroke="#c0c0c0" vector-effect="non-scaling-stroke" d="
  M 50.74 76.64
  Q 56.22 79.38 62.75 77.00
  Q 67.20 75.38 69.68 72.48"
        />
        <path stroke="#c0c0c0" vector-effect="non-scaling-stroke" d="
  M 72.35 72.72
  Q 73.79 72.49 74.35 72.09
  Q 74.99 71.64 74.12 70.60
  Q 69.19 64.78 61.44 65.41"
        />
        <path stroke="#404040" vector-effect="non-scaling-stroke" d="
  M 73.60 58.12
  Q 75.50 60.70 75.28 62.94
  Q 75.23 63.48 74.76 63.22
  C 65.04 57.81 54.96 59.70 45.48 64.98
  Q 44.76 65.38 45.08 66.06
  Q 45.26 66.42 45.61 66.22
  Q 53.25 61.91 61.44 65.41"
        />
        <path stroke="#808080" vector-effect="non-scaling-stroke" d="
  M 61.44 65.41
  Q 67.99 68.09 72.35 72.72"
        />
        <path stroke="#404040" vector-effect="non-scaling-stroke" d="
  M 72.35 72.72
  Q 73.51 73.60 73.76 74.41
  Q 73.96 75.08 73.36 74.71
  L 69.68 72.48"
        />
        <path stroke="#808080" vector-effect="non-scaling-stroke" d="
  M 69.68 72.48
  Q 60.58 71.30 50.74 76.64"
        />
        <path stroke="#404040" vector-effect="non-scaling-stroke" d="
  M 50.74 76.64
  Q 49.28 76.33 47.42 77.90"
        />
        <path stroke="#808080" vector-effect="non-scaling-stroke" d="
  M 47.42 77.90
  Q 46.37 77.50 45.97 78.10
  Q 45.67 78.54 46.00 78.97
  Q 47.53 80.97 51.03 82.26"
        />
        <path stroke="#404040" vector-effect="non-scaling-stroke" d="
  M 51.03 82.26
  Q 47.05 83.10 41.90 80.17"
        />
        <path stroke="#404040" vector-effect="non-scaling-stroke" d="
  M 36.33 72.15
  L 29.71 68.51"
        />
        <path stroke="#404040" vector-effect="non-scaling-stroke" d="
  M 29.56 64.56
  Q 32.67 68.00 38.05 68.69
  Q 39.92 68.93 40.30 67.35
  Q 40.45 66.74 39.82 66.78
  Q 35.91 67.02 33.10 64.87"
        />
        <path stroke="#c0c0c0" vector-effect="non-scaling-stroke" d="
  M 51.26 101.24
  L 48.32 97.60"
        />
        <path stroke="#c0c0c0" vector-effect="non-scaling-stroke" d="
  M 33.64 102.35
  L 31.57 103.86"
        />
        <path stroke="#c0c0c0" vector-effect="non-scaling-stroke" d="
  M 15.04 98.62
  L 25.73 78.02
  Q 26.16 77.19 25.29 76.88
  L 24.75 76.68"
        />
        <path stroke="#7e6500" vector-effect="non-scaling-stroke" d="
  M 10.70 42.59
  C 12.02 35.94 14.63 33.29 18.73 29.21
  A 0.35 0.34 -69.1 0 0 18.47 28.62
  L 14.73 28.83
  A 0.90 0.85 21.9 0 0 14.24 29.02
  Q 9.96 32.55 8.10 37.78
  A 1.30 1.28 42.0 0 0 8.16 38.80
  L 10.08 42.68
  A 0.33 0.33 0.0 0 0 10.70 42.59"
        />
        <path stroke="#7e6500" vector-effect="non-scaling-stroke" d="
  M 123.53 60.67
  C 125.21 50.64 118.91 42.24 108.75 41.56
  Q 96.50 40.73 84.20 44.37
  A 0.53 0.53 0.0 0 0 84.11 45.35
  C 89.50 48.22 96.32 54.28 97.62 60.72
  A 0.64 0.64 0.0 0 0 98.27 61.24
  Q 102.89 61.07 106.81 63.45
  A 1.09 1.06 49.5 0 0 107.76 63.54
  Q 115.02 60.86 122.76 61.28
  Q 123.42 61.31 123.53 60.67"
        />
        <path stroke="#7e6500" vector-effect="non-scaling-stroke" d="
  M 6.51 69.00
  C 11.85 68.17 16.22 68.74 21.30 70.33
  Q 21.83 70.49 21.67 69.96
  Q 20.75 66.80 18.27 64.66
  Q 17.89 64.33 17.39 64.39
  C 13.82 64.81 8.54 65.43 6.22 68.51
  Q 5.76 69.12 6.51 69.00"
        />
        <path stroke="#808080" vector-effect="non-scaling-stroke" d="
  M 4.78 74.94
  Q 3.55 79.57 9.49 78.30"
        />
        <path stroke="#404040" vector-effect="non-scaling-stroke" d="
  M 9.49 78.30
  L 15.78 74.98
  A 0.57 0.57 0.0 0 0 15.96 74.12
  C 13.75 71.35 7.46 73.54 4.78 74.94"
        />
        <path stroke="#c0c0c0" vector-effect="non-scaling-stroke" d="
  M 9.49 78.30
  L 4.78 74.94"
        />
        <path stroke="#800005" vector-effect="non-scaling-stroke" d="
  M 14.27 77.97
  Q 9.73 78.07 8.27 82.38
  A 1.14 1.14 0.0 0 0 9.08 83.85
  Q 12.37 84.63 15.75 82.15"
        />
        <path stroke="#404040" vector-effect="non-scaling-stroke" d="
  M 15.75 82.15
  C 15.31 84.76 12.61 85.52 10.37 86.19
  Q 9.78 86.37 9.99 86.96
  C 10.72 88.92 12.22 88.88 13.03 90.23
  Q 13.58 91.16 12.71 91.40"
        />
        <path stroke="#808080" vector-effect="non-scaling-stroke" d="
  M 12.71 91.40
  L 8.94 89.50
  A 0.60 0.59 28.4 0 0 8.15 89.73
  C 4.27 96.48 6.06 107.03 9.38 113.57"
        />
        <path stroke="#404040" vector-effect="non-scaling-stroke" d="
  M 9.38 113.57
  L 12.76 122.08
  Q 13.08 122.89 13.21 122.02
  Q 14.21 115.21 17.33 109.09
  Q 17.59 108.58 17.10 108.29
  C 6.21 101.87 19.78 86.69 19.75 78.06
  A 0.95 0.95 0.0 0 0 19.31 77.26
  Q 17.16 75.89 14.27 77.97"
        />
        <path stroke="#c0c0c0" vector-effect="non-scaling-stroke" d="
  M 9.38 113.57
  Q 10.62 113.53 10.32 112.58
  Q 8.62 107.14 9.87 101.77
  C 10.52 98.97 12.65 95.68 13.27 93.01
  Q 13.55 91.79 12.71 91.40"
        />
        <path stroke="#c04045" vector-effect="non-scaling-stroke" d="
  M 15.75 82.15
  L 17.20 80.64
  Q 17.58 80.24 17.19 79.85
  Q 15.96 78.60 14.27 77.97"
        />
        <path stroke="#7e6500" vector-effect="non-scaling-stroke" d="
  M 97.52 126.00
  Q 99.51 110.81 99.24 95.50
  A 0.19 0.19 0.0 0 0 98.88 95.43
  C 96.86 100.28 95.24 104.21 94.51 109.68
  Q 91.15 134.57 78.40 156.14
  A 0.31 0.31 0.0 0 0 78.85 156.55
  C 89.21 149.24 101.10 140.83 109.75 131.62
  Q 110.10 131.25 110.10 130.73
  L 110.15 126.48
  A 0.33 0.32 -62.7 0 1 110.74 126.29
  L 111.76 127.70
  Q 112.30 128.44 112.31 127.52
  Q 112.36 107.61 103.17 90.08
  A 0.30 0.30 0.0 0 0 102.61 90.24
  Q 103.74 108.66 97.81 126.06
  A 0.15 0.15 0.0 0 1 97.52 126.00"
        />
        <path stroke="#7e6500" vector-effect="non-scaling-stroke" d="
  M 63.43 145.09
  Q 63.38 134.44 67.72 124.73
  A 0.21 0.21 0.0 0 0 67.40 124.48
  Q 52.68 136.31 45.71 153.66
  C 41.78 163.43 45.91 170.31 56.25 171.88
  Q 57.44 172.06 56.51 171.30
  Q 52.22 167.78 50.28 162.57
  A 0.33 0.33 0.0 0 1 50.81 162.20
  Q 56.28 166.99 63.36 168.85
  Q 63.79 168.96 64.11 168.66
  C 78.83 155.04 87.60 130.32 90.55 111.07
  A 0.17 0.17 0.0 0 0 90.24 110.96
  L 86.19 117.47
  A 0.39 0.38 59.0 0 1 85.48 117.29
  Q 84.73 108.08 77.94 102.09
  A 0.48 0.48 0.0 0 0 77.15 102.49
  Q 79.37 126.76 64.10 145.33
  Q 63.44 146.13 63.43 145.09"
        />
        <path stroke="#7e6500" vector-effect="non-scaling-stroke" d="
  M 62.01 113.12
  C 59.22 98.47 39.76 103.12 32.29 110.17
  A 0.52 0.52 0.0 0 0 32.86 111.03
  C 42.04 107.05 53.16 106.44 61.54 113.39
  Q 62.16 113.91 62.01 113.12"
        />
        <path stroke="#7e6500" vector-effect="non-scaling-stroke" d="
  M 125.23 104.51
  L 121.94 109.33
  Q 121.61 109.81 121.71 110.38
  L 123.92 122.53
  A 0.23 0.23 0.0 0 0 124.38 122.51
  L 125.85 104.73
  A 0.34 0.34 0.0 0 0 125.23 104.51"
        />
        <path stroke="#7e6500" vector-effect="non-scaling-stroke" d="
  M 28.72 110.86
  C 22.33 107.74 14.93 111.54 16.86 119.05
  Q 17.00 119.61 17.26 119.10
  Q 20.73 112.37 28.43 112.17
  A 0.69 0.69 0.0 0 0 28.72 110.86"
        />
        <path stroke="#808080" vector-effect="non-scaling-stroke" d="
  M 88.18 156.51
  Q 89.45 160.68 89.50 163.75
  Q 89.88 186.01 88.01 213.38"
        />
        <path stroke="#404040" vector-effect="non-scaling-stroke" d="
  M 88.01 213.38
  L 89.73 224.81
  Q 89.82 225.38 90.25 225.00
  Q 103.23 213.67 111.58 198.58
  Q 113.43 195.22 113.74 193.25
  Q 115.20 183.79 117.46 173.95"
        />
        <path stroke="#808080" vector-effect="non-scaling-stroke" d="
  M 117.46 173.95
  L 118.29 188.52
  A 0.52 0.52 0.0 0 0 119.10 188.92
  C 125.77 184.43 131.61 180.61 134.72 172.44
  Q 134.88 171.99 134.65 171.58
  L 127.00 158.08"
        />
        <path stroke="#404040" vector-effect="non-scaling-stroke" d="
  M 127.00 158.08
  C 124.63 154.28 122.34 150.79 122.03 146.09
  Q 120.85 128.35 119.49 110.59
  Q 119.43 109.78 118.95 110.44
  L 116.70 113.55
  Q 116.40 113.96 116.50 114.46
  L 119.15 128.61
  A 2.45 2.44 -25.6 0 1 118.33 130.92
  Q 103.35 143.61 88.57 155.07
  Q 87.64 155.79 88.18 156.51"
        />
        <path stroke="#c0c0c0" vector-effect="non-scaling-stroke" d="
  M 127.00 158.08
  C 121.10 160.76 117.43 167.59 117.46 173.95"
        />
        <path stroke="#c0c0c0" vector-effect="non-scaling-stroke" d="
  M 88.01 213.38
  Q 92.56 199.49 96.10 185.92
  C 98.91 175.18 98.18 163.50 88.65 156.31
  Q 88.49 156.19 88.33 156.31
  Q 88.23 156.38 88.18 156.51"
        />
        <path stroke="#404040" vector-effect="non-scaling-stroke" d="
  M 53.24 112.91
  C 44.08 108.33 34.73 111.70 25.76 115.30
  Q 21.09 117.17 20.24 121.48
  Q 20.06 122.41 20.66 121.67
  C 26.94 114.01 42.41 110.76 51.96 113.20
  Q 52.66 113.38 53.21 113.22
  Q 53.62 113.10 53.24 112.91"
        />
        <path stroke="#808080" vector-effect="non-scaling-stroke" d="
  M 53.31 116.96
  A 0.39 0.39 0.0 0 0 53.10 116.33
  C 44.19 114.20 33.26 115.00 25.77 120.60
  Q 25.35 120.92 25.67 121.33
  Q 27.10 123.15 27.19 125.51
  A 0.71 0.71 0.0 0 0 27.76 126.18
  C 33.64 127.31 49.89 121.06 53.31 116.96"
        />
        <path stroke="#404040" vector-effect="non-scaling-stroke" d="
  M 57.30 120.24
  L 54.66 121.40
  Q 54.21 121.60 54.45 121.17
  L 55.68 118.97
  A 0.38 0.38 0.0 0 0 55.06 118.54
  Q 52.44 121.54 48.76 123.19
  Q 48.29 123.40 48.29 123.92
  L 48.29 124.21
  Q 48.30 124.58 47.92 124.54
  L 46.39 124.38
  A 0.71 0.60 35.5 0 0 46.16 124.40
  L 25.26 129.23
  A 0.33 0.33 0.0 0 1 24.92 128.71
  Q 25.19 128.36 24.70 127.73
  Q 24.39 127.34 23.95 127.12
  Q 22.09 126.21 20.54 124.84
  Q 20.02 124.39 20.02 125.08
  L 20.05 127.67"
        />
        <path stroke="#808080" vector-effect="non-scaling-stroke" d="
  M 20.05 127.67
  L 20.83 136.98
  Q 20.86 137.32 21.17 137.17
  L 26.38 134.74
  Q 26.88 134.50 26.61 134.03
  Q 26.13 133.19 24.82 132.61"
        />
        <path stroke="#404040" vector-effect="non-scaling-stroke" d="
  M 24.82 132.61
  L 29.61 132.85"
        />
        <path stroke="#808080" vector-effect="non-scaling-stroke" d="
  M 29.61 132.85
  Q 33.64 134.73 37.92 133.63
  C 47.52 131.18 57.96 127.09 61.80 117.50
  A 0.40 0.40 0.0 0 0 61.18 117.04
  L 57.30 120.24"
        />
        <path stroke="#c0c0c0" vector-effect="non-scaling-stroke" d="
  M 29.61 132.85
  Q 44.53 130.25 55.46 122.99
  Q 56.79 122.10 57.30 120.24"
        />
        <path stroke="#c0c0c0" vector-effect="non-scaling-stroke" d="
  M 24.82 132.61
  L 20.05 127.67"
        />
        <path stroke="#7e6500" vector-effect="non-scaling-stroke" d="
  M 17.6004 140.7962
  A 6.95 0.96 88.1 0 0 18.3295 133.8182
  A 6.95 0.96 88.1 0 0 17.1396 126.9038
  A 6.95 0.96 88.1 0 0 16.4105 133.8818
  A 6.95 0.96 88.1 0 0 17.6004 140.7962"
        />
        <path stroke="#7e6500" vector-effect="non-scaling-stroke" d="
  M 34.25 139.61
  C 31.14 150.82 33.32 167.36 46.04 172.03
  A 0.83 0.83 0.0 0 0 46.89 170.64
  C 35.09 159.90 46.17 144.28 52.83 134.22
  Q 53.36 133.41 52.46 133.76
  Q 44.01 137.06 35.10 138.82
  A 1.10 1.10 0.0 0 0 34.25 139.61"
        />
        <path stroke="#7e6500" vector-effect="non-scaling-stroke" d="
  M 23.71 146.94
  Q 23.75 143.56 24.78 140.33
  A 0.37 0.36 74.0 0 0 24.16 139.98
  Q 14.83 151.36 14.14 166.28
  C 13.96 170.05 22.55 175.89 25.85 178.08
  Q 26.27 178.36 26.76 178.24
  L 31.26 177.15
  Q 31.96 176.97 31.39 176.53
  Q 26.75 172.89 24.92 167.25
  Q 24.62 166.31 25.43 166.88
  Q 32.03 171.48 39.55 174.54
  A 1.40 1.40 0.0 0 0 40.88 172.09
  C 31.12 165.29 28.19 152.70 30.06 141.43
  A 0.52 0.51 -19.9 0 0 29.16 141.01
  L 23.98 147.04
  Q 23.71 147.37 23.71 146.94"
        />
        <path stroke="#808080" vector-effect="non-scaling-stroke" d="
  M 51.38 185.13
  L 47.10 179.41
  A 0.44 0.44 0.0 0 0 46.31 179.66
  C 45.92 193.70 45.93 212.27 56.05 223.50
  C 58.14 225.82 62.72 226.54 65.61 227.59"
        />
        <path stroke="#404040" vector-effect="non-scaling-stroke" d="
  M 65.61 227.59
  C 71.28 229.34 76.91 231.46 79.87 224.32
  C 86.93 207.35 89.32 182.74 76.84 167.29
  Q 76.43 166.79 76.09 167.33
  Q 73.14 172.02 69.06 175.70
  C 66.42 178.08 63.14 178.17 59.78 178.45
  Q 59.27 178.50 59.26 179.01
  C 59.12 184.62 65.70 195.20 68.27 200.56
  A 0.16 0.16 0.0 0 1 68.00 200.73
  Q 60.83 192.04 51.38 185.13"
        />
        <path stroke="#c0c0c0" vector-effect="non-scaling-stroke" d="
  M 65.61 227.59
  L 68.23 223.64
  A 1.65 1.59 -29.3 0 0 68.50 222.75
  L 68.50 216.26
  Q 68.50 215.74 68.20 215.30
  Q 58.57 201.45 51.38 185.13"
        />
        <path stroke="#7e6500" vector-effect="non-scaling-stroke" d="
  M 39.07 59.41
  Q 35.80 56.75 32.03 58.54
  Q 31.55 58.76 31.86 59.19
  C 33.40 61.27 36.94 65.44 39.86 63.36
  C 47.45 57.96 55.29 54.85 64.69 55.95
  A 0.35 0.35 0.0 0 0 64.98 55.35
  C 58.52 49.01 48.64 52.95 41.15 56.49
  Q 40.68 56.71 40.54 57.20
  L 39.99 59.12
  Q 39.75 59.96 39.07 59.41"
        />
        <path stroke="#800005" vector-effect="non-scaling-stroke" d="
  M 47.81 73.61
  L 59.44 69.99
  A 0.12 0.12 0.0 0 0 59.52 69.84
  L 59.52 69.84
  A 6.06 5.22 -17.3 0 0 52.18 66.66
  L 51.89 66.75
  A 6.06 5.22 -17.3 0 0 47.66 73.53
  L 47.66 73.53
  A 0.12 0.12 0.0 0 0 47.81 73.61"
        />
        <path stroke="#c0c0c0" vector-effect="non-scaling-stroke" d="
  M 111.30 77.96
  L 107.32 82.71
  A 0.14 0.13 7.9 0 0 107.48 82.92
  L 112.66 80.59
  A 1.13 1.13 0.0 0 1 114.01 82.33
  L 110.08 87.22
  A 0.85 0.85 0.0 0 0 109.93 88.00
  L 112.54 96.48"
        />
        <path stroke="#808080" vector-effect="non-scaling-stroke" d="
  M 112.54 96.48
  C 110.33 103.76 121.36 101.45 122.09 92.69"
        />
        <path stroke="#c0c0c0" vector-effect="non-scaling-stroke" d="
  M 122.09 92.69
  Q 122.19 89.95 123.20 90.23"
        />
        <path stroke="#808080" vector-effect="non-scaling-stroke" d="
  M 123.20 90.23
  L 123.91 92.44
  Q 124.22 93.37 124.56 92.45
  C 126.12 88.18 127.69 78.84 124.47 74.72
  C 121.26 70.60 113.87 74.92 111.30 77.96"
        />
        <path stroke="#404040" vector-effect="non-scaling-stroke" d="
  M 123.20 90.23
  Q 121.79 85.45 117.15 84.15
  Q 116.66 84.01 116.91 83.57
  C 117.90 81.81 121.02 82.01 122.76 81.85
  A 0.71 0.71 0.0 0 0 123.39 81.29
  C 125.07 73.01 114.83 76.35 111.30 77.96"
        />
        <path stroke="#404040" vector-effect="non-scaling-stroke" d="
  M 122.09 92.69
  L 118.74 96.09
  A 0.73 0.73 0.0 0 1 117.72 96.11
  Q 115.80 94.29 115.36 91.69
  A 0.28 0.28 0.0 0 0 114.83 91.61
  L 112.54 96.48"
        />
        <path stroke="#c0c0c0" vector-effect="non-scaling-stroke" d="
  M 113.11 137.78
  Q 112.59 139.33 112.54 140.25
  C 111.75 154.47 110.27 170.59 105.39 184.04
  Q 105.21 184.54 105.66 184.27
  Q 105.96 184.08 106.05 183.72
  Q 106.18 183.19 106.22 183.10
  C 109.18 176.24 121.54 142.15 115.25 137.15
  A 1.36 1.36 0.0 0 0 113.11 137.78"
        />
    </g>
    <path fill="#000000" d="
  M 78.70 245.00
  L 76.55 245.00
  Q 55.47 233.37 46.23 210.93
  Q 45.11 208.20 44.92 204.66
  C 44.47 196.10 43.75 186.75 40.99 178.56
  A 1.36 1.36 0.0 0 0 40.31 177.78
  L 36.65 175.98
  A 0.89 0.89 0.0 0 0 35.46 177.16
  L 36.86 180.11
  Q 37.14 180.69 36.49 180.75
  L 24.39 181.81
  A 1.13 1.12 62.7 0 1 23.56 181.54
  Q 17.80 176.52 12.42 169.82
  Q 10.13 166.98 10.81 163.50
  Q 12.68 153.87 14.55 144.21
  A 1.78 1.78 0.0 0 0 14.48 143.25
  Q 10.68 132.47 9.57 121.18
  C 8.33 108.48 -0.85 102.94 4.67 88.69
  C 6.97 82.74 -0.99 78.44 1.34 70.82
  C 2.56 66.84 6.28 64.06 7.50 60.01
  C 9.75 52.53 10.74 46.06 6.10 39.56
  A 0.92 0.90 -53.1 0 1 5.99 38.71
  Q 8.40 32.30 13.27 27.45
  A 1.24 1.23 66.4 0 0 13.64 26.50
  Q 13.52 23.60 15.53 21.29
  C 20.88 15.17 38.16 1.31 46.37 5.82
  A 0.72 0.71 34.6 0 0 47.27 5.66
  L 49.04 3.63
  A 0.78 0.78 0.0 0 1 49.49 3.37
  C 63.49 0.73 80.30 0.75 93.31 6.73
  Q 95.60 7.78 98.90 8.64
  Q 107.85 10.99 112.91 19.04
  Q 113.18 19.47 113.66 19.62
  C 124.71 23.15 125.87 36.18 124.15 45.75
  Q 124.05 46.29 124.30 46.77
  Q 128.60 55.26 128.19 64.82
  Q 128.17 65.31 128.48 65.69
  C 132.90 71.03 132.67 80.31 132.27 86.84
  C 132.17 88.46 132.75 92.52 131.23 94.48
  C 128.46 98.05 128.64 99.31 128.42 104.33
  Q 127.47 125.76 126.35 147.17
  Q 126.32 147.70 126.61 148.14
  L 143.25 173.52
  A 0.66 0.65 53.2 0 1 143.13 174.37
  Q 129.84 185.57 116.71 196.80
  Q 115.05 198.22 114.14 200.31
  Q 102.33 227.36 78.70 245.00
  Z
  M 64.96 18.77
  C 65.77 18.81 66.81 19.21 67.71 19.25
  Q 68.25 19.27 68.39 18.74
  C 69.87 12.97 75.76 9.17 80.83 7.01
  A 0.37 0.37 0.0 0 0 80.73 6.31
  C 69.55 4.88 34.25 2.30 40.21 24.41
  A 0.56 0.56 0.0 0 0 41.03 24.75
  Q 52.08 18.15 64.96 18.77
  Z
  M 94.79 24.22
  Q 90.89 26.17 88.54 29.84
  Q 87.96 30.73 88.96 31.11
  Q 92.20 32.36 95.00 34.43
  Q 95.44 34.75 95.98 34.80
  Q 108.50 35.98 119.70 41.64
  Q 120.24 41.91 120.36 41.31
  C 122.16 32.14 118.60 22.60 108.45 20.85
  Q 107.93 20.76 107.68 20.29
  Q 101.51 8.38 87.88 10.21
  Q 87.33 10.28 87.14 9.76
  L 86.89 9.07
  Q 86.66 8.45 86.04 8.68
  C 80.54 10.67 65.22 18.32 72.22 26.44
  Q 72.54 26.82 73.02 26.67
  Q 83.58 23.35 94.70 23.83
  Q 95.50 23.86 94.79 24.22
  Z
  M 18.36 25.55
  C 24.73 23.81 30.72 23.02 37.14 24.72
  Q 37.72 24.88 37.52 24.32
  Q 34.83 16.85 39.11 10.28
  Q 39.57 9.58 38.73 9.66
  C 30.25 10.53 22.17 18.21 18.01 25.08
  Q 17.61 25.75 18.36 25.55
  Z
  M 60.40 23.73
  Q 50.23 24.49 40.92 30.42
  Q 40.32 30.80 39.88 30.73
  Q 39.15 30.61 38.92 29.77
  A 1.37 1.31 -81.1 0 0 38.41 29.04
  Q 34.54 26.24 30.64 27.50
  C 13.66 27.39 11.62 46.55 9.13 59.32
  A 0.31 0.31 0.0 0 0 9.71 59.54
  Q 10.81 57.65 13.31 57.74
  L 10.06 62.35
  A 0.27 0.26 8.4 0 0 10.36 62.75
  L 18.32 60.19
  Q 18.99 59.98 19.31 60.60
  Q 21.99 65.72 26.22 69.38
  L 23.30 73.42
  A 0.51 0.51 0.0 0 0 23.90 74.20
  Q 25.95 73.42 28.03 73.99
  A 0.41 0.41 0.0 0 1 27.93 74.79
  Q 25.76 74.81 24.75 76.68
  C 20.26 79.40 15.97 94.47 15.04 98.62
  C 13.85 107.72 27.45 103.41 31.57 103.86
  L 23.07 106.47
  A 0.61 0.61 0.0 0 0 23.06 107.63
  C 28.75 109.48 34.43 105.53 38.20 101.72
  A 0.31 0.31 0.0 0 0 37.90 101.20
  L 33.64 102.35
  L 27.27 102.14
  Q 27.08 102.02 26.95 101.83
  Q 26.67 101.42 27.15 101.28
  Q 33.53 99.44 39.67 99.68
  Q 42.26 99.78 42.99 98.11
  C 44.31 95.08 39.51 93.05 37.22 92.65
  C 41.59 88.40 48.40 92.34 48.32 97.60
  L 47.28 100.81
  Q 47.14 101.23 47.59 101.23
  L 51.26 101.24
  Q 58.09 102.05 61.92 106.18
  Q 63.98 108.40 63.21 105.47
  C 61.78 100.03 57.82 97.02 53.93 93.26
  C 68.47 98.81 73.91 109.99 64.10 123.33
  A 0.16 0.16 0.0 0 0 64.33 123.54
  L 69.44 118.73
  Q 79.52 105.14 68.62 96.26
  A 0.17 0.17 0.0 0 1 68.78 95.96
  L 85.63 100.67
  Q 86.14 100.82 86.51 100.42
  L 88.88 97.85
  A 0.21 0.21 0.0 0 1 89.25 98.02
  L 88.43 105.20
  Q 88.32 106.12 88.80 105.33
  L 98.07 90.25
  L 102.31 83.94
  L 102.78 84.45
  Q 110.27 95.02 114.44 107.96
  Q 114.61 108.50 115.16 108.38
  C 122.01 106.98 129.54 90.41 129.93 84.21
  C 130.23 79.54 129.74 71.39 126.25 67.52
  C 121.82 62.60 112.91 69.73 109.80 72.90
  Q 109.88 66.48 101.09 65.84
  Q 100.61 65.81 100.69 66.28
  Q 101.70 72.41 99.86 78.34
  A 0.32 0.32 0.0 0 1 99.23 78.23
  Q 99.61 71.21 96.61 64.89
  Q 96.39 64.42 95.88 64.29
  L 94.49 63.94
  Q 93.94 63.81 93.67 63.30
  Q 87.47 51.69 76.92 43.87
  A 0.53 0.53 0.0 0 1 76.97 42.99
  Q 83.35 39.21 90.79 38.83
  Q 91.70 38.78 90.96 38.26
  L 85.34 34.25
  L 83.50 33.10
  A 0.75 0.74 28.5 0 1 83.22 32.16
  L 84.95 28.32
  Q 85.18 27.80 84.61 27.79
  L 83.24 27.75
  Q 76.96 27.16 71.59 30.37
  Q 71.18 30.62 70.81 30.30
  Q 68.04 27.86 67.71 24.16
  Q 67.67 23.66 67.17 23.67
  L 60.40 23.73
  Z
  M 10.70 42.59
  C 12.02 35.94 14.63 33.29 18.73 29.21
  A 0.35 0.34 -69.1 0 0 18.47 28.62
  L 14.73 28.83
  A 0.90 0.85 21.9 0 0 14.24 29.02
  Q 9.96 32.55 8.10 37.78
  A 1.30 1.28 42.0 0 0 8.16 38.80
  L 10.08 42.68
  A 0.33 0.33 0.0 0 0 10.70 42.59
  Z
  M 123.53 60.67
  C 125.21 50.64 118.91 42.24 108.75 41.56
  Q 96.50 40.73 84.20 44.37
  A 0.53 0.53 0.0 0 0 84.11 45.35
  C 89.50 48.22 96.32 54.28 97.62 60.72
  A 0.64 0.64 0.0 0 0 98.27 61.24
  Q 102.89 61.07 106.81 63.45
  A 1.09 1.06 49.5 0 0 107.76 63.54
  Q 115.02 60.86 122.76 61.28
  Q 123.42 61.31 123.53 60.67
  Z
  M 6.51 69.00
  C 11.85 68.17 16.22 68.74 21.30 70.33
  Q 21.83 70.49 21.67 69.96
  Q 20.75 66.80 18.27 64.66
  Q 17.89 64.33 17.39 64.39
  C 13.82 64.81 8.54 65.43 6.22 68.51
  Q 5.76 69.12 6.51 69.00
  Z
  M 4.78 74.94
  Q 3.55 79.57 9.49 78.30
  L 15.78 74.98
  A 0.57 0.57 0.0 0 0 15.96 74.12
  C 13.75 71.35 7.46 73.54 4.78 74.94
  Z
  M 14.27 77.97
  Q 9.73 78.07 8.27 82.38
  A 1.14 1.14 0.0 0 0 9.08 83.85
  Q 12.37 84.63 15.75 82.15
  C 15.31 84.76 12.61 85.52 10.37 86.19
  Q 9.78 86.37 9.99 86.96
  C 10.72 88.92 12.22 88.88 13.03 90.23
  Q 13.58 91.16 12.71 91.40
  L 8.94 89.50
  A 0.60 0.59 28.4 0 0 8.15 89.73
  C 4.27 96.48 6.06 107.03 9.38 113.57
  L 12.76 122.08
  Q 13.08 122.89 13.21 122.02
  Q 14.21 115.21 17.33 109.09
  Q 17.59 108.58 17.10 108.29
  C 6.21 101.87 19.78 86.69 19.75 78.06
  A 0.95 0.95 0.0 0 0 19.31 77.26
  Q 17.16 75.89 14.27 77.97
  Z
  M 97.52 126.00
  Q 99.51 110.81 99.24 95.50
  A 0.19 0.19 0.0 0 0 98.88 95.43
  C 96.86 100.28 95.24 104.21 94.51 109.68
  Q 91.15 134.57 78.40 156.14
  A 0.31 0.31 0.0 0 0 78.85 156.55
  C 89.21 149.24 101.10 140.83 109.75 131.62
  Q 110.10 131.25 110.10 130.73
  L 110.15 126.48
  A 0.33 0.32 -62.7 0 1 110.74 126.29
  L 111.76 127.70
  Q 112.30 128.44 112.31 127.52
  Q 112.36 107.61 103.17 90.08
  A 0.30 0.30 0.0 0 0 102.61 90.24
  Q 103.74 108.66 97.81 126.06
  A 0.15 0.15 0.0 0 1 97.52 126.00
  Z
  M 63.43 145.09
  Q 63.38 134.44 67.72 124.73
  A 0.21 0.21 0.0 0 0 67.40 124.48
  Q 52.68 136.31 45.71 153.66
  C 41.78 163.43 45.91 170.31 56.25 171.88
  Q 57.44 172.06 56.51 171.30
  Q 52.22 167.78 50.28 162.57
  A 0.33 0.33 0.0 0 1 50.81 162.20
  Q 56.28 166.99 63.36 168.85
  Q 63.79 168.96 64.11 168.66
  C 78.83 155.04 87.60 130.32 90.55 111.07
  A 0.17 0.17 0.0 0 0 90.24 110.96
  L 86.19 117.47
  A 0.39 0.38 59.0 0 1 85.48 117.29
  Q 84.73 108.08 77.94 102.09
  A 0.48 0.48 0.0 0 0 77.15 102.49
  Q 79.37 126.76 64.10 145.33
  Q 63.44 146.13 63.43 145.09
  Z
  M 62.01 113.12
  C 59.22 98.47 39.76 103.12 32.29 110.17
  A 0.52 0.52 0.0 0 0 32.86 111.03
  C 42.04 107.05 53.16 106.44 61.54 113.39
  Q 62.16 113.91 62.01 113.12
  Z
  M 125.23 104.51
  L 121.94 109.33
  Q 121.61 109.81 121.71 110.38
  L 123.92 122.53
  A 0.23 0.23 0.0 0 0 124.38 122.51
  L 125.85 104.73
  A 0.34 0.34 0.0 0 0 125.23 104.51
  Z
  M 28.72 110.86
  C 22.33 107.74 14.93 111.54 16.86 119.05
  Q 17.00 119.61 17.26 119.10
  Q 20.73 112.37 28.43 112.17
  A 0.69 0.69 0.0 0 0 28.72 110.86
  Z
  M 88.18 156.51
  Q 89.45 160.68 89.50 163.75
  Q 89.88 186.01 88.01 213.38
  L 89.73 224.81
  Q 89.82 225.38 90.25 225.00
  Q 103.23 213.67 111.58 198.58
  Q 113.43 195.22 113.74 193.25
  Q 115.20 183.79 117.46 173.95
  L 118.29 188.52
  A 0.52 0.52 0.0 0 0 119.10 188.92
  C 125.77 184.43 131.61 180.61 134.72 172.44
  Q 134.88 171.99 134.65 171.58
  L 127.00 158.08
  C 124.63 154.28 122.34 150.79 122.03 146.09
  Q 120.85 128.35 119.49 110.59
  Q 119.43 109.78 118.95 110.44
  L 116.70 113.55
  Q 116.40 113.96 116.50 114.46
  L 119.15 128.61
  A 2.45 2.44 -25.6 0 1 118.33 130.92
  Q 103.35 143.61 88.57 155.07
  Q 87.64 155.79 88.18 156.51
  Z
  M 53.24 112.91
  C 44.08 108.33 34.73 111.70 25.76 115.30
  Q 21.09 117.17 20.24 121.48
  Q 20.06 122.41 20.66 121.67
  C 26.94 114.01 42.41 110.76 51.96 113.20
  Q 52.66 113.38 53.21 113.22
  Q 53.62 113.10 53.24 112.91
  Z
  M 53.31 116.96
  A 0.39 0.39 0.0 0 0 53.10 116.33
  C 44.19 114.20 33.26 115.00 25.77 120.60
  Q 25.35 120.92 25.67 121.33
  Q 27.10 123.15 27.19 125.51
  A 0.71 0.71 0.0 0 0 27.76 126.18
  C 33.64 127.31 49.89 121.06 53.31 116.96
  Z
  M 57.30 120.24
  L 54.66 121.40
  Q 54.21 121.60 54.45 121.17
  L 55.68 118.97
  A 0.38 0.38 0.0 0 0 55.06 118.54
  Q 52.44 121.54 48.76 123.19
  Q 48.29 123.40 48.29 123.92
  L 48.29 124.21
  Q 48.30 124.58 47.92 124.54
  L 46.39 124.38
  A 0.71 0.60 35.5 0 0 46.16 124.40
  L 25.26 129.23
  A 0.33 0.33 0.0 0 1 24.92 128.71
  Q 25.19 128.36 24.70 127.73
  Q 24.39 127.34 23.95 127.12
  Q 22.09 126.21 20.54 124.84
  Q 20.02 124.39 20.02 125.08
  L 20.05 127.67
  L 20.83 136.98
  Q 20.86 137.32 21.17 137.17
  L 26.38 134.74
  Q 26.88 134.50 26.61 134.03
  Q 26.13 133.19 24.82 132.61
  L 29.61 132.85
  Q 33.64 134.73 37.92 133.63
  C 47.52 131.18 57.96 127.09 61.80 117.50
  A 0.40 0.40 0.0 0 0 61.18 117.04
  L 57.30 120.24
  Z
  M 17.6004 140.7962
  A 6.95 0.96 88.1 0 0 18.3295 133.8182
  A 6.95 0.96 88.1 0 0 17.1396 126.9038
  A 6.95 0.96 88.1 0 0 16.4105 133.8818
  A 6.95 0.96 88.1 0 0 17.6004 140.7962
  Z
  M 34.25 139.61
  C 31.14 150.82 33.32 167.36 46.04 172.03
  A 0.83 0.83 0.0 0 0 46.89 170.64
  C 35.09 159.90 46.17 144.28 52.83 134.22
  Q 53.36 133.41 52.46 133.76
  Q 44.01 137.06 35.10 138.82
  A 1.10 1.10 0.0 0 0 34.25 139.61
  Z
  M 23.71 146.94
  Q 23.75 143.56 24.78 140.33
  A 0.37 0.36 74.0 0 0 24.16 139.98
  Q 14.83 151.36 14.14 166.28
  C 13.96 170.05 22.55 175.89 25.85 178.08
  Q 26.27 178.36 26.76 178.24
  L 31.26 177.15
  Q 31.96 176.97 31.39 176.53
  Q 26.75 172.89 24.92 167.25
  Q 24.62 166.31 25.43 166.88
  Q 32.03 171.48 39.55 174.54
  A 1.40 1.40 0.0 0 0 40.88 172.09
  C 31.12 165.29 28.19 152.70 30.06 141.43
  A 0.52 0.51 -19.9 0 0 29.16 141.01
  L 23.98 147.04
  Q 23.71 147.37 23.71 146.94
  Z
  M 51.38 185.13
  L 47.10 179.41
  A 0.44 0.44 0.0 0 0 46.31 179.66
  C 45.92 193.70 45.93 212.27 56.05 223.50
  C 58.14 225.82 62.72 226.54 65.61 227.59
  C 71.28 229.34 76.91 231.46 79.87 224.32
  C 86.93 207.35 89.32 182.74 76.84 167.29
  Q 76.43 166.79 76.09 167.33
  Q 73.14 172.02 69.06 175.70
  C 66.42 178.08 63.14 178.17 59.78 178.45
  Q 59.27 178.50 59.26 179.01
  C 59.12 184.62 65.70 195.20 68.27 200.56
  A 0.16 0.16 0.0 0 1 68.00 200.73
  Q 60.83 192.04 51.38 185.13
  Z"
    />
    <path fill="#fcc900" d="
  M 64.96 18.77
  Q 52.08 18.15 41.03 24.75
  A 0.56 0.56 0.0 0 1 40.21 24.41
  C 34.25 2.30 69.55 4.88 80.73 6.31
  A 0.37 0.37 0.0 0 1 80.83 7.01
  C 75.76 9.17 69.87 12.97 68.39 18.74
  Q 68.25 19.27 67.71 19.25
  C 66.81 19.21 65.77 18.81 64.96 18.77
  Z"
    />
    <path fill="#fcc900" d="
  M 94.70 23.83
  Q 83.58 23.35 73.02 26.67
  Q 72.54 26.82 72.22 26.44
  C 65.22 18.32 80.54 10.67 86.04 8.68
  Q 86.66 8.45 86.89 9.07
  L 87.14 9.76
  Q 87.33 10.28 87.88 10.21
  Q 101.51 8.38 107.68 20.29
  Q 107.93 20.76 108.45 20.85
  C 118.60 22.60 122.16 32.14 120.36 41.31
  Q 120.24 41.91 119.70 41.64
  Q 108.50 35.98 95.98 34.80
  Q 95.44 34.75 95.00 34.43
  Q 92.20 32.36 88.96 31.11
  Q 87.96 30.73 88.54 29.84
  Q 90.89 26.17 94.79 24.22
  Q 95.50 23.86 94.70 23.83
  Z"
    />
    <path fill="#fcc900" d="
  M 37.14 24.72
  C 30.72 23.02 24.73 23.81 18.36 25.55
  Q 17.61 25.75 18.01 25.08
  C 22.17 18.21 30.25 10.53 38.73 9.66
  Q 39.57 9.58 39.11 10.28
  Q 34.83 16.85 37.52 24.32
  Q 37.72 24.88 37.14 24.72
  Z"
    />
    <path fill="#808080" d="
  M 83.24 27.75
  L 75.25 40.37
  A 0.24 0.23 -0.5 0 0 75.58 40.69
  L 85.34 34.25
  L 90.96 38.26
  Q 91.70 38.78 90.79 38.83
  Q 83.35 39.21 76.97 42.99
  A 0.53 0.53 0.0 0 0 76.92 43.87
  Q 87.47 51.69 93.67 63.30
  Q 93.94 63.81 94.49 63.94
  L 95.88 64.29
  Q 96.39 64.42 96.61 64.89
  Q 99.61 71.21 99.23 78.23
  A 0.32 0.32 0.0 0 0 99.86 78.34
  Q 101.70 72.41 100.69 66.28
  Q 100.61 65.81 101.09 65.84
  Q 109.88 66.48 109.80 72.90
  L 102.78 84.45
  L 102.31 83.94
  L 102.49 80.32
  A 0.32 0.32 0.0 0 0 101.90 80.12
  L 92.86 93.56
  Q 92.64 93.88 93.02 93.94
  Q 93.38 94.01 93.55 93.80
  Q 95.34 91.54 98.07 90.25
  L 88.80 105.33
  Q 88.32 106.12 88.43 105.20
  L 89.25 98.02
  A 0.21 0.21 0.0 0 0 88.88 97.85
  L 86.51 100.42
  Q 86.14 100.82 85.63 100.67
  L 68.78 95.96
  A 0.17 0.17 0.0 0 0 68.62 96.26
  Q 79.52 105.14 69.44 118.73
  Q 69.89 116.05 70.38 113.88
  C 72.86 103.07 67.81 96.79 59.62 90.73
  Q 59.14 90.37 59.71 90.19
  Q 59.99 90.11 60.26 90.24
  C 74.40 97.06 88.27 93.93 94.74 78.75
  C 96.02 75.73 95.25 73.25 94.14 70.40
  C 88.92 57.10 80.14 52.21 67.18 47.89
  Q 66.67 47.72 66.91 47.24
  Q 69.89 41.19 70.04 34.47
  C 70.15 29.60 64.48 25.71 60.40 23.73
  L 67.17 23.67
  Q 67.67 23.66 67.71 24.16
  Q 68.04 27.86 70.81 30.30
  Q 71.18 30.62 71.59 30.37
  Q 76.96 27.16 83.24 27.75
  Z"
    />
    <path fill="#ffffff" d="
  M 60.40 23.73
  C 64.48 25.71 70.15 29.60 70.04 34.47
  Q 69.89 41.19 66.91 47.24
  Q 66.67 47.72 67.18 47.89
  C 80.14 52.21 88.92 57.10 94.14 70.40
  C 95.25 73.25 96.02 75.73 94.74 78.75
  C 88.27 93.93 74.40 97.06 60.26 90.24
  Q 59.99 90.11 59.71 90.19
  Q 59.14 90.37 59.62 90.73
  C 67.81 96.79 72.86 103.07 70.38 113.88
  Q 69.89 116.05 69.44 118.73
  L 64.33 123.54
  A 0.16 0.16 0.0 0 1 64.10 123.33
  C 73.91 109.99 68.47 98.81 53.93 93.26
  Q 47.85 89.78 40.75 88.29
  A 1.24 1.22 36.2 0 0 39.92 88.41
  L 33.40 91.90
  Q 32.44 92.42 33.53 92.48
  L 37.22 92.65
  C 39.51 93.05 44.31 95.08 42.99 98.11
  Q 42.26 99.78 39.67 99.68
  Q 33.53 99.44 27.15 101.28
  Q 26.67 101.42 26.95 101.83
  Q 27.08 102.02 27.27 102.14
  Q 27.27 102.31 27.18 102.44
  Q 27.10 102.54 26.91 102.58
  Q 22.02 103.63 18.34 100.83
  A 0.84 0.84 0.0 0 1 18.42 99.44
  Q 20.79 98.03 23.53 98.26
  A 0.44 0.44 0.0 0 0 23.91 97.55
  L 22.79 96.08
  Q 22.46 95.66 22.63 95.16
  Q 25.42 86.63 30.07 78.95
  A 1.01 0.98 10.5 0 1 30.79 78.47
  Q 33.22 78.14 35.27 76.82
  Q 35.83 76.47 35.32 76.03
  L 33.99 74.88
  A 0.59 0.56 -72.3 0 1 33.79 74.46
  Q 33.68 72.61 36.33 72.15
  L 40.42 73.32
  A 1.73 1.73 0.0 0 1 41.54 75.66
  Q 39.42 80.69 41.90 80.17
  C 45.97 86.39 52.59 90.11 59.53 87.20
  C 63.42 85.58 67.68 80.20 71.31 78.81
  Q 76.65 76.77 82.81 72.56
  Q 83.25 72.26 84.98 71.63
  Q 85.41 71.47 85.26 71.04
  Q 82.17 61.95 73.60 58.12
  Q 69.48 53.69 64.06 51.07
  C 58.69 48.47 45.83 52.31 40.29 54.30
  Q 39.27 54.67 38.98 55.25
  Q 38.62 55.97 39.09 56.94
  A 0.48 0.48 0.0 0 1 38.45 57.58
  L 35.60 56.19
  A 1.28 1.26 -41.2 0 0 34.61 56.13
  L 29.70 57.84
  Q 29.13 58.04 29.27 58.62
  Q 30.14 62.25 33.10 64.87
  L 29.56 64.56
  L 26.93 61.86
  Q 26.42 61.33 26.56 62.05
  Q 27.24 65.48 29.71 68.51
  Q 28.46 69.41 26.22 69.38
  Q 21.99 65.72 19.31 60.60
  Q 18.99 59.98 18.32 60.19
  L 10.36 62.75
  A 0.27 0.26 8.4 0 1 10.06 62.35
  L 13.31 57.74
  C 14.87 54.17 13.81 50.31 14.72 47.11
  C 17.01 39.13 23.85 32.09 30.64 27.50
  Q 34.54 26.24 38.41 29.04
  A 1.37 1.31 -81.1 0 1 38.92 29.77
  Q 39.15 30.61 39.88 30.73
  Q 40.32 30.80 40.92 30.42
  Q 50.23 24.49 60.40 23.73
  Z"
    />
    <path fill="#808080" d="
  M 30.64 27.50
  C 23.85 32.09 17.01 39.13 14.72 47.11
  C 13.81 50.31 14.87 54.17 13.31 57.74
  Q 10.81 57.65 9.71 59.54
  A 0.31 0.31 0.0 0 1 9.13 59.32
  C 11.62 46.55 13.66 27.39 30.64 27.50
  Z"
    />
    <path fill="#ffffff" d="
  M 83.24 27.75
  L 84.61 27.79
  Q 85.18 27.80 84.95 28.32
  L 83.22 32.16
  A 0.75 0.74 28.5 0 0 83.50 33.10
  L 85.34 34.25
  L 75.58 40.69
  A 0.24 0.23 -0.5 0 1 75.25 40.37
  L 83.24 27.75
  Z"
    />
    <path fill="#fcc900" d="
  M 18.73 29.21
  C 14.63 33.29 12.02 35.94 10.70 42.59
  A 0.33 0.33 0.0 0 1 10.08 42.68
  L 8.16 38.80
  A 1.30 1.28 42.0 0 1 8.10 37.78
  Q 9.96 32.55 14.24 29.02
  A 0.90 0.85 21.9 0 1 14.73 28.83
  L 18.47 28.62
  A 0.35 0.34 -69.1 0 1 18.73 29.21
  Z"
    />
    <path fill="#fcc900" d="
  M 108.75 41.56
  C 118.91 42.24 125.21 50.64 123.53 60.67
  Q 123.42 61.31 122.76 61.28
  Q 115.02 60.86 107.76 63.54
  A 1.09 1.06 49.5 0 1 106.81 63.45
  Q 102.89 61.07 98.27 61.24
  A 0.64 0.64 0.0 0 1 97.62 60.72
  C 96.32 54.28 89.50 48.22 84.11 45.35
  A 0.53 0.53 0.0 0 1 84.20 44.37
  Q 96.50 40.73 108.75 41.56
  Z"
    />
    <path fill="#000000" d="
  M 73.60 58.12
  Q 75.50 60.70 75.28 62.94
  Q 75.23 63.48 74.76 63.22
  C 65.04 57.81 54.96 59.70 45.48 64.98
  Q 44.76 65.38 45.08 66.06
  Q 45.26 66.42 45.61 66.22
  Q 53.25 61.91 61.44 65.41
  Q 67.99 68.09 72.35 72.72
  Q 73.51 73.60 73.76 74.41
  Q 73.96 75.08 73.36 74.71
  L 69.68 72.48
  Q 60.58 71.30 50.74 76.64
  Q 49.28 76.33 47.42 77.90
  Q 46.37 77.50 45.97 78.10
  Q 45.67 78.54 46.00 78.97
  Q 47.53 80.97 51.03 82.26
  Q 47.05 83.10 41.90 80.17
  Q 39.42 80.69 41.54 75.66
  A 1.73 1.73 0.0 0 0 40.42 73.32
  L 36.33 72.15
  L 29.71 68.51
  Q 27.24 65.48 26.56 62.05
  Q 26.42 61.33 26.93 61.86
  L 29.56 64.56
  Q 32.67 68.00 38.05 68.69
  Q 39.92 68.93 40.30 67.35
  Q 40.45 66.74 39.82 66.78
  Q 35.91 67.02 33.10 64.87
  Q 30.14 62.25 29.27 58.62
  Q 29.13 58.04 29.70 57.84
  L 34.61 56.13
  A 1.28 1.26 -41.2 0 1 35.60 56.19
  L 38.45 57.58
  A 0.48 0.48 0.0 0 0 39.09 56.94
  Q 38.62 55.97 38.98 55.25
  Q 39.27 54.67 40.29 54.30
  C 45.83 52.31 58.69 48.47 64.06 51.07
  Q 69.48 53.69 73.60 58.12
  Z
  M 39.07 59.41
  Q 35.80 56.75 32.03 58.54
  Q 31.55 58.76 31.86 59.19
  C 33.40 61.27 36.94 65.44 39.86 63.36
  C 47.45 57.96 55.29 54.85 64.69 55.95
  A 0.35 0.35 0.0 0 0 64.98 55.35
  C 58.52 49.01 48.64 52.95 41.15 56.49
  Q 40.68 56.71 40.54 57.20
  L 39.99 59.12
  Q 39.75 59.96 39.07 59.41
  Z
  M 47.81 73.61
  L 59.44 69.99
  A 0.12 0.12 0.0 0 0 59.52 69.84
  L 59.52 69.84
  A 6.06 5.22 -17.3 0 0 52.18 66.66
  L 51.89 66.75
  A 6.06 5.22 -17.3 0 0 47.66 73.53
  L 47.66 73.53
  A 0.12 0.12 0.0 0 0 47.81 73.61
  Z"
    />
    <path fill="#fcc900" d="
  M 39.99 59.12
  L 40.54 57.20
  Q 40.68 56.71 41.15 56.49
  C 48.64 52.95 58.52 49.01 64.98 55.35
  A 0.35 0.35 0.0 0 1 64.69 55.95
  C 55.29 54.85 47.45 57.96 39.86 63.36
  C 36.94 65.44 33.40 61.27 31.86 59.19
  Q 31.55 58.76 32.03 58.54
  Q 35.80 56.75 39.07 59.41
  Q 39.75 59.96 39.99 59.12
  Z"
    />
    <path fill="#808080" d="
  M 539.36 87.37
  C 540.41 74.41 549.70 62.59 562.16 58.71
  C 570.69 56.05 584.50 57.28 595.11 57.15
  A 0.67 0.67 0.0 0 1 595.79 57.83
  L 595.65 74.69
  Q 595.64 75.35 594.98 75.34
  Q 579.78 75.12 573.76 75.26
  C 557.21 75.63 550.88 95.65 565.81 103.47
  C 569.58 105.44 573.86 104.72 577.99 105.58
  C 593.39 108.81 604.02 120.78 604.86 136.34
  C 605.65 150.82 595.46 164.90 581.41 168.83
  C 572.90 171.22 559.50 170.33 549.28 170.23
  A 0.85 0.84 90.0 0 1 548.45 169.39
  L 548.35 152.33
  A 0.57 0.56 -0.5 0 1 548.92 151.76
  Q 560.35 151.74 572.00 151.74
  C 590.57 151.74 591.57 125.01 572.96 123.39
  Q 566.86 122.86 566.55 122.80
  C 549.41 119.16 537.96 104.68 539.36 87.37
  Z"
    />
    <path class="text" fill="#000000" d="
  M 316.50 85.87
  L 316.50 58.00
  A 0.65 0.65 0.0 0 1 317.15 57.35
  L 334.10 57.22
  A 0.65 0.65 0.0 0 1 334.75 57.87
  L 334.75 68.82
  A 0.65 0.65 0.0 0 1 334.56 69.28
  L 317.61 86.33
  A 0.65 0.65 0.0 0 1 316.50 85.87
  Z"
    />
    <path class="text" fill="#000000" d="
  M 289.89 123.67
  A 0.72 0.71 -81.3 0 0 289.21 122.74
  L 254.91 122.77
  A 0.77 0.77 0.0 0 1 254.37 121.46
  L 270.96 104.94
  Q 271.40 104.50 272.02 104.50
  L 308.50 104.50
  A 1.13 1.13 0.0 0 1 309.63 105.63
  C 309.64 113.41 309.47 121.71 307.34 128.95
  C 297.53 162.21 261.18 179.46 229.51 164.82
  C 207.62 154.70 194.67 132.35 196.97 108.27
  C 201.41 61.73 258.38 40.07 292.51 73.28
  Q 292.92 73.68 292.52 74.08
  L 280.85 85.79
  A 1.28 1.27 -46.2 0 1 279.08 85.83
  C 256.09 64.58 218.09 78.37 215.10 109.81
  C 212.93 132.61 231.67 153.21 255.04 151.78
  C 271.76 150.76 284.98 139.78 289.89 123.67
  Z"
    />
    <path fill="#808080" d="
  M 73.60 58.12
  Q 82.17 61.95 85.26 71.04
  Q 85.41 71.47 84.98 71.63
  Q 83.25 72.26 82.81 72.56
  Q 76.65 76.77 71.31 78.81
  C 67.68 80.20 63.42 85.58 59.53 87.20
  C 52.59 90.11 45.97 86.39 41.90 80.17
  Q 47.05 83.10 51.03 82.26
  Q 54.09 83.95 57.25 82.83
  Q 57.98 82.58 57.23 82.39
  Q 51.86 81.06 47.42 77.90
  Q 49.28 76.33 50.74 76.64
  Q 56.22 79.38 62.75 77.00
  Q 67.20 75.38 69.68 72.48
  L 73.36 74.71
  Q 73.96 75.08 73.76 74.41
  Q 73.51 73.60 72.35 72.72
  Q 73.79 72.49 74.35 72.09
  Q 74.99 71.64 74.12 70.60
  Q 69.19 64.78 61.44 65.41
  Q 53.25 61.91 45.61 66.22
  Q 45.26 66.42 45.08 66.06
  Q 44.76 65.38 45.48 64.98
  C 54.96 59.70 65.04 57.81 74.76 63.22
  Q 75.23 63.48 75.28 62.94
  Q 75.50 60.70 73.60 58.12
  Z"
    />
    <path fill="#fcc900" d="
  M 21.30 70.33
  C 16.22 68.74 11.85 68.17 6.51 69.00
  Q 5.76 69.12 6.22 68.51
  C 8.54 65.43 13.82 64.81 17.39 64.39
  Q 17.89 64.33 18.27 64.66
  Q 20.75 66.80 21.67 69.96
  Q 21.83 70.49 21.30 70.33
  Z"
    />
    <path fill="#808080" d="
  M 29.56 64.56
  L 33.10 64.87
  Q 35.91 67.02 39.82 66.78
  Q 40.45 66.74 40.30 67.35
  Q 39.92 68.93 38.05 68.69
  Q 32.67 68.00 29.56 64.56
  Z"
    />
    <path fill="#ffffff" d="
  M 72.35 72.72
  Q 67.99 68.09 61.44 65.41
  Q 69.19 64.78 74.12 70.60
  Q 74.99 71.64 74.35 72.09
  Q 73.79 72.49 72.35 72.72
  Z"
    />
    <path fill="#ffffff" d="
  M 102.78 84.45
  L 109.80 72.90
  C 112.91 69.73 121.82 62.60 126.25 67.52
  C 129.74 71.39 130.23 79.54 129.93 84.21
  C 129.54 90.41 122.01 106.98 115.16 108.38
  Q 114.61 108.50 114.44 107.96
  Q 110.27 95.02 102.78 84.45
  Z
  M 111.30 77.96
  L 107.32 82.71
  A 0.14 0.13 7.9 0 0 107.48 82.92
  L 112.66 80.59
  A 1.13 1.13 0.0 0 1 114.01 82.33
  L 110.08 87.22
  A 0.85 0.85 0.0 0 0 109.93 88.00
  L 112.54 96.48
  C 110.33 103.76 121.36 101.45 122.09 92.69
  Q 122.19 89.95 123.20 90.23
  L 123.91 92.44
  Q 124.22 93.37 124.56 92.45
  C 126.12 88.18 127.69 78.84 124.47 74.72
  C 121.26 70.60 113.87 74.92 111.30 77.96
  Z"
    />
    <path fill="#ff000a" d="
  M 47.81 73.61
  A 0.12 0.12 0.0 0 1 47.66 73.53
  L 47.66 73.53
  A 6.06 5.22 -17.3 0 1 51.89 66.75
  L 52.18 66.66
  A 6.06 5.22 -17.3 0 1 59.52 69.84
  L 59.52 69.84
  A 0.12 0.12 0.0 0 1 59.44 69.99
  L 47.81 73.61
  Z"
    />
    <path fill="#808080" d="
  M 29.71 68.51
  L 36.33 72.15
  Q 33.68 72.61 33.79 74.46
  A 0.59 0.56 -72.3 0 0 33.99 74.88
  L 35.32 76.03
  Q 35.83 76.47 35.27 76.82
  Q 33.22 78.14 30.79 78.47
  A 1.01 0.98 10.5 0 0 30.07 78.95
  Q 25.42 86.63 22.63 95.16
  Q 22.46 95.66 22.79 96.08
  L 23.91 97.55
  A 0.44 0.44 0.0 0 1 23.53 98.26
  Q 20.79 98.03 18.42 99.44
  A 0.84 0.84 0.0 0 0 18.34 100.83
  Q 22.02 103.63 26.91 102.58
  Q 27.10 102.54 27.18 102.44
  Q 27.27 102.31 27.27 102.14
  L 33.64 102.35
  L 31.57 103.86
  C 27.45 103.41 13.85 107.72 15.04 98.62
  L 25.73 78.02
  Q 26.16 77.19 25.29 76.88
  L 24.75 76.68
  Q 25.76 74.81 27.93 74.79
  A 0.41 0.41 0.0 0 0 28.03 73.99
  Q 25.95 73.42 23.90 74.20
  A 0.51 0.51 0.0 0 1 23.30 73.42
  L 26.22 69.38
  Q 28.46 69.41 29.71 68.51
  Z"
    />
    <path fill="#ffffff" d="
  M 69.68 72.48
  Q 67.20 75.38 62.75 77.00
  Q 56.22 79.38 50.74 76.64
  Q 60.58 71.30 69.68 72.48
  Z"
    />
    <path fill="#808080" d="
  M 9.49 78.30
  L 4.78 74.94
  C 7.46 73.54 13.75 71.35 15.96 74.12
  A 0.57 0.57 0.0 0 1 15.78 74.98
  L 9.49 78.30
  Z"
    />
    <path fill="#000000" d="
  M 123.20 90.23
  Q 121.79 85.45 117.15 84.15
  Q 116.66 84.01 116.91 83.57
  C 117.90 81.81 121.02 82.01 122.76 81.85
  A 0.71 0.71 0.0 0 0 123.39 81.29
  C 125.07 73.01 114.83 76.35 111.30 77.96
  C 113.87 74.92 121.26 70.60 124.47 74.72
  C 127.69 78.84 126.12 88.18 124.56 92.45
  Q 124.22 93.37 123.91 92.44
  L 123.20 90.23
  Z"
    />
    <path fill="#ffffff" d="
  M 4.78 74.94
  L 9.49 78.30
  Q 3.55 79.57 4.78 74.94
  Z"
    />
    <path fill="#808080" d="
  M 123.20 90.23
  Q 122.19 89.95 122.09 92.69
  L 118.74 96.09
  A 0.73 0.73 0.0 0 1 117.72 96.11
  Q 115.80 94.29 115.36 91.69
  A 0.28 0.28 0.0 0 0 114.83 91.61
  L 112.54 96.48
  L 109.93 88.00
  A 0.85 0.85 0.0 0 1 110.08 87.22
  L 114.01 82.33
  A 1.13 1.13 0.0 0 0 112.66 80.59
  L 107.48 82.92
  A 0.14 0.13 7.9 0 1 107.32 82.71
  L 111.30 77.96
  C 114.83 76.35 125.07 73.01 123.39 81.29
  A 0.71 0.71 0.0 0 1 122.76 81.85
  C 121.02 82.01 117.90 81.81 116.91 83.57
  Q 116.66 84.01 117.15 84.15
  Q 121.79 85.45 123.20 90.23
  Z"
    />
    <path fill="#808080" d="
  M 9.38 113.57
  Q 10.62 113.53 10.32 112.58
  Q 8.62 107.14 9.87 101.77
  C 10.52 98.97 12.65 95.68 13.27 93.01
  Q 13.55 91.79 12.71 91.40
  Q 13.58 91.16 13.03 90.23
  C 12.22 88.88 10.72 88.92 9.99 86.96
  Q 9.78 86.37 10.37 86.19
  C 12.61 85.52 15.31 84.76 15.75 82.15
  L 17.20 80.64
  Q 17.58 80.24 17.19 79.85
  Q 15.96 78.60 14.27 77.97
  Q 17.16 75.89 19.31 77.26
  A 0.95 0.95 0.0 0 1 19.75 78.06
  C 19.78 86.69 6.21 101.87 17.10 108.29
  Q 17.59 108.58 17.33 109.09
  Q 14.21 115.21 13.21 122.02
  Q 13.08 122.89 12.76 122.08
  L 9.38 113.57
  Z"
    />
    <path fill="#ffffff" d="
  M 24.75 76.68
  L 25.29 76.88
  Q 26.16 77.19 25.73 78.02
  L 15.04 98.62
  C 15.97 94.47 20.26 79.40 24.75 76.68
  Z"
    />
    <path fill="#ffffff" d="
  M 47.42 77.90
  Q 51.86 81.06 57.23 82.39
  Q 57.98 82.58 57.25 82.83
  Q 54.09 83.95 51.03 82.26
  Q 47.53 80.97 46.00 78.97
  Q 45.67 78.54 45.97 78.10
  Q 46.37 77.50 47.42 77.90
  Z"
    />
    <path fill="#ff000a" d="
  M 14.27 77.97
  Q 15.96 78.60 17.19 79.85
  Q 17.58 80.24 17.20 80.64
  L 15.75 82.15
  Q 12.37 84.63 9.08 83.85
  A 1.14 1.14 0.0 0 1 8.27 82.38
  Q 9.73 78.07 14.27 77.97
  Z"
    />
    <path class="text" fill="#000000" d="
  M 342.37 130.76
  C 338.21 103.77 360.00 78.46 387.31 78.60
  C 408.56 78.71 426.95 92.40 432.17 113.33
  Q 433.44 118.44 433.48 128.93
  Q 433.53 144.21 433.46 159.50
  C 433.34 185.17 414.21 204.31 388.76 205.92
  A 1.08 1.08 0.0 0 1 387.61 204.83
  L 387.81 188.20
  Q 387.81 187.74 388.28 187.69
  Q 411.19 185.05 415.18 162.49
  A 0.74 0.73 78.1 0 0 414.05 161.75
  C 385.42 180.82 347.65 164.99 342.37 130.76
  Z
  M 415.13 124.28
  A 27.45 27.45 0.0 0 0 387.68 96.83
  A 27.45 27.45 0.0 0 0 360.23 124.28
  A 27.45 27.45 0.0 0 0 387.68 151.73
  A 27.45 27.45 0.0 0 0 415.13 124.28
  Z"
    />
    <path class="text" fill="#000000" d="
  M 441.50 114.83
  C 446.00 93.70 465.10 78.38 486.52 78.56
  C 512.61 78.78 532.15 99.46 532.22 125.63
  Q 532.28 147.03 532.24 168.27
  A 0.95 0.94 -0.3 0 1 531.30 169.21
  L 514.93 169.34
  A 0.92 0.92 0.0 0 1 514.00 168.43
  L 513.99 162.57
  A 0.97 0.97 0.0 0 0 512.47 161.77
  C 478.58 185.02 432.84 155.52 441.50 114.83
  Z
  M 513.83 124.29
  A 27.46 27.46 0.0 0 0 486.37 96.83
  A 27.46 27.46 0.0 0 0 458.91 124.29
  A 27.46 27.46 0.0 0 0 486.37 151.75
  A 27.46 27.46 0.0 0 0 513.83 124.29
  Z"
    />
    <path fill="#808080" d="
  M 784.45 161.72
  A 0.46 0.46 0.0 0 0 783.73 161.35
  C 762.72 176.16 734.72 171.63 719.79 150.84
  C 699.11 122.04 717.93 82.16 752.44 78.83
  C 774.91 76.67 796.10 91.12 801.44 113.37
  Q 802.68 118.56 802.73 130.38
  Q 802.80 149.56 802.73 168.75
  Q 802.73 169.21 802.27 169.21
  L 785.36 169.34
  Q 784.62 169.35 784.61 168.61
  L 784.45 161.72
  Z
  M 784.46 124.29
  A 27.47 27.47 0.0 0 0 756.99 96.82
  A 27.47 27.47 0.0 0 0 729.52 124.29
  A 27.47 27.47 0.0 0 0 756.99 151.76
  A 27.47 27.47 0.0 0 0 784.46 124.29
  Z"
    />
    <path fill="#808080" d="
  M 827.97 161.52
  L 828.02 187.20
  Q 828.02 187.61 827.73 187.90
  L 810.69 204.94
  A 0.43 0.43 0.0 0 1 809.95 204.63
  Q 810.06 166.35 809.96 129.45
  Q 809.93 119.17 811.26 113.66
  C 817.70 87.08 845.72 71.73 871.61 81.47
  C 912.25 96.74 910.81 154.45 869.50 167.85
  Q 848.46 174.67 828.52 161.22
  A 0.35 0.35 0.0 0 0 827.97 161.52
  Z
  M 883.12 124.29
  A 27.46 27.46 0.0 0 0 855.66 96.83
  A 27.46 27.46 0.0 0 0 828.20 124.29
  A 27.46 27.46 0.0 0 0 855.66 151.75
  A 27.46 27.46 0.0 0 0 883.12 124.29
  Z"
    />
    <path fill="#808080" d="
  M 658.42 105.97
  L 684.49 132.04
  A 0.45 0.45 0.0 0 0 685.26 131.72
  L 685.24 98.98
  A 3.26 3.23 67.8 0 1 686.20 96.67
  L 703.22 79.67
  A 0.18 0.18 0.0 0 1 703.53 79.80
  L 703.48 162.68
  Q 703.48 163.29 703.07 163.73
  L 697.55 169.54
  Q 696.88 170.24 696.20 169.56
  L 658.30 131.68
  A 0.81 0.80 -44.7 0 0 657.17 131.68
  L 619.22 169.74
  Q 618.73 170.22 618.25 169.73
  L 612.16 163.57
  Q 611.76 163.16 611.76 162.58
  Q 611.73 131.04 611.76 99.51
  C 611.76 97.41 612.60 96.82 613.95 95.45
  Q 621.91 87.39 629.31 80.10
  Q 630.28 79.15 630.28 80.50
  L 630.22 131.31
  Q 630.22 132.91 631.35 131.78
  L 657.11 105.97
  A 0.93 0.92 44.8 0 1 658.42 105.97
  Z"
    />
    <path fill="#ffffff" d="
  M 102.31 83.94
  L 98.07 90.25
  Q 95.34 91.54 93.55 93.80
  Q 93.38 94.01 93.02 93.94
  Q 92.64 93.88 92.86 93.56
  L 101.90 80.12
  A 0.32 0.32 0.0 0 1 102.49 80.32
  L 102.31 83.94
  Z"
    />
    <path class="text" fill="#000000" d="
  M 333.67 86.61
  A 0.72 0.71 -51.0 0 1 334.56 86.51
  Q 335.35 87.02 335.03 87.97
  Q 334.76 88.78 334.76 89.21
  Q 334.74 129.07 334.75 168.89
  A 0.43 0.42 90.0 0 1 334.33 169.32
  L 317.85 169.26
  A 1.35 1.35 0.0 0 1 316.50 167.91
  L 316.50 104.41
  Q 316.50 103.92 316.85 103.57
  L 333.67 86.61
  Z"
    />
    <path fill="#808080" d="
  M 53.93 93.26
  C 57.82 97.02 61.78 100.03 63.21 105.47
  Q 63.98 108.40 61.92 106.18
  Q 58.09 102.05 51.26 101.24
  L 48.32 97.60
  C 48.40 92.34 41.59 88.40 37.22 92.65
  L 33.53 92.48
  Q 32.44 92.42 33.40 91.90
  L 39.92 88.41
  A 1.24 1.22 36.2 0 1 40.75 88.29
  Q 47.85 89.78 53.93 93.26
  Z"
    />
    <path fill="#ffffff" d="
  M 12.71 91.40
  Q 13.55 91.79 13.27 93.01
  C 12.65 95.68 10.52 98.97 9.87 101.77
  Q 8.62 107.14 10.32 112.58
  Q 10.62 113.53 9.38 113.57
  C 6.06 107.03 4.27 96.48 8.15 89.73
  A 0.60 0.59 28.4 0 1 8.94 89.50
  L 12.71 91.40
  Z"
    />
    <path fill="#fcc900" d="
  M 97.81 126.06
  Q 103.74 108.66 102.61 90.24
  A 0.30 0.30 0.0 0 1 103.17 90.08
  Q 112.36 107.61 112.31 127.52
  Q 112.30 128.44 111.76 127.70
  L 110.74 126.29
  A 0.33 0.32 -62.7 0 0 110.15 126.48
  L 110.10 130.73
  Q 110.10 131.25 109.75 131.62
  C 101.10 140.83 89.21 149.24 78.85 156.55
  A 0.31 0.31 0.0 0 1 78.40 156.14
  Q 91.15 134.57 94.51 109.68
  C 95.24 104.21 96.86 100.28 98.88 95.43
  A 0.19 0.19 0.0 0 1 99.24 95.50
  Q 99.51 110.81 97.52 126.00
  A 0.15 0.15 0.0 0 0 97.81 126.06
  Z"
    />
    <path fill="#000000" d="
  M 122.09 92.69
  C 121.36 101.45 110.33 103.76 112.54 96.48
  L 114.83 91.61
  A 0.28 0.28 0.0 0 1 115.36 91.69
  Q 115.80 94.29 117.72 96.11
  A 0.73 0.73 0.0 0 0 118.74 96.09
  L 122.09 92.69
  Z"
    />
    <path fill="#ffffff" d="
  M 48.32 97.60
  L 51.26 101.24
  L 47.59 101.23
  Q 47.14 101.23 47.28 100.81
  L 48.32 97.60
  Z"
    />
    <path fill="#ffffff" d="
  M 31.57 103.86
  L 33.64 102.35
  L 37.90 101.20
  A 0.31 0.31 0.0 0 1 38.20 101.72
  C 34.43 105.53 28.75 109.48 23.06 107.63
  A 0.61 0.61 0.0 0 1 23.07 106.47
  L 31.57 103.86
  Z"
    />
    <path fill="#fcc900" d="
  M 63.43 145.09
  Q 63.44 146.13 64.10 145.33
  Q 79.37 126.76 77.15 102.49
  A 0.48 0.48 0.0 0 1 77.94 102.09
  Q 84.73 108.08 85.48 117.29
  A 0.39 0.38 59.0 0 0 86.19 117.47
  L 90.24 110.96
  A 0.17 0.17 0.0 0 1 90.55 111.07
  C 87.60 130.32 78.83 155.04 64.11 168.66
  Q 63.79 168.96 63.36 168.85
  Q 56.28 166.99 50.81 162.20
  A 0.33 0.33 0.0 0 0 50.28 162.57
  Q 52.22 167.78 56.51 171.30
  Q 57.44 172.06 56.25 171.88
  C 45.91 170.31 41.78 163.43 45.71 153.66
  Q 52.68 136.31 67.40 124.48
  A 0.21 0.21 0.0 0 1 67.72 124.73
  Q 63.38 134.44 63.43 145.09
  Z"
    />
    <path fill="#fcc900" d="
  M 32.29 110.17
  C 39.76 103.12 59.22 98.47 62.01 113.12
  Q 62.16 113.91 61.54 113.39
  C 53.16 106.44 42.04 107.05 32.86 111.03
  A 0.52 0.52 0.0 0 1 32.29 110.17
  Z"
    />
    <path fill="#fcc900" d="
  M 125.23 104.51
  A 0.34 0.34 0.0 0 1 125.85 104.73
  L 124.38 122.51
  A 0.23 0.23 0.0 0 1 123.92 122.53
  L 121.71 110.38
  Q 121.61 109.81 121.94 109.33
  L 125.23 104.51
  Z"
    />
    <path fill="#fcc900" d="
  M 16.86 119.05
  C 14.93 111.54 22.33 107.74 28.72 110.86
  A 0.69 0.69 0.0 0 1 28.43 112.17
  Q 20.73 112.37 17.26 119.10
  Q 17.00 119.61 16.86 119.05
  Z"
    />
    <path fill="#808080" d="
  M 127.00 158.08
  C 121.10 160.76 117.43 167.59 117.46 173.95
  Q 115.20 183.79 113.74 193.25
  Q 113.43 195.22 111.58 198.58
  Q 103.23 213.67 90.25 225.00
  Q 89.82 225.38 89.73 224.81
  L 88.01 213.38
  Q 92.56 199.49 96.10 185.92
  C 98.91 175.18 98.18 163.50 88.65 156.31
  Q 88.49 156.19 88.33 156.31
  Q 88.23 156.38 88.18 156.51
  Q 87.64 155.79 88.57 155.07
  Q 103.35 143.61 118.33 130.92
  A 2.45 2.44 -25.6 0 0 119.15 128.61
  L 116.50 114.46
  Q 116.40 113.96 116.70 113.55
  L 118.95 110.44
  Q 119.43 109.78 119.49 110.59
  Q 120.85 128.35 122.03 146.09
  C 122.34 150.79 124.63 154.28 127.00 158.08
  Z
  M 113.11 137.78
  Q 112.59 139.33 112.54 140.25
  C 111.75 154.47 110.27 170.59 105.39 184.04
  Q 105.21 184.54 105.66 184.27
  Q 105.96 184.08 106.05 183.72
  Q 106.18 183.19 106.22 183.10
  C 109.18 176.24 121.54 142.15 115.25 137.15
  A 1.36 1.36 0.0 0 0 113.11 137.78
  Z"
    />
    <path fill="#808080" d="
  M 53.24 112.91
  Q 53.62 113.10 53.21 113.22
  Q 52.66 113.38 51.96 113.20
  C 42.41 110.76 26.94 114.01 20.66 121.67
  Q 20.06 122.41 20.24 121.48
  Q 21.09 117.17 25.76 115.30
  C 34.73 111.70 44.08 108.33 53.24 112.91
  Z"
    />
    <path fill="#ffffff" d="
  M 53.31 116.96
  C 49.89 121.06 33.64 127.31 27.76 126.18
  A 0.71 0.71 0.0 0 1 27.19 125.51
  Q 27.10 123.15 25.67 121.33
  Q 25.35 120.92 25.77 120.60
  C 33.26 115.00 44.19 114.20 53.10 116.33
  A 0.39 0.39 0.0 0 1 53.31 116.96
  Z"
    />
    <path fill="#ffffff" d="
  M 29.61 132.85
  Q 44.53 130.25 55.46 122.99
  Q 56.79 122.10 57.30 120.24
  L 61.18 117.04
  A 0.40 0.40 0.0 0 1 61.80 117.50
  C 57.96 127.09 47.52 131.18 37.92 133.63
  Q 33.64 134.73 29.61 132.85
  Z"
    />
    <path fill="#808080" d="
  M 57.30 120.24
  Q 56.79 122.10 55.46 122.99
  Q 44.53 130.25 29.61 132.85
  L 24.82 132.61
  L 20.05 127.67
  L 20.02 125.08
  Q 20.02 124.39 20.54 124.84
  Q 22.09 126.21 23.95 127.12
  Q 24.39 127.34 24.70 127.73
  Q 25.19 128.36 24.92 128.71
  A 0.33 0.33 0.0 0 0 25.26 129.23
  L 46.16 124.40
  A 0.71 0.60 35.5 0 1 46.39 124.38
  L 47.92 124.54
  Q 48.30 124.58 48.29 124.21
  L 48.29 123.92
  Q 48.29 123.40 48.76 123.19
  Q 52.44 121.54 55.06 118.54
  A 0.38 0.38 0.0 0 1 55.68 118.97
  L 54.45 121.17
  Q 54.21 121.60 54.66 121.40
  L 57.30 120.24
  Z"
    />
    <ellipse fill="#fcc900" cx="0.00" cy="0.00" transform="translate(17.37,133.85) rotate(88.1)" rx="6.95" ry="0.96"/>
    <path fill="#ffffff" d="
  M 20.05 127.67
  L 24.82 132.61
  Q 26.13 133.19 26.61 134.03
  Q 26.88 134.50 26.38 134.74
  L 21.17 137.17
  Q 20.86 137.32 20.83 136.98
  L 20.05 127.67
  Z"
    />
    <path fill="#fcc900" d="
  M 46.04 172.03
  C 33.32 167.36 31.14 150.82 34.25 139.61
  A 1.10 1.10 0.0 0 1 35.10 138.82
  Q 44.01 137.06 52.46 133.76
  Q 53.36 133.41 52.83 134.22
  C 46.17 144.28 35.09 159.90 46.89 170.64
  A 0.83 0.83 0.0 0 1 46.04 172.03
  Z"
    />
    <path fill="#ffffff" d="
  M 113.11 137.78
  A 1.36 1.36 0.0 0 1 115.25 137.15
  C 121.54 142.15 109.18 176.24 106.22 183.10
  Q 106.18 183.19 106.05 183.72
  Q 105.96 184.08 105.66 184.27
  Q 105.21 184.54 105.39 184.04
  C 110.27 170.59 111.75 154.47 112.54 140.25
  Q 112.59 139.33 113.11 137.78
  Z"
    />
    <path fill="#fcc900" d="
  M 23.98 147.04
  L 29.16 141.01
  A 0.52 0.51 -19.9 0 1 30.06 141.43
  C 28.19 152.70 31.12 165.29 40.88 172.09
  A 1.40 1.40 0.0 0 1 39.55 174.54
  Q 32.03 171.48 25.43 166.88
  Q 24.62 166.31 24.92 167.25
  Q 26.75 172.89 31.39 176.53
  Q 31.96 176.97 31.26 177.15
  L 26.76 178.24
  Q 26.27 178.36 25.85 178.08
  C 22.55 175.89 13.96 170.05 14.14 166.28
  Q 14.83 151.36 24.16 139.98
  A 0.37 0.36 74.0 0 1 24.78 140.33
  Q 23.75 143.56 23.71 146.94
  Q 23.71 147.37 23.98 147.04
  Z"
    />
    <path fill="#ffffff" d="
  M 88.01 213.38
  Q 89.88 186.01 89.50 163.75
  Q 89.45 160.68 88.18 156.51
  Q 88.23 156.38 88.33 156.31
  Q 88.49 156.19 88.65 156.31
  C 98.18 163.50 98.91 175.18 96.10 185.92
  Q 92.56 199.49 88.01 213.38
  Z"
    />
    <path fill="#ffffff" d="
  M 127.00 158.08
  L 134.65 171.58
  Q 134.88 171.99 134.72 172.44
  C 131.61 180.61 125.77 184.43 119.10 188.92
  A 0.52 0.52 0.0 0 1 118.29 188.52
  L 117.46 173.95
  C 117.43 167.59 121.10 160.76 127.00 158.08
  Z"
    />
    <path fill="#808080" d="
  M 65.61 227.59
  L 68.23 223.64
  A 1.65 1.59 -29.3 0 0 68.50 222.75
  L 68.50 216.26
  Q 68.50 215.74 68.20 215.30
  Q 58.57 201.45 51.38 185.13
  Q 60.83 192.04 68.00 200.73
  A 0.16 0.16 0.0 0 0 68.27 200.56
  C 65.70 195.20 59.12 184.62 59.26 179.01
  Q 59.27 178.50 59.78 178.45
  C 63.14 178.17 66.42 178.08 69.06 175.70
  Q 73.14 172.02 76.09 167.33
  Q 76.43 166.79 76.84 167.29
  C 89.32 182.74 86.93 207.35 79.87 224.32
  C 76.91 231.46 71.28 229.34 65.61 227.59
  Z"
    />
    <path fill="#ffffff" d="
  M 51.38 185.13
  Q 58.57 201.45 68.20 215.30
  Q 68.50 215.74 68.50 216.26
  L 68.50 222.75
  A 1.65 1.59 -29.3 0 1 68.23 223.64
  L 65.61 227.59
  C 62.72 226.54 58.14 225.82 56.05 223.50
  C 45.93 212.27 45.92 193.70 46.31 179.66
  A 0.44 0.44 0.0 0 1 47.10 179.41
  L 51.38 185.13
  Z"
    />
</svg>
