<svg xmlns="http://www.w3.org/2000/svg" width="24" height="24" viewBox="0 0 24 24" class="injected-svg" data-src="/assets/swap-24-37b808a2.svg" xmlns:xlink="http://www.w3.org/1999/xlink" role="img">
    <path d="M3.86321 8.3637C3.51174 8.71517 3.51174 9.28502 3.86321 9.63649C4.21468 9.98796 4.78453 9.98796 5.13601 9.63649L6.59961 8.17289L6.59961 16.5001C6.59961 16.9972 7.00255 17.4001 7.49961 17.4001C7.99667 17.4001 8.39961 16.9972 8.39961 16.5001V8.17289L9.86321 9.63649C10.2147 9.98797 10.7845 9.98797 11.136 9.63649C11.4875 9.28502 11.4875 8.71517 11.136 8.3637L8.13601 5.3637C7.96722 5.19492 7.73831 5.1001 7.49961 5.1001C7.26092 5.1001 7.032 5.19492 6.86321 5.3637L3.86321 8.3637Z" fill="currentColor"></path>
    <path d="M20.1368 14.6364C20.4883 14.285 20.4883 13.7151 20.1368 13.3637C19.7853 13.0122 19.2155 13.0122 18.864 13.3637L17.4004 14.8273L17.4004 6.50005C17.4004 6.00299 16.9974 5.60005 16.5004 5.60005C16.0033 5.60005 15.6004 6.00299 15.6004 6.50005L15.6004 14.8273L14.1368 13.3637C13.7853 13.0122 13.2155 13.0122 12.864 13.3637C12.5125 13.7151 12.5125 14.285 12.864 14.6364L15.864 17.6364C16.2155 17.9879 16.7853 17.9879 17.1368 17.6364L20.1368 14.6364Z" fill="currentColor"></path>
</svg>