<svg xmlns="http://www.w3.org/2000/svg" width="24" height="24" viewBox="0 0 24 24" fill="none" class="injected-svg" data-src="/assets/external-link-24-f1b77e32.svg" xmlns:xlink="http://www.w3.org/1999/xlink" role="img">
    <path fill-rule="evenodd" clip-rule="evenodd" d="M16.8268 5.89998H5.39961C4.90255 5.89998 4.49961 5.49703 4.49961 4.99997C4.49961 4.50292 4.90255 4.09998 5.39961 4.09998L18.9996 4.09998C19.2383 4.09998 19.4672 4.1948 19.636 4.36358C19.8048 4.53236 19.8996 4.76128 19.8996 4.99998V18.6C19.8996 19.097 19.4967 19.5 18.9996 19.5C18.5026 19.5 18.0996 19.097 18.0996 18.6V7.17277L5.63601 19.6364C5.28453 19.9878 4.71469 19.9878 4.36321 19.6364C4.01174 19.2849 4.01174 18.7151 4.36321 18.3636L16.8268 5.89998Z" fill="currentColor"></path>
</svg>