<svg fill="none" height="512" viewBox="0 0 24 24" width="512" xmlns="http://www.w3.org/2000/svg"><path d="m8 23c-.6 0-1-.4-1-1v-14c0-1.3.5-2.6 1.5-3.5.9-1 2.2-1.5 3.5-1.5h.5c1.2 0 2.3.5 3.2 1.3.9.9 1.3 2 1.3 3.2s-.5 2.3-1.3 3.2c-.1.1-.1.1-.2.2 0 0 .1 0 .1.1.9.6 1.6 1.5 2 2.5s.5 2.1.3 3.2-.7 2-1.5 2.8-1.7 1.3-2.8 1.5-2.2.1-3.2-.3c-.5-.2-1-.5-1.4-.8v2.1c0 .6-.4 1-1 1zm1-7.5c0 .7.2 1.4.6 1.9.4.6.9 1 1.6 1.3.6.3 1.3.3 2 .2s1.3-.5 1.8-1 .8-1.1 1-1.8c.1-.7.1-1.4-.2-2s-.8-1.1-1.4-1.5-1.3-.6-1.9-.6h-.5c-.6 0-1-.4-1-1s.4-1 1-1h.5c.7 0 1.3-.3 1.8-.7.4-.5.7-1.1.7-1.8s-.3-1.3-.7-1.8c-.5-.4-1.1-.7-1.8-.7h-.5c-.8 0-1.6.3-2.1.9-.6.5-.9 1.3-.9 2.1z" fill="rgb(0,0,0)"/></svg>