<svg fill="none" height="512" viewBox="0 0 24 24" width="512" xmlns="http://www.w3.org/2000/svg"><g ><path d="m7.71429 17.102v2.0409c0 1.5306-1.22449 2.8571-2.85715 2.8571-1.63265 0-2.85714-1.3265-2.85714-2.8571v-2.0409c0-1.5306 1.22449-2.8571 2.85714-2.8571 1.63266 0 2.85715 1.3265 2.85715 2.8571z"/><path d="m14.8571 10.9796v8.1633c0 1.5306-1.2244 2.8571-2.8571 2.8571s-2.85714-1.3265-2.85714-2.8571v-8.1633c0-1.53062 1.22444-2.85715 2.85714-2.85715s2.8571 1.32653 2.8571 2.85715z"/><path d="m22 4.85714v14.28576c0 1.5306-1.2245 2.8571-2.8571 2.8571-1.6327 0-2.8572-1.2245-2.8572-2.8571v-14.28576c0-1.53061 1.2245-2.85714 2.8572-2.85714 1.6326 0 2.8571 1.32653 2.8571 2.85714z"/></g></svg>