<svg xmlns="http://www.w3.org/2000/svg" width="16" height="16" viewBox="0 0 16 16" fill="none" class="injected-svg" data-src="/assets/copy-16-daf91c3b.svg" xmlns:xlink="http://www.w3.org/1999/xlink" role="img">
    <path fill-rule="evenodd" clip-rule="evenodd" d="M8.88425 0.250024C8.06629 0.249755 7.50814 0.249571 7.02948 0.377828C5.73538 0.724579 4.72458 1.73538 4.37783 3.02948C4.28447 3.3779 4.25916 3.76844 4.25241 4.27064C4.0716 4.27832 3.90182 4.28885 3.7424 4.3033C3.13605 4.35826 2.60625 4.47456 2.125 4.75241C1.55493 5.08154 1.08154 5.55493 0.752406 6.125C0.474555 6.60625 0.358258 7.13605 0.303303 7.7424C0.249984 8.33069 0.249991 9.05997 0.25 9.96421V10.0358C0.249991 10.94 0.249984 11.6693 0.303303 12.2576C0.358258 12.8639 0.474555 13.3938 0.752406 13.875C1.08154 14.4451 1.55493 14.9185 2.125 15.2476C2.60625 15.5254 3.13605 15.6417 3.7424 15.6967C4.3307 15.75 5.05998 15.75 5.96423 15.75H6.03577C6.94002 15.75 7.66931 15.75 8.2576 15.6967C8.86395 15.6417 9.39375 15.5254 9.875 15.2476C10.4451 14.9185 10.9185 14.4451 11.2476 13.875C11.5254 13.3938 11.6417 12.8639 11.6967 12.2576C11.7111 12.0982 11.7217 11.9285 11.7294 11.7477C12.2316 11.7409 12.6222 11.7156 12.9706 11.6223C14.2647 11.2755 15.2755 10.2647 15.6223 8.97062C15.7505 8.49196 15.7503 7.93381 15.7501 7.11585L15.75 5.96428C15.7501 5.06003 15.7501 4.33074 15.6967 3.74245C15.6418 3.1361 15.5255 2.6063 15.2476 2.12505C14.9185 1.55498 14.4451 1.08159 13.875 0.752454C13.3938 0.474604 12.864 0.358307 12.2577 0.303351C11.6694 0.250033 10.9401 0.25004 10.0358 0.250049L8.88425 0.250024ZM11.75 10.2464C12.185 10.2397 12.4025 10.2216 12.5824 10.1734C13.3588 9.96533 13.9653 9.35885 14.1734 8.58239C14.2436 8.32031 14.25 7.97831 14.25 7.00005V6.00005C14.25 5.05163 14.2493 4.39046 14.2029 3.87784C14.1573 3.37553 14.0727 3.08995 13.9486 2.87505C13.7511 2.53301 13.4671 2.24897 13.125 2.05149C12.9101 1.92742 12.6246 1.84275 12.1223 1.79723C11.6096 1.75077 10.9485 1.75005 10 1.75005H9.00005C8.02179 1.75005 7.67979 1.75649 7.41771 1.82672C6.64125 2.03477 6.03477 2.64125 5.82672 3.41771C5.77852 3.59757 5.76037 3.81507 5.75372 4.25002C5.82281 4.25 5.89297 4.25 5.96421 4.25H6.03579C6.94003 4.24999 7.66931 4.24998 8.2576 4.3033C8.86395 4.35826 9.39375 4.47456 9.875 4.75241C10.4451 5.08154 10.9185 5.55493 11.2476 6.125C11.5254 6.60625 11.6417 7.13605 11.6967 7.7424C11.75 8.3307 11.75 9.05998 11.75 9.96423V10.0358C11.75 10.1071 11.75 10.1773 11.75 10.2464ZM2.875 6.05144C3.0899 5.92737 3.37549 5.84271 3.87779 5.79718C4.39041 5.75072 5.05158 5.75 6 5.75C6.94842 5.75 7.60959 5.75072 8.12221 5.79718C8.62452 5.84271 8.9101 5.92737 9.125 6.05144C9.46704 6.24892 9.75108 6.53296 9.94856 6.875C10.0726 7.0899 10.1573 7.37549 10.2028 7.87779C10.2493 8.39041 10.25 9.05158 10.25 10C10.25 10.9484 10.2493 11.6096 10.2028 12.1222C10.1573 12.6245 10.0726 12.9101 9.94856 13.125C9.75108 13.467 9.46704 13.7511 9.125 13.9486C8.9101 14.0726 8.62452 14.1573 8.12221 14.2028C7.60959 14.2493 6.94842 14.25 6 14.25C5.05158 14.25 4.39041 14.2493 3.87779 14.2028C3.37549 14.1573 3.0899 14.0726 2.875 13.9486C2.53296 13.7511 2.24892 13.467 2.05144 13.125C1.92737 12.9101 1.84271 12.6245 1.79718 12.1222C1.75072 11.6096 1.75 10.9484 1.75 10C1.75 9.05158 1.75072 8.39041 1.79718 7.87779C1.84271 7.37549 1.92737 7.0899 2.05144 6.875C2.24892 6.53296 2.53296 6.24892 2.875 6.05144Z" fill="currentColor"></path>
</svg>