<svg height="511pt" viewBox="-32 0 511 511.99853" width="511pt" xmlns="http://www.w3.org/2000/svg"><path d="m16.105469 198.988281h235.789062v55.421875c0 12.847656 14.589844 20.046875 24.796875 12.613282l163.894532-119.394532c8.539062-6.21875 8.558593-18.992187 0-25.226562l-163.894532-119.390625c-10.296875-7.503907-24.796875-.125-24.796875 12.613281v55.417969h-235.789062c-8.617188 0-15.605469 6.988281-15.605469 15.605469v96.734374c0 8.621094 6.988281 15.605469 15.605469 15.605469zm0 0"/><path d="m431.398438 313.011719h-235.792969v-55.421875c0-12.734375-14.496094-20.113282-24.792969-12.613282l-163.894531 119.394532c-8.558594 6.234375-8.542969 19.007812 0 25.226562l163.894531 119.390625c10.265625 7.480469 24.792969.175781 24.792969-12.613281v-55.417969h235.792969c8.617187 0 15.605468-6.988281 15.605468-15.605469v-96.734374c0-8.621094-6.988281-15.605469-15.605468-15.605469zm0 0"/></svg>