<svg xmlns="http://www.w3.org/2000/svg" width="16" height="16" viewBox="0 0 16 16" fill="none" class="injected-svg" data-src="/assets/exit-16.a026f3ed.svg" xmlns:xlink="http://www.w3.org/1999/xlink" role="img">
    <path d="M10.6 1.25C12.3397 1.25 13.75 2.6603 13.75 4.4H12.25C12.25 3.48873 11.5113 2.75 10.6 2.75L8 2.75C7.05158 2.75 6.39041 2.75072 5.87779 2.79718C5.37549 2.84271 5.0899 2.92737 4.875 3.05144C4.53296 3.24892 4.24892 3.53296 4.05144 3.875C3.92737 4.0899 3.84271 4.37549 3.79718 4.87779C3.75072 5.39041 3.75 6.05158 3.75 7L3.75 9C3.75 9.94842 3.75072 10.6096 3.79718 11.1222C3.84271 11.6245 3.92737 11.9101 4.05144 12.125C4.24892 12.467 4.53296 12.7511 4.875 12.9486C5.0899 13.0726 5.37549 13.1573 5.87779 13.2028C6.39041 13.2493 7.05158 13.25 8 13.25H10.6C11.5113 13.25 12.25 12.5113 12.25 11.6H13.75C13.75 13.3397 12.3397 14.75 10.6 14.75H7.96418C7.05995 14.75 6.33069 14.75 5.7424 14.6967C5.13605 14.6417 4.60625 14.5254 4.125 14.2476C3.55493 13.9185 3.08154 13.4451 2.75241 12.875C2.47455 12.3938 2.35826 11.8639 2.3033 11.2576C2.24998 10.6693 2.24999 9.94003 2.25 9.03579V6.96423C2.24999 6.05999 2.24998 5.33069 2.3033 4.7424C2.35826 4.13605 2.47456 3.60625 2.75241 3.125C3.08154 2.55493 3.55493 2.08154 4.125 1.75241C4.60625 1.47455 5.13605 1.35826 5.7424 1.3033C6.33069 1.24998 7.05997 1.24999 7.9642 1.25H10.6Z" fill="currentColor"></path>
    <path d="M11.9697 5.96967C12.2626 5.67678 12.7374 5.67678 13.0303 5.96967L14.5303 7.46967C14.8232 7.76256 14.8232 8.23744 14.5303 8.53033L13.0303 10.0303C12.7374 10.3232 12.2626 10.3232 11.9697 10.0303C11.6768 9.73744 11.6768 9.26256 11.9697 8.96967L12.1893 8.75H8.5C8.08579 8.75 7.75 8.41421 7.75 8C7.75 7.58579 8.08579 7.25 8.5 7.25H12.1893L11.9697 7.03033C11.6768 6.73744 11.6768 6.26256 11.9697 5.96967Z" fill="currentColor"></path>
</svg>