<svg xmlns="http://www.w3.org/2000/svg" width="16" height="16" viewBox="0 0 16 16" fill="none" class="injected-svg" data-src="/assets/external-link-16-3d4fa59b.svg" xmlns:xlink="http://www.w3.org/1999/xlink" role="img">
    <path d="M13 8C12.5858 8 12.25 7.66421 12.25 7.25V5.06066L8.53033 8.78033C8.23744 9.07322 7.76256 9.07322 7.46967 8.78033C7.17678 8.48744 7.17678 8.01256 7.46967 7.71967L11.1893 4L9 4C8.58579 4 8.25 3.66421 8.25 3.25C8.25 2.83579 8.58579 2.5 9 2.5H13C13.4142 2.5 13.75 2.83579 13.75 3.25V7.25C13.75 7.66421 13.4142 8 13 8Z" fill="currentColor"></path>
    <path d="M6.50001 2.50001L6.44215 2.50001C6.03347 2.49994 5.75514 2.49989 5.51054 2.53209C3.82779 2.75363 2.50363 4.07779 2.28209 5.76054C2.24989 6.00514 2.24994 6.28347 2.25001 6.69215L2.25001 8.2858C2.25 9.19004 2.25 9.91932 2.30331 10.5076C2.35827 11.114 2.47457 11.6438 2.75242 12.125C3.08155 12.6951 3.55494 13.1685 4.12501 13.4976C4.60626 13.7755 5.13606 13.8918 5.74241 13.9467C6.33071 14 7.05999 14 7.96424 14L9.55788 14C9.96654 14.0001 10.2449 14.0001 10.4895 13.9679C12.1722 13.7464 13.4964 12.4222 13.7179 10.7395C13.7501 10.4949 13.7501 10.2166 13.75 9.8079L13.75 9.75001H12.25C12.25 10.2383 12.2484 10.4098 12.2308 10.5437C12.0978 11.5533 11.3033 12.3478 10.2937 12.4808C10.1598 12.4984 9.98827 12.5 9.50001 12.5H8.00001C7.05159 12.5 6.39042 12.4993 5.8778 12.4528C5.3755 12.4073 5.08991 12.3226 4.87501 12.1986C4.53297 12.0011 4.24893 11.7171 4.05146 11.375C3.92738 11.1601 3.84272 10.8745 3.79719 10.3722C3.75073 9.8596 3.75001 9.19843 3.75001 8.25001V6.75001C3.75001 6.26175 3.75163 6.09025 3.76926 5.95633C3.90218 4.94668 4.69668 4.15218 5.70633 4.01926C5.84025 4.00163 6.01175 4.00001 6.50001 4.00001V2.50001Z" fill="currentColor"></path>
</svg>