<svg xmlns="http://www.w3.org/2000/svg" viewBox="4 2 16 19.99"><g id="Layer_2" data-name="Layer 2"><path d="M16,10.5498a.99974.99974,0,0,1-1-1V7A3,3,0,0,0,9,7V9.5498a1,1,0,0,1-2,0V7A5,5,0,1,1,17,7V9.5498A.99974.99974,0,0,1,16,10.5498Z"/><path d="M12,17a.99974.99974,0,0,1-1-1V14a1,1,0,0,1,2,0v2A.99974.99974,0,0,1,12,17Z"/><path d="M12,21.99316c-2.64551,0-5.29-.603-6.50684-1.8081C4.10742,18.81152,4,15.86914,4,15s.10742-3.81152,1.49316-5.18506c2.43262-2.41015,10.58106-2.41064,13.01368,0C19.89258,11.18848,20,14.13086,20,15s-.10742,3.81152-1.49316,5.18506C17.29,21.39014,14.64551,21.99316,12,21.99316ZM12,9.99561c-2.13281,0-4.26465.41357-5.09863,1.24023A6.08725,6.08725,0,0,0,6,15a6.08725,6.08725,0,0,0,.90137,3.76416c1.668,1.65332,8.52929,1.65332,10.19726,0h0A6.08725,6.08725,0,0,0,18,15a6.08725,6.08725,0,0,0-.90137-3.76416C16.26465,10.40918,14.13281,9.99561,12,9.99561Z"/><circle cx="12" cy="14" r="1.5"/></g></svg>