<svg xmlns="http://www.w3.org/2000/svg" width="16" height="16" viewBox="0 0 16 16" fill="none" class="injected-svg" data-src="/assets/dark-mode-16-1cdae038.svg" xmlns:xlink="http://www.w3.org/1999/xlink" role="img">
    <path fill-rule="evenodd" clip-rule="evenodd" d="M3.58029 3.37489C1.13951 5.81567 1.13951 9.77295 3.58029 12.2137C6.02106 14.6545 9.97835 14.6545 12.4191 12.2137C13.0202 11.6127 13.4728 10.9205 13.7777 10.1818C8.89107 11.4162 4.37779 6.90295 5.6122 2.01631C4.87348 2.32117 4.18132 2.77386 3.58029 3.37489ZM2.51963 13.2744C-0.506935 10.2478 -0.506935 5.3408 2.51963 2.31423C3.6911 1.14276 5.14635 0.423877 6.66449 0.159598C6.93094 0.113216 7.20172 0.213876 7.37316 0.423042C7.54461 0.632208 7.59017 0.917479 7.49239 1.16964L7.27765 1.72344C5.62806 5.97756 9.81645 10.166 14.0706 8.51637L14.6244 8.30163C14.8765 8.20385 15.1618 8.24941 15.371 8.42085C15.5801 8.5923 15.6808 8.86308 15.6344 9.12952C15.3701 10.6477 14.6513 12.1029 13.4798 13.2744C10.4532 16.301 5.54619 16.301 2.51963 13.2744Z" fill="currentColor"></path>
</svg>