<svg xmlns="http://www.w3.org/2000/svg" width="16" height="16" viewBox="0 0 16 16" fill="none" class="injected-svg" data-src="/assets/search-24.3de9c873.svg" xmlns:xlink="http://www.w3.org/1999/xlink" role="img">
    <path fill-rule="evenodd" clip-rule="evenodd" d="M1.75 6.5C1.75 3.87665 3.87665 1.75 6.5 1.75C9.12335 1.75 11.25 3.87665 11.25 6.5C11.25 9.12335 9.12335 11.25 6.5 11.25C3.87665 11.25 1.75 9.12335 1.75 6.5ZM6.5 0.25C3.04822 0.25 0.25 3.04822 0.25 6.5C0.25 9.95178 3.04822 12.75 6.5 12.75C7.9556 12.75 9.29498 12.2524 10.3573 11.418L14.4697 15.5304C14.7626 15.8233 15.2374 15.8233 15.5303 15.5304C15.8232 15.2375 15.8232 14.7626 15.5303 14.4697L11.418 10.3574C12.2524 9.29503 12.75 7.95563 12.75 6.5C12.75 3.04822 9.95178 0.25 6.5 0.25Z" fill="currentColor"></path>
</svg>