<svg xmlns="http://www.w3.org/2000/svg" width="16" height="16" viewBox="0 0 16 16" fill="none" class="injected-svg" data-src="/assets/settings-16-9d36efb5.svg" xmlns:xlink="http://www.w3.org/1999/xlink" role="img">
    <g clip-path="url(#clip0_1143_13395)">
        <path fill-rule="evenodd" clip-rule="evenodd" d="M3.79187 13.0275L5.59852 14.0699C5.6343 14.0906 5.66708 14.1095 5.69744 14.1269C5.7223 14.1023 5.74912 14.0756 5.77841 14.0464C5.78868 14.0362 5.799 14.0259 5.80937 14.0156C5.99601 13.8297 6.19845 13.6281 6.3887 13.4695C6.60482 13.2892 6.90969 13.0724 7.32196 12.9562C7.76537 12.8313 8.23468 12.8313 8.67809 12.9562C9.09035 13.0724 9.39522 13.2892 9.61133 13.4695C9.80159 13.6282 10.004 13.8298 10.1907 14.0156C10.201 14.0259 10.2114 14.0362 10.2216 14.0464C10.2509 14.0756 10.2777 14.1023 10.3026 14.1269C10.3329 14.1095 10.3657 14.0906 10.4015 14.0699L12.2078 13.0277C12.2238 13.0184 12.2392 13.0096 12.2539 13.0011C12.2492 12.9847 12.2443 12.9676 12.2392 12.9498C12.2356 12.9373 12.232 12.9248 12.2284 12.9121C12.1623 12.6823 12.091 12.4344 12.0463 12.2151C11.996 11.9686 11.9506 11.634 12.0184 11.2542C12.1212 10.6789 12.4222 10.1577 12.8693 9.78132C13.1644 9.53278 13.4769 9.40498 13.7156 9.32538C13.9279 9.25463 14.1782 9.19249 14.4103 9.1349C14.4231 9.13174 14.4358 9.12859 14.4484 9.12545C14.4663 9.121 14.4835 9.11673 14.5 9.11263C14.5 9.09564 14.5 9.07794 14.5 9.05947V6.94043C14.5 6.9216 14.5 6.90358 14.5 6.88629C14.4829 6.88203 14.4652 6.8776 14.4466 6.87297C14.434 6.86983 14.4213 6.86667 14.4086 6.86351C14.1766 6.80575 13.9264 6.74347 13.7145 6.67267C13.4762 6.59309 13.1641 6.46533 12.8692 6.21706C12.4216 5.84012 12.1204 5.31808 12.018 4.74188C11.9507 4.3626 11.9961 4.02866 12.0464 3.78252C12.0912 3.56369 12.1624 3.31617 12.2283 3.08676C12.232 3.07418 12.2356 3.06165 12.2392 3.04918C12.2442 3.03163 12.249 3.0148 12.2537 2.99864C12.2391 2.99023 12.2239 2.98148 12.2081 2.97235L10.4024 1.93044C10.367 1.91002 10.3346 1.89131 10.3045 1.87402C10.2799 1.8985 10.2534 1.92497 10.2245 1.95384C10.2143 1.96409 10.204 1.97439 10.1936 1.98474C10.0072 2.17107 9.80512 2.37307 9.61519 2.53212C9.39955 2.71269 9.09512 2.93024 8.68308 3.04727C8.23654 3.1741 7.7635 3.17411 7.31696 3.04728C6.90492 2.93025 6.60049 2.7127 6.38485 2.53213C6.19491 2.37308 5.99281 2.17107 5.8064 1.98473C5.79605 1.97439 5.78574 1.96409 5.7755 1.95385C5.74659 1.92497 5.72008 1.8985 5.6955 1.87401C5.66543 1.89131 5.63298 1.91002 5.59759 1.93045L3.79162 2.9725C3.77531 2.98191 3.75971 2.99091 3.74474 2.99955C3.7495 3.01624 3.75447 3.03362 3.75966 3.05179C3.76324 3.0643 3.76683 3.07686 3.77044 3.08948C3.83617 3.31931 3.9071 3.56731 3.95153 3.78655C4.00152 4.03319 4.04644 4.36773 3.97812 4.74746C3.87499 5.32055 3.57505 5.83967 3.13006 6.21524C2.83525 6.46405 2.52305 6.59221 2.2844 6.6721C2.0723 6.74309 1.82207 6.80549 1.59022 6.86331C1.57748 6.86648 1.5648 6.86964 1.55219 6.87279C1.53404 6.87732 1.51667 6.88166 1.50001 6.88582C1.5 6.90301 1.5 6.92091 1.5 6.93961V9.05941C1.5 9.07823 1.5 9.09626 1.50001 9.11355C1.51705 9.1178 1.53483 9.12223 1.55342 9.12686C1.56601 9.13 1.57867 9.13315 1.59138 9.13632C1.8234 9.19408 2.07355 9.25636 2.28551 9.32716C2.52375 9.40674 2.83591 9.5345 3.13076 9.78278C3.57839 10.1597 3.87961 10.6817 3.98195 11.2579C4.04932 11.6372 4.00387 11.9711 3.95356 12.2173C3.90883 12.4361 3.83764 12.6836 3.77166 12.913C3.76803 12.9256 3.76443 12.9382 3.76084 12.9506C3.75579 12.9682 3.75096 12.985 3.74632 13.0012C3.76088 13.0096 3.77605 13.0183 3.79187 13.0275ZM7.72679 1.60435C7.47697 1.53339 7.2632 1.31982 6.83565 0.892686C6.50013 0.557484 6.33237 0.389882 6.13127 0.313868C5.98682 0.259263 5.83168 0.238856 5.67802 0.254246C5.46411 0.275671 5.25872 0.394185 4.84793 0.631212L3.04196 1.67327C2.675 1.885 2.49152 1.99087 2.37292 2.14055C2.25391 2.29075 2.18057 2.47198 2.16162 2.66268C2.14273 2.85272 2.20095 3.05646 2.3174 3.46395C2.46777 3.99015 2.54295 4.25325 2.50183 4.48181C2.46058 4.71105 2.3406 4.9187 2.1626 5.06893C1.98513 5.21871 1.71973 5.28496 1.18893 5.41744C0.778067 5.51999 0.572637 5.57127 0.41749 5.68246C0.261509 5.79424 0.140986 5.94854 0.0703043 6.12695C0 6.30441 0 6.51614 0 6.93961V9.05941C0 9.48335 0 9.69532 0.0704501 9.87294C0.141151 10.0512 0.261612 10.2054 0.417476 10.3171C0.572788 10.4284 0.778763 10.4797 1.19071 10.5824C1.72173 10.7147 1.98724 10.7808 2.16459 10.9302C2.34364 11.081 2.46413 11.2898 2.50507 11.5202C2.54561 11.7485 2.47014 12.0111 2.3192 12.5363C2.20243 12.9426 2.14405 13.1457 2.16243 13.3353C2.18103 13.5272 2.25469 13.7096 2.37456 13.8606C2.493 14.0098 2.67607 14.1154 3.04221 14.3267L4.84886 15.3692C5.26006 15.6064 5.46566 15.7251 5.67988 15.7464C5.83254 15.7616 5.98664 15.7415 6.13027 15.6876C6.33183 15.6119 6.50007 15.4445 6.83657 15.1096C7.26467 14.6835 7.47872 14.4704 7.72879 14.4C7.90615 14.35 8.09388 14.35 8.27124 14.4C8.52131 14.4704 8.73536 14.6835 9.16346 15.1096C9.49993 15.4445 9.66817 15.6119 9.86972 15.6876C10.0134 15.7415 10.1675 15.7616 10.3201 15.7464C10.5343 15.725 10.7399 15.6064 11.1511 15.3692L12.9575 14.3269C13.3241 14.1154 13.5074 14.0096 13.6259 13.8601C13.7454 13.7094 13.819 13.5274 13.8376 13.3359C13.8562 13.1461 13.7978 12.9427 13.6809 12.5358C13.5298 12.0096 13.4543 11.7465 13.4951 11.5179C13.5362 11.2878 13.6566 11.0793 13.8354 10.9287C14.0131 10.7792 14.2787 10.7132 14.81 10.5812C15.2208 10.4792 15.4262 10.4282 15.5814 10.3173C15.738 10.2054 15.8589 10.0507 15.9298 9.87172C16 9.69437 16 9.48274 16 9.05947V6.94043C16 6.51648 16 6.30451 15.9295 6.12689C15.8588 5.94864 15.7384 5.79448 15.5825 5.68277C15.4272 5.57146 15.2212 5.52014 14.8093 5.41748C14.2783 5.28515 14.0127 5.21899 13.8354 5.06966C13.6563 4.91888 13.5358 4.71006 13.4949 4.47958C13.4544 4.25132 13.5298 3.98872 13.6808 3.46351C13.7976 3.05725 13.8559 2.85411 13.8376 2.66451C13.819 2.47262 13.7453 2.2902 13.6254 2.1392C13.507 1.99001 13.3239 1.88438 12.9578 1.67312L11.1521 0.63121C10.7413 0.394188 10.5359 0.275677 10.322 0.25425C10.1683 0.238858 10.0132 0.259267 9.86872 0.313877C9.66763 0.389894 9.49988 0.557491 9.16436 0.892689C8.73683 1.31982 8.52306 1.53339 8.27324 1.60435C8.09462 1.65508 7.90541 1.65508 7.72679 1.60435Z" fill="currentColor"></path>
        <path d="M6.4998 7.9999C6.4998 7.17137 7.17145 6.49971 7.99998 6.49971C8.82851 6.49971 9.50017 7.17137 9.50017 7.9999C9.50017 8.82843 8.82851 9.50008 7.99998 9.50008C7.17145 9.50008 6.4998 8.82843 6.4998 7.9999Z" fill="currentColor"></path>
    </g>
</svg>