<svg fill="none" height="512" viewBox="0 0 24 24" width="512" xmlns="http://www.w3.org/2000/svg"><path clip-rule="evenodd" d="m10.2695 3.99621c.348-.59792.9933-.99621 1.7305-.99621.7375 0 1.383.39865 1.7309.99701.3745.64426.9204 1.44804 1.77 1.9398.8537.4942 1.8207.55861 2.5617.56079.693.00204 1.3623.36266 1.7312 1.00213.3685.63877.3462 1.39765.0021 1.99831-.3688.64396-.796 1.51676-.796 2.50196 0 .9856.4274 1.8587.7966 2.5029.344.6004.3663 1.3585-.0023 1.997-.3686.6384-1.0362.9981-1.7279 1.0005-.7418.0026-1.7098.0673-2.5644.5622-.8501.4922-1.3965 1.2967-1.7715 1.9412-.348.5979-.9933.9961-1.7304.9961-.7375 0-1.383-.3986-1.7309-.9969-.37454-.6442-.92044-1.448-1.77005-1.9398-.85379-.4942-1.8208-.5586-2.56179-.5608-.69298-.0021-1.36217-.3627-1.73108-1.0022-.3685-.6387-.34618-1.3975-.00219-1.9982.3688-.6439.79596-1.5168.79596-2.502 0-.9856-.42743-1.8588-.79656-2.5031-.34397-.60034-.36631-1.35846.00232-1.99695.3686-.63843 1.0362-.99812 1.72801-1.00049.74174-.00255 1.70978-.06725 2.56431-.56207.85011-.49225 1.39645-1.29671 1.77147-1.94118zm1.7305-2.99621c-1.4781 0-2.76767.80223-3.45905 1.99023-.33841.5815-.66772.99785-1.04513 1.21639-.37489.21708-.89004.29052-1.56895.29285-1.37457.00471-2.71415.72039-3.45321 2.00048-.73914 1.28024-.68905 2.79839-.00561 3.99125.33662.5875.5319 1.0748.5319 1.5088 0 .4337-.19512.9207-.53149 1.5081-.68323 1.193-.73322 2.7114.00535 3.9916.73939 1.2816 2.08111 1.9986 3.45751 2.0027.67768.002 1.19178.0752 1.56581.2917.37662.218.70543.6336 1.04299 1.2142.69118 1.1888 1.98118 1.9916 3.45988 1.9916 1.478 0 2.7675-.8021 3.4589-1.9901.3385-.5815.6678-.9979 1.0452-1.2165.375-.2171.8902-.2905 1.5691-.2929 1.3745-.0048 2.714-.7204 3.453-2.0005.7392-1.2802.6891-2.7984.0056-3.9913-.3366-.5874-.5319-1.0747-.5319-1.5086 0-.4337.1951-.9207.5315-1.5079.6833-1.19305.7333-2.71158-.0053-3.99181-.7394-1.28167-2.0812-1.99864-3.4576-2.00268-.6777-.00199-1.1917-.07526-1.5657-.29174-.3766-.21797-.7054-.63347-1.0429-1.21404-.6911-1.18889-1.9812-1.99183-3.4599-1.99183zm-2.00003 11c0-1.1046.89543-2 2.00003-2 1.1045 0 2 .8954 2 2s-.8955 2-2 2c-1.1046 0-2.00003-.8954-2.00003-2zm2.00003-4c-2.20917 0-4.00003 1.79086-4.00003 4 0 2.2091 1.79086 4 4.00003 4 2.2091 0 4-1.7909 4-4 0-2.20914-1.7909-4-4-4z"  fill-rule="evenodd"/></svg>