<svg fill="none" height="24" viewBox="0 0 24 24" width="24" xmlns="http://www.w3.org/2000/svg"><g ><path d="m11.2929 1.29289c.3905-.390521 1.0237-.390521 1.4142 0l4 4c.3905.39053.3905 1.02369 0 1.41422-.3905.39052-1.0237.39052-1.4142 0l-2.2929-2.2929v10.58579c0 .5523-.4477 1-1 1s-1-.4477-1-1v-10.58579l-2.29289 2.2929c-.39053.39052-1.02369.39052-1.41422 0-.39052-.39053-.39052-1.02369 0-1.41422z"/><path d="m6 11c-.55228 0-1 .4477-1 1v8c0 .2652.10536.5196.29289.7071.18754.1875.44189.2929.70711.2929h12c.2652 0 .5196-.1054.7071-.2929s.2929-.4419.2929-.7071v-8c0-.5523-.4477-1-1-1h-1.5c-.5523 0-1-.4477-1-1 0-.55229.4477-1 1-1h1.5c1.6569 0 3 1.3431 3 3v8c0 .7957-.3161 1.5587-.8787 2.1213s-1.3256.8787-2.1213.8787h-12c-.79565 0-1.55871-.3161-2.12132-.8787s-.87868-1.3256-.87868-2.1213v-8c0-1.6569 1.34315-3 3-3h2c.55228 0 1 .44771 1 1 0 .5523-.44772 1-1 1z"/></g></svg>