<svg xmlns="http://www.w3.org/2000/svg" width="20" height="20" viewBox="0 0 20 20" fill="none" class="injected-svg" data-src="/assets/sparkle-20.8702f505.svg" xmlns:xlink="http://www.w3.org/1999/xlink" role="img">
    <path fill-rule="evenodd" clip-rule="evenodd" d="M10.0344 1.25001C10.3852 1.25156 10.688 1.49605 10.7635 1.83862L11.354 4.51867C11.5953 5.61365 11.6965 6.05578 11.8655 6.43447C12.2516 7.29935 12.9156 8.01047 13.752 8.45493C14.1182 8.64954 14.5524 8.78076 15.6282 9.09648L16.2112 9.26755C16.5299 9.36107 16.7491 9.65309 16.75 9.98524C16.7509 10.3174 16.5332 10.6105 16.2149 10.7057L15.6026 10.8889C14.5345 11.2084 14.1035 11.3411 13.7399 11.5363C12.9096 11.9821 12.2509 12.6912 11.8676 13.5522C11.6997 13.9292 11.5992 14.3688 11.3593 15.4576L10.7635 18.1614C10.688 18.5039 10.3852 18.7484 10.0344 18.75C9.68361 18.7515 9.37861 18.5098 9.30009 18.1679L8.66813 15.4161C8.42097 14.3399 8.31754 13.9055 8.14841 13.5329C7.7622 12.682 7.10634 11.9821 6.2823 11.5415C5.92141 11.3485 5.49459 11.2171 4.43671 10.9007L3.78506 10.7057C3.46684 10.6105 3.24913 10.3174 3.25 9.98524C3.25087 9.65309 3.47011 9.36107 3.78882 9.26755L4.41129 9.08488C5.47687 8.77218 5.90683 8.64226 6.27033 8.44988C7.1004 8.01058 7.76158 7.3087 8.15058 6.4539C8.32093 6.07957 8.42498 5.64262 8.67354 4.56029L9.30009 1.83213C9.37861 1.49024 9.68361 1.24845 10.0344 1.25001ZM10.016 5.41442C9.8476 6.13718 9.71876 6.62935 9.51586 7.07521C8.98956 8.2317 8.09502 9.1813 6.97198 9.77566C6.82266 9.85468 6.66732 9.92525 6.49868 9.99245C6.67424 10.0626 6.83514 10.1361 6.98956 10.2187C8.10444 10.8148 8.99179 11.7617 9.5143 12.9129C9.71764 13.3609 9.84622 13.8554 10.016 14.5852C10.1756 13.8735 10.2999 13.3853 10.4973 12.9421C11.0159 11.7772 11.907 10.8178 13.0304 10.2147C13.1813 10.1337 13.3385 10.0614 13.5094 9.99237C13.3454 9.92636 13.1939 9.85697 13.0481 9.77953C11.9165 9.17819 11.0182 8.21609 10.4958 7.04595C10.2989 6.60493 10.1743 6.11919 10.016 5.41442Z" fill="currentColor"></path>
    <path d="M2 16C2 15.4477 2.44772 15 3 15C3.55228 15 4 15.4477 4 16C4 16.5523 3.55228 17 3 17C2.44772 17 2 16.5523 2 16Z" fill="currentColor"></path>
    <path d="M17 3C16.4477 3 16 3.44772 16 4C16 4.55228 16.4477 5 17 5C17.5523 5 18 4.55228 18 4C18 3.44772 17.5523 3 17 3Z" fill="currentColor"></path>
</svg>