<svg xmlns="http://www.w3.org/2000/svg" width="24" height="24" viewBox="0 0 24 24" fill="none" class="injected-svg" data-src="/assets/money-bag-24-67b2864a.svg" xmlns:xlink="http://www.w3.org/1999/xlink" role="img">
    <path d="M9.80878 17.9214L9.99987 17.9214L9.9999 16.1214L9.80881 16.1214C8.92225 16.1214 8.1349 15.5548 7.85331 14.7141L6.14652 15.2858C6.67388 16.8602 8.14843 17.9214 9.80878 17.9214Z" fill="currentColor"></path>
    <path fill-rule="evenodd" clip-rule="evenodd" d="M17.7813 6.21637C17.7987 6.89242 17.6516 7.60475 17.353 8.28816C17.8721 8.36909 18.3479 8.6639 18.6493 9.12317L18.665 9.14744L20.5182 12.0302C22.0542 14.4194 21.7171 17.5561 19.7088 19.5644C18.905 20.3682 17.9251 20.9738 16.8467 21.3333L16.169 21.5592C13.4631 22.4612 10.5376 22.4612 7.83168 21.5592L7.15401 21.3333C6.07562 20.9738 5.09573 20.3682 4.29195 19.5644C2.28357 17.5561 1.94656 14.4194 3.48247 12.0302L5.58577 8.75842L5.59196 8.74875C5.61402 8.71422 5.65547 8.64935 5.70475 8.58825C5.89251 8.35547 6.14966 8.18918 6.43828 8.11326C6.32338 7.67756 6.26978 7.24009 6.28068 6.81683C6.30604 5.83282 6.69143 4.84678 7.56663 4.25507C8.44183 3.66337 9.50047 3.67314 10.4231 4.01626C10.8737 4.18387 11.3104 4.43552 11.7131 4.75809C12.2711 4.14029 12.9381 3.67643 13.6389 3.4158C14.5615 3.07268 15.6202 3.06291 16.4954 3.65461C17.3706 4.24631 17.756 5.23236 17.7813 6.21637ZM12.7055 6.40359C13.1539 5.74039 13.7319 5.30168 14.2664 5.1029C14.8029 4.90338 15.2186 4.96418 15.4872 5.14579C15.7559 5.32741 15.9672 5.69055 15.9819 6.26273C15.9966 6.8328 15.8049 7.53266 15.3565 8.19586C15.2324 8.3794 15.0984 8.54575 14.9581 8.69458C14.0413 8.78231 13.1115 8.63994 12.2552 8.27296C12.1972 8.24812 12.139 8.22415 12.0804 8.20104C12.0969 7.65771 12.2921 7.01506 12.7055 6.40359ZM9.79562 5.70337C10.1016 5.81716 10.4218 6.00958 10.7239 6.27774C10.5051 6.7695 10.3649 7.27684 10.3081 7.77535C9.83375 7.7299 9.35387 7.73637 8.87701 7.79597L8.24509 7.87496C8.12451 7.51731 8.07215 7.1713 8.08008 6.8632C8.09483 6.29101 8.30615 5.92787 8.57478 5.74626C8.84341 5.56464 9.25914 5.50384 9.79562 5.70337ZM9.10028 9.58207C9.93176 9.47814 10.7759 9.59733 11.5461 9.92742C13.0945 10.591 14.8243 10.7007 16.4441 10.2379L17.0346 10.0691C17.0764 10.0578 17.1207 10.0746 17.1445 10.1108L19.0041 13.0036C20.0821 14.6805 19.8456 16.882 18.436 18.2917C17.8298 18.8978 17.0908 19.3546 16.2775 19.6257L15.5998 19.8516C13.2634 20.6304 10.7373 20.6304 8.40089 19.8516L7.72322 19.6257C6.90993 19.3546 6.17093 18.8978 5.56474 18.2917C4.15511 16.882 3.91858 14.6805 4.99659 13.0036L7.02975 9.84089L9.10028 9.58207Z" fill="currentColor"></path>
</svg>