<svg xmlns="http://www.w3.org/2000/svg" width="12" height="12" viewBox="0 0 12 12" fill="none" class="injected-svg" data-src="/assets/wallet-12-2bb1b06a.svg" xmlns:xlink="http://www.w3.org/1999/xlink" role="img">
    <g>
        <path fill-rule="evenodd" clip-rule="evenodd" d="M1.88971 2.22421L4.55207 0.772017C4.94988 0.55502 5.27833 0.37586 5.56082 0.249049C5.85585 0.116608 6.13804 0.023421 6.44815 0C6.82716 -0.0286239 7.20783 0.0261961 7.56335 0.160599C7.85426 0.270572 8.09869 0.439597 8.34436 0.649904C8.57958 0.851268 8.84413 1.11582 9.16455 1.43625L9.91993 2.19164C10.2483 2.23897 10.509 2.31772 10.7386 2.44872C11.1276 2.67055 11.4498 2.99275 11.6716 3.38165C12 3.95744 12 4.72839 12 6.2703V6.9703C12 8.51221 12 9.28316 11.6716 9.85895C11.4498 10.2479 11.1276 10.5701 10.7386 10.7919C10.1629 11.1203 9.39191 11.1203 7.85 11.1203H4.15C2.60809 11.1203 1.83714 11.1203 1.26135 10.7919C0.872447 10.5701 0.550249 10.2479 0.328421 9.85895C0 9.28316 0 8.51221 0 6.9703V6.2703C0 4.72839 0 3.95744 0.328421 3.38165C0.550249 2.99275 0.872447 2.67055 1.26135 2.44872C1.44479 2.34409 1.64804 2.2728 1.88971 2.22421ZM6.53852 1.19659C6.7426 1.18118 6.94758 1.2107 7.13902 1.28307C7.25074 1.3253 7.37474 1.39951 7.56398 1.5615C7.72294 1.69759 7.90576 1.87571 8.1514 2.1204C8.05432 2.1203 7.95391 2.1203 7.85 2.1203H4.58621L5.10649 1.83651C5.52954 1.60576 5.81723 1.44931 6.05226 1.3438C6.27952 1.24179 6.41943 1.20559 6.53852 1.19659ZM2.15278 3.39557C2.17723 3.39298 2.20165 3.38887 2.2259 3.38319C2.28982 3.37335 2.36405 3.36432 2.45064 3.35655C2.84201 3.32143 3.35719 3.3203 4.15 3.3203H7.85C8.64281 3.3203 9.15799 3.32143 9.54936 3.35655C9.92449 3.39022 10.0678 3.44756 10.1441 3.49108C10.3463 3.60643 10.5139 3.77397 10.6292 3.97621C10.6727 4.05251 10.7301 4.19581 10.7638 4.57094C10.795 4.91957 10.7993 5.36645 10.7999 6.0203H8.99999C8.66862 6.0203 8.39999 6.28893 8.39999 6.6203C8.39999 6.95167 8.66862 7.2203 8.99999 7.2203H10.7999C10.7993 7.87415 10.795 8.32103 10.7638 8.66966C10.7301 9.0448 10.6727 9.1881 10.6292 9.2644C10.5139 9.46663 10.3463 9.63417 10.1441 9.74952C10.0678 9.79305 9.92449 9.85039 9.54936 9.88405C9.15799 9.91918 8.64281 9.9203 7.85 9.9203H4.15C3.35719 9.9203 2.84201 9.91918 2.45064 9.88405C2.07551 9.85039 1.9322 9.79305 1.8559 9.74952C1.65367 9.63417 1.48613 9.46663 1.37078 9.2644C1.32726 9.1881 1.26991 9.0448 1.23625 8.66966C1.20113 8.27829 1.2 7.76311 1.2 6.9703V6.2703C1.2 5.47749 1.20113 4.96231 1.23625 4.57094C1.26991 4.19581 1.32726 4.05251 1.37078 3.97621C1.48613 3.77397 1.65367 3.60643 1.8559 3.49108C1.90742 3.4617 1.98947 3.42602 2.15278 3.39557Z" fill="currentColor"></path>
    </g>
</svg>