<svg xmlns="http://www.w3.org/2000/svg" width="20" height="20" viewBox="0 0 20 20" fill="none" class="injected-svg" data-src="/assets/warn-20-95e30eb3.svg" xmlns:xlink="http://www.w3.org/1999/xlink" role="img">
    <rect width="20" height="20" rx="10" fill="rgb(251 128 14)"></rect>
    <path d="M10.8887 10.9705C10.8682 11.5516 10.5674 11.8934 10 11.8934C9.43262 11.8934 9.13184 11.5516 9.11816 10.9705L9.00879 5.92126C9.00879 5.88518 9.00688 5.84529 9.00509 5.80762C9.00348 5.77392 9.00195 5.74201 9.00195 5.71619C9.00195 5.08728 9.3916 4.7113 10.0068 4.7113C10.6152 4.7113 10.998 5.08728 10.998 5.71619C10.998 5.77087 10.998 5.85291 10.9912 5.92126L10.8887 10.9705Z" fill="white"></path>
    <path d="M10 15.2679C10.6376 15.2679 11.1545 14.751 11.1545 14.1134C11.1545 13.4758 10.6376 12.959 10 12.959C9.36244 12.959 8.84558 13.4758 8.84558 14.1134C8.84558 14.751 9.36244 15.2679 10 15.2679Z" fill="white"></path>
</svg>