<svg width="84" height="84" viewBox="0 0 84 84" xmlns="http://www.w3.org/2000/svg">
<circle cx="42" cy="42" r="42" fill="#28A0F0"/>
<path d="M48.7143 39.3244L53.4144 31.349L66.0832 51.0808L66.0891 54.8676L66.0478 28.8098C66.0178 28.1726 65.6796 27.5897 65.14 27.246L42.3315 14.1266C41.7983 13.8644 41.1213 13.8675 40.5889 14.1349C40.5168 14.1711 40.4495 14.2101 40.3849 14.2531L40.3054 14.3031L18.1659 27.1325L18.08 27.1719C17.9694 27.2223 17.8579 27.2873 17.7528 27.3621C17.333 27.663 17.0542 28.1084 16.964 28.6073C16.9506 28.683 16.9404 28.7601 16.936 28.8381L16.9707 50.0726L28.7711 31.783C30.2566 29.3579 33.4937 28.5762 36.4988 28.6192L40.0254 28.7121L19.2453 62.0373L21.6948 63.4475L42.7237 28.746L52.0188 28.7121L31.0442 64.2895L39.7847 69.3172L40.8291 69.9174C41.271 70.0969 41.7916 70.106 42.237 69.9449L65.3661 56.5413L60.944 59.1038L48.7143 39.3244ZM50.5073 65.1523L41.6793 51.2962L47.0686 42.1512L58.6627 60.4258L50.5073 65.1523Z" fill="#2D374B"/>
<path d="M41.6768 51.2967L50.5051 65.1524L58.6601 60.4263L47.066 42.1516L41.6768 51.2967Z" fill="#28A0F0"/>
<path d="M66.0877 54.868L66.0818 51.0812L53.413 31.3495L48.7129 39.3249L60.943 59.1042L65.365 56.5417C65.7986 56.1897 66.0613 55.6726 66.0888 55.115L66.0877 54.868Z" fill="#28A0F0"/>
<path d="M13 58.4391L19.2446 62.0373L40.0246 28.7121L36.4981 28.6192C33.4933 28.5767 30.2562 29.358 28.7704 31.783L16.97 50.0726L13 56.1723V58.4391V58.4391Z" fill="white"/>
<path d="M52.0178 28.7122L42.7228 28.746L21.6938 63.4475L29.0443 67.6794L31.0428 64.2895L52.0178 28.7122Z" fill="white"/>
<path d="M70.0052 28.6641C69.9276 26.7203 68.8749 24.9411 67.2265 23.9049L44.119 10.6163C42.4883 9.79522 40.4511 9.79404 38.8172 10.6159C38.6242 10.7132 16.3458 23.634 16.3458 23.634C16.0374 23.7817 15.7405 23.9577 15.4613 24.1578C13.9896 25.2128 13.0925 26.8518 13 28.6523V56.1727L16.97 50.073L16.9353 28.8382C16.94 28.7606 16.9499 28.6838 16.9633 28.6086C17.0531 28.1088 17.3323 27.6634 17.7521 27.3622C17.8572 27.2874 40.5157 14.1712 40.5878 14.135C41.1206 13.8676 41.7971 13.8644 42.3304 14.1267L65.1389 27.246C65.6784 27.5898 66.0167 28.1726 66.0466 28.8098V55.1142C66.019 55.6718 65.7985 56.1889 65.3649 56.5409L60.9429 59.1034L58.6611 60.4258L50.5062 65.1519L42.2358 69.9446C41.7904 70.1056 41.2694 70.0966 40.828 69.917L31.0431 64.2891L29.0441 67.679L37.8378 72.7418C38.1284 72.9072 38.3876 73.0537 38.6002 73.1734C38.9294 73.3581 39.1539 73.4814 39.2331 73.5199C39.858 73.8236 40.7571 74 41.5676 74C42.3103 74 43.0349 73.8637 43.7205 73.5952L67.7423 59.6839C69.1211 58.6155 69.9323 57.0045 70.0052 55.2595V28.6641Z" fill="#96BEDC"/>
</svg>
