<?xml version="1.0" encoding="UTF-8" standalone="no"?>
<!DOCTYPE svg PUBLIC "-//W3C//DTD SVG 1.1//EN" "http://www.w3.org/Graphics/SVG/1.1/DTD/svg11.dtd">
<svg xmlns="http://www.w3.org/2000/svg" version="1.1" viewBox="0.00 0.00 200.00 200.00">
<path stroke="#80a9ff" stroke-width="2.00" fill="none" stroke-linecap="butt" vector-effect="non-scaling-stroke" d="
  M 133.92 94.59
  L 133.92 105.36
  A 0.45 0.45 0.0 0 1 133.47 105.81
  L 30.54 105.81
  Q 30.07 105.81 30.09 106.28
  Q 30.53 115.97 33.87 124.42
  Q 45.23 153.15 72.60 164.71
  Q 82.15 168.75 91.85 169.79
  Q 108.79 171.62 124.12 165.87
  Q 148.63 156.68 161.51 133.43
  C 171.08 116.14 172.54 94.00 165.81 76.20
  Q 156.15 50.64 133.25 38.25
  Q 123.58 33.02 114.63 31.37
  Q 97.44 28.18 82.95 31.83
  Q 56.85 38.41 41.29 61.11
  C 35.08 70.17 30.63 82.12 30.05 93.48
  Q 30.02 94.00 30.54 94.00
  L 133.34 94.00
  A 0.59 0.58 90.0 0 1 133.92 94.59"
/>
<path fill="#0052ff" d="
  M 199.71 100.00
  A 99.71 99.71 0.0 0 1 100.00 199.71
  A 99.71 99.71 0.0 0 1 0.29 100.00
  A 99.71 99.71 0.0 0 1 100.00 0.29
  A 99.71 99.71 0.0 0 1 199.71 100.00
  Z
  M 133.92 94.59
  L 133.92 105.36
  A 0.45 0.45 0.0 0 1 133.47 105.81
  L 30.54 105.81
  Q 30.07 105.81 30.09 106.28
  Q 30.53 115.97 33.87 124.42
  Q 45.23 153.15 72.60 164.71
  Q 82.15 168.75 91.85 169.79
  Q 108.79 171.62 124.12 165.87
  Q 148.63 156.68 161.51 133.43
  C 171.08 116.14 172.54 94.00 165.81 76.20
  Q 156.15 50.64 133.25 38.25
  Q 123.58 33.02 114.63 31.37
  Q 97.44 28.18 82.95 31.83
  Q 56.85 38.41 41.29 61.11
  C 35.08 70.17 30.63 82.12 30.05 93.48
  Q 30.02 94.00 30.54 94.00
  L 133.34 94.00
  A 0.59 0.58 90.0 0 1 133.92 94.59
  Z"
/>
<path fill="#ffffff" d="
  M 133.92 94.59
  A 0.59 0.58 90.0 0 0 133.34 94.00
  L 30.54 94.00
  Q 30.02 94.00 30.05 93.48
  C 30.63 82.12 35.08 70.17 41.29 61.11
  Q 56.85 38.41 82.95 31.83
  Q 97.44 28.18 114.63 31.37
  Q 123.58 33.02 133.25 38.25
  Q 156.15 50.64 165.81 76.20
  C 172.54 94.00 171.08 116.14 161.51 133.43
  Q 148.63 156.68 124.12 165.87
  Q 108.79 171.62 91.85 169.79
  Q 82.15 168.75 72.60 164.71
  Q 45.23 153.15 33.87 124.42
  Q 30.53 115.97 30.09 106.28
  Q 30.07 105.81 30.54 105.81
  L 133.47 105.81
  A 0.45 0.45 0.0 0 0 133.92 105.36
  L 133.92 94.59
  Z"
/>
</svg>
